G04 #@! TF.GenerationSoftware,KiCad,Pcbnew,7.0.1*
G04 #@! TF.CreationDate,2023-04-11T23:39:33+02:00*
G04 #@! TF.ProjectId,Usb Fume Extractor,55736220-4675-46d6-9520-457874726163,1.1*
G04 #@! TF.SameCoordinates,Original*
G04 #@! TF.FileFunction,Copper,L2,Bot*
G04 #@! TF.FilePolarity,Positive*
%FSLAX46Y46*%
G04 Gerber Fmt 4.6, Leading zero omitted, Abs format (unit mm)*
G04 Created by KiCad (PCBNEW 7.0.1) date 2023-04-11 23:39:33*
%MOMM*%
%LPD*%
G01*
G04 APERTURE LIST*
G04 Aperture macros list*
%AMRoundRect*
0 Rectangle with rounded corners*
0 $1 Rounding radius*
0 $2 $3 $4 $5 $6 $7 $8 $9 X,Y pos of 4 corners*
0 Add a 4 corners polygon primitive as box body*
4,1,4,$2,$3,$4,$5,$6,$7,$8,$9,$2,$3,0*
0 Add four circle primitives for the rounded corners*
1,1,$1+$1,$2,$3*
1,1,$1+$1,$4,$5*
1,1,$1+$1,$6,$7*
1,1,$1+$1,$8,$9*
0 Add four rect primitives between the rounded corners*
20,1,$1+$1,$2,$3,$4,$5,0*
20,1,$1+$1,$4,$5,$6,$7,0*
20,1,$1+$1,$6,$7,$8,$9,0*
20,1,$1+$1,$8,$9,$2,$3,0*%
G04 Aperture macros list end*
G04 #@! TA.AperFunction,ComponentPad*
%ADD10C,1.600000*%
G04 #@! TD*
G04 #@! TA.AperFunction,ComponentPad*
%ADD11O,1.600000X1.600000*%
G04 #@! TD*
G04 #@! TA.AperFunction,ComponentPad*
%ADD12R,1.700000X1.700000*%
G04 #@! TD*
G04 #@! TA.AperFunction,ComponentPad*
%ADD13C,1.700000*%
G04 #@! TD*
G04 #@! TA.AperFunction,ComponentPad*
%ADD14C,3.500000*%
G04 #@! TD*
G04 #@! TA.AperFunction,ComponentPad*
%ADD15R,2.400000X1.600000*%
G04 #@! TD*
G04 #@! TA.AperFunction,ComponentPad*
%ADD16O,2.400000X1.600000*%
G04 #@! TD*
G04 #@! TA.AperFunction,ComponentPad*
%ADD17RoundRect,0.250000X0.620000X0.845000X-0.620000X0.845000X-0.620000X-0.845000X0.620000X-0.845000X0*%
G04 #@! TD*
G04 #@! TA.AperFunction,ComponentPad*
%ADD18O,1.740000X2.190000*%
G04 #@! TD*
G04 #@! TA.AperFunction,ComponentPad*
%ADD19R,1.600000X1.600000*%
G04 #@! TD*
G04 #@! TA.AperFunction,ComponentPad*
%ADD20C,2.150000*%
G04 #@! TD*
G04 #@! TA.AperFunction,ComponentPad*
%ADD21R,1.800000X1.800000*%
G04 #@! TD*
G04 #@! TA.AperFunction,ComponentPad*
%ADD22C,1.800000*%
G04 #@! TD*
G04 #@! TA.AperFunction,ComponentPad*
%ADD23RoundRect,0.750000X-1.250000X-0.750000X1.250000X-0.750000X1.250000X0.750000X-1.250000X0.750000X0*%
G04 #@! TD*
G04 #@! TA.AperFunction,ComponentPad*
%ADD24C,3.200000*%
G04 #@! TD*
G04 #@! TA.AperFunction,ViaPad*
%ADD25C,0.500000*%
G04 #@! TD*
G04 #@! TA.AperFunction,Conductor*
%ADD26C,1.000000*%
G04 #@! TD*
G04 #@! TA.AperFunction,Conductor*
%ADD27C,0.750000*%
G04 #@! TD*
G04 APERTURE END LIST*
D10*
X134925000Y-80600000D03*
D11*
X145085000Y-80600000D03*
D10*
X134925000Y-75800000D03*
D11*
X145085000Y-75800000D03*
D12*
X85577500Y-72050000D03*
D13*
X85577500Y-69550000D03*
X83577500Y-69550000D03*
X83577500Y-72050000D03*
D14*
X80867500Y-76820000D03*
X80867500Y-64780000D03*
D15*
X124185000Y-71160000D03*
D16*
X124185000Y-73700000D03*
X124185000Y-76240000D03*
X124185000Y-78780000D03*
X124185000Y-81320000D03*
X124185000Y-83860000D03*
X124185000Y-86400000D03*
X131805000Y-86400000D03*
X131805000Y-83860000D03*
X131805000Y-81320000D03*
X131805000Y-78780000D03*
X131805000Y-76240000D03*
X131805000Y-73700000D03*
X131805000Y-71160000D03*
D17*
X108080000Y-63650000D03*
D18*
X105540000Y-63650000D03*
X103000000Y-63650000D03*
X100460000Y-63650000D03*
D19*
X82890000Y-88200000D03*
D10*
X84890000Y-88200000D03*
X86890000Y-88200000D03*
X88890000Y-88200000D03*
D20*
X82160000Y-85480000D03*
X82160000Y-90920000D03*
X89160000Y-85480000D03*
X89160000Y-90920000D03*
D10*
X145505000Y-71500000D03*
X145505000Y-66500000D03*
X97300000Y-69300000D03*
D11*
X110000000Y-69300000D03*
D21*
X138950000Y-88800000D03*
D22*
X138950000Y-91300000D03*
X138950000Y-93800000D03*
D23*
X145950000Y-86900000D03*
X145950000Y-95700000D03*
D10*
X118880000Y-83085000D03*
X118880000Y-78085000D03*
D19*
X136505000Y-64900000D03*
D10*
X138505000Y-64900000D03*
D24*
X91400000Y-81400000D03*
X91400000Y-76700000D03*
X91400000Y-72000000D03*
D10*
X118905000Y-64340000D03*
D11*
X118905000Y-74500000D03*
D10*
X117000000Y-93300000D03*
X122000000Y-93300000D03*
X135080000Y-93300000D03*
D11*
X124920000Y-93300000D03*
D10*
X132565000Y-64900000D03*
D11*
X122405000Y-64900000D03*
D10*
X135305000Y-70985000D03*
X140305000Y-70985000D03*
D25*
X101550000Y-84650000D03*
X100310000Y-78800000D03*
X101100000Y-78800000D03*
X106750000Y-83300000D03*
X108250000Y-83300000D03*
X101550000Y-83950000D03*
X101900000Y-78800000D03*
X107500000Y-83300000D03*
X101550000Y-85350000D03*
X100900000Y-82050000D03*
X100900000Y-82750000D03*
X106000000Y-83300000D03*
X102700000Y-78800000D03*
X101550000Y-86050000D03*
D26*
X121305000Y-74900000D02*
X120905000Y-74500000D01*
X118805000Y-89300000D02*
X118805000Y-91495000D01*
X121305000Y-84600000D02*
X121305000Y-74900000D01*
X124185000Y-83860000D02*
X122045000Y-83860000D01*
X120905000Y-74500000D02*
X118905000Y-74500000D01*
X121305000Y-84600000D02*
X121305000Y-86800000D01*
X121305000Y-86800000D02*
X118805000Y-89300000D01*
X122045000Y-83860000D02*
X121305000Y-84600000D01*
X118805000Y-91495000D02*
X117000000Y-93300000D01*
X129040000Y-83860000D02*
X128680000Y-83500000D01*
X128030000Y-78700000D02*
X128030000Y-68575000D01*
X131805000Y-83860000D02*
X129040000Y-83860000D01*
X128680000Y-83500000D02*
X128680000Y-79350000D01*
X128680000Y-79350000D02*
X128030000Y-78700000D01*
X112480000Y-68050000D02*
X108080000Y-63650000D01*
X127505000Y-68050000D02*
X112480000Y-68050000D01*
X128030000Y-68575000D02*
X127505000Y-68050000D01*
X137100000Y-90722792D02*
X137677208Y-91300000D01*
X137677208Y-91300000D02*
X138950000Y-91300000D01*
X136580000Y-78780000D02*
X137100000Y-79300000D01*
X131805000Y-78780000D02*
X136580000Y-78780000D01*
X137100000Y-79300000D02*
X137100000Y-90722792D01*
D27*
X126855000Y-86400000D02*
X131805000Y-86400000D01*
X126630000Y-81675000D02*
X126630000Y-86175000D01*
X124185000Y-81320000D02*
X126275000Y-81320000D01*
X126275000Y-81320000D02*
X126630000Y-81675000D01*
X126630000Y-86175000D02*
X126855000Y-86400000D01*
G04 #@! TA.AperFunction,Conductor*
G36*
X154737500Y-60217113D02*
G01*
X154782887Y-60262500D01*
X154799500Y-60324500D01*
X154799500Y-99675500D01*
X154782887Y-99737500D01*
X154737500Y-99782887D01*
X154675500Y-99799500D01*
X70324500Y-99799500D01*
X70262500Y-99782887D01*
X70217113Y-99737500D01*
X70200500Y-99675500D01*
X70200500Y-96334929D01*
X71999500Y-96334929D01*
X72039719Y-96601771D01*
X72094726Y-96780098D01*
X72119262Y-96859641D01*
X72173643Y-96972564D01*
X72236347Y-97102771D01*
X72236348Y-97102772D01*
X72236349Y-97102774D01*
X72388365Y-97325741D01*
X72571915Y-97523561D01*
X72782898Y-97691815D01*
X73016602Y-97826743D01*
X73267805Y-97925334D01*
X73530897Y-97985383D01*
X73588533Y-97989702D01*
X73732619Y-98000500D01*
X73732624Y-98000500D01*
X73867376Y-98000500D01*
X73867381Y-98000500D01*
X73993455Y-97991051D01*
X74069103Y-97985383D01*
X74332195Y-97925334D01*
X74583398Y-97826743D01*
X74817102Y-97691815D01*
X75028085Y-97523561D01*
X75211635Y-97325741D01*
X75363651Y-97102775D01*
X75480738Y-96859641D01*
X75560280Y-96601772D01*
X75573477Y-96514214D01*
X143449500Y-96514214D01*
X143459904Y-96646416D01*
X143514902Y-96864681D01*
X143607992Y-97069625D01*
X143736180Y-97254654D01*
X143895345Y-97413819D01*
X144080374Y-97542007D01*
X144285318Y-97635097D01*
X144503583Y-97690095D01*
X144503584Y-97690095D01*
X144503588Y-97690096D01*
X144635783Y-97700500D01*
X147264216Y-97700499D01*
X147396412Y-97690096D01*
X147396416Y-97690095D01*
X147614681Y-97635097D01*
X147649063Y-97619479D01*
X147819626Y-97542007D01*
X148004654Y-97413819D01*
X148163819Y-97254654D01*
X148292007Y-97069626D01*
X148385096Y-96864683D01*
X148386367Y-96859641D01*
X148440095Y-96646416D01*
X148440095Y-96646415D01*
X148440096Y-96646412D01*
X148450500Y-96514217D01*
X148450499Y-94885784D01*
X148440096Y-94753588D01*
X148440095Y-94753583D01*
X148385097Y-94535318D01*
X148292007Y-94330374D01*
X148163819Y-94145345D01*
X148004654Y-93986180D01*
X147819625Y-93857992D01*
X147614681Y-93764902D01*
X147396416Y-93709904D01*
X147330314Y-93704701D01*
X147264217Y-93699500D01*
X147264213Y-93699500D01*
X144635785Y-93699500D01*
X144503583Y-93709904D01*
X144285318Y-93764902D01*
X144080374Y-93857992D01*
X143895345Y-93986180D01*
X143736180Y-94145345D01*
X143607992Y-94330374D01*
X143514902Y-94535318D01*
X143459904Y-94753583D01*
X143456251Y-94800000D01*
X143450236Y-94876439D01*
X143449500Y-94885786D01*
X143449500Y-96514214D01*
X75573477Y-96514214D01*
X75600500Y-96334929D01*
X75600500Y-96065071D01*
X75560280Y-95798228D01*
X75480738Y-95540359D01*
X75363651Y-95297226D01*
X75211635Y-95074259D01*
X75028085Y-94876439D01*
X74817102Y-94708185D01*
X74583398Y-94573257D01*
X74332195Y-94474666D01*
X74306709Y-94468849D01*
X74069100Y-94414616D01*
X73867381Y-94399500D01*
X73867376Y-94399500D01*
X73732624Y-94399500D01*
X73732619Y-94399500D01*
X73530899Y-94414616D01*
X73267804Y-94474666D01*
X73016601Y-94573257D01*
X72782899Y-94708184D01*
X72571914Y-94876439D01*
X72388366Y-95074256D01*
X72236348Y-95297227D01*
X72119262Y-95540359D01*
X72039719Y-95798228D01*
X71999500Y-96065071D01*
X71999500Y-96334929D01*
X70200500Y-96334929D01*
X70200500Y-92398042D01*
X81176930Y-92398042D01*
X81270009Y-92461503D01*
X81509703Y-92576934D01*
X81763916Y-92655348D01*
X82026981Y-92695000D01*
X82293019Y-92695000D01*
X82556083Y-92655348D01*
X82810297Y-92576934D01*
X83049986Y-92461505D01*
X83143069Y-92398043D01*
X83143068Y-92398042D01*
X88176930Y-92398042D01*
X88270009Y-92461503D01*
X88509703Y-92576934D01*
X88763916Y-92655348D01*
X89026981Y-92695000D01*
X89293019Y-92695000D01*
X89556083Y-92655348D01*
X89810297Y-92576934D01*
X90049986Y-92461505D01*
X90143069Y-92398043D01*
X89160000Y-91414975D01*
X88176930Y-92398042D01*
X83143068Y-92398042D01*
X82160000Y-91414975D01*
X81176930Y-92398042D01*
X70200500Y-92398042D01*
X70200500Y-90920000D01*
X80380022Y-90920000D01*
X80399903Y-91185290D01*
X80459102Y-91444659D01*
X80556295Y-91692300D01*
X80679436Y-91905587D01*
X80679437Y-91905588D01*
X81665025Y-90920001D01*
X81665025Y-90920000D01*
X82654975Y-90920000D01*
X83640562Y-91905588D01*
X83640563Y-91905588D01*
X83763704Y-91692301D01*
X83860897Y-91444659D01*
X83920096Y-91185290D01*
X83939977Y-90920000D01*
X87380022Y-90920000D01*
X87399903Y-91185290D01*
X87459102Y-91444659D01*
X87556295Y-91692300D01*
X87679436Y-91905587D01*
X87679437Y-91905588D01*
X88665025Y-90920001D01*
X89654975Y-90920001D01*
X90640562Y-91905588D01*
X90640563Y-91905588D01*
X90763704Y-91692301D01*
X90860897Y-91444659D01*
X90920096Y-91185290D01*
X90939977Y-90920000D01*
X90920096Y-90654709D01*
X90860897Y-90395340D01*
X90763704Y-90147698D01*
X90640562Y-89934410D01*
X89654975Y-90920000D01*
X89654975Y-90920001D01*
X88665025Y-90920001D01*
X88665025Y-90920000D01*
X87679436Y-89934411D01*
X87556295Y-90147699D01*
X87459102Y-90395340D01*
X87399903Y-90654709D01*
X87380022Y-90920000D01*
X83939977Y-90920000D01*
X83920096Y-90654709D01*
X83860897Y-90395340D01*
X83763704Y-90147698D01*
X83640562Y-89934410D01*
X82654975Y-90920000D01*
X81665025Y-90920000D01*
X80679436Y-89934411D01*
X80556295Y-90147699D01*
X80459102Y-90395340D01*
X80399903Y-90654709D01*
X80380022Y-90920000D01*
X70200500Y-90920000D01*
X70200500Y-89441956D01*
X81176930Y-89441956D01*
X82160000Y-90425025D01*
X82160001Y-90425025D01*
X83048206Y-89536818D01*
X83088434Y-89509938D01*
X83135885Y-89500499D01*
X83737872Y-89500499D01*
X83797483Y-89494091D01*
X83932331Y-89443796D01*
X84047546Y-89357546D01*
X84054052Y-89348854D01*
X84103304Y-89309699D01*
X84165433Y-89299757D01*
X84224444Y-89321590D01*
X84237264Y-89330567D01*
X84237265Y-89330567D01*
X84237266Y-89330568D01*
X84443504Y-89426739D01*
X84663308Y-89485635D01*
X84890000Y-89505468D01*
X85116692Y-89485635D01*
X85336496Y-89426739D01*
X85542734Y-89330568D01*
X85729139Y-89200047D01*
X85802319Y-89126866D01*
X85857904Y-89094773D01*
X85922092Y-89094773D01*
X85977680Y-89126867D01*
X86050859Y-89200046D01*
X86237264Y-89330567D01*
X86237265Y-89330567D01*
X86237266Y-89330568D01*
X86443504Y-89426739D01*
X86663308Y-89485635D01*
X86890000Y-89505468D01*
X87116692Y-89485635D01*
X87336496Y-89426739D01*
X87340225Y-89425000D01*
X88159975Y-89425000D01*
X89160000Y-90425025D01*
X89160001Y-90425025D01*
X90143068Y-89441955D01*
X90042312Y-89373261D01*
X90043913Y-89370911D01*
X90013512Y-89346254D01*
X89989989Y-89293955D01*
X89992514Y-89236664D01*
X90020545Y-89186636D01*
X90077766Y-89124477D01*
X90213733Y-88916365D01*
X90313586Y-88688721D01*
X90374613Y-88447732D01*
X90395141Y-88200000D01*
X90374613Y-87952267D01*
X90313586Y-87711278D01*
X90213733Y-87483634D01*
X90077766Y-87275522D01*
X90020544Y-87213362D01*
X89992496Y-87163272D01*
X89990014Y-87105917D01*
X90013631Y-87053591D01*
X90043927Y-87029109D01*
X90042311Y-87026739D01*
X90143069Y-86958043D01*
X89160000Y-85974975D01*
X88159975Y-86975000D01*
X89297294Y-88112319D01*
X89329388Y-88167906D01*
X89329388Y-88232094D01*
X89297294Y-88287681D01*
X88159975Y-89425000D01*
X87340225Y-89425000D01*
X87542734Y-89330568D01*
X87729139Y-89200047D01*
X87890047Y-89039139D01*
X88020568Y-88852734D01*
X88116739Y-88646496D01*
X88169709Y-88448806D01*
X88201802Y-88393220D01*
X88395025Y-88200000D01*
X88201802Y-88006777D01*
X88169708Y-87951189D01*
X88151869Y-87884613D01*
X88116739Y-87753504D01*
X88020568Y-87547266D01*
X88008875Y-87530567D01*
X87890046Y-87360859D01*
X87729140Y-87199953D01*
X87542735Y-87069432D01*
X87336497Y-86973261D01*
X87116689Y-86914364D01*
X86890000Y-86894531D01*
X86663310Y-86914364D01*
X86443502Y-86973261D01*
X86237264Y-87069432D01*
X86050859Y-87199953D01*
X85977681Y-87273132D01*
X85922094Y-87305226D01*
X85857906Y-87305226D01*
X85802319Y-87273132D01*
X85729140Y-87199953D01*
X85542735Y-87069432D01*
X85336497Y-86973261D01*
X85116689Y-86914364D01*
X84890000Y-86894531D01*
X84663310Y-86914364D01*
X84443502Y-86973261D01*
X84237266Y-87069432D01*
X84224441Y-87078412D01*
X84165432Y-87100242D01*
X84103304Y-87090301D01*
X84054054Y-87051146D01*
X84047548Y-87042456D01*
X84047546Y-87042455D01*
X84047546Y-87042454D01*
X83932331Y-86956204D01*
X83797483Y-86905909D01*
X83737873Y-86899500D01*
X83737869Y-86899500D01*
X83135887Y-86899500D01*
X83088434Y-86890061D01*
X83048206Y-86863181D01*
X82160000Y-85974975D01*
X81176930Y-86958042D01*
X81270009Y-87021503D01*
X81509699Y-87136932D01*
X81513503Y-87138106D01*
X81517615Y-87140745D01*
X81518074Y-87140966D01*
X81518046Y-87141022D01*
X81569459Y-87174016D01*
X81598822Y-87233669D01*
X81595130Y-87276769D01*
X81597574Y-87277032D01*
X81595909Y-87292516D01*
X81595909Y-87292517D01*
X81592262Y-87326443D01*
X81589500Y-87352131D01*
X81589500Y-89047869D01*
X81597574Y-89122969D01*
X81595129Y-89123231D01*
X81598826Y-89166311D01*
X81569470Y-89225970D01*
X81518046Y-89258979D01*
X81518073Y-89259034D01*
X81517628Y-89259247D01*
X81513516Y-89261888D01*
X81509705Y-89263063D01*
X81270011Y-89378495D01*
X81176930Y-89441956D01*
X70200500Y-89441956D01*
X70200500Y-85480000D01*
X80380022Y-85480000D01*
X80399903Y-85745290D01*
X80459102Y-86004659D01*
X80556295Y-86252300D01*
X80679436Y-86465587D01*
X80679437Y-86465588D01*
X81665025Y-85480001D01*
X81665025Y-85480000D01*
X82654975Y-85480000D01*
X83640562Y-86465588D01*
X83640563Y-86465588D01*
X83763704Y-86252301D01*
X83860897Y-86004659D01*
X83920096Y-85745290D01*
X83939977Y-85480000D01*
X87380022Y-85480000D01*
X87399903Y-85745290D01*
X87459102Y-86004659D01*
X87556295Y-86252300D01*
X87679436Y-86465587D01*
X87679437Y-86465588D01*
X88665025Y-85480001D01*
X89654975Y-85480001D01*
X90640562Y-86465588D01*
X90640563Y-86465588D01*
X90763704Y-86252301D01*
X90860897Y-86004659D01*
X90920096Y-85745290D01*
X90939977Y-85480000D01*
X90920096Y-85214709D01*
X90860897Y-84955340D01*
X90763704Y-84707698D01*
X90640562Y-84494410D01*
X89654975Y-85480000D01*
X89654975Y-85480001D01*
X88665025Y-85480001D01*
X88665025Y-85480000D01*
X87679436Y-84494411D01*
X87556295Y-84707699D01*
X87459102Y-84955340D01*
X87399903Y-85214709D01*
X87380022Y-85480000D01*
X83939977Y-85480000D01*
X83920096Y-85214709D01*
X83860897Y-84955340D01*
X83763704Y-84707698D01*
X83640562Y-84494410D01*
X82654975Y-85480000D01*
X81665025Y-85480000D01*
X80679436Y-84494411D01*
X80556295Y-84707699D01*
X80459102Y-84955340D01*
X80399903Y-85214709D01*
X80380022Y-85480000D01*
X70200500Y-85480000D01*
X70200500Y-84001956D01*
X81176930Y-84001956D01*
X82160000Y-84985025D01*
X82160001Y-84985025D01*
X83143067Y-84001956D01*
X88176930Y-84001956D01*
X89160000Y-84985025D01*
X89160001Y-84985025D01*
X90143068Y-84001955D01*
X90049990Y-83938495D01*
X89810297Y-83823065D01*
X89556083Y-83744651D01*
X89293019Y-83705000D01*
X89026981Y-83705000D01*
X88763916Y-83744651D01*
X88509703Y-83823065D01*
X88270011Y-83938495D01*
X88176930Y-84001956D01*
X83143067Y-84001956D01*
X83143068Y-84001955D01*
X83049990Y-83938495D01*
X82810297Y-83823065D01*
X82556083Y-83744651D01*
X82293019Y-83705000D01*
X82026981Y-83705000D01*
X81763916Y-83744651D01*
X81509703Y-83823065D01*
X81270011Y-83938495D01*
X81176930Y-84001956D01*
X70200500Y-84001956D01*
X70200500Y-81399999D01*
X89294591Y-81399999D01*
X89314202Y-81686690D01*
X89372665Y-81968031D01*
X89468894Y-82238793D01*
X89601100Y-82493939D01*
X89766806Y-82728692D01*
X89766809Y-82728695D01*
X89766811Y-82728698D01*
X89888972Y-82859500D01*
X89962950Y-82938711D01*
X90063924Y-83020859D01*
X90185853Y-83120055D01*
X90431375Y-83269361D01*
X90694942Y-83383844D01*
X90971642Y-83461371D01*
X91256322Y-83500500D01*
X91543678Y-83500500D01*
X91828358Y-83461371D01*
X92105058Y-83383844D01*
X92368625Y-83269361D01*
X92614147Y-83120055D01*
X92837053Y-82938708D01*
X93033189Y-82728698D01*
X93198901Y-82493936D01*
X93331104Y-82238797D01*
X93427334Y-81968032D01*
X93485798Y-81686686D01*
X93505408Y-81400000D01*
X93485798Y-81113314D01*
X93460478Y-80991469D01*
X93427334Y-80831968D01*
X93337031Y-80577881D01*
X93331104Y-80561203D01*
X93198901Y-80306064D01*
X93198899Y-80306060D01*
X93033193Y-80071307D01*
X93033191Y-80071304D01*
X93033189Y-80071302D01*
X92837053Y-79861292D01*
X92837051Y-79861291D01*
X92837049Y-79861288D01*
X92614148Y-79679946D01*
X92614147Y-79679945D01*
X92368625Y-79530639D01*
X92368626Y-79530639D01*
X92368622Y-79530637D01*
X92105060Y-79416157D01*
X92105058Y-79416156D01*
X91924168Y-79365473D01*
X118094500Y-79365473D01*
X118275396Y-79463369D01*
X118510506Y-79544083D01*
X118755707Y-79585000D01*
X119004293Y-79585000D01*
X119249493Y-79544083D01*
X119484603Y-79463369D01*
X119665498Y-79365473D01*
X118880000Y-78579975D01*
X118094500Y-79365473D01*
X91924168Y-79365473D01*
X91902001Y-79359262D01*
X91828355Y-79338628D01*
X91543678Y-79299500D01*
X91256322Y-79299500D01*
X90971644Y-79338628D01*
X90809245Y-79384130D01*
X90694942Y-79416156D01*
X90694940Y-79416156D01*
X90694939Y-79416157D01*
X90431377Y-79530637D01*
X90185851Y-79679946D01*
X89962950Y-79861288D01*
X89766806Y-80071307D01*
X89601100Y-80306060D01*
X89468894Y-80561206D01*
X89372665Y-80831968D01*
X89314202Y-81113309D01*
X89294591Y-81399999D01*
X70200500Y-81399999D01*
X70200500Y-78782294D01*
X79400177Y-78782294D01*
X79400178Y-78782295D01*
X79552128Y-78892693D01*
X79822276Y-79041208D01*
X80108911Y-79154695D01*
X80407508Y-79231361D01*
X80713357Y-79270000D01*
X81021643Y-79270000D01*
X81327491Y-79231361D01*
X81626088Y-79154695D01*
X81912723Y-79041208D01*
X82182871Y-78892693D01*
X82334820Y-78782296D01*
X82334821Y-78782294D01*
X80867500Y-77314974D01*
X79400177Y-78782294D01*
X70200500Y-78782294D01*
X70200500Y-76820000D01*
X78412655Y-76820000D01*
X78432012Y-77127669D01*
X78489779Y-77430495D01*
X78585043Y-77723685D01*
X78716306Y-78002633D01*
X78881488Y-78262921D01*
X78903271Y-78289252D01*
X80372524Y-76820000D01*
X81362474Y-76820000D01*
X82831726Y-78289253D01*
X82853509Y-78262922D01*
X83018693Y-78002633D01*
X83149956Y-77723685D01*
X83245220Y-77430495D01*
X83302987Y-77127669D01*
X83322344Y-76820000D01*
X83314794Y-76700000D01*
X89294591Y-76700000D01*
X89314202Y-76986690D01*
X89372665Y-77268031D01*
X89468894Y-77538793D01*
X89601100Y-77793939D01*
X89766806Y-78028692D01*
X89766809Y-78028695D01*
X89766811Y-78028698D01*
X89958754Y-78234218D01*
X89962950Y-78238711D01*
X90025074Y-78289252D01*
X90185853Y-78420055D01*
X90431375Y-78569361D01*
X90694942Y-78683844D01*
X90971642Y-78761371D01*
X91256322Y-78800500D01*
X91543678Y-78800500D01*
X91828358Y-78761371D01*
X92105058Y-78683844D01*
X92368625Y-78569361D01*
X92614147Y-78420055D01*
X92837053Y-78238708D01*
X92980607Y-78084999D01*
X117374858Y-78084999D01*
X117395386Y-78332732D01*
X117456413Y-78573721D01*
X117556267Y-78801367D01*
X117600679Y-78869344D01*
X118385025Y-78085001D01*
X118385025Y-78085000D01*
X117600679Y-77300654D01*
X117556267Y-77368631D01*
X117456413Y-77596278D01*
X117395386Y-77837267D01*
X117374858Y-78084999D01*
X92980607Y-78084999D01*
X93033189Y-78028698D01*
X93168315Y-77837267D01*
X93198899Y-77793939D01*
X93198901Y-77793936D01*
X93331104Y-77538797D01*
X93427334Y-77268032D01*
X93485798Y-76986686D01*
X93498258Y-76804525D01*
X118094500Y-76804525D01*
X118880000Y-77590025D01*
X118880001Y-77590025D01*
X119665498Y-76804525D01*
X119484603Y-76706630D01*
X119249493Y-76625916D01*
X119004293Y-76585000D01*
X118755707Y-76585000D01*
X118510506Y-76625916D01*
X118275393Y-76706631D01*
X118094500Y-76804524D01*
X118094500Y-76804525D01*
X93498258Y-76804525D01*
X93505408Y-76700000D01*
X93485798Y-76413314D01*
X93427334Y-76131968D01*
X93331104Y-75861203D01*
X93211598Y-75630568D01*
X93198899Y-75606060D01*
X93033193Y-75371307D01*
X93033191Y-75371304D01*
X93033189Y-75371302D01*
X92837053Y-75161292D01*
X92837051Y-75161291D01*
X92837049Y-75161288D01*
X92614148Y-74979946D01*
X92614147Y-74979945D01*
X92368625Y-74830639D01*
X92368626Y-74830639D01*
X92368622Y-74830637D01*
X92105060Y-74716157D01*
X92105058Y-74716156D01*
X91880670Y-74653286D01*
X91828355Y-74638628D01*
X91543678Y-74599500D01*
X91256322Y-74599500D01*
X90971644Y-74638628D01*
X90836695Y-74676439D01*
X90694942Y-74716156D01*
X90694940Y-74716156D01*
X90694939Y-74716157D01*
X90431377Y-74830637D01*
X90185851Y-74979946D01*
X89962950Y-75161288D01*
X89766806Y-75371307D01*
X89601100Y-75606060D01*
X89468894Y-75861206D01*
X89372665Y-76131968D01*
X89314202Y-76413309D01*
X89294591Y-76700000D01*
X83314794Y-76700000D01*
X83302987Y-76512330D01*
X83245220Y-76209504D01*
X83149956Y-75916314D01*
X83018693Y-75637366D01*
X82853510Y-75377078D01*
X82831726Y-75350746D01*
X81362474Y-76820000D01*
X80372524Y-76820000D01*
X80372525Y-76819999D01*
X78903272Y-75350745D01*
X78903271Y-75350745D01*
X78881490Y-75377075D01*
X78716306Y-75637366D01*
X78585043Y-75916314D01*
X78489779Y-76209504D01*
X78432012Y-76512330D01*
X78412655Y-76820000D01*
X70200500Y-76820000D01*
X70200500Y-74857704D01*
X79400178Y-74857704D01*
X80867500Y-76325025D01*
X82334820Y-74857705D01*
X82334820Y-74857703D01*
X82182871Y-74747306D01*
X81912723Y-74598791D01*
X81626088Y-74485304D01*
X81327491Y-74408638D01*
X81021643Y-74370000D01*
X80713357Y-74370000D01*
X80407508Y-74408638D01*
X80108911Y-74485304D01*
X79822276Y-74598791D01*
X79552128Y-74747306D01*
X79400178Y-74857703D01*
X79400178Y-74857704D01*
X70200500Y-74857704D01*
X70200500Y-72050000D01*
X82022707Y-72050000D01*
X82041849Y-72293224D01*
X82098803Y-72530457D01*
X82192168Y-72755861D01*
X82262269Y-72870255D01*
X83082525Y-72050001D01*
X83082525Y-72050000D01*
X82262269Y-71229743D01*
X82192168Y-71344139D01*
X82098803Y-71569542D01*
X82041849Y-71806775D01*
X82022707Y-72050000D01*
X70200500Y-72050000D01*
X70200500Y-69549999D01*
X82221840Y-69549999D01*
X82242436Y-69785407D01*
X82273007Y-69899500D01*
X82303597Y-70013663D01*
X82403465Y-70227830D01*
X82539005Y-70421401D01*
X82706099Y-70588495D01*
X82708588Y-70590238D01*
X82712136Y-70594532D01*
X82713770Y-70596166D01*
X82713614Y-70596321D01*
X82750632Y-70641128D01*
X82760603Y-70706386D01*
X82757243Y-70734769D01*
X83577500Y-71555025D01*
X83984793Y-71962318D01*
X84016887Y-72017905D01*
X84016887Y-72082093D01*
X83984793Y-72137680D01*
X82757243Y-73365229D01*
X82871637Y-73435330D01*
X83097042Y-73528696D01*
X83334275Y-73585650D01*
X83577500Y-73604792D01*
X83820724Y-73585650D01*
X84057957Y-73528696D01*
X84283359Y-73435331D01*
X84401055Y-73363206D01*
X84453912Y-73345509D01*
X84509177Y-73352750D01*
X84620017Y-73394091D01*
X84679627Y-73400500D01*
X86475372Y-73400499D01*
X86534983Y-73394091D01*
X86669831Y-73343796D01*
X86785046Y-73257546D01*
X86871296Y-73142331D01*
X86921591Y-73007483D01*
X86928000Y-72947873D01*
X86927999Y-72000000D01*
X89294591Y-72000000D01*
X89314202Y-72286690D01*
X89372665Y-72568031D01*
X89468894Y-72838793D01*
X89601100Y-73093939D01*
X89766806Y-73328692D01*
X89766809Y-73328695D01*
X89766811Y-73328698D01*
X89962947Y-73538708D01*
X89962950Y-73538711D01*
X90063735Y-73620705D01*
X90185853Y-73720055D01*
X90431375Y-73869361D01*
X90694942Y-73983844D01*
X90971642Y-74061371D01*
X91256322Y-74100500D01*
X91543678Y-74100500D01*
X91828358Y-74061371D01*
X92105058Y-73983844D01*
X92368625Y-73869361D01*
X92614147Y-73720055D01*
X92837053Y-73538708D01*
X93033189Y-73328698D01*
X93198901Y-73093936D01*
X93331104Y-72838797D01*
X93427334Y-72568032D01*
X93485798Y-72286686D01*
X93505408Y-72000000D01*
X93485798Y-71713314D01*
X93427334Y-71431968D01*
X93331104Y-71161203D01*
X93198901Y-70906064D01*
X93198899Y-70906060D01*
X93033193Y-70671307D01*
X93033191Y-70671304D01*
X93033189Y-70671302D01*
X92837053Y-70461292D01*
X92837051Y-70461291D01*
X92837049Y-70461288D01*
X92638856Y-70300047D01*
X92614147Y-70279945D01*
X92416830Y-70159953D01*
X92368622Y-70130637D01*
X92105060Y-70016157D01*
X92105058Y-70016156D01*
X91902001Y-69959262D01*
X91828355Y-69938628D01*
X91543678Y-69899500D01*
X91256322Y-69899500D01*
X90971644Y-69938628D01*
X90806308Y-69984953D01*
X90694942Y-70016156D01*
X90694940Y-70016156D01*
X90694939Y-70016157D01*
X90431377Y-70130637D01*
X90185851Y-70279946D01*
X89962950Y-70461288D01*
X89766806Y-70671307D01*
X89601100Y-70906060D01*
X89468894Y-71161206D01*
X89372665Y-71431968D01*
X89314202Y-71713309D01*
X89294591Y-72000000D01*
X86927999Y-72000000D01*
X86927999Y-71152128D01*
X86921591Y-71092517D01*
X86871296Y-70957669D01*
X86785046Y-70842454D01*
X86669831Y-70756204D01*
X86669830Y-70756203D01*
X86669828Y-70756202D01*
X86567550Y-70718054D01*
X86517171Y-70683075D01*
X86489718Y-70628230D01*
X86491907Y-70566938D01*
X86523200Y-70514195D01*
X86615995Y-70421401D01*
X86751535Y-70227830D01*
X86851403Y-70013663D01*
X86912563Y-69785408D01*
X86933159Y-69550000D01*
X86912563Y-69314592D01*
X86908653Y-69300000D01*
X95994531Y-69300000D01*
X96014364Y-69526689D01*
X96073261Y-69746497D01*
X96169432Y-69952735D01*
X96299953Y-70139140D01*
X96460859Y-70300046D01*
X96647264Y-70430567D01*
X96647265Y-70430567D01*
X96647266Y-70430568D01*
X96853504Y-70526739D01*
X97073308Y-70585635D01*
X97224436Y-70598857D01*
X97299999Y-70605468D01*
X97299999Y-70605467D01*
X97300000Y-70605468D01*
X97526692Y-70585635D01*
X97746496Y-70526739D01*
X97952734Y-70430568D01*
X98139139Y-70300047D01*
X98300047Y-70139139D01*
X98430568Y-69952734D01*
X98526739Y-69746496D01*
X98585635Y-69526692D01*
X98605468Y-69300000D01*
X108694531Y-69300000D01*
X108714364Y-69526689D01*
X108773261Y-69746497D01*
X108869432Y-69952735D01*
X108999953Y-70139140D01*
X109160859Y-70300046D01*
X109347264Y-70430567D01*
X109347265Y-70430567D01*
X109347266Y-70430568D01*
X109553504Y-70526739D01*
X109773308Y-70585635D01*
X109924436Y-70598857D01*
X109999999Y-70605468D01*
X109999999Y-70605467D01*
X110000000Y-70605468D01*
X110226692Y-70585635D01*
X110446496Y-70526739D01*
X110652734Y-70430568D01*
X110839139Y-70300047D01*
X111000047Y-70139139D01*
X111130568Y-69952734D01*
X111226739Y-69746496D01*
X111285635Y-69526692D01*
X111305468Y-69300000D01*
X111285635Y-69073308D01*
X111226739Y-68853504D01*
X111130568Y-68647266D01*
X111125553Y-68640104D01*
X111000046Y-68460859D01*
X110839140Y-68299953D01*
X110652735Y-68169432D01*
X110446497Y-68073261D01*
X110226689Y-68014364D01*
X110000000Y-67994531D01*
X109773310Y-68014364D01*
X109553502Y-68073261D01*
X109347264Y-68169432D01*
X109160859Y-68299953D01*
X108999953Y-68460859D01*
X108869432Y-68647264D01*
X108773261Y-68853502D01*
X108714364Y-69073310D01*
X108694531Y-69300000D01*
X98605468Y-69300000D01*
X98585635Y-69073308D01*
X98526739Y-68853504D01*
X98430568Y-68647266D01*
X98425553Y-68640104D01*
X98300046Y-68460859D01*
X98139140Y-68299953D01*
X97952735Y-68169432D01*
X97746497Y-68073261D01*
X97526689Y-68014364D01*
X97300000Y-67994531D01*
X97073310Y-68014364D01*
X96853502Y-68073261D01*
X96647264Y-68169432D01*
X96460859Y-68299953D01*
X96299953Y-68460859D01*
X96169432Y-68647264D01*
X96073261Y-68853502D01*
X96014364Y-69073310D01*
X95994531Y-69300000D01*
X86908653Y-69300000D01*
X86851403Y-69086337D01*
X86751535Y-68872171D01*
X86615995Y-68678599D01*
X86448901Y-68511505D01*
X86255330Y-68375965D01*
X86041163Y-68276097D01*
X85980002Y-68259709D01*
X85812907Y-68214936D01*
X85577499Y-68194340D01*
X85342092Y-68214936D01*
X85113836Y-68276097D01*
X84899670Y-68375965D01*
X84706098Y-68511505D01*
X84665181Y-68552423D01*
X84609594Y-68584517D01*
X84545406Y-68584517D01*
X84489819Y-68552423D01*
X84448904Y-68511508D01*
X84448901Y-68511505D01*
X84255330Y-68375965D01*
X84041163Y-68276097D01*
X83980002Y-68259709D01*
X83812907Y-68214936D01*
X83577499Y-68194340D01*
X83342092Y-68214936D01*
X83113836Y-68276097D01*
X82899670Y-68375965D01*
X82706098Y-68511505D01*
X82539005Y-68678598D01*
X82403465Y-68872170D01*
X82303597Y-69086336D01*
X82242436Y-69314592D01*
X82221840Y-69549999D01*
X70200500Y-69549999D01*
X70200500Y-66742294D01*
X79400177Y-66742294D01*
X79400178Y-66742295D01*
X79552128Y-66852693D01*
X79822276Y-67001208D01*
X80108911Y-67114695D01*
X80407508Y-67191361D01*
X80713357Y-67230000D01*
X81021643Y-67230000D01*
X81327491Y-67191361D01*
X81626088Y-67114695D01*
X81912723Y-67001208D01*
X82182871Y-66852693D01*
X82334820Y-66742296D01*
X82334821Y-66742294D01*
X80867500Y-65274974D01*
X79400177Y-66742294D01*
X70200500Y-66742294D01*
X70200500Y-64779999D01*
X78412655Y-64779999D01*
X78432012Y-65087669D01*
X78489779Y-65390495D01*
X78585043Y-65683685D01*
X78716306Y-65962633D01*
X78881488Y-66222921D01*
X78903271Y-66249252D01*
X78903272Y-66249252D01*
X80372525Y-64780001D01*
X80372525Y-64780000D01*
X81362474Y-64780000D01*
X82831726Y-66249253D01*
X82853509Y-66222922D01*
X83018693Y-65962633D01*
X83149956Y-65683685D01*
X83245220Y-65390495D01*
X83302987Y-65087669D01*
X83322344Y-64779999D01*
X83302987Y-64472330D01*
X83245220Y-64169504D01*
X83169001Y-63934929D01*
X91199500Y-63934929D01*
X91239719Y-64201771D01*
X91253752Y-64247264D01*
X91317368Y-64453502D01*
X91319262Y-64459640D01*
X91436347Y-64702771D01*
X91436348Y-64702772D01*
X91436349Y-64702774D01*
X91588365Y-64925741D01*
X91771915Y-65123561D01*
X91982898Y-65291815D01*
X92216602Y-65426743D01*
X92467805Y-65525334D01*
X92730897Y-65585383D01*
X92788533Y-65589702D01*
X92932619Y-65600500D01*
X92932624Y-65600500D01*
X93067376Y-65600500D01*
X93067381Y-65600500D01*
X93193455Y-65591051D01*
X93269103Y-65585383D01*
X93532195Y-65525334D01*
X93783398Y-65426743D01*
X94017102Y-65291815D01*
X94228085Y-65123561D01*
X94411635Y-64925741D01*
X94563651Y-64702775D01*
X94680738Y-64459641D01*
X94760280Y-64201772D01*
X94790692Y-64000000D01*
X98894983Y-64000000D01*
X98905289Y-64127664D01*
X98965952Y-64373784D01*
X99065313Y-64606993D01*
X99200791Y-64821234D01*
X99368882Y-65010971D01*
X99565236Y-65171287D01*
X99784762Y-65298031D01*
X100021777Y-65387920D01*
X100110000Y-65405930D01*
X100110000Y-64000000D01*
X98894983Y-64000000D01*
X94790692Y-64000000D01*
X94800500Y-63934929D01*
X94800500Y-63665071D01*
X94760280Y-63398228D01*
X94729981Y-63300000D01*
X98890000Y-63300000D01*
X100110000Y-63300000D01*
X100110000Y-61894069D01*
X100810000Y-61894069D01*
X100810000Y-65408156D01*
X101018538Y-65347752D01*
X101247555Y-65239082D01*
X101456169Y-65095085D01*
X101638984Y-64919490D01*
X101755126Y-64764933D01*
X101795558Y-64730198D01*
X101846837Y-64715647D01*
X101899488Y-64723969D01*
X101943778Y-64753624D01*
X102091272Y-64907516D01*
X102278839Y-65046240D01*
X102487153Y-65151270D01*
X102710220Y-65219583D01*
X102941624Y-65249216D01*
X103174707Y-65239314D01*
X103402765Y-65190164D01*
X103619235Y-65103179D01*
X103817891Y-64980862D01*
X103993018Y-64826731D01*
X104139578Y-64645220D01*
X104162102Y-64604899D01*
X104205342Y-64559783D01*
X104265094Y-64541484D01*
X104326182Y-64554649D01*
X104373092Y-64595935D01*
X104454003Y-64715647D01*
X104469847Y-64739088D01*
X104631272Y-64907516D01*
X104818839Y-65046240D01*
X105027153Y-65151270D01*
X105250220Y-65219583D01*
X105481624Y-65249216D01*
X105714707Y-65239314D01*
X105942765Y-65190164D01*
X106159235Y-65103179D01*
X106357891Y-64980862D01*
X106533018Y-64826731D01*
X106564911Y-64787231D01*
X106618178Y-64748902D01*
X106683547Y-64743126D01*
X106742710Y-64771521D01*
X106764344Y-64803993D01*
X106767578Y-64801999D01*
X106775185Y-64814333D01*
X106775186Y-64814334D01*
X106795818Y-64847785D01*
X106867288Y-64963657D01*
X106991342Y-65087711D01*
X107016420Y-65103179D01*
X107140666Y-65179814D01*
X107252016Y-65216712D01*
X107307202Y-65234999D01*
X107317702Y-65236071D01*
X107409991Y-65245500D01*
X108209216Y-65245499D01*
X108256669Y-65254938D01*
X108296897Y-65281818D01*
X111762449Y-68747370D01*
X111764642Y-68749619D01*
X111824941Y-68813053D01*
X111873358Y-68846752D01*
X111880865Y-68852413D01*
X111926593Y-68889698D01*
X111953556Y-68903782D01*
X111966980Y-68911915D01*
X111991951Y-68929295D01*
X112046163Y-68952559D01*
X112054663Y-68956595D01*
X112106950Y-68983908D01*
X112106951Y-68983909D01*
X112136196Y-68992277D01*
X112150986Y-68997543D01*
X112158464Y-69000752D01*
X112178942Y-69009540D01*
X112236737Y-69021416D01*
X112245854Y-69023654D01*
X112302582Y-69039887D01*
X112332916Y-69042196D01*
X112348453Y-69044374D01*
X112378259Y-69050500D01*
X112437243Y-69050500D01*
X112446657Y-69050858D01*
X112505477Y-69055337D01*
X112535652Y-69051493D01*
X112551318Y-69050500D01*
X126905500Y-69050500D01*
X126967500Y-69067113D01*
X127012887Y-69112500D01*
X127029500Y-69174500D01*
X127029500Y-78685721D01*
X127029460Y-78688863D01*
X127027242Y-78776362D01*
X127037648Y-78834420D01*
X127038957Y-78843749D01*
X127044926Y-78902438D01*
X127054033Y-78931467D01*
X127057772Y-78946702D01*
X127063141Y-78976652D01*
X127085020Y-79031425D01*
X127088180Y-79040300D01*
X127105841Y-79096588D01*
X127120607Y-79123191D01*
X127127337Y-79137364D01*
X127138622Y-79165617D01*
X127171080Y-79214867D01*
X127175961Y-79222923D01*
X127204590Y-79274501D01*
X127224404Y-79297581D01*
X127233856Y-79310116D01*
X127236588Y-79314262D01*
X127250599Y-79335520D01*
X127292299Y-79377220D01*
X127298704Y-79384130D01*
X127337137Y-79428898D01*
X127361193Y-79447519D01*
X127372972Y-79457893D01*
X127515032Y-79599953D01*
X127643181Y-79728101D01*
X127670061Y-79768329D01*
X127679500Y-79815782D01*
X127679500Y-81291519D01*
X127660340Y-81357735D01*
X127608782Y-81403488D01*
X127540758Y-81414640D01*
X127477290Y-81387744D01*
X127437991Y-81331112D01*
X127429267Y-81305220D01*
X127429173Y-81305064D01*
X127419026Y-81283890D01*
X127418961Y-81283712D01*
X127374959Y-81214871D01*
X127373220Y-81212068D01*
X127331089Y-81142046D01*
X127330956Y-81141906D01*
X127316503Y-81123417D01*
X127316400Y-81123256D01*
X127258658Y-81065514D01*
X127256316Y-81063108D01*
X127200130Y-81003793D01*
X127199970Y-81003685D01*
X127181877Y-80988733D01*
X126922793Y-80729649D01*
X126915965Y-80722242D01*
X126880634Y-80680646D01*
X126880632Y-80680645D01*
X126880631Y-80680643D01*
X126815590Y-80631201D01*
X126812961Y-80629145D01*
X126776703Y-80600000D01*
X126749297Y-80577970D01*
X126749294Y-80577968D01*
X126749290Y-80577965D01*
X126749120Y-80577881D01*
X126729187Y-80565517D01*
X126729035Y-80565401D01*
X126719961Y-80561203D01*
X126654896Y-80531100D01*
X126651872Y-80529650D01*
X126578692Y-80493358D01*
X126578499Y-80493310D01*
X126556375Y-80485520D01*
X126556196Y-80485437D01*
X126476412Y-80467874D01*
X126473146Y-80467109D01*
X126393885Y-80447399D01*
X126393689Y-80447394D01*
X126370418Y-80444544D01*
X126370218Y-80444500D01*
X126370216Y-80444500D01*
X126288537Y-80444500D01*
X126285179Y-80444455D01*
X126203528Y-80442243D01*
X126203527Y-80442243D01*
X126203342Y-80442278D01*
X126179976Y-80444500D01*
X125600048Y-80444500D01*
X125552595Y-80435061D01*
X125512369Y-80408183D01*
X125424139Y-80319953D01*
X125424138Y-80319952D01*
X125424136Y-80319950D01*
X125237732Y-80189430D01*
X125179724Y-80162380D01*
X125127549Y-80116623D01*
X125108130Y-80049997D01*
X125127550Y-79983373D01*
X125179721Y-79937619D01*
X125237734Y-79910568D01*
X125424139Y-79780047D01*
X125585047Y-79619139D01*
X125715568Y-79432734D01*
X125811739Y-79226496D01*
X125870635Y-79006692D01*
X125890468Y-78780000D01*
X125870635Y-78553308D01*
X125811739Y-78333504D01*
X125715568Y-78127266D01*
X125685973Y-78085000D01*
X125585046Y-77940859D01*
X125424140Y-77779953D01*
X125237733Y-77649431D01*
X125196727Y-77630310D01*
X125179724Y-77622381D01*
X125127549Y-77576625D01*
X125108129Y-77510000D01*
X125127549Y-77443375D01*
X125179725Y-77397618D01*
X125237734Y-77370568D01*
X125424139Y-77240047D01*
X125585047Y-77079139D01*
X125715568Y-76892734D01*
X125811739Y-76686496D01*
X125870635Y-76466692D01*
X125890468Y-76240000D01*
X125870635Y-76013308D01*
X125811739Y-75793504D01*
X125715568Y-75587266D01*
X125670516Y-75522925D01*
X125585046Y-75400859D01*
X125424140Y-75239953D01*
X125237733Y-75109431D01*
X125179725Y-75082382D01*
X125127549Y-75036625D01*
X125108129Y-74970000D01*
X125127549Y-74903375D01*
X125179725Y-74857618D01*
X125237734Y-74830568D01*
X125424139Y-74700047D01*
X125585047Y-74539139D01*
X125715568Y-74352734D01*
X125811739Y-74146496D01*
X125870635Y-73926692D01*
X125890468Y-73700000D01*
X125870635Y-73473308D01*
X125811739Y-73253504D01*
X125715568Y-73047266D01*
X125645972Y-72947872D01*
X125585046Y-72860859D01*
X125424140Y-72699953D01*
X125399537Y-72682726D01*
X125360399Y-72637884D01*
X125346666Y-72579970D01*
X125361500Y-72522328D01*
X125401485Y-72478239D01*
X125457406Y-72457861D01*
X125492483Y-72454091D01*
X125627331Y-72403796D01*
X125742546Y-72317546D01*
X125828796Y-72202331D01*
X125879091Y-72067483D01*
X125885500Y-72007873D01*
X125885499Y-70312128D01*
X125879091Y-70252517D01*
X125828796Y-70117669D01*
X125742546Y-70002454D01*
X125627331Y-69916204D01*
X125492483Y-69865909D01*
X125432873Y-69859500D01*
X125432869Y-69859500D01*
X122937130Y-69859500D01*
X122877515Y-69865909D01*
X122742669Y-69916204D01*
X122627454Y-70002454D01*
X122541204Y-70117668D01*
X122490909Y-70252515D01*
X122490909Y-70252517D01*
X122489177Y-70268631D01*
X122484500Y-70312130D01*
X122484500Y-72007869D01*
X122490909Y-72067484D01*
X122516056Y-72134907D01*
X122541204Y-72202331D01*
X122627454Y-72317546D01*
X122742669Y-72403796D01*
X122877517Y-72454091D01*
X122912594Y-72457862D01*
X122968513Y-72478239D01*
X123008497Y-72522327D01*
X123023332Y-72579968D01*
X123009600Y-72637881D01*
X122970464Y-72682724D01*
X122945860Y-72699952D01*
X122784953Y-72860859D01*
X122654432Y-73047264D01*
X122558261Y-73253502D01*
X122499364Y-73473310D01*
X122479531Y-73700000D01*
X122499364Y-73926689D01*
X122558261Y-74146497D01*
X122654432Y-74352735D01*
X122784953Y-74539140D01*
X122945859Y-74700046D01*
X123039454Y-74765581D01*
X123132266Y-74830568D01*
X123190275Y-74857618D01*
X123242450Y-74903375D01*
X123261869Y-74970000D01*
X123242450Y-75036625D01*
X123190275Y-75082382D01*
X123132263Y-75109433D01*
X122945859Y-75239953D01*
X122784953Y-75400859D01*
X122654432Y-75587264D01*
X122558261Y-75793503D01*
X122549275Y-75827040D01*
X122520922Y-75878720D01*
X122471911Y-75911469D01*
X122413315Y-75917886D01*
X122358377Y-75896522D01*
X122319511Y-75852204D01*
X122305500Y-75794947D01*
X122305500Y-74914238D01*
X122305540Y-74911096D01*
X122307756Y-74823639D01*
X122307755Y-74823638D01*
X122307756Y-74823636D01*
X122297345Y-74765554D01*
X122296042Y-74756263D01*
X122290074Y-74697562D01*
X122280964Y-74668528D01*
X122277223Y-74653286D01*
X122274596Y-74638629D01*
X122271858Y-74623347D01*
X122271857Y-74623345D01*
X122271857Y-74623343D01*
X122249976Y-74568565D01*
X122246816Y-74559689D01*
X122244056Y-74550892D01*
X122229159Y-74503412D01*
X122214395Y-74476812D01*
X122207660Y-74462631D01*
X122196377Y-74434383D01*
X122163917Y-74385131D01*
X122159036Y-74377074D01*
X122155110Y-74370000D01*
X122130409Y-74325498D01*
X122110582Y-74302403D01*
X122101146Y-74289888D01*
X122084402Y-74264481D01*
X122084400Y-74264479D01*
X122084399Y-74264477D01*
X122042699Y-74222778D01*
X122036294Y-74215867D01*
X121997866Y-74171105D01*
X121973807Y-74152482D01*
X121962027Y-74142107D01*
X121622566Y-73802646D01*
X121620373Y-73800397D01*
X121560059Y-73736946D01*
X121511642Y-73703247D01*
X121504119Y-73697575D01*
X121458405Y-73660300D01*
X121431440Y-73646215D01*
X121418019Y-73638084D01*
X121393049Y-73620705D01*
X121393048Y-73620704D01*
X121393046Y-73620703D01*
X121338845Y-73597443D01*
X121330336Y-73593402D01*
X121278053Y-73566092D01*
X121272126Y-73564396D01*
X121248798Y-73557721D01*
X121234020Y-73552459D01*
X121206058Y-73540460D01*
X121148272Y-73528583D01*
X121139128Y-73526338D01*
X121082421Y-73510113D01*
X121052075Y-73507802D01*
X121036534Y-73505622D01*
X121006742Y-73499500D01*
X121006741Y-73499500D01*
X120947758Y-73499500D01*
X120938344Y-73499142D01*
X120929198Y-73498445D01*
X120879524Y-73494663D01*
X120879523Y-73494663D01*
X120849349Y-73498506D01*
X120833683Y-73499500D01*
X119782588Y-73499500D01*
X119745301Y-73493761D01*
X119711465Y-73477075D01*
X119706085Y-73473308D01*
X119557734Y-73369432D01*
X119521962Y-73352751D01*
X119351497Y-73273261D01*
X119131689Y-73214364D01*
X118905000Y-73194531D01*
X118678310Y-73214364D01*
X118458502Y-73273261D01*
X118252264Y-73369432D01*
X118065859Y-73499953D01*
X117904953Y-73660859D01*
X117774432Y-73847264D01*
X117678261Y-74053502D01*
X117619364Y-74273310D01*
X117599531Y-74499999D01*
X117619364Y-74726689D01*
X117678261Y-74946497D01*
X117774432Y-75152735D01*
X117904953Y-75339140D01*
X118065859Y-75500046D01*
X118252264Y-75630567D01*
X118252265Y-75630567D01*
X118252266Y-75630568D01*
X118458504Y-75726739D01*
X118678308Y-75785635D01*
X118905000Y-75805468D01*
X119131692Y-75785635D01*
X119351496Y-75726739D01*
X119557734Y-75630568D01*
X119711466Y-75522924D01*
X119745301Y-75506239D01*
X119782588Y-75500500D01*
X120180500Y-75500500D01*
X120242500Y-75517113D01*
X120287887Y-75562500D01*
X120304500Y-75624500D01*
X120304500Y-77178185D01*
X120285688Y-77243846D01*
X120234961Y-77289585D01*
X120167709Y-77301524D01*
X120159319Y-77300653D01*
X119374975Y-78085000D01*
X119374975Y-78085001D01*
X120159318Y-78869344D01*
X120167707Y-78868475D01*
X120234960Y-78880412D01*
X120285688Y-78926151D01*
X120304500Y-78991813D01*
X120304500Y-82503276D01*
X120286789Y-82567141D01*
X120238715Y-82612761D01*
X120174011Y-82627106D01*
X120111161Y-82606077D01*
X120068118Y-82555681D01*
X120010567Y-82432264D01*
X119880046Y-82245859D01*
X119719140Y-82084953D01*
X119532735Y-81954432D01*
X119326497Y-81858261D01*
X119106689Y-81799364D01*
X118880000Y-81779531D01*
X118653310Y-81799364D01*
X118433502Y-81858261D01*
X118227264Y-81954432D01*
X118040859Y-82084953D01*
X117879953Y-82245859D01*
X117749432Y-82432264D01*
X117653261Y-82638502D01*
X117594364Y-82858310D01*
X117574531Y-83084999D01*
X117594364Y-83311689D01*
X117653261Y-83531497D01*
X117749432Y-83737735D01*
X117879953Y-83924140D01*
X118040859Y-84085046D01*
X118227264Y-84215567D01*
X118227265Y-84215567D01*
X118227266Y-84215568D01*
X118433504Y-84311739D01*
X118653308Y-84370635D01*
X118804435Y-84383856D01*
X118879999Y-84390468D01*
X118879999Y-84390467D01*
X118880000Y-84390468D01*
X119106692Y-84370635D01*
X119326496Y-84311739D01*
X119532734Y-84215568D01*
X119719139Y-84085047D01*
X119880047Y-83924139D01*
X120010568Y-83737734D01*
X120049428Y-83654398D01*
X120068118Y-83614319D01*
X120111161Y-83563923D01*
X120174011Y-83542894D01*
X120238715Y-83557239D01*
X120286789Y-83602859D01*
X120304500Y-83666724D01*
X120304500Y-84557242D01*
X120304141Y-84566656D01*
X120299848Y-84623054D01*
X120299663Y-84625477D01*
X120303506Y-84655651D01*
X120304500Y-84671317D01*
X120304500Y-86334217D01*
X120295061Y-86381670D01*
X120268181Y-86421898D01*
X118107664Y-88582413D01*
X118105417Y-88584604D01*
X118041946Y-88644940D01*
X118008245Y-88693360D01*
X118002573Y-88700882D01*
X117965301Y-88746593D01*
X117951210Y-88773566D01*
X117943082Y-88786983D01*
X117925705Y-88811950D01*
X117902439Y-88866165D01*
X117898399Y-88874671D01*
X117871090Y-88926952D01*
X117862720Y-88956201D01*
X117857459Y-88970978D01*
X117845460Y-88998942D01*
X117833587Y-89056713D01*
X117831342Y-89065860D01*
X117815113Y-89122580D01*
X117812802Y-89152925D01*
X117810622Y-89168466D01*
X117804500Y-89198259D01*
X117804500Y-89257242D01*
X117804142Y-89266656D01*
X117799663Y-89325477D01*
X117803506Y-89355651D01*
X117804500Y-89371317D01*
X117804500Y-91029217D01*
X117795061Y-91076670D01*
X117768181Y-91116898D01*
X116911965Y-91973112D01*
X116876689Y-91997813D01*
X116835093Y-92008958D01*
X116773308Y-92014364D01*
X116773308Y-92014365D01*
X116553503Y-92073261D01*
X116347264Y-92169432D01*
X116160859Y-92299953D01*
X115999953Y-92460859D01*
X115869432Y-92647264D01*
X115773261Y-92853502D01*
X115714364Y-93073310D01*
X115694531Y-93299999D01*
X115714364Y-93526689D01*
X115773261Y-93746497D01*
X115869432Y-93952735D01*
X115999953Y-94139140D01*
X116160859Y-94300046D01*
X116347264Y-94430567D01*
X116347265Y-94430567D01*
X116347266Y-94430568D01*
X116553504Y-94526739D01*
X116773308Y-94585635D01*
X117000000Y-94605468D01*
X117226692Y-94585635D01*
X117245957Y-94580473D01*
X121214500Y-94580473D01*
X121395396Y-94678369D01*
X121630506Y-94759083D01*
X121875707Y-94800000D01*
X122124293Y-94800000D01*
X122369493Y-94759083D01*
X122604603Y-94678369D01*
X122785498Y-94580473D01*
X122000000Y-93794975D01*
X121214500Y-94580473D01*
X117245957Y-94580473D01*
X117446496Y-94526739D01*
X117652734Y-94430568D01*
X117839139Y-94300047D01*
X118000047Y-94139139D01*
X118130568Y-93952734D01*
X118226739Y-93746496D01*
X118285635Y-93526692D01*
X118291039Y-93464907D01*
X118302185Y-93423309D01*
X118326884Y-93388035D01*
X118414919Y-93300000D01*
X120494858Y-93300000D01*
X120515386Y-93547732D01*
X120576413Y-93788721D01*
X120676267Y-94016367D01*
X120720679Y-94084344D01*
X121505025Y-93300001D01*
X122494975Y-93300001D01*
X123279319Y-94084345D01*
X123323728Y-94016373D01*
X123346442Y-93964590D01*
X123380642Y-93919118D01*
X123431549Y-93893707D01*
X123488447Y-93893706D01*
X123539355Y-93919117D01*
X123573555Y-93964589D01*
X123596266Y-94016365D01*
X123732233Y-94224477D01*
X123900596Y-94407368D01*
X124096766Y-94560053D01*
X124315393Y-94678368D01*
X124550509Y-94759084D01*
X124569999Y-94762336D01*
X124570000Y-94762336D01*
X124570000Y-93650000D01*
X125270000Y-93650000D01*
X125270000Y-94762336D01*
X125289490Y-94759084D01*
X125524606Y-94678368D01*
X125743233Y-94560053D01*
X125939403Y-94407368D01*
X126107766Y-94224477D01*
X126243733Y-94016365D01*
X126343588Y-93788715D01*
X126378717Y-93650000D01*
X125270000Y-93650000D01*
X124570000Y-93650000D01*
X124570000Y-93299999D01*
X133774531Y-93299999D01*
X133794364Y-93526689D01*
X133853261Y-93746497D01*
X133949432Y-93952735D01*
X134079953Y-94139140D01*
X134240859Y-94300046D01*
X134427264Y-94430567D01*
X134427265Y-94430567D01*
X134427266Y-94430568D01*
X134633504Y-94526739D01*
X134853308Y-94585635D01*
X135080000Y-94605468D01*
X135306692Y-94585635D01*
X135526496Y-94526739D01*
X135732734Y-94430568D01*
X135919139Y-94300047D01*
X136080047Y-94139139D01*
X136210568Y-93952734D01*
X136306739Y-93746496D01*
X136365635Y-93526692D01*
X136385468Y-93300000D01*
X136365635Y-93073308D01*
X136306739Y-92853504D01*
X136210568Y-92647266D01*
X136202267Y-92635411D01*
X136080046Y-92460859D01*
X135919140Y-92299953D01*
X135732735Y-92169432D01*
X135526497Y-92073261D01*
X135306689Y-92014364D01*
X135080000Y-91994531D01*
X134853310Y-92014364D01*
X134633502Y-92073261D01*
X134427264Y-92169432D01*
X134240859Y-92299953D01*
X134079953Y-92460859D01*
X133949432Y-92647264D01*
X133853261Y-92853502D01*
X133794364Y-93073310D01*
X133774531Y-93299999D01*
X124570000Y-93299999D01*
X124570000Y-91837665D01*
X124569999Y-91837663D01*
X125270000Y-91837663D01*
X125270000Y-92950000D01*
X126378717Y-92950000D01*
X126378717Y-92949999D01*
X126343588Y-92811284D01*
X126243733Y-92583634D01*
X126107766Y-92375522D01*
X125939403Y-92192631D01*
X125743233Y-92039946D01*
X125524606Y-91921631D01*
X125289490Y-91840915D01*
X125270000Y-91837663D01*
X124569999Y-91837663D01*
X124550509Y-91840915D01*
X124315393Y-91921631D01*
X124096766Y-92039946D01*
X123900596Y-92192631D01*
X123732233Y-92375522D01*
X123596265Y-92583635D01*
X123573554Y-92635411D01*
X123539354Y-92680882D01*
X123488446Y-92706292D01*
X123431549Y-92706291D01*
X123380642Y-92680880D01*
X123346443Y-92635408D01*
X123323733Y-92583634D01*
X123279319Y-92515653D01*
X122494975Y-93300000D01*
X122494975Y-93300001D01*
X121505025Y-93300001D01*
X121505025Y-93300000D01*
X120720679Y-92515654D01*
X120676267Y-92583631D01*
X120576413Y-92811278D01*
X120515386Y-93052267D01*
X120494858Y-93300000D01*
X118414919Y-93300000D01*
X119502409Y-92212510D01*
X119504579Y-92210394D01*
X119568053Y-92150059D01*
X119601763Y-92101624D01*
X119607405Y-92094141D01*
X119644697Y-92048408D01*
X119658786Y-92021433D01*
X119659943Y-92019524D01*
X121214499Y-92019524D01*
X122000000Y-92805025D01*
X122000001Y-92805025D01*
X122785498Y-92019525D01*
X122604603Y-91921630D01*
X122369493Y-91840916D01*
X122124293Y-91800000D01*
X121875707Y-91800000D01*
X121630506Y-91840916D01*
X121395393Y-91921631D01*
X121214500Y-92019524D01*
X121214499Y-92019524D01*
X119659943Y-92019524D01*
X119666908Y-92008027D01*
X119684295Y-91983049D01*
X119707568Y-91928815D01*
X119711590Y-91920346D01*
X119738909Y-91868049D01*
X119747275Y-91838808D01*
X119752539Y-91824019D01*
X119764540Y-91796058D01*
X119776417Y-91738256D01*
X119778652Y-91729148D01*
X119794886Y-91672418D01*
X119797196Y-91642078D01*
X119799376Y-91626540D01*
X119805500Y-91596742D01*
X119805500Y-91537756D01*
X119805858Y-91528341D01*
X119806154Y-91524449D01*
X119810337Y-91469524D01*
X119806494Y-91439348D01*
X119805500Y-91423683D01*
X119805500Y-89765783D01*
X119814939Y-89718330D01*
X119841819Y-89678102D01*
X120366996Y-89152925D01*
X121708496Y-87811423D01*
X123268550Y-87811423D01*
X123296279Y-87823586D01*
X123537267Y-87884613D01*
X123722951Y-87900000D01*
X124647049Y-87900000D01*
X124832732Y-87884613D01*
X125073721Y-87823586D01*
X125101448Y-87811424D01*
X125101449Y-87811423D01*
X124185000Y-86894975D01*
X123268550Y-87811423D01*
X121708496Y-87811423D01*
X122002391Y-87517528D01*
X122004560Y-87515413D01*
X122068053Y-87455059D01*
X122101759Y-87406630D01*
X122107428Y-87399113D01*
X122144698Y-87353407D01*
X122158783Y-87326439D01*
X122166918Y-87313015D01*
X122181185Y-87292517D01*
X122184295Y-87288049D01*
X122207568Y-87233815D01*
X122211598Y-87225331D01*
X122212694Y-87223233D01*
X122238909Y-87173049D01*
X122244188Y-87154600D01*
X122244833Y-87152345D01*
X122273492Y-87101746D01*
X122322069Y-87069776D01*
X122379878Y-87063468D01*
X122434206Y-87084209D01*
X122473104Y-87127437D01*
X122524946Y-87223233D01*
X122674563Y-87415460D01*
X124097318Y-85992705D01*
X124152905Y-85960611D01*
X124217093Y-85960611D01*
X124272680Y-85992705D01*
X125695435Y-87415460D01*
X125845053Y-87223233D01*
X125963364Y-87004614D01*
X125964824Y-87000362D01*
X125999068Y-86948527D01*
X126054155Y-86919807D01*
X126116258Y-86921410D01*
X126169790Y-86952934D01*
X126207200Y-86990344D01*
X126214016Y-86997736D01*
X126249369Y-87039357D01*
X126314428Y-87088813D01*
X126317012Y-87090832D01*
X126354653Y-87121090D01*
X126380700Y-87142028D01*
X126380701Y-87142028D01*
X126380703Y-87142030D01*
X126380869Y-87142112D01*
X126400819Y-87154486D01*
X126400971Y-87154602D01*
X126475171Y-87188930D01*
X126478120Y-87190344D01*
X126497495Y-87199953D01*
X126551304Y-87226640D01*
X126551305Y-87226640D01*
X126551307Y-87226641D01*
X126551479Y-87226683D01*
X126573624Y-87234479D01*
X126573803Y-87234562D01*
X126653579Y-87252121D01*
X126656827Y-87252882D01*
X126736111Y-87272600D01*
X126736295Y-87272604D01*
X126759600Y-87275459D01*
X126759784Y-87275500D01*
X126841463Y-87275500D01*
X126844821Y-87275545D01*
X126926473Y-87277757D01*
X126926657Y-87277721D01*
X126950024Y-87275500D01*
X130389952Y-87275500D01*
X130437405Y-87284939D01*
X130477630Y-87311816D01*
X130526628Y-87360814D01*
X130565863Y-87400049D01*
X130752264Y-87530567D01*
X130752265Y-87530567D01*
X130752266Y-87530568D01*
X130958504Y-87626739D01*
X131178308Y-87685635D01*
X131263261Y-87693067D01*
X131348214Y-87700500D01*
X131348216Y-87700500D01*
X132261784Y-87700500D01*
X132261786Y-87700500D01*
X132329747Y-87694554D01*
X132431692Y-87685635D01*
X132651496Y-87626739D01*
X132857734Y-87530568D01*
X133044139Y-87400047D01*
X133205047Y-87239139D01*
X133335568Y-87052734D01*
X133431739Y-86846496D01*
X133490635Y-86626692D01*
X133510468Y-86400000D01*
X133490635Y-86173308D01*
X133431739Y-85953504D01*
X133335568Y-85747266D01*
X133334184Y-85745290D01*
X133205046Y-85560859D01*
X133044140Y-85399953D01*
X132857733Y-85269431D01*
X132799725Y-85242382D01*
X132747549Y-85196625D01*
X132728129Y-85130000D01*
X132747549Y-85063375D01*
X132799725Y-85017618D01*
X132806581Y-85014421D01*
X132857734Y-84990568D01*
X133044139Y-84860047D01*
X133205047Y-84699139D01*
X133335568Y-84512734D01*
X133431739Y-84306496D01*
X133490635Y-84086692D01*
X133510468Y-83860000D01*
X133490635Y-83633308D01*
X133431739Y-83413504D01*
X133335568Y-83207266D01*
X133274501Y-83120053D01*
X133205046Y-83020859D01*
X133044140Y-82859953D01*
X132857733Y-82729431D01*
X132799725Y-82702382D01*
X132747549Y-82656625D01*
X132728129Y-82590000D01*
X132747549Y-82523375D01*
X132799725Y-82477618D01*
X132857734Y-82450568D01*
X133044139Y-82320047D01*
X133205047Y-82159139D01*
X133335568Y-81972734D01*
X133431739Y-81766496D01*
X133490635Y-81546692D01*
X133510468Y-81320000D01*
X133504583Y-81252734D01*
X133498934Y-81188160D01*
X133511977Y-81121058D01*
X133558597Y-81071064D01*
X133624626Y-81053372D01*
X133689997Y-81073358D01*
X133734844Y-81124948D01*
X133794432Y-81252735D01*
X133924953Y-81439140D01*
X134085859Y-81600046D01*
X134272264Y-81730567D01*
X134272265Y-81730567D01*
X134272266Y-81730568D01*
X134478504Y-81826739D01*
X134698308Y-81885635D01*
X134925000Y-81905468D01*
X135151692Y-81885635D01*
X135371496Y-81826739D01*
X135577734Y-81730568D01*
X135764139Y-81600047D01*
X135817497Y-81546689D01*
X135887819Y-81476368D01*
X135937182Y-81446118D01*
X135994898Y-81441576D01*
X136048385Y-81463731D01*
X136085985Y-81507754D01*
X136099500Y-81564049D01*
X136099500Y-90708513D01*
X136099460Y-90711655D01*
X136097242Y-90799154D01*
X136107648Y-90857212D01*
X136108957Y-90866541D01*
X136114926Y-90925230D01*
X136124033Y-90954259D01*
X136127772Y-90969494D01*
X136133141Y-90999444D01*
X136155020Y-91054217D01*
X136158180Y-91063092D01*
X136175841Y-91119380D01*
X136190607Y-91145983D01*
X136197337Y-91160156D01*
X136208622Y-91188409D01*
X136241080Y-91237659D01*
X136245961Y-91245715D01*
X136274590Y-91297293D01*
X136294404Y-91320373D01*
X136303856Y-91332908D01*
X136320599Y-91358312D01*
X136362300Y-91400013D01*
X136368705Y-91406924D01*
X136407130Y-91451683D01*
X136407131Y-91451684D01*
X136407134Y-91451687D01*
X136431198Y-91470314D01*
X136442968Y-91480681D01*
X136959658Y-91997371D01*
X136961851Y-91999620D01*
X137022149Y-92063053D01*
X137047791Y-92080900D01*
X137070560Y-92096748D01*
X137078084Y-92102421D01*
X137123802Y-92139699D01*
X137150763Y-92153782D01*
X137164188Y-92161915D01*
X137189159Y-92179295D01*
X137220236Y-92192631D01*
X137243371Y-92202559D01*
X137251881Y-92206601D01*
X137304159Y-92233909D01*
X137333408Y-92242277D01*
X137348178Y-92247535D01*
X137376150Y-92259540D01*
X137376153Y-92259540D01*
X137376154Y-92259541D01*
X137433934Y-92271414D01*
X137443077Y-92273657D01*
X137499790Y-92289886D01*
X137530128Y-92292196D01*
X137545656Y-92294373D01*
X137575467Y-92300500D01*
X137634452Y-92300500D01*
X137643867Y-92300858D01*
X137648014Y-92301173D01*
X137702684Y-92305337D01*
X137729486Y-92301923D01*
X137732860Y-92301494D01*
X137748525Y-92300500D01*
X137913065Y-92300500D01*
X137962877Y-92310945D01*
X137988713Y-92329392D01*
X137990107Y-92327602D01*
X138051675Y-92375522D01*
X138150124Y-92452147D01*
X138185361Y-92495539D01*
X138197961Y-92550000D01*
X138185361Y-92604460D01*
X138150124Y-92647852D01*
X138107688Y-92680882D01*
X137998215Y-92766087D01*
X137841020Y-92936848D01*
X137714076Y-93131150D01*
X137620844Y-93343696D01*
X137620842Y-93343700D01*
X137620843Y-93343700D01*
X137574504Y-93526689D01*
X137563865Y-93568700D01*
X137544699Y-93800000D01*
X137563865Y-94031299D01*
X137563865Y-94031301D01*
X137563866Y-94031305D01*
X137620843Y-94256300D01*
X137620844Y-94256303D01*
X137697284Y-94430567D01*
X137714076Y-94468849D01*
X137841021Y-94663153D01*
X137998216Y-94833913D01*
X138181374Y-94976470D01*
X138385497Y-95086936D01*
X138495258Y-95124617D01*
X138605015Y-95162297D01*
X138605017Y-95162297D01*
X138605019Y-95162298D01*
X138833951Y-95200500D01*
X139066048Y-95200500D01*
X139066049Y-95200500D01*
X139294981Y-95162298D01*
X139514503Y-95086936D01*
X139718626Y-94976470D01*
X139901784Y-94833913D01*
X140058979Y-94663153D01*
X140185924Y-94468849D01*
X140279157Y-94256300D01*
X140336134Y-94031305D01*
X140355300Y-93800000D01*
X140336134Y-93568695D01*
X140279157Y-93343700D01*
X140185924Y-93131151D01*
X140058979Y-92936847D01*
X139901784Y-92766087D01*
X139749875Y-92647852D01*
X139714639Y-92604460D01*
X139702039Y-92550000D01*
X139714639Y-92495540D01*
X139749875Y-92452147D01*
X139901784Y-92333913D01*
X140058979Y-92163153D01*
X140185924Y-91968849D01*
X140279157Y-91756300D01*
X140336134Y-91531305D01*
X140355300Y-91300000D01*
X140336134Y-91068695D01*
X140279157Y-90843700D01*
X140185924Y-90631151D01*
X140058979Y-90436847D01*
X139991607Y-90363661D01*
X139962835Y-90310910D01*
X139962243Y-90250823D01*
X139989970Y-90197513D01*
X140039504Y-90163498D01*
X140092331Y-90143796D01*
X140207546Y-90057546D01*
X140293796Y-89942331D01*
X140344091Y-89807483D01*
X140350500Y-89747873D01*
X140350499Y-87852128D01*
X140344091Y-87792517D01*
X140314886Y-87714214D01*
X143449500Y-87714214D01*
X143459904Y-87846416D01*
X143514902Y-88064681D01*
X143607992Y-88269625D01*
X143736180Y-88454654D01*
X143895345Y-88613819D01*
X144080374Y-88742007D01*
X144285318Y-88835097D01*
X144503583Y-88890095D01*
X144503584Y-88890095D01*
X144503588Y-88890096D01*
X144635783Y-88900500D01*
X147264216Y-88900499D01*
X147396412Y-88890096D01*
X147396416Y-88890095D01*
X147614681Y-88835097D01*
X147665641Y-88811950D01*
X147819626Y-88742007D01*
X148004654Y-88613819D01*
X148163819Y-88454654D01*
X148292007Y-88269626D01*
X148385096Y-88064683D01*
X148399688Y-88006777D01*
X148440095Y-87846416D01*
X148440095Y-87846415D01*
X148440096Y-87846412D01*
X148450500Y-87714217D01*
X148450499Y-86085784D01*
X148440096Y-85953588D01*
X148440075Y-85953504D01*
X148385097Y-85735318D01*
X148292007Y-85530374D01*
X148163819Y-85345345D01*
X148004654Y-85186180D01*
X147819625Y-85057992D01*
X147614681Y-84964902D01*
X147396416Y-84909904D01*
X147330314Y-84904702D01*
X147264217Y-84899500D01*
X147264213Y-84899500D01*
X144635785Y-84899500D01*
X144503583Y-84909904D01*
X144285318Y-84964902D01*
X144080374Y-85057992D01*
X143895345Y-85186180D01*
X143736180Y-85345345D01*
X143607992Y-85530374D01*
X143514902Y-85735318D01*
X143459904Y-85953583D01*
X143449500Y-86085786D01*
X143449500Y-87714214D01*
X140314886Y-87714214D01*
X140293796Y-87657669D01*
X140207546Y-87542454D01*
X140092331Y-87456204D01*
X139957483Y-87405909D01*
X139897873Y-87399500D01*
X139897869Y-87399500D01*
X139897815Y-87399500D01*
X138224499Y-87399500D01*
X138162500Y-87382888D01*
X138117113Y-87337501D01*
X138100500Y-87275501D01*
X138100500Y-80600000D01*
X143779531Y-80600000D01*
X143799364Y-80826689D01*
X143858261Y-81046497D01*
X143954432Y-81252735D01*
X144084953Y-81439140D01*
X144245859Y-81600046D01*
X144432264Y-81730567D01*
X144432265Y-81730567D01*
X144432266Y-81730568D01*
X144638504Y-81826739D01*
X144858308Y-81885635D01*
X145085000Y-81905468D01*
X145311692Y-81885635D01*
X145531496Y-81826739D01*
X145737734Y-81730568D01*
X145924139Y-81600047D01*
X146085047Y-81439139D01*
X146215568Y-81252734D01*
X146311739Y-81046496D01*
X146370635Y-80826692D01*
X146390468Y-80600000D01*
X146370635Y-80373308D01*
X146311739Y-80153504D01*
X146215568Y-79947266D01*
X146155366Y-79861288D01*
X146085046Y-79760859D01*
X145924140Y-79599953D01*
X145737735Y-79469432D01*
X145531497Y-79373261D01*
X145311689Y-79314364D01*
X145085000Y-79294531D01*
X144858310Y-79314364D01*
X144638502Y-79373261D01*
X144432264Y-79469432D01*
X144245859Y-79599953D01*
X144084953Y-79760859D01*
X143954432Y-79947264D01*
X143858261Y-80153502D01*
X143799364Y-80373310D01*
X143779531Y-80600000D01*
X138100500Y-80600000D01*
X138100500Y-79314262D01*
X138100540Y-79311120D01*
X138102757Y-79223637D01*
X138092350Y-79165574D01*
X138091041Y-79156242D01*
X138090158Y-79147560D01*
X138085074Y-79097562D01*
X138075962Y-79068520D01*
X138072226Y-79053297D01*
X138066858Y-79023347D01*
X138044976Y-78968566D01*
X138041816Y-78959689D01*
X138024159Y-78903412D01*
X138009395Y-78876812D01*
X138002660Y-78862631D01*
X137995118Y-78843749D01*
X137991377Y-78834383D01*
X137958917Y-78785131D01*
X137954036Y-78777074D01*
X137940349Y-78752415D01*
X137925409Y-78725498D01*
X137905582Y-78702403D01*
X137896146Y-78689888D01*
X137879402Y-78664481D01*
X137879400Y-78664479D01*
X137879399Y-78664477D01*
X137837700Y-78622779D01*
X137831294Y-78615867D01*
X137792868Y-78571106D01*
X137768805Y-78552480D01*
X137757026Y-78542105D01*
X137297566Y-78082646D01*
X137295373Y-78080397D01*
X137235059Y-78016946D01*
X137186642Y-77983247D01*
X137179119Y-77977575D01*
X137133405Y-77940300D01*
X137106440Y-77926215D01*
X137093019Y-77918084D01*
X137068049Y-77900705D01*
X137068048Y-77900704D01*
X137068046Y-77900703D01*
X137013845Y-77877443D01*
X137005336Y-77873402D01*
X136953053Y-77846092D01*
X136947126Y-77844396D01*
X136923798Y-77837721D01*
X136909020Y-77832459D01*
X136881058Y-77820460D01*
X136823272Y-77808583D01*
X136814128Y-77806338D01*
X136757421Y-77790113D01*
X136727075Y-77787802D01*
X136711534Y-77785622D01*
X136681742Y-77779500D01*
X136681741Y-77779500D01*
X136622758Y-77779500D01*
X136613344Y-77779142D01*
X136604198Y-77778445D01*
X136554524Y-77774663D01*
X136554523Y-77774663D01*
X136524349Y-77778506D01*
X136508683Y-77779500D01*
X133082588Y-77779500D01*
X133045301Y-77773761D01*
X133011465Y-77757075D01*
X132857733Y-77649431D01*
X132816727Y-77630310D01*
X132799724Y-77622381D01*
X132747549Y-77576625D01*
X132728129Y-77510000D01*
X132747549Y-77443375D01*
X132799725Y-77397618D01*
X132857734Y-77370568D01*
X133044139Y-77240047D01*
X133205047Y-77079139D01*
X133335568Y-76892734D01*
X133431739Y-76686496D01*
X133490635Y-76466692D01*
X133495305Y-76413314D01*
X133499324Y-76367382D01*
X133521277Y-76307066D01*
X133570447Y-76265807D01*
X133633659Y-76254661D01*
X133693975Y-76276614D01*
X133735234Y-76325784D01*
X133794432Y-76452735D01*
X133924953Y-76639140D01*
X134085859Y-76800046D01*
X134272264Y-76930567D01*
X134272265Y-76930567D01*
X134272266Y-76930568D01*
X134478504Y-77026739D01*
X134698308Y-77085635D01*
X134849435Y-77098856D01*
X134924999Y-77105468D01*
X134924999Y-77105467D01*
X134925000Y-77105468D01*
X135151692Y-77085635D01*
X135371496Y-77026739D01*
X135577734Y-76930568D01*
X135764139Y-76800047D01*
X135925047Y-76639139D01*
X136055568Y-76452734D01*
X136151739Y-76246496D01*
X136210635Y-76026692D01*
X136230468Y-75800000D01*
X136230468Y-75799999D01*
X143779531Y-75799999D01*
X143799364Y-76026689D01*
X143858261Y-76246497D01*
X143954432Y-76452735D01*
X144084953Y-76639140D01*
X144245859Y-76800046D01*
X144432264Y-76930567D01*
X144432265Y-76930567D01*
X144432266Y-76930568D01*
X144638504Y-77026739D01*
X144858308Y-77085635D01*
X145009435Y-77098856D01*
X145084999Y-77105468D01*
X145084999Y-77105467D01*
X145085000Y-77105468D01*
X145311692Y-77085635D01*
X145531496Y-77026739D01*
X145737734Y-76930568D01*
X145924139Y-76800047D01*
X146085047Y-76639139D01*
X146215568Y-76452734D01*
X146311739Y-76246496D01*
X146341633Y-76134929D01*
X149399500Y-76134929D01*
X149439719Y-76401771D01*
X149489179Y-76562114D01*
X149519262Y-76659641D01*
X149573643Y-76772564D01*
X149636347Y-76902771D01*
X149636348Y-76902772D01*
X149636349Y-76902774D01*
X149788365Y-77125741D01*
X149971915Y-77323561D01*
X150182898Y-77491815D01*
X150416602Y-77626743D01*
X150667805Y-77725334D01*
X150930897Y-77785383D01*
X150988533Y-77789702D01*
X151132619Y-77800500D01*
X151132624Y-77800500D01*
X151267376Y-77800500D01*
X151267381Y-77800500D01*
X151405984Y-77790113D01*
X151469103Y-77785383D01*
X151732195Y-77725334D01*
X151983398Y-77626743D01*
X152217102Y-77491815D01*
X152428085Y-77323561D01*
X152611635Y-77125741D01*
X152763651Y-76902775D01*
X152880738Y-76659641D01*
X152960280Y-76401772D01*
X153000500Y-76134929D01*
X153000500Y-75865071D01*
X152960280Y-75598228D01*
X152880738Y-75340359D01*
X152763651Y-75097226D01*
X152611635Y-74874259D01*
X152428085Y-74676439D01*
X152217102Y-74508185D01*
X151983398Y-74373257D01*
X151732195Y-74274666D01*
X151687554Y-74264477D01*
X151469100Y-74214616D01*
X151267381Y-74199500D01*
X151267376Y-74199500D01*
X151132624Y-74199500D01*
X151132619Y-74199500D01*
X150930899Y-74214616D01*
X150667804Y-74274666D01*
X150416601Y-74373257D01*
X150182899Y-74508184D01*
X149971914Y-74676439D01*
X149788366Y-74874256D01*
X149636348Y-75097227D01*
X149519262Y-75340359D01*
X149439719Y-75598228D01*
X149399500Y-75865071D01*
X149399500Y-76134929D01*
X146341633Y-76134929D01*
X146370635Y-76026692D01*
X146390468Y-75800000D01*
X146389899Y-75793502D01*
X146382963Y-75714215D01*
X146370635Y-75573308D01*
X146311739Y-75353504D01*
X146215568Y-75147266D01*
X146189077Y-75109433D01*
X146085046Y-74960859D01*
X145924140Y-74799953D01*
X145737735Y-74669432D01*
X145531497Y-74573261D01*
X145311689Y-74514364D01*
X145085000Y-74494531D01*
X144858310Y-74514364D01*
X144638502Y-74573261D01*
X144432264Y-74669432D01*
X144245859Y-74799953D01*
X144084953Y-74960859D01*
X143954432Y-75147264D01*
X143858261Y-75353502D01*
X143799364Y-75573310D01*
X143779531Y-75799999D01*
X136230468Y-75799999D01*
X136229899Y-75793502D01*
X136222963Y-75714215D01*
X136210635Y-75573308D01*
X136151739Y-75353504D01*
X136055568Y-75147266D01*
X136029077Y-75109433D01*
X135925046Y-74960859D01*
X135764140Y-74799953D01*
X135577735Y-74669432D01*
X135371497Y-74573261D01*
X135151689Y-74514364D01*
X134925000Y-74494531D01*
X134698310Y-74514364D01*
X134478502Y-74573261D01*
X134272264Y-74669432D01*
X134085859Y-74799953D01*
X133924953Y-74960859D01*
X133794432Y-75147264D01*
X133698261Y-75353502D01*
X133639364Y-75573310D01*
X133630675Y-75672618D01*
X133608721Y-75732934D01*
X133559551Y-75774192D01*
X133496339Y-75785338D01*
X133436023Y-75763385D01*
X133394766Y-75714216D01*
X133335568Y-75587266D01*
X133290516Y-75522925D01*
X133205046Y-75400859D01*
X133044140Y-75239953D01*
X132857733Y-75109431D01*
X132799725Y-75082382D01*
X132747549Y-75036625D01*
X132728129Y-74970000D01*
X132747549Y-74903375D01*
X132799725Y-74857618D01*
X132857734Y-74830568D01*
X133044139Y-74700047D01*
X133205047Y-74539139D01*
X133335568Y-74352734D01*
X133431739Y-74146496D01*
X133490635Y-73926692D01*
X133510468Y-73700000D01*
X133490635Y-73473308D01*
X133431739Y-73253504D01*
X133335568Y-73047266D01*
X133265972Y-72947872D01*
X133205046Y-72860859D01*
X133044140Y-72699953D01*
X132857733Y-72569431D01*
X132799725Y-72542382D01*
X132747549Y-72496625D01*
X132728129Y-72430000D01*
X132747549Y-72363375D01*
X132799725Y-72317618D01*
X132857734Y-72290568D01*
X133044139Y-72160047D01*
X133205047Y-71999139D01*
X133335568Y-71812734D01*
X133431739Y-71606496D01*
X133490635Y-71386692D01*
X133510468Y-71160000D01*
X133495157Y-70984999D01*
X133999531Y-70984999D01*
X134019364Y-71211689D01*
X134078261Y-71431497D01*
X134174432Y-71637735D01*
X134304953Y-71824140D01*
X134465859Y-71985046D01*
X134652264Y-72115567D01*
X134652265Y-72115567D01*
X134652266Y-72115568D01*
X134858504Y-72211739D01*
X135078308Y-72270635D01*
X135305000Y-72290468D01*
X135531692Y-72270635D01*
X135550957Y-72265473D01*
X139519500Y-72265473D01*
X139700396Y-72363369D01*
X139935506Y-72444083D01*
X140180707Y-72485000D01*
X140429293Y-72485000D01*
X140674493Y-72444083D01*
X140909603Y-72363369D01*
X141090498Y-72265473D01*
X140305000Y-71479975D01*
X139519500Y-72265473D01*
X135550957Y-72265473D01*
X135751496Y-72211739D01*
X135957734Y-72115568D01*
X136144139Y-71985047D01*
X136305047Y-71824139D01*
X136435568Y-71637734D01*
X136531739Y-71431496D01*
X136590635Y-71211692D01*
X136610468Y-70985000D01*
X138799858Y-70985000D01*
X138820386Y-71232732D01*
X138881413Y-71473721D01*
X138981267Y-71701367D01*
X139025679Y-71769344D01*
X139810025Y-70985001D01*
X140799975Y-70985001D01*
X141584319Y-71769345D01*
X141628730Y-71701369D01*
X141717059Y-71500000D01*
X144199531Y-71500000D01*
X144219364Y-71726689D01*
X144278261Y-71946497D01*
X144374432Y-72152735D01*
X144504953Y-72339140D01*
X144665859Y-72500046D01*
X144852264Y-72630567D01*
X144852265Y-72630567D01*
X144852266Y-72630568D01*
X145058504Y-72726739D01*
X145278308Y-72785635D01*
X145505000Y-72805468D01*
X145731692Y-72785635D01*
X145951496Y-72726739D01*
X146157734Y-72630568D01*
X146344139Y-72500047D01*
X146505047Y-72339139D01*
X146635568Y-72152734D01*
X146731739Y-71946496D01*
X146790635Y-71726692D01*
X146810468Y-71500000D01*
X146790635Y-71273308D01*
X146731739Y-71053504D01*
X146635568Y-70847266D01*
X146619209Y-70823903D01*
X146505046Y-70660859D01*
X146344140Y-70499953D01*
X146157735Y-70369432D01*
X145951497Y-70273261D01*
X145731689Y-70214364D01*
X145505000Y-70194531D01*
X145278310Y-70214364D01*
X145058502Y-70273261D01*
X144852264Y-70369432D01*
X144665859Y-70499953D01*
X144504953Y-70660859D01*
X144374432Y-70847264D01*
X144278261Y-71053502D01*
X144219364Y-71273310D01*
X144199531Y-71500000D01*
X141717059Y-71500000D01*
X141728586Y-71473721D01*
X141789613Y-71232732D01*
X141810141Y-70985000D01*
X141789613Y-70737267D01*
X141728586Y-70496278D01*
X141628732Y-70268632D01*
X141584319Y-70200653D01*
X140799975Y-70985000D01*
X140799975Y-70985001D01*
X139810025Y-70985001D01*
X139810025Y-70985000D01*
X139025679Y-70200654D01*
X138981267Y-70268631D01*
X138881413Y-70496278D01*
X138820386Y-70737267D01*
X138799858Y-70985000D01*
X136610468Y-70985000D01*
X136590635Y-70758308D01*
X136531739Y-70538504D01*
X136435568Y-70332266D01*
X136427582Y-70320861D01*
X136305046Y-70145859D01*
X136144140Y-69984953D01*
X135957735Y-69854432D01*
X135751497Y-69758261D01*
X135550950Y-69704525D01*
X139519500Y-69704525D01*
X140305000Y-70490025D01*
X140305001Y-70490025D01*
X141090498Y-69704525D01*
X140909603Y-69606630D01*
X140674493Y-69525916D01*
X140429293Y-69485000D01*
X140180707Y-69485000D01*
X139935506Y-69525916D01*
X139700393Y-69606631D01*
X139519500Y-69704524D01*
X139519500Y-69704525D01*
X135550950Y-69704525D01*
X135531689Y-69699364D01*
X135305000Y-69679531D01*
X135078310Y-69699364D01*
X134858502Y-69758261D01*
X134652264Y-69854432D01*
X134465859Y-69984953D01*
X134304953Y-70145859D01*
X134174432Y-70332264D01*
X134078261Y-70538502D01*
X134019364Y-70758310D01*
X133999531Y-70984999D01*
X133495157Y-70984999D01*
X133490635Y-70933308D01*
X133431739Y-70713504D01*
X133335568Y-70507266D01*
X133330447Y-70499953D01*
X133205046Y-70320859D01*
X133044140Y-70159953D01*
X132857735Y-70029432D01*
X132651497Y-69933261D01*
X132431689Y-69874364D01*
X132261786Y-69859500D01*
X132261784Y-69859500D01*
X131348216Y-69859500D01*
X131348214Y-69859500D01*
X131178310Y-69874364D01*
X130958502Y-69933261D01*
X130752264Y-70029432D01*
X130565859Y-70159953D01*
X130404953Y-70320859D01*
X130274432Y-70507264D01*
X130178261Y-70713502D01*
X130119364Y-70933310D01*
X130099531Y-71160000D01*
X130119364Y-71386689D01*
X130178261Y-71606497D01*
X130274432Y-71812735D01*
X130404953Y-71999140D01*
X130565859Y-72160046D01*
X130626248Y-72202330D01*
X130752266Y-72290568D01*
X130810273Y-72317617D01*
X130862449Y-72363373D01*
X130881869Y-72429997D01*
X130862451Y-72496622D01*
X130810276Y-72542380D01*
X130752266Y-72569431D01*
X130565859Y-72699953D01*
X130404953Y-72860859D01*
X130274432Y-73047264D01*
X130178261Y-73253502D01*
X130119364Y-73473310D01*
X130099531Y-73700000D01*
X130119364Y-73926689D01*
X130178261Y-74146497D01*
X130274432Y-74352735D01*
X130404953Y-74539140D01*
X130565859Y-74700046D01*
X130659454Y-74765581D01*
X130752266Y-74830568D01*
X130810275Y-74857618D01*
X130862450Y-74903375D01*
X130881869Y-74970000D01*
X130862450Y-75036625D01*
X130810275Y-75082382D01*
X130752263Y-75109433D01*
X130565859Y-75239953D01*
X130404953Y-75400859D01*
X130274432Y-75587264D01*
X130178261Y-75793502D01*
X130119364Y-76013310D01*
X130099531Y-76240000D01*
X130119364Y-76466689D01*
X130178261Y-76686497D01*
X130274432Y-76892735D01*
X130404953Y-77079140D01*
X130565859Y-77240046D01*
X130685131Y-77323560D01*
X130752266Y-77370568D01*
X130810275Y-77397618D01*
X130862450Y-77443375D01*
X130881869Y-77510000D01*
X130862450Y-77576625D01*
X130810275Y-77622381D01*
X130789576Y-77632033D01*
X130752263Y-77649433D01*
X130565859Y-77779953D01*
X130404953Y-77940859D01*
X130274432Y-78127264D01*
X130178261Y-78333502D01*
X130119364Y-78553310D01*
X130099531Y-78780000D01*
X130119364Y-79006689D01*
X130178261Y-79226497D01*
X130274432Y-79432735D01*
X130404953Y-79619140D01*
X130565859Y-79780046D01*
X130752262Y-79910565D01*
X130752266Y-79910568D01*
X130810273Y-79937617D01*
X130862449Y-79983373D01*
X130881869Y-80049997D01*
X130862451Y-80116622D01*
X130810276Y-80162380D01*
X130752266Y-80189431D01*
X130565859Y-80319953D01*
X130404953Y-80480859D01*
X130274432Y-80667264D01*
X130178261Y-80873502D01*
X130119364Y-81093310D01*
X130099531Y-81320000D01*
X130119364Y-81546689D01*
X130178261Y-81766497D01*
X130274432Y-81972735D01*
X130404953Y-82159140D01*
X130565859Y-82320046D01*
X130726125Y-82432264D01*
X130752266Y-82450568D01*
X130810273Y-82477617D01*
X130862449Y-82523373D01*
X130881869Y-82589997D01*
X130862451Y-82656622D01*
X130810276Y-82702380D01*
X130752266Y-82729431D01*
X130598535Y-82837075D01*
X130564699Y-82853761D01*
X130527412Y-82859500D01*
X129804500Y-82859500D01*
X129742500Y-82842887D01*
X129697113Y-82797500D01*
X129680500Y-82735500D01*
X129680500Y-79364279D01*
X129680540Y-79361137D01*
X129682757Y-79273638D01*
X129672350Y-79215574D01*
X129671041Y-79206242D01*
X129669690Y-79192960D01*
X129665074Y-79147562D01*
X129655964Y-79118528D01*
X129652227Y-79103305D01*
X129646858Y-79073347D01*
X129624969Y-79018549D01*
X129621816Y-79009689D01*
X129604160Y-78953415D01*
X129604159Y-78953414D01*
X129604159Y-78953412D01*
X129589396Y-78926816D01*
X129582663Y-78912636D01*
X129571379Y-78884385D01*
X129571378Y-78884383D01*
X129538901Y-78835106D01*
X129534040Y-78827082D01*
X129505409Y-78775498D01*
X129505408Y-78775496D01*
X129485593Y-78752415D01*
X129476144Y-78739883D01*
X129459402Y-78714481D01*
X129417699Y-78672779D01*
X129411292Y-78665866D01*
X129372865Y-78621103D01*
X129348802Y-78602477D01*
X129337022Y-78592102D01*
X129066819Y-78321899D01*
X129039939Y-78281671D01*
X129030500Y-78234218D01*
X129030500Y-68589262D01*
X129030540Y-68586120D01*
X129032757Y-68498637D01*
X129022350Y-68440574D01*
X129021041Y-68431242D01*
X129015074Y-68372562D01*
X129005962Y-68343520D01*
X129002226Y-68328297D01*
X128996858Y-68298347D01*
X128974976Y-68243566D01*
X128971816Y-68234689D01*
X128954159Y-68178412D01*
X128939395Y-68151812D01*
X128932660Y-68137631D01*
X128921377Y-68109383D01*
X128888917Y-68060131D01*
X128884036Y-68052074D01*
X128855409Y-68000498D01*
X128835582Y-67977403D01*
X128826146Y-67964888D01*
X128809402Y-67939481D01*
X128809400Y-67939479D01*
X128809399Y-67939477D01*
X128767700Y-67897779D01*
X128761294Y-67890867D01*
X128722868Y-67846106D01*
X128698805Y-67827480D01*
X128687026Y-67817105D01*
X128650394Y-67780473D01*
X144719500Y-67780473D01*
X144900396Y-67878369D01*
X145135506Y-67959083D01*
X145380707Y-68000000D01*
X145629293Y-68000000D01*
X145874493Y-67959083D01*
X146109603Y-67878369D01*
X146290498Y-67780473D01*
X145505000Y-66994975D01*
X144719500Y-67780473D01*
X128650394Y-67780473D01*
X128222566Y-67352646D01*
X128220373Y-67350397D01*
X128160059Y-67286946D01*
X128111642Y-67253247D01*
X128104119Y-67247575D01*
X128058405Y-67210300D01*
X128031440Y-67196215D01*
X128018019Y-67188084D01*
X127993049Y-67170705D01*
X127993048Y-67170704D01*
X127993046Y-67170703D01*
X127938845Y-67147443D01*
X127930336Y-67143402D01*
X127878053Y-67116092D01*
X127872126Y-67114396D01*
X127848798Y-67107721D01*
X127834020Y-67102459D01*
X127806058Y-67090460D01*
X127748272Y-67078583D01*
X127739128Y-67076338D01*
X127682421Y-67060113D01*
X127652075Y-67057802D01*
X127636534Y-67055622D01*
X127606742Y-67049500D01*
X127606741Y-67049500D01*
X127547758Y-67049500D01*
X127538344Y-67049142D01*
X127529198Y-67048445D01*
X127479524Y-67044663D01*
X127479523Y-67044663D01*
X127449349Y-67048506D01*
X127433683Y-67049500D01*
X112945782Y-67049500D01*
X112898329Y-67040061D01*
X112858101Y-67013181D01*
X112344920Y-66500000D01*
X143999858Y-66500000D01*
X144020386Y-66747732D01*
X144081413Y-66988721D01*
X144181267Y-67216367D01*
X144225679Y-67284344D01*
X145010025Y-66500001D01*
X145999975Y-66500001D01*
X146784319Y-67284345D01*
X146828730Y-67216369D01*
X146928586Y-66988721D01*
X146989613Y-66747732D01*
X147010141Y-66500000D01*
X146989613Y-66252267D01*
X146928586Y-66011278D01*
X146828732Y-65783632D01*
X146784319Y-65715653D01*
X145999975Y-66500000D01*
X145999975Y-66500001D01*
X145010025Y-66500001D01*
X145010025Y-66500000D01*
X144225679Y-65715654D01*
X144181267Y-65783631D01*
X144081413Y-66011278D01*
X144020386Y-66252267D01*
X143999858Y-66500000D01*
X112344920Y-66500000D01*
X110184919Y-64339999D01*
X117599531Y-64339999D01*
X117619364Y-64566689D01*
X117678261Y-64786497D01*
X117774432Y-64992735D01*
X117904953Y-65179140D01*
X118065859Y-65340046D01*
X118252264Y-65470567D01*
X118252265Y-65470567D01*
X118252266Y-65470568D01*
X118458504Y-65566739D01*
X118678308Y-65625635D01*
X118905000Y-65645468D01*
X119131692Y-65625635D01*
X119351496Y-65566739D01*
X119557734Y-65470568D01*
X119744139Y-65340047D01*
X119905047Y-65179139D01*
X120035568Y-64992734D01*
X120078811Y-64899999D01*
X121099531Y-64899999D01*
X121119364Y-65126689D01*
X121178261Y-65346497D01*
X121274432Y-65552735D01*
X121404953Y-65739140D01*
X121565859Y-65900046D01*
X121752264Y-66030567D01*
X121752265Y-66030567D01*
X121752266Y-66030568D01*
X121958504Y-66126739D01*
X122178308Y-66185635D01*
X122405000Y-66205468D01*
X122631692Y-66185635D01*
X122851496Y-66126739D01*
X123057734Y-66030568D01*
X123244139Y-65900047D01*
X123405047Y-65739139D01*
X123535568Y-65552734D01*
X123631739Y-65346496D01*
X123690635Y-65126692D01*
X123710468Y-64900000D01*
X131259531Y-64900000D01*
X131279364Y-65126689D01*
X131338261Y-65346497D01*
X131434432Y-65552735D01*
X131564953Y-65739140D01*
X131725859Y-65900046D01*
X131912264Y-66030567D01*
X131912265Y-66030567D01*
X131912266Y-66030568D01*
X132118504Y-66126739D01*
X132338308Y-66185635D01*
X132565000Y-66205468D01*
X132791692Y-66185635D01*
X133011496Y-66126739D01*
X133217734Y-66030568D01*
X133404139Y-65900047D01*
X133556317Y-65747869D01*
X135204500Y-65747869D01*
X135208345Y-65783631D01*
X135210909Y-65807483D01*
X135261204Y-65942331D01*
X135347454Y-66057546D01*
X135462669Y-66143796D01*
X135597517Y-66194091D01*
X135657127Y-66200500D01*
X137352872Y-66200499D01*
X137412483Y-66194091D01*
X137547331Y-66143796D01*
X137547331Y-66143795D01*
X137559229Y-66139358D01*
X137621360Y-66132973D01*
X137678722Y-66157685D01*
X137681763Y-66160052D01*
X137900393Y-66278368D01*
X138135506Y-66359083D01*
X138380707Y-66400000D01*
X138629293Y-66400000D01*
X138874493Y-66359083D01*
X139109603Y-66278369D01*
X139290498Y-66180473D01*
X138097706Y-64987681D01*
X138065612Y-64932094D01*
X138065612Y-64900001D01*
X138999975Y-64900001D01*
X139784319Y-65684345D01*
X139828730Y-65616369D01*
X139928586Y-65388721D01*
X139971432Y-65219525D01*
X144719500Y-65219525D01*
X145505000Y-66005025D01*
X145505001Y-66005025D01*
X146290498Y-65219525D01*
X146109603Y-65121630D01*
X145874493Y-65040916D01*
X145629293Y-65000000D01*
X145380707Y-65000000D01*
X145135506Y-65040916D01*
X144900393Y-65121631D01*
X144719500Y-65219524D01*
X144719500Y-65219525D01*
X139971432Y-65219525D01*
X139989613Y-65147732D01*
X140010141Y-64899999D01*
X139989613Y-64652267D01*
X139928586Y-64411278D01*
X139828732Y-64183632D01*
X139784319Y-64115653D01*
X138999975Y-64900000D01*
X138999975Y-64900001D01*
X138065612Y-64900001D01*
X138065612Y-64867906D01*
X138097706Y-64812319D01*
X138505000Y-64405025D01*
X139290498Y-63619525D01*
X139109603Y-63521630D01*
X138874493Y-63440916D01*
X138629293Y-63400000D01*
X138380707Y-63400000D01*
X138135506Y-63440916D01*
X137900393Y-63521631D01*
X137681760Y-63639948D01*
X137678717Y-63642317D01*
X137621357Y-63667026D01*
X137559228Y-63660641D01*
X137412485Y-63605909D01*
X137392612Y-63603772D01*
X137352873Y-63599500D01*
X137352869Y-63599500D01*
X135657130Y-63599500D01*
X135597515Y-63605909D01*
X135462669Y-63656204D01*
X135347454Y-63742454D01*
X135261204Y-63857668D01*
X135210909Y-63992516D01*
X135204500Y-64052130D01*
X135204500Y-65747869D01*
X133556317Y-65747869D01*
X133565047Y-65739139D01*
X133695568Y-65552734D01*
X133791739Y-65346496D01*
X133850635Y-65126692D01*
X133870468Y-64900000D01*
X133850635Y-64673308D01*
X133791739Y-64453504D01*
X133695568Y-64247266D01*
X133663712Y-64201771D01*
X133565046Y-64060859D01*
X133404140Y-63899953D01*
X133217735Y-63769432D01*
X133011497Y-63673261D01*
X132791689Y-63614364D01*
X132565000Y-63594531D01*
X132338310Y-63614364D01*
X132118502Y-63673261D01*
X131912264Y-63769432D01*
X131725859Y-63899953D01*
X131564953Y-64060859D01*
X131434432Y-64247264D01*
X131338261Y-64453502D01*
X131279364Y-64673310D01*
X131259531Y-64900000D01*
X123710468Y-64900000D01*
X123690635Y-64673308D01*
X123631739Y-64453504D01*
X123535568Y-64247266D01*
X123503712Y-64201771D01*
X123405046Y-64060859D01*
X123244140Y-63899953D01*
X123057735Y-63769432D01*
X122851497Y-63673261D01*
X122631689Y-63614364D01*
X122405000Y-63594531D01*
X122178310Y-63614364D01*
X121958502Y-63673261D01*
X121752264Y-63769432D01*
X121565859Y-63899953D01*
X121404953Y-64060859D01*
X121274432Y-64247264D01*
X121178261Y-64453502D01*
X121119364Y-64673310D01*
X121099531Y-64899999D01*
X120078811Y-64899999D01*
X120131739Y-64786496D01*
X120190635Y-64566692D01*
X120210468Y-64340000D01*
X120190635Y-64113308D01*
X120131739Y-63893504D01*
X120035568Y-63687266D01*
X120016925Y-63660641D01*
X119905046Y-63500859D01*
X119744140Y-63339953D01*
X119557735Y-63209432D01*
X119351497Y-63113261D01*
X119131689Y-63054364D01*
X118905000Y-63034531D01*
X118678310Y-63054364D01*
X118458502Y-63113261D01*
X118252264Y-63209432D01*
X118065859Y-63339953D01*
X117904953Y-63500859D01*
X117774432Y-63687264D01*
X117678261Y-63893502D01*
X117619364Y-64113310D01*
X117599531Y-64339999D01*
X110184919Y-64339999D01*
X109486818Y-63641898D01*
X109459938Y-63601670D01*
X109450499Y-63554217D01*
X109450499Y-62754991D01*
X109439999Y-62652203D01*
X109417119Y-62583157D01*
X109384814Y-62485666D01*
X109292712Y-62336344D01*
X109292711Y-62336342D01*
X109168657Y-62212288D01*
X109019334Y-62120186D01*
X108852797Y-62065000D01*
X108750009Y-62054500D01*
X107409991Y-62054500D01*
X107307203Y-62065000D01*
X107140665Y-62120186D01*
X106991342Y-62212288D01*
X106867288Y-62336342D01*
X106800081Y-62445304D01*
X106782833Y-62473269D01*
X106767578Y-62498001D01*
X106764637Y-62496187D01*
X106744574Y-62526978D01*
X106688605Y-62556047D01*
X106625576Y-62553825D01*
X106571792Y-62520887D01*
X106538035Y-62485666D01*
X106448728Y-62392484D01*
X106334748Y-62308185D01*
X106261161Y-62253760D01*
X106052847Y-62148730D01*
X105829780Y-62080417D01*
X105784870Y-62074666D01*
X105598376Y-62050784D01*
X105598372Y-62050784D01*
X105365295Y-62060685D01*
X105137232Y-62109836D01*
X104920768Y-62196819D01*
X104722107Y-62319139D01*
X104546980Y-62473270D01*
X104400423Y-62654777D01*
X104377895Y-62695103D01*
X104334655Y-62740217D01*
X104274904Y-62758515D01*
X104213816Y-62745350D01*
X104166907Y-62704064D01*
X104160850Y-62695103D01*
X104070153Y-62560912D01*
X103908728Y-62392484D01*
X103794748Y-62308185D01*
X103721161Y-62253760D01*
X103512847Y-62148730D01*
X103289780Y-62080417D01*
X103244870Y-62074666D01*
X103058376Y-62050784D01*
X103058372Y-62050784D01*
X102825295Y-62060685D01*
X102597232Y-62109836D01*
X102380768Y-62196819D01*
X102182107Y-62319139D01*
X102006978Y-62473271D01*
X101952402Y-62540862D01*
X101906139Y-62576341D01*
X101848776Y-62586756D01*
X101792994Y-62569805D01*
X101751123Y-62529236D01*
X101719205Y-62478761D01*
X101551117Y-62289028D01*
X101354763Y-62128712D01*
X101135237Y-62001968D01*
X100898222Y-61912079D01*
X100810000Y-61894069D01*
X100110000Y-61894069D01*
X100110000Y-61891844D01*
X100109999Y-61891843D01*
X99901461Y-61952247D01*
X99672444Y-62060917D01*
X99463830Y-62204914D01*
X99281015Y-62380509D01*
X99128735Y-62583157D01*
X99010932Y-62807612D01*
X98930661Y-63048054D01*
X98890000Y-63298255D01*
X98890000Y-63300000D01*
X94729981Y-63300000D01*
X94680738Y-63140359D01*
X94563651Y-62897226D01*
X94411635Y-62674259D01*
X94228085Y-62476439D01*
X94017102Y-62308185D01*
X93783398Y-62173257D01*
X93532195Y-62074666D01*
X93489850Y-62065001D01*
X93269100Y-62014616D01*
X93067381Y-61999500D01*
X93067376Y-61999500D01*
X92932624Y-61999500D01*
X92932619Y-61999500D01*
X92730899Y-62014616D01*
X92467804Y-62074666D01*
X92216601Y-62173257D01*
X91982899Y-62308184D01*
X91771914Y-62476439D01*
X91588366Y-62674256D01*
X91436348Y-62897227D01*
X91319262Y-63140359D01*
X91239719Y-63398228D01*
X91199500Y-63665071D01*
X91199500Y-63934929D01*
X83169001Y-63934929D01*
X83149956Y-63876314D01*
X83018693Y-63597366D01*
X82853510Y-63337078D01*
X82831726Y-63310746D01*
X81362474Y-64780000D01*
X80372525Y-64780000D01*
X80372525Y-64779999D01*
X78903272Y-63310745D01*
X78903271Y-63310745D01*
X78881490Y-63337075D01*
X78716306Y-63597366D01*
X78585043Y-63876314D01*
X78489779Y-64169504D01*
X78432012Y-64472330D01*
X78412655Y-64779999D01*
X70200500Y-64779999D01*
X70200500Y-62817704D01*
X79400178Y-62817704D01*
X80867500Y-64285025D01*
X82334820Y-62817705D01*
X82334820Y-62817703D01*
X82182871Y-62707306D01*
X81912723Y-62558791D01*
X81626088Y-62445304D01*
X81327491Y-62368638D01*
X81021643Y-62330000D01*
X80713357Y-62330000D01*
X80407508Y-62368638D01*
X80108911Y-62445304D01*
X79822276Y-62558791D01*
X79552128Y-62707306D01*
X79400178Y-62817703D01*
X79400178Y-62817704D01*
X70200500Y-62817704D01*
X70200500Y-60324500D01*
X70217113Y-60262500D01*
X70262500Y-60217113D01*
X70324500Y-60200500D01*
X154675500Y-60200500D01*
X154737500Y-60217113D01*
G37*
G04 #@! TD.AperFunction*
M02*
