G04 #@! TF.GenerationSoftware,KiCad,Pcbnew,7.0.1*
G04 #@! TF.CreationDate,2023-04-11T23:39:33+02:00*
G04 #@! TF.ProjectId,Usb Fume Extractor,55736220-4675-46d6-9520-457874726163,1.1*
G04 #@! TF.SameCoordinates,Original*
G04 #@! TF.FileFunction,Soldermask,Bot*
G04 #@! TF.FilePolarity,Negative*
%FSLAX46Y46*%
G04 Gerber Fmt 4.6, Leading zero omitted, Abs format (unit mm)*
G04 Created by KiCad (PCBNEW 7.0.1) date 2023-04-11 23:39:33*
%MOMM*%
%LPD*%
G01*
G04 APERTURE LIST*
G04 Aperture macros list*
%AMRoundRect*
0 Rectangle with rounded corners*
0 $1 Rounding radius*
0 $2 $3 $4 $5 $6 $7 $8 $9 X,Y pos of 4 corners*
0 Add a 4 corners polygon primitive as box body*
4,1,4,$2,$3,$4,$5,$6,$7,$8,$9,$2,$3,0*
0 Add four circle primitives for the rounded corners*
1,1,$1+$1,$2,$3*
1,1,$1+$1,$4,$5*
1,1,$1+$1,$6,$7*
1,1,$1+$1,$8,$9*
0 Add four rect primitives between the rounded corners*
20,1,$1+$1,$2,$3,$4,$5,0*
20,1,$1+$1,$4,$5,$6,$7,0*
20,1,$1+$1,$6,$7,$8,$9,0*
20,1,$1+$1,$8,$9,$2,$3,0*%
G04 Aperture macros list end*
%ADD10C,1.600000*%
%ADD11O,1.600000X1.600000*%
%ADD12R,1.700000X1.700000*%
%ADD13C,1.700000*%
%ADD14C,3.500000*%
%ADD15R,2.400000X1.600000*%
%ADD16O,2.400000X1.600000*%
%ADD17RoundRect,0.250000X0.620000X0.845000X-0.620000X0.845000X-0.620000X-0.845000X0.620000X-0.845000X0*%
%ADD18O,1.740000X2.190000*%
%ADD19C,3.200000*%
%ADD20R,1.600000X1.600000*%
%ADD21C,2.150000*%
%ADD22R,1.800000X1.800000*%
%ADD23C,1.800000*%
%ADD24RoundRect,0.750000X-1.250000X-0.750000X1.250000X-0.750000X1.250000X0.750000X-1.250000X0.750000X0*%
%ADD25C,0.500000*%
G04 APERTURE END LIST*
D10*
X134925000Y-80600000D03*
D11*
X145085000Y-80600000D03*
D10*
X134925000Y-75800000D03*
D11*
X145085000Y-75800000D03*
D12*
X85577500Y-72050000D03*
D13*
X85577500Y-69550000D03*
X83577500Y-69550000D03*
X83577500Y-72050000D03*
D14*
X80867500Y-76820000D03*
X80867500Y-64780000D03*
D15*
X124185000Y-71160000D03*
D16*
X124185000Y-73700000D03*
X124185000Y-76240000D03*
X124185000Y-78780000D03*
X124185000Y-81320000D03*
X124185000Y-83860000D03*
X124185000Y-86400000D03*
X131805000Y-86400000D03*
X131805000Y-83860000D03*
X131805000Y-81320000D03*
X131805000Y-78780000D03*
X131805000Y-76240000D03*
X131805000Y-73700000D03*
X131805000Y-71160000D03*
D17*
X108080000Y-63650000D03*
D18*
X105540000Y-63650000D03*
X103000000Y-63650000D03*
X100460000Y-63650000D03*
D19*
X73800000Y-96200000D03*
D20*
X82890000Y-88200000D03*
D10*
X84890000Y-88200000D03*
X86890000Y-88200000D03*
X88890000Y-88200000D03*
D21*
X82160000Y-85480000D03*
X82160000Y-90920000D03*
X89160000Y-85480000D03*
X89160000Y-90920000D03*
D10*
X145505000Y-71500000D03*
X145505000Y-66500000D03*
D19*
X151200000Y-76000000D03*
D10*
X97300000Y-69300000D03*
D11*
X110000000Y-69300000D03*
D22*
X138950000Y-88800000D03*
D23*
X138950000Y-91300000D03*
X138950000Y-93800000D03*
D24*
X145950000Y-86900000D03*
X145950000Y-95700000D03*
D10*
X118880000Y-83085000D03*
X118880000Y-78085000D03*
D20*
X136505000Y-64900000D03*
D10*
X138505000Y-64900000D03*
D19*
X91400000Y-81400000D03*
X91400000Y-76700000D03*
X91400000Y-72000000D03*
D10*
X118905000Y-64340000D03*
D11*
X118905000Y-74500000D03*
D19*
X93000000Y-63800000D03*
D10*
X117000000Y-93300000D03*
X122000000Y-93300000D03*
X135080000Y-93300000D03*
D11*
X124920000Y-93300000D03*
D10*
X132565000Y-64900000D03*
D11*
X122405000Y-64900000D03*
D10*
X135305000Y-70985000D03*
X140305000Y-70985000D03*
D25*
X101550000Y-84650000D03*
X100310000Y-78800000D03*
X101100000Y-78800000D03*
X106750000Y-83300000D03*
X108250000Y-83300000D03*
X101550000Y-83950000D03*
X101900000Y-78800000D03*
X107500000Y-83300000D03*
X101550000Y-85350000D03*
X100900000Y-82050000D03*
X100900000Y-82750000D03*
X106000000Y-83300000D03*
X102700000Y-78800000D03*
X101550000Y-86050000D03*
M02*
