%TF.GenerationSoftware,KiCad,Pcbnew,7.0.1*%
%TF.CreationDate,2023-04-11T23:40:37+02:00*%
%TF.ProjectId,Usb Fume Extractor,55736220-4675-46d6-9520-457874726163,1.1*%
%TF.SameCoordinates,Original*%
%TF.FileFunction,Drillmap*%
%TF.FilePolarity,Positive*%
%FSLAX45Y45*%
G04 Gerber Fmt 4.5, Leading zero omitted, Abs format (unit mm)*
G04 Created by KiCad (PCBNEW 7.0.1) date 2023-04-11 23:40:37*
%MOMM*%
%LPD*%
G01*
G04 APERTURE LIST*
%ADD10C,0.100000*%
%ADD11C,0.200000*%
%ADD12C,0.030000*%
%ADD13C,0.080000*%
%ADD14C,0.092000*%
%ADD15C,0.119000*%
%ADD16C,0.150000*%
%ADD17C,0.180000*%
%ADD18C,0.185000*%
%ADD19C,0.233000*%
G04 APERTURE END LIST*
D10*
X7000000Y-6000000D02*
X15500000Y-6000000D01*
X15500000Y-10000000D01*
X7000000Y-10000000D01*
X7000000Y-6000000D01*
D11*
D12*
X10016000Y-7865000D02*
X10046000Y-7895000D01*
X10046000Y-7865000D02*
X10016000Y-7895000D01*
X10075000Y-8190000D02*
X10105000Y-8220000D01*
X10105000Y-8190000D02*
X10075000Y-8220000D01*
X10075000Y-8260000D02*
X10105000Y-8290000D01*
X10105000Y-8260000D02*
X10075000Y-8290000D01*
X10095000Y-7865000D02*
X10125000Y-7895000D01*
X10125000Y-7865000D02*
X10095000Y-7895000D01*
X10140000Y-8380000D02*
X10170000Y-8410000D01*
X10170000Y-8380000D02*
X10140000Y-8410000D01*
X10140000Y-8450000D02*
X10170000Y-8480000D01*
X10170000Y-8450000D02*
X10140000Y-8480000D01*
X10140000Y-8520000D02*
X10170000Y-8550000D01*
X10170000Y-8520000D02*
X10140000Y-8550000D01*
X10140000Y-8590000D02*
X10170000Y-8620000D01*
X10170000Y-8590000D02*
X10140000Y-8620000D01*
X10175000Y-7865000D02*
X10205000Y-7895000D01*
X10205000Y-7865000D02*
X10175000Y-7895000D01*
X10255000Y-7865000D02*
X10285000Y-7895000D01*
X10285000Y-7865000D02*
X10255000Y-7895000D01*
X10585000Y-8315000D02*
X10615000Y-8345000D01*
X10615000Y-8315000D02*
X10585000Y-8345000D01*
X10660000Y-8315000D02*
X10690000Y-8345000D01*
X10690000Y-8315000D02*
X10660000Y-8345000D01*
X10735000Y-8315000D02*
X10765000Y-8345000D01*
X10765000Y-8315000D02*
X10735000Y-8345000D01*
X10810000Y-8315000D02*
X10840000Y-8345000D01*
X10840000Y-8315000D02*
X10810000Y-8345000D01*
D13*
X9770000Y-6930000D02*
G75*
G03*
X9770000Y-6930000I-40000J0D01*
G01*
X11040000Y-6930000D02*
G75*
G03*
X11040000Y-6930000I-40000J0D01*
G01*
X11740000Y-9330000D02*
G75*
G03*
X11740000Y-9330000I-40000J0D01*
G01*
X11928000Y-7808500D02*
G75*
G03*
X11928000Y-7808500I-40000J0D01*
G01*
X11928000Y-8308500D02*
G75*
G03*
X11928000Y-8308500I-40000J0D01*
G01*
X11930500Y-6434000D02*
G75*
G03*
X11930500Y-6434000I-40000J0D01*
G01*
X11930500Y-7450000D02*
G75*
G03*
X11930500Y-7450000I-40000J0D01*
G01*
X12240000Y-9330000D02*
G75*
G03*
X12240000Y-9330000I-40000J0D01*
G01*
X12280500Y-6490000D02*
G75*
G03*
X12280500Y-6490000I-40000J0D01*
G01*
X12458500Y-7116000D02*
G75*
G03*
X12458500Y-7116000I-40000J0D01*
G01*
X12458500Y-7370000D02*
G75*
G03*
X12458500Y-7370000I-40000J0D01*
G01*
X12458500Y-7624000D02*
G75*
G03*
X12458500Y-7624000I-40000J0D01*
G01*
X12458500Y-7878000D02*
G75*
G03*
X12458500Y-7878000I-40000J0D01*
G01*
X12458500Y-8132000D02*
G75*
G03*
X12458500Y-8132000I-40000J0D01*
G01*
X12458500Y-8386000D02*
G75*
G03*
X12458500Y-8386000I-40000J0D01*
G01*
X12458500Y-8640000D02*
G75*
G03*
X12458500Y-8640000I-40000J0D01*
G01*
X12532000Y-9330000D02*
G75*
G03*
X12532000Y-9330000I-40000J0D01*
G01*
X13220500Y-7116000D02*
G75*
G03*
X13220500Y-7116000I-40000J0D01*
G01*
X13220500Y-7370000D02*
G75*
G03*
X13220500Y-7370000I-40000J0D01*
G01*
X13220500Y-7624000D02*
G75*
G03*
X13220500Y-7624000I-40000J0D01*
G01*
X13220500Y-7878000D02*
G75*
G03*
X13220500Y-7878000I-40000J0D01*
G01*
X13220500Y-8132000D02*
G75*
G03*
X13220500Y-8132000I-40000J0D01*
G01*
X13220500Y-8386000D02*
G75*
G03*
X13220500Y-8386000I-40000J0D01*
G01*
X13220500Y-8640000D02*
G75*
G03*
X13220500Y-8640000I-40000J0D01*
G01*
X13296500Y-6490000D02*
G75*
G03*
X13296500Y-6490000I-40000J0D01*
G01*
X13532500Y-7580000D02*
G75*
G03*
X13532500Y-7580000I-40000J0D01*
G01*
X13532500Y-8060000D02*
G75*
G03*
X13532500Y-8060000I-40000J0D01*
G01*
X13548000Y-9330000D02*
G75*
G03*
X13548000Y-9330000I-40000J0D01*
G01*
X13570500Y-7098500D02*
G75*
G03*
X13570500Y-7098500I-40000J0D01*
G01*
X13690500Y-6490000D02*
G75*
G03*
X13690500Y-6490000I-40000J0D01*
G01*
X13890500Y-6490000D02*
G75*
G03*
X13890500Y-6490000I-40000J0D01*
G01*
X14070500Y-7098500D02*
G75*
G03*
X14070500Y-7098500I-40000J0D01*
G01*
X14548500Y-7580000D02*
G75*
G03*
X14548500Y-7580000I-40000J0D01*
G01*
X14548500Y-8060000D02*
G75*
G03*
X14548500Y-8060000I-40000J0D01*
G01*
X14590500Y-6650000D02*
G75*
G03*
X14590500Y-6650000I-40000J0D01*
G01*
X14590500Y-7150000D02*
G75*
G03*
X14590500Y-7150000I-40000J0D01*
G01*
D14*
X8289000Y-8774000D02*
X8289000Y-8866000D01*
X8243000Y-8820000D02*
X8335000Y-8820000D01*
X8357750Y-6909000D02*
X8357750Y-7001000D01*
X8311750Y-6955000D02*
X8403750Y-6955000D01*
X8357750Y-7159000D02*
X8357750Y-7251000D01*
X8311750Y-7205000D02*
X8403750Y-7205000D01*
X8489000Y-8774000D02*
X8489000Y-8866000D01*
X8443000Y-8820000D02*
X8535000Y-8820000D01*
X8557750Y-6909000D02*
X8557750Y-7001000D01*
X8511750Y-6955000D02*
X8603750Y-6955000D01*
X8557750Y-7159000D02*
X8557750Y-7251000D01*
X8511750Y-7205000D02*
X8603750Y-7205000D01*
X8689000Y-8774000D02*
X8689000Y-8866000D01*
X8643000Y-8820000D02*
X8735000Y-8820000D01*
X8889000Y-8774000D02*
X8889000Y-8866000D01*
X8843000Y-8820000D02*
X8935000Y-8820000D01*
D10*
X13930356Y-8915356D02*
X13930356Y-8844644D01*
X13859644Y-8844644D01*
X13859644Y-8915356D01*
X13930356Y-8915356D01*
X13930356Y-9165356D02*
X13930356Y-9094644D01*
X13859644Y-9094644D01*
X13859644Y-9165356D01*
X13930356Y-9165356D01*
X13930356Y-9415356D02*
X13930356Y-9344644D01*
X13859644Y-9344644D01*
X13859644Y-9415356D01*
X13930356Y-9415356D01*
D15*
X10046000Y-6424500D02*
X10105500Y-6365000D01*
X10046000Y-6305500D01*
X9986500Y-6365000D01*
X10046000Y-6424500D01*
X10300000Y-6424500D02*
X10359500Y-6365000D01*
X10300000Y-6305500D01*
X10240500Y-6365000D01*
X10300000Y-6424500D01*
X10554000Y-6424500D02*
X10613500Y-6365000D01*
X10554000Y-6305500D01*
X10494500Y-6365000D01*
X10554000Y-6424500D01*
X10808000Y-6424500D02*
X10867500Y-6365000D01*
X10808000Y-6305500D01*
X10748500Y-6365000D01*
X10808000Y-6424500D01*
D16*
X8141000Y-8473000D02*
X8291000Y-8623000D01*
X8291000Y-8473000D02*
X8141000Y-8623000D01*
X8291000Y-8548000D02*
G75*
G03*
X8291000Y-8548000I-75000J0D01*
G01*
X8141000Y-9017000D02*
X8291000Y-9167000D01*
X8291000Y-9017000D02*
X8141000Y-9167000D01*
X8291000Y-9092000D02*
G75*
G03*
X8291000Y-9092000I-75000J0D01*
G01*
X8841000Y-8473000D02*
X8991000Y-8623000D01*
X8991000Y-8473000D02*
X8841000Y-8623000D01*
X8991000Y-8548000D02*
G75*
G03*
X8991000Y-8548000I-75000J0D01*
G01*
X8841000Y-9017000D02*
X8991000Y-9167000D01*
X8991000Y-9017000D02*
X8841000Y-9167000D01*
X8991000Y-9092000D02*
G75*
G03*
X8991000Y-9092000I-75000J0D01*
G01*
D17*
X14505000Y-8600000D02*
X14685000Y-8780000D01*
X14685000Y-8600000D02*
X14505000Y-8780000D01*
X14595000Y-8600000D02*
X14595000Y-8780000D01*
X14505000Y-8690000D02*
X14685000Y-8690000D01*
D11*
X14580000Y-8780000D02*
X14610000Y-8780000D01*
X14610000Y-8780000D02*
G75*
G03*
X14610000Y-8600000I0J90000D01*
G01*
X14610000Y-8600000D02*
X14580000Y-8600000D01*
X14580000Y-8600000D02*
G75*
G03*
X14580000Y-8780000I0J-90000D01*
G01*
D17*
X14505000Y-9480000D02*
X14685000Y-9660000D01*
X14685000Y-9480000D02*
X14505000Y-9660000D01*
X14595000Y-9480000D02*
X14595000Y-9660000D01*
X14505000Y-9570000D02*
X14685000Y-9570000D01*
D11*
X14580000Y-9660000D02*
X14610000Y-9660000D01*
X14610000Y-9660000D02*
G75*
G03*
X14610000Y-9480000I0J90000D01*
G01*
X14610000Y-9480000D02*
X14580000Y-9480000D01*
X14580000Y-9480000D02*
G75*
G03*
X14580000Y-9660000I0J-90000D01*
G01*
D18*
X9047500Y-7107500D02*
X9232500Y-7292500D01*
X9232500Y-7107500D02*
X9047500Y-7292500D01*
X9205408Y-7265408D02*
X9205408Y-7134592D01*
X9074592Y-7134592D01*
X9074592Y-7265408D01*
X9205408Y-7265408D01*
X9047500Y-7577500D02*
X9232500Y-7762500D01*
X9232500Y-7577500D02*
X9047500Y-7762500D01*
X9205408Y-7735408D02*
X9205408Y-7604592D01*
X9074592Y-7604592D01*
X9074592Y-7735408D01*
X9205408Y-7735408D01*
X9047500Y-8047500D02*
X9232500Y-8232500D01*
X9232500Y-8047500D02*
X9047500Y-8232500D01*
X9205408Y-8205408D02*
X9205408Y-8074592D01*
X9074592Y-8074592D01*
X9074592Y-8205408D01*
X9205408Y-8205408D01*
D19*
X7970250Y-6361500D02*
X8203250Y-6594500D01*
X8203250Y-6361500D02*
X7970250Y-6594500D01*
X8086750Y-6594500D02*
X8203250Y-6478000D01*
X8086750Y-6361500D01*
X7970250Y-6478000D01*
X8086750Y-6594500D01*
X7970250Y-7565500D02*
X8203250Y-7798500D01*
X8203250Y-7565500D02*
X7970250Y-7798500D01*
X8086750Y-7798500D02*
X8203250Y-7682000D01*
X8086750Y-7565500D01*
X7970250Y-7682000D01*
X8086750Y-7798500D01*
D11*
X7242619Y-10317524D02*
X7242619Y-10117524D01*
X7242619Y-10117524D02*
X7290238Y-10117524D01*
X7290238Y-10117524D02*
X7318809Y-10127048D01*
X7318809Y-10127048D02*
X7337857Y-10146095D01*
X7337857Y-10146095D02*
X7347381Y-10165143D01*
X7347381Y-10165143D02*
X7356905Y-10203238D01*
X7356905Y-10203238D02*
X7356905Y-10231810D01*
X7356905Y-10231810D02*
X7347381Y-10269905D01*
X7347381Y-10269905D02*
X7337857Y-10288952D01*
X7337857Y-10288952D02*
X7318809Y-10308000D01*
X7318809Y-10308000D02*
X7290238Y-10317524D01*
X7290238Y-10317524D02*
X7242619Y-10317524D01*
X7442619Y-10317524D02*
X7442619Y-10184190D01*
X7442619Y-10222286D02*
X7452143Y-10203238D01*
X7452143Y-10203238D02*
X7461667Y-10193714D01*
X7461667Y-10193714D02*
X7480714Y-10184190D01*
X7480714Y-10184190D02*
X7499762Y-10184190D01*
X7566428Y-10317524D02*
X7566428Y-10184190D01*
X7566428Y-10117524D02*
X7556905Y-10127048D01*
X7556905Y-10127048D02*
X7566428Y-10136571D01*
X7566428Y-10136571D02*
X7575952Y-10127048D01*
X7575952Y-10127048D02*
X7566428Y-10117524D01*
X7566428Y-10117524D02*
X7566428Y-10136571D01*
X7690238Y-10317524D02*
X7671190Y-10308000D01*
X7671190Y-10308000D02*
X7661667Y-10288952D01*
X7661667Y-10288952D02*
X7661667Y-10117524D01*
X7795000Y-10317524D02*
X7775952Y-10308000D01*
X7775952Y-10308000D02*
X7766428Y-10288952D01*
X7766428Y-10288952D02*
X7766428Y-10117524D01*
X8023571Y-10317524D02*
X8023571Y-10117524D01*
X8023571Y-10117524D02*
X8090238Y-10260381D01*
X8090238Y-10260381D02*
X8156905Y-10117524D01*
X8156905Y-10117524D02*
X8156905Y-10317524D01*
X8337857Y-10317524D02*
X8337857Y-10212762D01*
X8337857Y-10212762D02*
X8328333Y-10193714D01*
X8328333Y-10193714D02*
X8309286Y-10184190D01*
X8309286Y-10184190D02*
X8271190Y-10184190D01*
X8271190Y-10184190D02*
X8252143Y-10193714D01*
X8337857Y-10308000D02*
X8318809Y-10317524D01*
X8318809Y-10317524D02*
X8271190Y-10317524D01*
X8271190Y-10317524D02*
X8252143Y-10308000D01*
X8252143Y-10308000D02*
X8242619Y-10288952D01*
X8242619Y-10288952D02*
X8242619Y-10269905D01*
X8242619Y-10269905D02*
X8252143Y-10250857D01*
X8252143Y-10250857D02*
X8271190Y-10241333D01*
X8271190Y-10241333D02*
X8318809Y-10241333D01*
X8318809Y-10241333D02*
X8337857Y-10231810D01*
X8433095Y-10184190D02*
X8433095Y-10384190D01*
X8433095Y-10193714D02*
X8452143Y-10184190D01*
X8452143Y-10184190D02*
X8490238Y-10184190D01*
X8490238Y-10184190D02*
X8509286Y-10193714D01*
X8509286Y-10193714D02*
X8518810Y-10203238D01*
X8518810Y-10203238D02*
X8528333Y-10222286D01*
X8528333Y-10222286D02*
X8528333Y-10279429D01*
X8528333Y-10279429D02*
X8518810Y-10298476D01*
X8518810Y-10298476D02*
X8509286Y-10308000D01*
X8509286Y-10308000D02*
X8490238Y-10317524D01*
X8490238Y-10317524D02*
X8452143Y-10317524D01*
X8452143Y-10317524D02*
X8433095Y-10308000D01*
X8614048Y-10298476D02*
X8623571Y-10308000D01*
X8623571Y-10308000D02*
X8614048Y-10317524D01*
X8614048Y-10317524D02*
X8604524Y-10308000D01*
X8604524Y-10308000D02*
X8614048Y-10298476D01*
X8614048Y-10298476D02*
X8614048Y-10317524D01*
X8614048Y-10193714D02*
X8623571Y-10203238D01*
X8623571Y-10203238D02*
X8614048Y-10212762D01*
X8614048Y-10212762D02*
X8604524Y-10203238D01*
X8604524Y-10203238D02*
X8614048Y-10193714D01*
X8614048Y-10193714D02*
X8614048Y-10212762D01*
D12*
X6965000Y-10630000D02*
X6995000Y-10660000D01*
X6995000Y-10630000D02*
X6965000Y-10660000D01*
D11*
X7280714Y-10537524D02*
X7299762Y-10537524D01*
X7299762Y-10537524D02*
X7318809Y-10547048D01*
X7318809Y-10547048D02*
X7328333Y-10556571D01*
X7328333Y-10556571D02*
X7337857Y-10575619D01*
X7337857Y-10575619D02*
X7347381Y-10613714D01*
X7347381Y-10613714D02*
X7347381Y-10661333D01*
X7347381Y-10661333D02*
X7337857Y-10699429D01*
X7337857Y-10699429D02*
X7328333Y-10718476D01*
X7328333Y-10718476D02*
X7318809Y-10728000D01*
X7318809Y-10728000D02*
X7299762Y-10737524D01*
X7299762Y-10737524D02*
X7280714Y-10737524D01*
X7280714Y-10737524D02*
X7261667Y-10728000D01*
X7261667Y-10728000D02*
X7252143Y-10718476D01*
X7252143Y-10718476D02*
X7242619Y-10699429D01*
X7242619Y-10699429D02*
X7233095Y-10661333D01*
X7233095Y-10661333D02*
X7233095Y-10613714D01*
X7233095Y-10613714D02*
X7242619Y-10575619D01*
X7242619Y-10575619D02*
X7252143Y-10556571D01*
X7252143Y-10556571D02*
X7261667Y-10547048D01*
X7261667Y-10547048D02*
X7280714Y-10537524D01*
X7433095Y-10718476D02*
X7442619Y-10728000D01*
X7442619Y-10728000D02*
X7433095Y-10737524D01*
X7433095Y-10737524D02*
X7423571Y-10728000D01*
X7423571Y-10728000D02*
X7433095Y-10718476D01*
X7433095Y-10718476D02*
X7433095Y-10737524D01*
X7509286Y-10537524D02*
X7633095Y-10537524D01*
X7633095Y-10537524D02*
X7566428Y-10613714D01*
X7566428Y-10613714D02*
X7595000Y-10613714D01*
X7595000Y-10613714D02*
X7614048Y-10623238D01*
X7614048Y-10623238D02*
X7623571Y-10632762D01*
X7623571Y-10632762D02*
X7633095Y-10651810D01*
X7633095Y-10651810D02*
X7633095Y-10699429D01*
X7633095Y-10699429D02*
X7623571Y-10718476D01*
X7623571Y-10718476D02*
X7614048Y-10728000D01*
X7614048Y-10728000D02*
X7595000Y-10737524D01*
X7595000Y-10737524D02*
X7537857Y-10737524D01*
X7537857Y-10737524D02*
X7518809Y-10728000D01*
X7518809Y-10728000D02*
X7509286Y-10718476D01*
X7756905Y-10537524D02*
X7775952Y-10537524D01*
X7775952Y-10537524D02*
X7795000Y-10547048D01*
X7795000Y-10547048D02*
X7804524Y-10556571D01*
X7804524Y-10556571D02*
X7814048Y-10575619D01*
X7814048Y-10575619D02*
X7823571Y-10613714D01*
X7823571Y-10613714D02*
X7823571Y-10661333D01*
X7823571Y-10661333D02*
X7814048Y-10699429D01*
X7814048Y-10699429D02*
X7804524Y-10718476D01*
X7804524Y-10718476D02*
X7795000Y-10728000D01*
X7795000Y-10728000D02*
X7775952Y-10737524D01*
X7775952Y-10737524D02*
X7756905Y-10737524D01*
X7756905Y-10737524D02*
X7737857Y-10728000D01*
X7737857Y-10728000D02*
X7728333Y-10718476D01*
X7728333Y-10718476D02*
X7718809Y-10699429D01*
X7718809Y-10699429D02*
X7709286Y-10661333D01*
X7709286Y-10661333D02*
X7709286Y-10613714D01*
X7709286Y-10613714D02*
X7718809Y-10575619D01*
X7718809Y-10575619D02*
X7728333Y-10556571D01*
X7728333Y-10556571D02*
X7737857Y-10547048D01*
X7737857Y-10547048D02*
X7756905Y-10537524D01*
X7947381Y-10537524D02*
X7966429Y-10537524D01*
X7966429Y-10537524D02*
X7985476Y-10547048D01*
X7985476Y-10547048D02*
X7995000Y-10556571D01*
X7995000Y-10556571D02*
X8004524Y-10575619D01*
X8004524Y-10575619D02*
X8014048Y-10613714D01*
X8014048Y-10613714D02*
X8014048Y-10661333D01*
X8014048Y-10661333D02*
X8004524Y-10699429D01*
X8004524Y-10699429D02*
X7995000Y-10718476D01*
X7995000Y-10718476D02*
X7985476Y-10728000D01*
X7985476Y-10728000D02*
X7966429Y-10737524D01*
X7966429Y-10737524D02*
X7947381Y-10737524D01*
X7947381Y-10737524D02*
X7928333Y-10728000D01*
X7928333Y-10728000D02*
X7918809Y-10718476D01*
X7918809Y-10718476D02*
X7909286Y-10699429D01*
X7909286Y-10699429D02*
X7899762Y-10661333D01*
X7899762Y-10661333D02*
X7899762Y-10613714D01*
X7899762Y-10613714D02*
X7909286Y-10575619D01*
X7909286Y-10575619D02*
X7918809Y-10556571D01*
X7918809Y-10556571D02*
X7928333Y-10547048D01*
X7928333Y-10547048D02*
X7947381Y-10537524D01*
X8099762Y-10737524D02*
X8099762Y-10604190D01*
X8099762Y-10623238D02*
X8109286Y-10613714D01*
X8109286Y-10613714D02*
X8128333Y-10604190D01*
X8128333Y-10604190D02*
X8156905Y-10604190D01*
X8156905Y-10604190D02*
X8175952Y-10613714D01*
X8175952Y-10613714D02*
X8185476Y-10632762D01*
X8185476Y-10632762D02*
X8185476Y-10737524D01*
X8185476Y-10632762D02*
X8195000Y-10613714D01*
X8195000Y-10613714D02*
X8214048Y-10604190D01*
X8214048Y-10604190D02*
X8242619Y-10604190D01*
X8242619Y-10604190D02*
X8261667Y-10613714D01*
X8261667Y-10613714D02*
X8271190Y-10632762D01*
X8271190Y-10632762D02*
X8271190Y-10737524D01*
X8366429Y-10737524D02*
X8366429Y-10604190D01*
X8366429Y-10623238D02*
X8375952Y-10613714D01*
X8375952Y-10613714D02*
X8395000Y-10604190D01*
X8395000Y-10604190D02*
X8423572Y-10604190D01*
X8423572Y-10604190D02*
X8442619Y-10613714D01*
X8442619Y-10613714D02*
X8452143Y-10632762D01*
X8452143Y-10632762D02*
X8452143Y-10737524D01*
X8452143Y-10632762D02*
X8461667Y-10613714D01*
X8461667Y-10613714D02*
X8480714Y-10604190D01*
X8480714Y-10604190D02*
X8509286Y-10604190D01*
X8509286Y-10604190D02*
X8528333Y-10613714D01*
X8528333Y-10613714D02*
X8537857Y-10632762D01*
X8537857Y-10632762D02*
X8537857Y-10737524D01*
X8928333Y-10528000D02*
X8756905Y-10785143D01*
X9185476Y-10537524D02*
X9204524Y-10537524D01*
X9204524Y-10537524D02*
X9223572Y-10547048D01*
X9223572Y-10547048D02*
X9233095Y-10556571D01*
X9233095Y-10556571D02*
X9242619Y-10575619D01*
X9242619Y-10575619D02*
X9252143Y-10613714D01*
X9252143Y-10613714D02*
X9252143Y-10661333D01*
X9252143Y-10661333D02*
X9242619Y-10699429D01*
X9242619Y-10699429D02*
X9233095Y-10718476D01*
X9233095Y-10718476D02*
X9223572Y-10728000D01*
X9223572Y-10728000D02*
X9204524Y-10737524D01*
X9204524Y-10737524D02*
X9185476Y-10737524D01*
X9185476Y-10737524D02*
X9166429Y-10728000D01*
X9166429Y-10728000D02*
X9156905Y-10718476D01*
X9156905Y-10718476D02*
X9147381Y-10699429D01*
X9147381Y-10699429D02*
X9137857Y-10661333D01*
X9137857Y-10661333D02*
X9137857Y-10613714D01*
X9137857Y-10613714D02*
X9147381Y-10575619D01*
X9147381Y-10575619D02*
X9156905Y-10556571D01*
X9156905Y-10556571D02*
X9166429Y-10547048D01*
X9166429Y-10547048D02*
X9185476Y-10537524D01*
X9337857Y-10718476D02*
X9347381Y-10728000D01*
X9347381Y-10728000D02*
X9337857Y-10737524D01*
X9337857Y-10737524D02*
X9328334Y-10728000D01*
X9328334Y-10728000D02*
X9337857Y-10718476D01*
X9337857Y-10718476D02*
X9337857Y-10737524D01*
X9471191Y-10537524D02*
X9490238Y-10537524D01*
X9490238Y-10537524D02*
X9509286Y-10547048D01*
X9509286Y-10547048D02*
X9518810Y-10556571D01*
X9518810Y-10556571D02*
X9528334Y-10575619D01*
X9528334Y-10575619D02*
X9537857Y-10613714D01*
X9537857Y-10613714D02*
X9537857Y-10661333D01*
X9537857Y-10661333D02*
X9528334Y-10699429D01*
X9528334Y-10699429D02*
X9518810Y-10718476D01*
X9518810Y-10718476D02*
X9509286Y-10728000D01*
X9509286Y-10728000D02*
X9490238Y-10737524D01*
X9490238Y-10737524D02*
X9471191Y-10737524D01*
X9471191Y-10737524D02*
X9452143Y-10728000D01*
X9452143Y-10728000D02*
X9442619Y-10718476D01*
X9442619Y-10718476D02*
X9433095Y-10699429D01*
X9433095Y-10699429D02*
X9423572Y-10661333D01*
X9423572Y-10661333D02*
X9423572Y-10613714D01*
X9423572Y-10613714D02*
X9433095Y-10575619D01*
X9433095Y-10575619D02*
X9442619Y-10556571D01*
X9442619Y-10556571D02*
X9452143Y-10547048D01*
X9452143Y-10547048D02*
X9471191Y-10537524D01*
X9728334Y-10737524D02*
X9614048Y-10737524D01*
X9671191Y-10737524D02*
X9671191Y-10537524D01*
X9671191Y-10537524D02*
X9652143Y-10566095D01*
X9652143Y-10566095D02*
X9633095Y-10585143D01*
X9633095Y-10585143D02*
X9614048Y-10594667D01*
X9918810Y-10737524D02*
X9804524Y-10737524D01*
X9861667Y-10737524D02*
X9861667Y-10537524D01*
X9861667Y-10537524D02*
X9842619Y-10566095D01*
X9842619Y-10566095D02*
X9823572Y-10585143D01*
X9823572Y-10585143D02*
X9804524Y-10594667D01*
X10033095Y-10623238D02*
X10014048Y-10613714D01*
X10014048Y-10613714D02*
X10004524Y-10604190D01*
X10004524Y-10604190D02*
X9995000Y-10585143D01*
X9995000Y-10585143D02*
X9995000Y-10575619D01*
X9995000Y-10575619D02*
X10004524Y-10556571D01*
X10004524Y-10556571D02*
X10014048Y-10547048D01*
X10014048Y-10547048D02*
X10033095Y-10537524D01*
X10033095Y-10537524D02*
X10071191Y-10537524D01*
X10071191Y-10537524D02*
X10090238Y-10547048D01*
X10090238Y-10547048D02*
X10099762Y-10556571D01*
X10099762Y-10556571D02*
X10109286Y-10575619D01*
X10109286Y-10575619D02*
X10109286Y-10585143D01*
X10109286Y-10585143D02*
X10099762Y-10604190D01*
X10099762Y-10604190D02*
X10090238Y-10613714D01*
X10090238Y-10613714D02*
X10071191Y-10623238D01*
X10071191Y-10623238D02*
X10033095Y-10623238D01*
X10033095Y-10623238D02*
X10014048Y-10632762D01*
X10014048Y-10632762D02*
X10004524Y-10642286D01*
X10004524Y-10642286D02*
X9995000Y-10661333D01*
X9995000Y-10661333D02*
X9995000Y-10699429D01*
X9995000Y-10699429D02*
X10004524Y-10718476D01*
X10004524Y-10718476D02*
X10014048Y-10728000D01*
X10014048Y-10728000D02*
X10033095Y-10737524D01*
X10033095Y-10737524D02*
X10071191Y-10737524D01*
X10071191Y-10737524D02*
X10090238Y-10728000D01*
X10090238Y-10728000D02*
X10099762Y-10718476D01*
X10099762Y-10718476D02*
X10109286Y-10699429D01*
X10109286Y-10699429D02*
X10109286Y-10661333D01*
X10109286Y-10661333D02*
X10099762Y-10642286D01*
X10099762Y-10642286D02*
X10090238Y-10632762D01*
X10090238Y-10632762D02*
X10071191Y-10623238D01*
X10185476Y-10537524D02*
X10185476Y-10575619D01*
X10261667Y-10537524D02*
X10261667Y-10575619D01*
X10556905Y-10813714D02*
X10547381Y-10804190D01*
X10547381Y-10804190D02*
X10528334Y-10775619D01*
X10528334Y-10775619D02*
X10518810Y-10756571D01*
X10518810Y-10756571D02*
X10509286Y-10728000D01*
X10509286Y-10728000D02*
X10499762Y-10680381D01*
X10499762Y-10680381D02*
X10499762Y-10642286D01*
X10499762Y-10642286D02*
X10509286Y-10594667D01*
X10509286Y-10594667D02*
X10518810Y-10566095D01*
X10518810Y-10566095D02*
X10528334Y-10547048D01*
X10528334Y-10547048D02*
X10547381Y-10518476D01*
X10547381Y-10518476D02*
X10556905Y-10508952D01*
X10737857Y-10737524D02*
X10623572Y-10737524D01*
X10680715Y-10737524D02*
X10680715Y-10537524D01*
X10680715Y-10537524D02*
X10661667Y-10566095D01*
X10661667Y-10566095D02*
X10642619Y-10585143D01*
X10642619Y-10585143D02*
X10623572Y-10594667D01*
X10909286Y-10604190D02*
X10909286Y-10737524D01*
X10861667Y-10528000D02*
X10814048Y-10670857D01*
X10814048Y-10670857D02*
X10937857Y-10670857D01*
X11166429Y-10737524D02*
X11166429Y-10537524D01*
X11252143Y-10737524D02*
X11252143Y-10632762D01*
X11252143Y-10632762D02*
X11242619Y-10613714D01*
X11242619Y-10613714D02*
X11223572Y-10604190D01*
X11223572Y-10604190D02*
X11195000Y-10604190D01*
X11195000Y-10604190D02*
X11175953Y-10613714D01*
X11175953Y-10613714D02*
X11166429Y-10623238D01*
X11375953Y-10737524D02*
X11356905Y-10728000D01*
X11356905Y-10728000D02*
X11347381Y-10718476D01*
X11347381Y-10718476D02*
X11337857Y-10699429D01*
X11337857Y-10699429D02*
X11337857Y-10642286D01*
X11337857Y-10642286D02*
X11347381Y-10623238D01*
X11347381Y-10623238D02*
X11356905Y-10613714D01*
X11356905Y-10613714D02*
X11375953Y-10604190D01*
X11375953Y-10604190D02*
X11404524Y-10604190D01*
X11404524Y-10604190D02*
X11423572Y-10613714D01*
X11423572Y-10613714D02*
X11433096Y-10623238D01*
X11433096Y-10623238D02*
X11442619Y-10642286D01*
X11442619Y-10642286D02*
X11442619Y-10699429D01*
X11442619Y-10699429D02*
X11433096Y-10718476D01*
X11433096Y-10718476D02*
X11423572Y-10728000D01*
X11423572Y-10728000D02*
X11404524Y-10737524D01*
X11404524Y-10737524D02*
X11375953Y-10737524D01*
X11556905Y-10737524D02*
X11537857Y-10728000D01*
X11537857Y-10728000D02*
X11528334Y-10708952D01*
X11528334Y-10708952D02*
X11528334Y-10537524D01*
X11709286Y-10728000D02*
X11690238Y-10737524D01*
X11690238Y-10737524D02*
X11652143Y-10737524D01*
X11652143Y-10737524D02*
X11633096Y-10728000D01*
X11633096Y-10728000D02*
X11623572Y-10708952D01*
X11623572Y-10708952D02*
X11623572Y-10632762D01*
X11623572Y-10632762D02*
X11633096Y-10613714D01*
X11633096Y-10613714D02*
X11652143Y-10604190D01*
X11652143Y-10604190D02*
X11690238Y-10604190D01*
X11690238Y-10604190D02*
X11709286Y-10613714D01*
X11709286Y-10613714D02*
X11718810Y-10632762D01*
X11718810Y-10632762D02*
X11718810Y-10651810D01*
X11718810Y-10651810D02*
X11623572Y-10670857D01*
X11795000Y-10728000D02*
X11814048Y-10737524D01*
X11814048Y-10737524D02*
X11852143Y-10737524D01*
X11852143Y-10737524D02*
X11871191Y-10728000D01*
X11871191Y-10728000D02*
X11880715Y-10708952D01*
X11880715Y-10708952D02*
X11880715Y-10699429D01*
X11880715Y-10699429D02*
X11871191Y-10680381D01*
X11871191Y-10680381D02*
X11852143Y-10670857D01*
X11852143Y-10670857D02*
X11823572Y-10670857D01*
X11823572Y-10670857D02*
X11804524Y-10661333D01*
X11804524Y-10661333D02*
X11795000Y-10642286D01*
X11795000Y-10642286D02*
X11795000Y-10632762D01*
X11795000Y-10632762D02*
X11804524Y-10613714D01*
X11804524Y-10613714D02*
X11823572Y-10604190D01*
X11823572Y-10604190D02*
X11852143Y-10604190D01*
X11852143Y-10604190D02*
X11871191Y-10613714D01*
X11947381Y-10813714D02*
X11956905Y-10804190D01*
X11956905Y-10804190D02*
X11975953Y-10775619D01*
X11975953Y-10775619D02*
X11985477Y-10756571D01*
X11985477Y-10756571D02*
X11995000Y-10728000D01*
X11995000Y-10728000D02*
X12004524Y-10680381D01*
X12004524Y-10680381D02*
X12004524Y-10642286D01*
X12004524Y-10642286D02*
X11995000Y-10594667D01*
X11995000Y-10594667D02*
X11985477Y-10566095D01*
X11985477Y-10566095D02*
X11975953Y-10547048D01*
X11975953Y-10547048D02*
X11956905Y-10518476D01*
X11956905Y-10518476D02*
X11947381Y-10508952D01*
D13*
X6995000Y-10909000D02*
G75*
G03*
X6995000Y-10909000I-40000J0D01*
G01*
D11*
X7280714Y-10801524D02*
X7299762Y-10801524D01*
X7299762Y-10801524D02*
X7318809Y-10811048D01*
X7318809Y-10811048D02*
X7328333Y-10820571D01*
X7328333Y-10820571D02*
X7337857Y-10839619D01*
X7337857Y-10839619D02*
X7347381Y-10877714D01*
X7347381Y-10877714D02*
X7347381Y-10925333D01*
X7347381Y-10925333D02*
X7337857Y-10963429D01*
X7337857Y-10963429D02*
X7328333Y-10982476D01*
X7328333Y-10982476D02*
X7318809Y-10992000D01*
X7318809Y-10992000D02*
X7299762Y-11001524D01*
X7299762Y-11001524D02*
X7280714Y-11001524D01*
X7280714Y-11001524D02*
X7261667Y-10992000D01*
X7261667Y-10992000D02*
X7252143Y-10982476D01*
X7252143Y-10982476D02*
X7242619Y-10963429D01*
X7242619Y-10963429D02*
X7233095Y-10925333D01*
X7233095Y-10925333D02*
X7233095Y-10877714D01*
X7233095Y-10877714D02*
X7242619Y-10839619D01*
X7242619Y-10839619D02*
X7252143Y-10820571D01*
X7252143Y-10820571D02*
X7261667Y-10811048D01*
X7261667Y-10811048D02*
X7280714Y-10801524D01*
X7433095Y-10982476D02*
X7442619Y-10992000D01*
X7442619Y-10992000D02*
X7433095Y-11001524D01*
X7433095Y-11001524D02*
X7423571Y-10992000D01*
X7423571Y-10992000D02*
X7433095Y-10982476D01*
X7433095Y-10982476D02*
X7433095Y-11001524D01*
X7556905Y-10887238D02*
X7537857Y-10877714D01*
X7537857Y-10877714D02*
X7528333Y-10868190D01*
X7528333Y-10868190D02*
X7518809Y-10849143D01*
X7518809Y-10849143D02*
X7518809Y-10839619D01*
X7518809Y-10839619D02*
X7528333Y-10820571D01*
X7528333Y-10820571D02*
X7537857Y-10811048D01*
X7537857Y-10811048D02*
X7556905Y-10801524D01*
X7556905Y-10801524D02*
X7595000Y-10801524D01*
X7595000Y-10801524D02*
X7614048Y-10811048D01*
X7614048Y-10811048D02*
X7623571Y-10820571D01*
X7623571Y-10820571D02*
X7633095Y-10839619D01*
X7633095Y-10839619D02*
X7633095Y-10849143D01*
X7633095Y-10849143D02*
X7623571Y-10868190D01*
X7623571Y-10868190D02*
X7614048Y-10877714D01*
X7614048Y-10877714D02*
X7595000Y-10887238D01*
X7595000Y-10887238D02*
X7556905Y-10887238D01*
X7556905Y-10887238D02*
X7537857Y-10896762D01*
X7537857Y-10896762D02*
X7528333Y-10906286D01*
X7528333Y-10906286D02*
X7518809Y-10925333D01*
X7518809Y-10925333D02*
X7518809Y-10963429D01*
X7518809Y-10963429D02*
X7528333Y-10982476D01*
X7528333Y-10982476D02*
X7537857Y-10992000D01*
X7537857Y-10992000D02*
X7556905Y-11001524D01*
X7556905Y-11001524D02*
X7595000Y-11001524D01*
X7595000Y-11001524D02*
X7614048Y-10992000D01*
X7614048Y-10992000D02*
X7623571Y-10982476D01*
X7623571Y-10982476D02*
X7633095Y-10963429D01*
X7633095Y-10963429D02*
X7633095Y-10925333D01*
X7633095Y-10925333D02*
X7623571Y-10906286D01*
X7623571Y-10906286D02*
X7614048Y-10896762D01*
X7614048Y-10896762D02*
X7595000Y-10887238D01*
X7756905Y-10801524D02*
X7775952Y-10801524D01*
X7775952Y-10801524D02*
X7795000Y-10811048D01*
X7795000Y-10811048D02*
X7804524Y-10820571D01*
X7804524Y-10820571D02*
X7814048Y-10839619D01*
X7814048Y-10839619D02*
X7823571Y-10877714D01*
X7823571Y-10877714D02*
X7823571Y-10925333D01*
X7823571Y-10925333D02*
X7814048Y-10963429D01*
X7814048Y-10963429D02*
X7804524Y-10982476D01*
X7804524Y-10982476D02*
X7795000Y-10992000D01*
X7795000Y-10992000D02*
X7775952Y-11001524D01*
X7775952Y-11001524D02*
X7756905Y-11001524D01*
X7756905Y-11001524D02*
X7737857Y-10992000D01*
X7737857Y-10992000D02*
X7728333Y-10982476D01*
X7728333Y-10982476D02*
X7718809Y-10963429D01*
X7718809Y-10963429D02*
X7709286Y-10925333D01*
X7709286Y-10925333D02*
X7709286Y-10877714D01*
X7709286Y-10877714D02*
X7718809Y-10839619D01*
X7718809Y-10839619D02*
X7728333Y-10820571D01*
X7728333Y-10820571D02*
X7737857Y-10811048D01*
X7737857Y-10811048D02*
X7756905Y-10801524D01*
X7947381Y-10801524D02*
X7966429Y-10801524D01*
X7966429Y-10801524D02*
X7985476Y-10811048D01*
X7985476Y-10811048D02*
X7995000Y-10820571D01*
X7995000Y-10820571D02*
X8004524Y-10839619D01*
X8004524Y-10839619D02*
X8014048Y-10877714D01*
X8014048Y-10877714D02*
X8014048Y-10925333D01*
X8014048Y-10925333D02*
X8004524Y-10963429D01*
X8004524Y-10963429D02*
X7995000Y-10982476D01*
X7995000Y-10982476D02*
X7985476Y-10992000D01*
X7985476Y-10992000D02*
X7966429Y-11001524D01*
X7966429Y-11001524D02*
X7947381Y-11001524D01*
X7947381Y-11001524D02*
X7928333Y-10992000D01*
X7928333Y-10992000D02*
X7918809Y-10982476D01*
X7918809Y-10982476D02*
X7909286Y-10963429D01*
X7909286Y-10963429D02*
X7899762Y-10925333D01*
X7899762Y-10925333D02*
X7899762Y-10877714D01*
X7899762Y-10877714D02*
X7909286Y-10839619D01*
X7909286Y-10839619D02*
X7918809Y-10820571D01*
X7918809Y-10820571D02*
X7928333Y-10811048D01*
X7928333Y-10811048D02*
X7947381Y-10801524D01*
X8099762Y-11001524D02*
X8099762Y-10868190D01*
X8099762Y-10887238D02*
X8109286Y-10877714D01*
X8109286Y-10877714D02*
X8128333Y-10868190D01*
X8128333Y-10868190D02*
X8156905Y-10868190D01*
X8156905Y-10868190D02*
X8175952Y-10877714D01*
X8175952Y-10877714D02*
X8185476Y-10896762D01*
X8185476Y-10896762D02*
X8185476Y-11001524D01*
X8185476Y-10896762D02*
X8195000Y-10877714D01*
X8195000Y-10877714D02*
X8214048Y-10868190D01*
X8214048Y-10868190D02*
X8242619Y-10868190D01*
X8242619Y-10868190D02*
X8261667Y-10877714D01*
X8261667Y-10877714D02*
X8271190Y-10896762D01*
X8271190Y-10896762D02*
X8271190Y-11001524D01*
X8366429Y-11001524D02*
X8366429Y-10868190D01*
X8366429Y-10887238D02*
X8375952Y-10877714D01*
X8375952Y-10877714D02*
X8395000Y-10868190D01*
X8395000Y-10868190D02*
X8423572Y-10868190D01*
X8423572Y-10868190D02*
X8442619Y-10877714D01*
X8442619Y-10877714D02*
X8452143Y-10896762D01*
X8452143Y-10896762D02*
X8452143Y-11001524D01*
X8452143Y-10896762D02*
X8461667Y-10877714D01*
X8461667Y-10877714D02*
X8480714Y-10868190D01*
X8480714Y-10868190D02*
X8509286Y-10868190D01*
X8509286Y-10868190D02*
X8528333Y-10877714D01*
X8528333Y-10877714D02*
X8537857Y-10896762D01*
X8537857Y-10896762D02*
X8537857Y-11001524D01*
X8928333Y-10792000D02*
X8756905Y-11049143D01*
X9185476Y-10801524D02*
X9204524Y-10801524D01*
X9204524Y-10801524D02*
X9223572Y-10811048D01*
X9223572Y-10811048D02*
X9233095Y-10820571D01*
X9233095Y-10820571D02*
X9242619Y-10839619D01*
X9242619Y-10839619D02*
X9252143Y-10877714D01*
X9252143Y-10877714D02*
X9252143Y-10925333D01*
X9252143Y-10925333D02*
X9242619Y-10963429D01*
X9242619Y-10963429D02*
X9233095Y-10982476D01*
X9233095Y-10982476D02*
X9223572Y-10992000D01*
X9223572Y-10992000D02*
X9204524Y-11001524D01*
X9204524Y-11001524D02*
X9185476Y-11001524D01*
X9185476Y-11001524D02*
X9166429Y-10992000D01*
X9166429Y-10992000D02*
X9156905Y-10982476D01*
X9156905Y-10982476D02*
X9147381Y-10963429D01*
X9147381Y-10963429D02*
X9137857Y-10925333D01*
X9137857Y-10925333D02*
X9137857Y-10877714D01*
X9137857Y-10877714D02*
X9147381Y-10839619D01*
X9147381Y-10839619D02*
X9156905Y-10820571D01*
X9156905Y-10820571D02*
X9166429Y-10811048D01*
X9166429Y-10811048D02*
X9185476Y-10801524D01*
X9337857Y-10982476D02*
X9347381Y-10992000D01*
X9347381Y-10992000D02*
X9337857Y-11001524D01*
X9337857Y-11001524D02*
X9328334Y-10992000D01*
X9328334Y-10992000D02*
X9337857Y-10982476D01*
X9337857Y-10982476D02*
X9337857Y-11001524D01*
X9471191Y-10801524D02*
X9490238Y-10801524D01*
X9490238Y-10801524D02*
X9509286Y-10811048D01*
X9509286Y-10811048D02*
X9518810Y-10820571D01*
X9518810Y-10820571D02*
X9528334Y-10839619D01*
X9528334Y-10839619D02*
X9537857Y-10877714D01*
X9537857Y-10877714D02*
X9537857Y-10925333D01*
X9537857Y-10925333D02*
X9528334Y-10963429D01*
X9528334Y-10963429D02*
X9518810Y-10982476D01*
X9518810Y-10982476D02*
X9509286Y-10992000D01*
X9509286Y-10992000D02*
X9490238Y-11001524D01*
X9490238Y-11001524D02*
X9471191Y-11001524D01*
X9471191Y-11001524D02*
X9452143Y-10992000D01*
X9452143Y-10992000D02*
X9442619Y-10982476D01*
X9442619Y-10982476D02*
X9433095Y-10963429D01*
X9433095Y-10963429D02*
X9423572Y-10925333D01*
X9423572Y-10925333D02*
X9423572Y-10877714D01*
X9423572Y-10877714D02*
X9433095Y-10839619D01*
X9433095Y-10839619D02*
X9442619Y-10820571D01*
X9442619Y-10820571D02*
X9452143Y-10811048D01*
X9452143Y-10811048D02*
X9471191Y-10801524D01*
X9604524Y-10801524D02*
X9728334Y-10801524D01*
X9728334Y-10801524D02*
X9661667Y-10877714D01*
X9661667Y-10877714D02*
X9690238Y-10877714D01*
X9690238Y-10877714D02*
X9709286Y-10887238D01*
X9709286Y-10887238D02*
X9718810Y-10896762D01*
X9718810Y-10896762D02*
X9728334Y-10915810D01*
X9728334Y-10915810D02*
X9728334Y-10963429D01*
X9728334Y-10963429D02*
X9718810Y-10982476D01*
X9718810Y-10982476D02*
X9709286Y-10992000D01*
X9709286Y-10992000D02*
X9690238Y-11001524D01*
X9690238Y-11001524D02*
X9633095Y-11001524D01*
X9633095Y-11001524D02*
X9614048Y-10992000D01*
X9614048Y-10992000D02*
X9604524Y-10982476D01*
X9918810Y-11001524D02*
X9804524Y-11001524D01*
X9861667Y-11001524D02*
X9861667Y-10801524D01*
X9861667Y-10801524D02*
X9842619Y-10830095D01*
X9842619Y-10830095D02*
X9823572Y-10849143D01*
X9823572Y-10849143D02*
X9804524Y-10858667D01*
X10099762Y-10801524D02*
X10004524Y-10801524D01*
X10004524Y-10801524D02*
X9995000Y-10896762D01*
X9995000Y-10896762D02*
X10004524Y-10887238D01*
X10004524Y-10887238D02*
X10023572Y-10877714D01*
X10023572Y-10877714D02*
X10071191Y-10877714D01*
X10071191Y-10877714D02*
X10090238Y-10887238D01*
X10090238Y-10887238D02*
X10099762Y-10896762D01*
X10099762Y-10896762D02*
X10109286Y-10915810D01*
X10109286Y-10915810D02*
X10109286Y-10963429D01*
X10109286Y-10963429D02*
X10099762Y-10982476D01*
X10099762Y-10982476D02*
X10090238Y-10992000D01*
X10090238Y-10992000D02*
X10071191Y-11001524D01*
X10071191Y-11001524D02*
X10023572Y-11001524D01*
X10023572Y-11001524D02*
X10004524Y-10992000D01*
X10004524Y-10992000D02*
X9995000Y-10982476D01*
X10185476Y-10801524D02*
X10185476Y-10839619D01*
X10261667Y-10801524D02*
X10261667Y-10839619D01*
X10556905Y-11077714D02*
X10547381Y-11068190D01*
X10547381Y-11068190D02*
X10528334Y-11039619D01*
X10528334Y-11039619D02*
X10518810Y-11020571D01*
X10518810Y-11020571D02*
X10509286Y-10992000D01*
X10509286Y-10992000D02*
X10499762Y-10944381D01*
X10499762Y-10944381D02*
X10499762Y-10906286D01*
X10499762Y-10906286D02*
X10509286Y-10858667D01*
X10509286Y-10858667D02*
X10518810Y-10830095D01*
X10518810Y-10830095D02*
X10528334Y-10811048D01*
X10528334Y-10811048D02*
X10547381Y-10782476D01*
X10547381Y-10782476D02*
X10556905Y-10772952D01*
X10614048Y-10801524D02*
X10737857Y-10801524D01*
X10737857Y-10801524D02*
X10671191Y-10877714D01*
X10671191Y-10877714D02*
X10699762Y-10877714D01*
X10699762Y-10877714D02*
X10718810Y-10887238D01*
X10718810Y-10887238D02*
X10728334Y-10896762D01*
X10728334Y-10896762D02*
X10737857Y-10915810D01*
X10737857Y-10915810D02*
X10737857Y-10963429D01*
X10737857Y-10963429D02*
X10728334Y-10982476D01*
X10728334Y-10982476D02*
X10718810Y-10992000D01*
X10718810Y-10992000D02*
X10699762Y-11001524D01*
X10699762Y-11001524D02*
X10642619Y-11001524D01*
X10642619Y-11001524D02*
X10623572Y-10992000D01*
X10623572Y-10992000D02*
X10614048Y-10982476D01*
X10909286Y-10801524D02*
X10871191Y-10801524D01*
X10871191Y-10801524D02*
X10852143Y-10811048D01*
X10852143Y-10811048D02*
X10842619Y-10820571D01*
X10842619Y-10820571D02*
X10823572Y-10849143D01*
X10823572Y-10849143D02*
X10814048Y-10887238D01*
X10814048Y-10887238D02*
X10814048Y-10963429D01*
X10814048Y-10963429D02*
X10823572Y-10982476D01*
X10823572Y-10982476D02*
X10833096Y-10992000D01*
X10833096Y-10992000D02*
X10852143Y-11001524D01*
X10852143Y-11001524D02*
X10890238Y-11001524D01*
X10890238Y-11001524D02*
X10909286Y-10992000D01*
X10909286Y-10992000D02*
X10918810Y-10982476D01*
X10918810Y-10982476D02*
X10928334Y-10963429D01*
X10928334Y-10963429D02*
X10928334Y-10915810D01*
X10928334Y-10915810D02*
X10918810Y-10896762D01*
X10918810Y-10896762D02*
X10909286Y-10887238D01*
X10909286Y-10887238D02*
X10890238Y-10877714D01*
X10890238Y-10877714D02*
X10852143Y-10877714D01*
X10852143Y-10877714D02*
X10833096Y-10887238D01*
X10833096Y-10887238D02*
X10823572Y-10896762D01*
X10823572Y-10896762D02*
X10814048Y-10915810D01*
X11166429Y-11001524D02*
X11166429Y-10801524D01*
X11252143Y-11001524D02*
X11252143Y-10896762D01*
X11252143Y-10896762D02*
X11242619Y-10877714D01*
X11242619Y-10877714D02*
X11223572Y-10868190D01*
X11223572Y-10868190D02*
X11195000Y-10868190D01*
X11195000Y-10868190D02*
X11175953Y-10877714D01*
X11175953Y-10877714D02*
X11166429Y-10887238D01*
X11375953Y-11001524D02*
X11356905Y-10992000D01*
X11356905Y-10992000D02*
X11347381Y-10982476D01*
X11347381Y-10982476D02*
X11337857Y-10963429D01*
X11337857Y-10963429D02*
X11337857Y-10906286D01*
X11337857Y-10906286D02*
X11347381Y-10887238D01*
X11347381Y-10887238D02*
X11356905Y-10877714D01*
X11356905Y-10877714D02*
X11375953Y-10868190D01*
X11375953Y-10868190D02*
X11404524Y-10868190D01*
X11404524Y-10868190D02*
X11423572Y-10877714D01*
X11423572Y-10877714D02*
X11433096Y-10887238D01*
X11433096Y-10887238D02*
X11442619Y-10906286D01*
X11442619Y-10906286D02*
X11442619Y-10963429D01*
X11442619Y-10963429D02*
X11433096Y-10982476D01*
X11433096Y-10982476D02*
X11423572Y-10992000D01*
X11423572Y-10992000D02*
X11404524Y-11001524D01*
X11404524Y-11001524D02*
X11375953Y-11001524D01*
X11556905Y-11001524D02*
X11537857Y-10992000D01*
X11537857Y-10992000D02*
X11528334Y-10972952D01*
X11528334Y-10972952D02*
X11528334Y-10801524D01*
X11709286Y-10992000D02*
X11690238Y-11001524D01*
X11690238Y-11001524D02*
X11652143Y-11001524D01*
X11652143Y-11001524D02*
X11633096Y-10992000D01*
X11633096Y-10992000D02*
X11623572Y-10972952D01*
X11623572Y-10972952D02*
X11623572Y-10896762D01*
X11623572Y-10896762D02*
X11633096Y-10877714D01*
X11633096Y-10877714D02*
X11652143Y-10868190D01*
X11652143Y-10868190D02*
X11690238Y-10868190D01*
X11690238Y-10868190D02*
X11709286Y-10877714D01*
X11709286Y-10877714D02*
X11718810Y-10896762D01*
X11718810Y-10896762D02*
X11718810Y-10915810D01*
X11718810Y-10915810D02*
X11623572Y-10934857D01*
X11795000Y-10992000D02*
X11814048Y-11001524D01*
X11814048Y-11001524D02*
X11852143Y-11001524D01*
X11852143Y-11001524D02*
X11871191Y-10992000D01*
X11871191Y-10992000D02*
X11880715Y-10972952D01*
X11880715Y-10972952D02*
X11880715Y-10963429D01*
X11880715Y-10963429D02*
X11871191Y-10944381D01*
X11871191Y-10944381D02*
X11852143Y-10934857D01*
X11852143Y-10934857D02*
X11823572Y-10934857D01*
X11823572Y-10934857D02*
X11804524Y-10925333D01*
X11804524Y-10925333D02*
X11795000Y-10906286D01*
X11795000Y-10906286D02*
X11795000Y-10896762D01*
X11795000Y-10896762D02*
X11804524Y-10877714D01*
X11804524Y-10877714D02*
X11823572Y-10868190D01*
X11823572Y-10868190D02*
X11852143Y-10868190D01*
X11852143Y-10868190D02*
X11871191Y-10877714D01*
X11947381Y-11077714D02*
X11956905Y-11068190D01*
X11956905Y-11068190D02*
X11975953Y-11039619D01*
X11975953Y-11039619D02*
X11985477Y-11020571D01*
X11985477Y-11020571D02*
X11995000Y-10992000D01*
X11995000Y-10992000D02*
X12004524Y-10944381D01*
X12004524Y-10944381D02*
X12004524Y-10906286D01*
X12004524Y-10906286D02*
X11995000Y-10858667D01*
X11995000Y-10858667D02*
X11985477Y-10830095D01*
X11985477Y-10830095D02*
X11975953Y-10811048D01*
X11975953Y-10811048D02*
X11956905Y-10782476D01*
X11956905Y-10782476D02*
X11947381Y-10772952D01*
D14*
X6949000Y-11127000D02*
X6949000Y-11219000D01*
X6903000Y-11173000D02*
X6995000Y-11173000D01*
D11*
X7280714Y-11065524D02*
X7299762Y-11065524D01*
X7299762Y-11065524D02*
X7318809Y-11075048D01*
X7318809Y-11075048D02*
X7328333Y-11084571D01*
X7328333Y-11084571D02*
X7337857Y-11103619D01*
X7337857Y-11103619D02*
X7347381Y-11141714D01*
X7347381Y-11141714D02*
X7347381Y-11189333D01*
X7347381Y-11189333D02*
X7337857Y-11227428D01*
X7337857Y-11227428D02*
X7328333Y-11246476D01*
X7328333Y-11246476D02*
X7318809Y-11256000D01*
X7318809Y-11256000D02*
X7299762Y-11265524D01*
X7299762Y-11265524D02*
X7280714Y-11265524D01*
X7280714Y-11265524D02*
X7261667Y-11256000D01*
X7261667Y-11256000D02*
X7252143Y-11246476D01*
X7252143Y-11246476D02*
X7242619Y-11227428D01*
X7242619Y-11227428D02*
X7233095Y-11189333D01*
X7233095Y-11189333D02*
X7233095Y-11141714D01*
X7233095Y-11141714D02*
X7242619Y-11103619D01*
X7242619Y-11103619D02*
X7252143Y-11084571D01*
X7252143Y-11084571D02*
X7261667Y-11075048D01*
X7261667Y-11075048D02*
X7280714Y-11065524D01*
X7433095Y-11246476D02*
X7442619Y-11256000D01*
X7442619Y-11256000D02*
X7433095Y-11265524D01*
X7433095Y-11265524D02*
X7423571Y-11256000D01*
X7423571Y-11256000D02*
X7433095Y-11246476D01*
X7433095Y-11246476D02*
X7433095Y-11265524D01*
X7537857Y-11265524D02*
X7575952Y-11265524D01*
X7575952Y-11265524D02*
X7595000Y-11256000D01*
X7595000Y-11256000D02*
X7604524Y-11246476D01*
X7604524Y-11246476D02*
X7623571Y-11217905D01*
X7623571Y-11217905D02*
X7633095Y-11179810D01*
X7633095Y-11179810D02*
X7633095Y-11103619D01*
X7633095Y-11103619D02*
X7623571Y-11084571D01*
X7623571Y-11084571D02*
X7614048Y-11075048D01*
X7614048Y-11075048D02*
X7595000Y-11065524D01*
X7595000Y-11065524D02*
X7556905Y-11065524D01*
X7556905Y-11065524D02*
X7537857Y-11075048D01*
X7537857Y-11075048D02*
X7528333Y-11084571D01*
X7528333Y-11084571D02*
X7518809Y-11103619D01*
X7518809Y-11103619D02*
X7518809Y-11151238D01*
X7518809Y-11151238D02*
X7528333Y-11170286D01*
X7528333Y-11170286D02*
X7537857Y-11179810D01*
X7537857Y-11179810D02*
X7556905Y-11189333D01*
X7556905Y-11189333D02*
X7595000Y-11189333D01*
X7595000Y-11189333D02*
X7614048Y-11179810D01*
X7614048Y-11179810D02*
X7623571Y-11170286D01*
X7623571Y-11170286D02*
X7633095Y-11151238D01*
X7709286Y-11084571D02*
X7718809Y-11075048D01*
X7718809Y-11075048D02*
X7737857Y-11065524D01*
X7737857Y-11065524D02*
X7785476Y-11065524D01*
X7785476Y-11065524D02*
X7804524Y-11075048D01*
X7804524Y-11075048D02*
X7814048Y-11084571D01*
X7814048Y-11084571D02*
X7823571Y-11103619D01*
X7823571Y-11103619D02*
X7823571Y-11122667D01*
X7823571Y-11122667D02*
X7814048Y-11151238D01*
X7814048Y-11151238D02*
X7699762Y-11265524D01*
X7699762Y-11265524D02*
X7823571Y-11265524D01*
X7947381Y-11065524D02*
X7966429Y-11065524D01*
X7966429Y-11065524D02*
X7985476Y-11075048D01*
X7985476Y-11075048D02*
X7995000Y-11084571D01*
X7995000Y-11084571D02*
X8004524Y-11103619D01*
X8004524Y-11103619D02*
X8014048Y-11141714D01*
X8014048Y-11141714D02*
X8014048Y-11189333D01*
X8014048Y-11189333D02*
X8004524Y-11227428D01*
X8004524Y-11227428D02*
X7995000Y-11246476D01*
X7995000Y-11246476D02*
X7985476Y-11256000D01*
X7985476Y-11256000D02*
X7966429Y-11265524D01*
X7966429Y-11265524D02*
X7947381Y-11265524D01*
X7947381Y-11265524D02*
X7928333Y-11256000D01*
X7928333Y-11256000D02*
X7918809Y-11246476D01*
X7918809Y-11246476D02*
X7909286Y-11227428D01*
X7909286Y-11227428D02*
X7899762Y-11189333D01*
X7899762Y-11189333D02*
X7899762Y-11141714D01*
X7899762Y-11141714D02*
X7909286Y-11103619D01*
X7909286Y-11103619D02*
X7918809Y-11084571D01*
X7918809Y-11084571D02*
X7928333Y-11075048D01*
X7928333Y-11075048D02*
X7947381Y-11065524D01*
X8099762Y-11265524D02*
X8099762Y-11132190D01*
X8099762Y-11151238D02*
X8109286Y-11141714D01*
X8109286Y-11141714D02*
X8128333Y-11132190D01*
X8128333Y-11132190D02*
X8156905Y-11132190D01*
X8156905Y-11132190D02*
X8175952Y-11141714D01*
X8175952Y-11141714D02*
X8185476Y-11160762D01*
X8185476Y-11160762D02*
X8185476Y-11265524D01*
X8185476Y-11160762D02*
X8195000Y-11141714D01*
X8195000Y-11141714D02*
X8214048Y-11132190D01*
X8214048Y-11132190D02*
X8242619Y-11132190D01*
X8242619Y-11132190D02*
X8261667Y-11141714D01*
X8261667Y-11141714D02*
X8271190Y-11160762D01*
X8271190Y-11160762D02*
X8271190Y-11265524D01*
X8366429Y-11265524D02*
X8366429Y-11132190D01*
X8366429Y-11151238D02*
X8375952Y-11141714D01*
X8375952Y-11141714D02*
X8395000Y-11132190D01*
X8395000Y-11132190D02*
X8423572Y-11132190D01*
X8423572Y-11132190D02*
X8442619Y-11141714D01*
X8442619Y-11141714D02*
X8452143Y-11160762D01*
X8452143Y-11160762D02*
X8452143Y-11265524D01*
X8452143Y-11160762D02*
X8461667Y-11141714D01*
X8461667Y-11141714D02*
X8480714Y-11132190D01*
X8480714Y-11132190D02*
X8509286Y-11132190D01*
X8509286Y-11132190D02*
X8528333Y-11141714D01*
X8528333Y-11141714D02*
X8537857Y-11160762D01*
X8537857Y-11160762D02*
X8537857Y-11265524D01*
X8928333Y-11056000D02*
X8756905Y-11313143D01*
X9185476Y-11065524D02*
X9204524Y-11065524D01*
X9204524Y-11065524D02*
X9223572Y-11075048D01*
X9223572Y-11075048D02*
X9233095Y-11084571D01*
X9233095Y-11084571D02*
X9242619Y-11103619D01*
X9242619Y-11103619D02*
X9252143Y-11141714D01*
X9252143Y-11141714D02*
X9252143Y-11189333D01*
X9252143Y-11189333D02*
X9242619Y-11227428D01*
X9242619Y-11227428D02*
X9233095Y-11246476D01*
X9233095Y-11246476D02*
X9223572Y-11256000D01*
X9223572Y-11256000D02*
X9204524Y-11265524D01*
X9204524Y-11265524D02*
X9185476Y-11265524D01*
X9185476Y-11265524D02*
X9166429Y-11256000D01*
X9166429Y-11256000D02*
X9156905Y-11246476D01*
X9156905Y-11246476D02*
X9147381Y-11227428D01*
X9147381Y-11227428D02*
X9137857Y-11189333D01*
X9137857Y-11189333D02*
X9137857Y-11141714D01*
X9137857Y-11141714D02*
X9147381Y-11103619D01*
X9147381Y-11103619D02*
X9156905Y-11084571D01*
X9156905Y-11084571D02*
X9166429Y-11075048D01*
X9166429Y-11075048D02*
X9185476Y-11065524D01*
X9337857Y-11246476D02*
X9347381Y-11256000D01*
X9347381Y-11256000D02*
X9337857Y-11265524D01*
X9337857Y-11265524D02*
X9328334Y-11256000D01*
X9328334Y-11256000D02*
X9337857Y-11246476D01*
X9337857Y-11246476D02*
X9337857Y-11265524D01*
X9471191Y-11065524D02*
X9490238Y-11065524D01*
X9490238Y-11065524D02*
X9509286Y-11075048D01*
X9509286Y-11075048D02*
X9518810Y-11084571D01*
X9518810Y-11084571D02*
X9528334Y-11103619D01*
X9528334Y-11103619D02*
X9537857Y-11141714D01*
X9537857Y-11141714D02*
X9537857Y-11189333D01*
X9537857Y-11189333D02*
X9528334Y-11227428D01*
X9528334Y-11227428D02*
X9518810Y-11246476D01*
X9518810Y-11246476D02*
X9509286Y-11256000D01*
X9509286Y-11256000D02*
X9490238Y-11265524D01*
X9490238Y-11265524D02*
X9471191Y-11265524D01*
X9471191Y-11265524D02*
X9452143Y-11256000D01*
X9452143Y-11256000D02*
X9442619Y-11246476D01*
X9442619Y-11246476D02*
X9433095Y-11227428D01*
X9433095Y-11227428D02*
X9423572Y-11189333D01*
X9423572Y-11189333D02*
X9423572Y-11141714D01*
X9423572Y-11141714D02*
X9433095Y-11103619D01*
X9433095Y-11103619D02*
X9442619Y-11084571D01*
X9442619Y-11084571D02*
X9452143Y-11075048D01*
X9452143Y-11075048D02*
X9471191Y-11065524D01*
X9604524Y-11065524D02*
X9728334Y-11065524D01*
X9728334Y-11065524D02*
X9661667Y-11141714D01*
X9661667Y-11141714D02*
X9690238Y-11141714D01*
X9690238Y-11141714D02*
X9709286Y-11151238D01*
X9709286Y-11151238D02*
X9718810Y-11160762D01*
X9718810Y-11160762D02*
X9728334Y-11179810D01*
X9728334Y-11179810D02*
X9728334Y-11227428D01*
X9728334Y-11227428D02*
X9718810Y-11246476D01*
X9718810Y-11246476D02*
X9709286Y-11256000D01*
X9709286Y-11256000D02*
X9690238Y-11265524D01*
X9690238Y-11265524D02*
X9633095Y-11265524D01*
X9633095Y-11265524D02*
X9614048Y-11256000D01*
X9614048Y-11256000D02*
X9604524Y-11246476D01*
X9899762Y-11065524D02*
X9861667Y-11065524D01*
X9861667Y-11065524D02*
X9842619Y-11075048D01*
X9842619Y-11075048D02*
X9833095Y-11084571D01*
X9833095Y-11084571D02*
X9814048Y-11113143D01*
X9814048Y-11113143D02*
X9804524Y-11151238D01*
X9804524Y-11151238D02*
X9804524Y-11227428D01*
X9804524Y-11227428D02*
X9814048Y-11246476D01*
X9814048Y-11246476D02*
X9823572Y-11256000D01*
X9823572Y-11256000D02*
X9842619Y-11265524D01*
X9842619Y-11265524D02*
X9880715Y-11265524D01*
X9880715Y-11265524D02*
X9899762Y-11256000D01*
X9899762Y-11256000D02*
X9909286Y-11246476D01*
X9909286Y-11246476D02*
X9918810Y-11227428D01*
X9918810Y-11227428D02*
X9918810Y-11179810D01*
X9918810Y-11179810D02*
X9909286Y-11160762D01*
X9909286Y-11160762D02*
X9899762Y-11151238D01*
X9899762Y-11151238D02*
X9880715Y-11141714D01*
X9880715Y-11141714D02*
X9842619Y-11141714D01*
X9842619Y-11141714D02*
X9823572Y-11151238D01*
X9823572Y-11151238D02*
X9814048Y-11160762D01*
X9814048Y-11160762D02*
X9804524Y-11179810D01*
X9995000Y-11084571D02*
X10004524Y-11075048D01*
X10004524Y-11075048D02*
X10023572Y-11065524D01*
X10023572Y-11065524D02*
X10071191Y-11065524D01*
X10071191Y-11065524D02*
X10090238Y-11075048D01*
X10090238Y-11075048D02*
X10099762Y-11084571D01*
X10099762Y-11084571D02*
X10109286Y-11103619D01*
X10109286Y-11103619D02*
X10109286Y-11122667D01*
X10109286Y-11122667D02*
X10099762Y-11151238D01*
X10099762Y-11151238D02*
X9985476Y-11265524D01*
X9985476Y-11265524D02*
X10109286Y-11265524D01*
X10185476Y-11065524D02*
X10185476Y-11103619D01*
X10261667Y-11065524D02*
X10261667Y-11103619D01*
X10556905Y-11341714D02*
X10547381Y-11332190D01*
X10547381Y-11332190D02*
X10528334Y-11303619D01*
X10528334Y-11303619D02*
X10518810Y-11284571D01*
X10518810Y-11284571D02*
X10509286Y-11256000D01*
X10509286Y-11256000D02*
X10499762Y-11208381D01*
X10499762Y-11208381D02*
X10499762Y-11170286D01*
X10499762Y-11170286D02*
X10509286Y-11122667D01*
X10509286Y-11122667D02*
X10518810Y-11094095D01*
X10518810Y-11094095D02*
X10528334Y-11075048D01*
X10528334Y-11075048D02*
X10547381Y-11046476D01*
X10547381Y-11046476D02*
X10556905Y-11036952D01*
X10661667Y-11151238D02*
X10642619Y-11141714D01*
X10642619Y-11141714D02*
X10633096Y-11132190D01*
X10633096Y-11132190D02*
X10623572Y-11113143D01*
X10623572Y-11113143D02*
X10623572Y-11103619D01*
X10623572Y-11103619D02*
X10633096Y-11084571D01*
X10633096Y-11084571D02*
X10642619Y-11075048D01*
X10642619Y-11075048D02*
X10661667Y-11065524D01*
X10661667Y-11065524D02*
X10699762Y-11065524D01*
X10699762Y-11065524D02*
X10718810Y-11075048D01*
X10718810Y-11075048D02*
X10728334Y-11084571D01*
X10728334Y-11084571D02*
X10737857Y-11103619D01*
X10737857Y-11103619D02*
X10737857Y-11113143D01*
X10737857Y-11113143D02*
X10728334Y-11132190D01*
X10728334Y-11132190D02*
X10718810Y-11141714D01*
X10718810Y-11141714D02*
X10699762Y-11151238D01*
X10699762Y-11151238D02*
X10661667Y-11151238D01*
X10661667Y-11151238D02*
X10642619Y-11160762D01*
X10642619Y-11160762D02*
X10633096Y-11170286D01*
X10633096Y-11170286D02*
X10623572Y-11189333D01*
X10623572Y-11189333D02*
X10623572Y-11227428D01*
X10623572Y-11227428D02*
X10633096Y-11246476D01*
X10633096Y-11246476D02*
X10642619Y-11256000D01*
X10642619Y-11256000D02*
X10661667Y-11265524D01*
X10661667Y-11265524D02*
X10699762Y-11265524D01*
X10699762Y-11265524D02*
X10718810Y-11256000D01*
X10718810Y-11256000D02*
X10728334Y-11246476D01*
X10728334Y-11246476D02*
X10737857Y-11227428D01*
X10737857Y-11227428D02*
X10737857Y-11189333D01*
X10737857Y-11189333D02*
X10728334Y-11170286D01*
X10728334Y-11170286D02*
X10718810Y-11160762D01*
X10718810Y-11160762D02*
X10699762Y-11151238D01*
X10975953Y-11265524D02*
X10975953Y-11065524D01*
X11061667Y-11265524D02*
X11061667Y-11160762D01*
X11061667Y-11160762D02*
X11052143Y-11141714D01*
X11052143Y-11141714D02*
X11033096Y-11132190D01*
X11033096Y-11132190D02*
X11004524Y-11132190D01*
X11004524Y-11132190D02*
X10985477Y-11141714D01*
X10985477Y-11141714D02*
X10975953Y-11151238D01*
X11185476Y-11265524D02*
X11166429Y-11256000D01*
X11166429Y-11256000D02*
X11156905Y-11246476D01*
X11156905Y-11246476D02*
X11147381Y-11227428D01*
X11147381Y-11227428D02*
X11147381Y-11170286D01*
X11147381Y-11170286D02*
X11156905Y-11151238D01*
X11156905Y-11151238D02*
X11166429Y-11141714D01*
X11166429Y-11141714D02*
X11185476Y-11132190D01*
X11185476Y-11132190D02*
X11214048Y-11132190D01*
X11214048Y-11132190D02*
X11233096Y-11141714D01*
X11233096Y-11141714D02*
X11242619Y-11151238D01*
X11242619Y-11151238D02*
X11252143Y-11170286D01*
X11252143Y-11170286D02*
X11252143Y-11227428D01*
X11252143Y-11227428D02*
X11242619Y-11246476D01*
X11242619Y-11246476D02*
X11233096Y-11256000D01*
X11233096Y-11256000D02*
X11214048Y-11265524D01*
X11214048Y-11265524D02*
X11185476Y-11265524D01*
X11366429Y-11265524D02*
X11347381Y-11256000D01*
X11347381Y-11256000D02*
X11337857Y-11236952D01*
X11337857Y-11236952D02*
X11337857Y-11065524D01*
X11518810Y-11256000D02*
X11499762Y-11265524D01*
X11499762Y-11265524D02*
X11461667Y-11265524D01*
X11461667Y-11265524D02*
X11442619Y-11256000D01*
X11442619Y-11256000D02*
X11433096Y-11236952D01*
X11433096Y-11236952D02*
X11433096Y-11160762D01*
X11433096Y-11160762D02*
X11442619Y-11141714D01*
X11442619Y-11141714D02*
X11461667Y-11132190D01*
X11461667Y-11132190D02*
X11499762Y-11132190D01*
X11499762Y-11132190D02*
X11518810Y-11141714D01*
X11518810Y-11141714D02*
X11528334Y-11160762D01*
X11528334Y-11160762D02*
X11528334Y-11179810D01*
X11528334Y-11179810D02*
X11433096Y-11198857D01*
X11604524Y-11256000D02*
X11623572Y-11265524D01*
X11623572Y-11265524D02*
X11661667Y-11265524D01*
X11661667Y-11265524D02*
X11680715Y-11256000D01*
X11680715Y-11256000D02*
X11690238Y-11236952D01*
X11690238Y-11236952D02*
X11690238Y-11227428D01*
X11690238Y-11227428D02*
X11680715Y-11208381D01*
X11680715Y-11208381D02*
X11661667Y-11198857D01*
X11661667Y-11198857D02*
X11633096Y-11198857D01*
X11633096Y-11198857D02*
X11614048Y-11189333D01*
X11614048Y-11189333D02*
X11604524Y-11170286D01*
X11604524Y-11170286D02*
X11604524Y-11160762D01*
X11604524Y-11160762D02*
X11614048Y-11141714D01*
X11614048Y-11141714D02*
X11633096Y-11132190D01*
X11633096Y-11132190D02*
X11661667Y-11132190D01*
X11661667Y-11132190D02*
X11680715Y-11141714D01*
X11756905Y-11341714D02*
X11766429Y-11332190D01*
X11766429Y-11332190D02*
X11785477Y-11303619D01*
X11785477Y-11303619D02*
X11795000Y-11284571D01*
X11795000Y-11284571D02*
X11804524Y-11256000D01*
X11804524Y-11256000D02*
X11814048Y-11208381D01*
X11814048Y-11208381D02*
X11814048Y-11170286D01*
X11814048Y-11170286D02*
X11804524Y-11122667D01*
X11804524Y-11122667D02*
X11795000Y-11094095D01*
X11795000Y-11094095D02*
X11785477Y-11075048D01*
X11785477Y-11075048D02*
X11766429Y-11046476D01*
X11766429Y-11046476D02*
X11756905Y-11036952D01*
D10*
X6980356Y-11472356D02*
X6980356Y-11401644D01*
X6909644Y-11401644D01*
X6909644Y-11472356D01*
X6980356Y-11472356D01*
D11*
X7347381Y-11529524D02*
X7233095Y-11529524D01*
X7290238Y-11529524D02*
X7290238Y-11329524D01*
X7290238Y-11329524D02*
X7271190Y-11358095D01*
X7271190Y-11358095D02*
X7252143Y-11377143D01*
X7252143Y-11377143D02*
X7233095Y-11386667D01*
X7433095Y-11510476D02*
X7442619Y-11520000D01*
X7442619Y-11520000D02*
X7433095Y-11529524D01*
X7433095Y-11529524D02*
X7423571Y-11520000D01*
X7423571Y-11520000D02*
X7433095Y-11510476D01*
X7433095Y-11510476D02*
X7433095Y-11529524D01*
X7566428Y-11329524D02*
X7585476Y-11329524D01*
X7585476Y-11329524D02*
X7604524Y-11339048D01*
X7604524Y-11339048D02*
X7614048Y-11348571D01*
X7614048Y-11348571D02*
X7623571Y-11367619D01*
X7623571Y-11367619D02*
X7633095Y-11405714D01*
X7633095Y-11405714D02*
X7633095Y-11453333D01*
X7633095Y-11453333D02*
X7623571Y-11491428D01*
X7623571Y-11491428D02*
X7614048Y-11510476D01*
X7614048Y-11510476D02*
X7604524Y-11520000D01*
X7604524Y-11520000D02*
X7585476Y-11529524D01*
X7585476Y-11529524D02*
X7566428Y-11529524D01*
X7566428Y-11529524D02*
X7547381Y-11520000D01*
X7547381Y-11520000D02*
X7537857Y-11510476D01*
X7537857Y-11510476D02*
X7528333Y-11491428D01*
X7528333Y-11491428D02*
X7518809Y-11453333D01*
X7518809Y-11453333D02*
X7518809Y-11405714D01*
X7518809Y-11405714D02*
X7528333Y-11367619D01*
X7528333Y-11367619D02*
X7537857Y-11348571D01*
X7537857Y-11348571D02*
X7547381Y-11339048D01*
X7547381Y-11339048D02*
X7566428Y-11329524D01*
X7756905Y-11329524D02*
X7775952Y-11329524D01*
X7775952Y-11329524D02*
X7795000Y-11339048D01*
X7795000Y-11339048D02*
X7804524Y-11348571D01*
X7804524Y-11348571D02*
X7814048Y-11367619D01*
X7814048Y-11367619D02*
X7823571Y-11405714D01*
X7823571Y-11405714D02*
X7823571Y-11453333D01*
X7823571Y-11453333D02*
X7814048Y-11491428D01*
X7814048Y-11491428D02*
X7804524Y-11510476D01*
X7804524Y-11510476D02*
X7795000Y-11520000D01*
X7795000Y-11520000D02*
X7775952Y-11529524D01*
X7775952Y-11529524D02*
X7756905Y-11529524D01*
X7756905Y-11529524D02*
X7737857Y-11520000D01*
X7737857Y-11520000D02*
X7728333Y-11510476D01*
X7728333Y-11510476D02*
X7718809Y-11491428D01*
X7718809Y-11491428D02*
X7709286Y-11453333D01*
X7709286Y-11453333D02*
X7709286Y-11405714D01*
X7709286Y-11405714D02*
X7718809Y-11367619D01*
X7718809Y-11367619D02*
X7728333Y-11348571D01*
X7728333Y-11348571D02*
X7737857Y-11339048D01*
X7737857Y-11339048D02*
X7756905Y-11329524D01*
X7947381Y-11329524D02*
X7966429Y-11329524D01*
X7966429Y-11329524D02*
X7985476Y-11339048D01*
X7985476Y-11339048D02*
X7995000Y-11348571D01*
X7995000Y-11348571D02*
X8004524Y-11367619D01*
X8004524Y-11367619D02*
X8014048Y-11405714D01*
X8014048Y-11405714D02*
X8014048Y-11453333D01*
X8014048Y-11453333D02*
X8004524Y-11491428D01*
X8004524Y-11491428D02*
X7995000Y-11510476D01*
X7995000Y-11510476D02*
X7985476Y-11520000D01*
X7985476Y-11520000D02*
X7966429Y-11529524D01*
X7966429Y-11529524D02*
X7947381Y-11529524D01*
X7947381Y-11529524D02*
X7928333Y-11520000D01*
X7928333Y-11520000D02*
X7918809Y-11510476D01*
X7918809Y-11510476D02*
X7909286Y-11491428D01*
X7909286Y-11491428D02*
X7899762Y-11453333D01*
X7899762Y-11453333D02*
X7899762Y-11405714D01*
X7899762Y-11405714D02*
X7909286Y-11367619D01*
X7909286Y-11367619D02*
X7918809Y-11348571D01*
X7918809Y-11348571D02*
X7928333Y-11339048D01*
X7928333Y-11339048D02*
X7947381Y-11329524D01*
X8099762Y-11529524D02*
X8099762Y-11396190D01*
X8099762Y-11415238D02*
X8109286Y-11405714D01*
X8109286Y-11405714D02*
X8128333Y-11396190D01*
X8128333Y-11396190D02*
X8156905Y-11396190D01*
X8156905Y-11396190D02*
X8175952Y-11405714D01*
X8175952Y-11405714D02*
X8185476Y-11424762D01*
X8185476Y-11424762D02*
X8185476Y-11529524D01*
X8185476Y-11424762D02*
X8195000Y-11405714D01*
X8195000Y-11405714D02*
X8214048Y-11396190D01*
X8214048Y-11396190D02*
X8242619Y-11396190D01*
X8242619Y-11396190D02*
X8261667Y-11405714D01*
X8261667Y-11405714D02*
X8271190Y-11424762D01*
X8271190Y-11424762D02*
X8271190Y-11529524D01*
X8366429Y-11529524D02*
X8366429Y-11396190D01*
X8366429Y-11415238D02*
X8375952Y-11405714D01*
X8375952Y-11405714D02*
X8395000Y-11396190D01*
X8395000Y-11396190D02*
X8423572Y-11396190D01*
X8423572Y-11396190D02*
X8442619Y-11405714D01*
X8442619Y-11405714D02*
X8452143Y-11424762D01*
X8452143Y-11424762D02*
X8452143Y-11529524D01*
X8452143Y-11424762D02*
X8461667Y-11405714D01*
X8461667Y-11405714D02*
X8480714Y-11396190D01*
X8480714Y-11396190D02*
X8509286Y-11396190D01*
X8509286Y-11396190D02*
X8528333Y-11405714D01*
X8528333Y-11405714D02*
X8537857Y-11424762D01*
X8537857Y-11424762D02*
X8537857Y-11529524D01*
X8928333Y-11320000D02*
X8756905Y-11577143D01*
X9185476Y-11329524D02*
X9204524Y-11329524D01*
X9204524Y-11329524D02*
X9223572Y-11339048D01*
X9223572Y-11339048D02*
X9233095Y-11348571D01*
X9233095Y-11348571D02*
X9242619Y-11367619D01*
X9242619Y-11367619D02*
X9252143Y-11405714D01*
X9252143Y-11405714D02*
X9252143Y-11453333D01*
X9252143Y-11453333D02*
X9242619Y-11491428D01*
X9242619Y-11491428D02*
X9233095Y-11510476D01*
X9233095Y-11510476D02*
X9223572Y-11520000D01*
X9223572Y-11520000D02*
X9204524Y-11529524D01*
X9204524Y-11529524D02*
X9185476Y-11529524D01*
X9185476Y-11529524D02*
X9166429Y-11520000D01*
X9166429Y-11520000D02*
X9156905Y-11510476D01*
X9156905Y-11510476D02*
X9147381Y-11491428D01*
X9147381Y-11491428D02*
X9137857Y-11453333D01*
X9137857Y-11453333D02*
X9137857Y-11405714D01*
X9137857Y-11405714D02*
X9147381Y-11367619D01*
X9147381Y-11367619D02*
X9156905Y-11348571D01*
X9156905Y-11348571D02*
X9166429Y-11339048D01*
X9166429Y-11339048D02*
X9185476Y-11329524D01*
X9337857Y-11510476D02*
X9347381Y-11520000D01*
X9347381Y-11520000D02*
X9337857Y-11529524D01*
X9337857Y-11529524D02*
X9328334Y-11520000D01*
X9328334Y-11520000D02*
X9337857Y-11510476D01*
X9337857Y-11510476D02*
X9337857Y-11529524D01*
X9471191Y-11329524D02*
X9490238Y-11329524D01*
X9490238Y-11329524D02*
X9509286Y-11339048D01*
X9509286Y-11339048D02*
X9518810Y-11348571D01*
X9518810Y-11348571D02*
X9528334Y-11367619D01*
X9528334Y-11367619D02*
X9537857Y-11405714D01*
X9537857Y-11405714D02*
X9537857Y-11453333D01*
X9537857Y-11453333D02*
X9528334Y-11491428D01*
X9528334Y-11491428D02*
X9518810Y-11510476D01*
X9518810Y-11510476D02*
X9509286Y-11520000D01*
X9509286Y-11520000D02*
X9490238Y-11529524D01*
X9490238Y-11529524D02*
X9471191Y-11529524D01*
X9471191Y-11529524D02*
X9452143Y-11520000D01*
X9452143Y-11520000D02*
X9442619Y-11510476D01*
X9442619Y-11510476D02*
X9433095Y-11491428D01*
X9433095Y-11491428D02*
X9423572Y-11453333D01*
X9423572Y-11453333D02*
X9423572Y-11405714D01*
X9423572Y-11405714D02*
X9433095Y-11367619D01*
X9433095Y-11367619D02*
X9442619Y-11348571D01*
X9442619Y-11348571D02*
X9452143Y-11339048D01*
X9452143Y-11339048D02*
X9471191Y-11329524D01*
X9604524Y-11329524D02*
X9728334Y-11329524D01*
X9728334Y-11329524D02*
X9661667Y-11405714D01*
X9661667Y-11405714D02*
X9690238Y-11405714D01*
X9690238Y-11405714D02*
X9709286Y-11415238D01*
X9709286Y-11415238D02*
X9718810Y-11424762D01*
X9718810Y-11424762D02*
X9728334Y-11443809D01*
X9728334Y-11443809D02*
X9728334Y-11491428D01*
X9728334Y-11491428D02*
X9718810Y-11510476D01*
X9718810Y-11510476D02*
X9709286Y-11520000D01*
X9709286Y-11520000D02*
X9690238Y-11529524D01*
X9690238Y-11529524D02*
X9633095Y-11529524D01*
X9633095Y-11529524D02*
X9614048Y-11520000D01*
X9614048Y-11520000D02*
X9604524Y-11510476D01*
X9823572Y-11529524D02*
X9861667Y-11529524D01*
X9861667Y-11529524D02*
X9880715Y-11520000D01*
X9880715Y-11520000D02*
X9890238Y-11510476D01*
X9890238Y-11510476D02*
X9909286Y-11481905D01*
X9909286Y-11481905D02*
X9918810Y-11443809D01*
X9918810Y-11443809D02*
X9918810Y-11367619D01*
X9918810Y-11367619D02*
X9909286Y-11348571D01*
X9909286Y-11348571D02*
X9899762Y-11339048D01*
X9899762Y-11339048D02*
X9880715Y-11329524D01*
X9880715Y-11329524D02*
X9842619Y-11329524D01*
X9842619Y-11329524D02*
X9823572Y-11339048D01*
X9823572Y-11339048D02*
X9814048Y-11348571D01*
X9814048Y-11348571D02*
X9804524Y-11367619D01*
X9804524Y-11367619D02*
X9804524Y-11415238D01*
X9804524Y-11415238D02*
X9814048Y-11434286D01*
X9814048Y-11434286D02*
X9823572Y-11443809D01*
X9823572Y-11443809D02*
X9842619Y-11453333D01*
X9842619Y-11453333D02*
X9880715Y-11453333D01*
X9880715Y-11453333D02*
X9899762Y-11443809D01*
X9899762Y-11443809D02*
X9909286Y-11434286D01*
X9909286Y-11434286D02*
X9918810Y-11415238D01*
X10090238Y-11396190D02*
X10090238Y-11529524D01*
X10042619Y-11320000D02*
X9995000Y-11462857D01*
X9995000Y-11462857D02*
X10118810Y-11462857D01*
X10185476Y-11329524D02*
X10185476Y-11367619D01*
X10261667Y-11329524D02*
X10261667Y-11367619D01*
X10556905Y-11605714D02*
X10547381Y-11596190D01*
X10547381Y-11596190D02*
X10528334Y-11567619D01*
X10528334Y-11567619D02*
X10518810Y-11548571D01*
X10518810Y-11548571D02*
X10509286Y-11520000D01*
X10509286Y-11520000D02*
X10499762Y-11472381D01*
X10499762Y-11472381D02*
X10499762Y-11434286D01*
X10499762Y-11434286D02*
X10509286Y-11386667D01*
X10509286Y-11386667D02*
X10518810Y-11358095D01*
X10518810Y-11358095D02*
X10528334Y-11339048D01*
X10528334Y-11339048D02*
X10547381Y-11310476D01*
X10547381Y-11310476D02*
X10556905Y-11300952D01*
X10614048Y-11329524D02*
X10737857Y-11329524D01*
X10737857Y-11329524D02*
X10671191Y-11405714D01*
X10671191Y-11405714D02*
X10699762Y-11405714D01*
X10699762Y-11405714D02*
X10718810Y-11415238D01*
X10718810Y-11415238D02*
X10728334Y-11424762D01*
X10728334Y-11424762D02*
X10737857Y-11443809D01*
X10737857Y-11443809D02*
X10737857Y-11491428D01*
X10737857Y-11491428D02*
X10728334Y-11510476D01*
X10728334Y-11510476D02*
X10718810Y-11520000D01*
X10718810Y-11520000D02*
X10699762Y-11529524D01*
X10699762Y-11529524D02*
X10642619Y-11529524D01*
X10642619Y-11529524D02*
X10623572Y-11520000D01*
X10623572Y-11520000D02*
X10614048Y-11510476D01*
X10975953Y-11529524D02*
X10975953Y-11329524D01*
X11061667Y-11529524D02*
X11061667Y-11424762D01*
X11061667Y-11424762D02*
X11052143Y-11405714D01*
X11052143Y-11405714D02*
X11033096Y-11396190D01*
X11033096Y-11396190D02*
X11004524Y-11396190D01*
X11004524Y-11396190D02*
X10985477Y-11405714D01*
X10985477Y-11405714D02*
X10975953Y-11415238D01*
X11185476Y-11529524D02*
X11166429Y-11520000D01*
X11166429Y-11520000D02*
X11156905Y-11510476D01*
X11156905Y-11510476D02*
X11147381Y-11491428D01*
X11147381Y-11491428D02*
X11147381Y-11434286D01*
X11147381Y-11434286D02*
X11156905Y-11415238D01*
X11156905Y-11415238D02*
X11166429Y-11405714D01*
X11166429Y-11405714D02*
X11185476Y-11396190D01*
X11185476Y-11396190D02*
X11214048Y-11396190D01*
X11214048Y-11396190D02*
X11233096Y-11405714D01*
X11233096Y-11405714D02*
X11242619Y-11415238D01*
X11242619Y-11415238D02*
X11252143Y-11434286D01*
X11252143Y-11434286D02*
X11252143Y-11491428D01*
X11252143Y-11491428D02*
X11242619Y-11510476D01*
X11242619Y-11510476D02*
X11233096Y-11520000D01*
X11233096Y-11520000D02*
X11214048Y-11529524D01*
X11214048Y-11529524D02*
X11185476Y-11529524D01*
X11366429Y-11529524D02*
X11347381Y-11520000D01*
X11347381Y-11520000D02*
X11337857Y-11500952D01*
X11337857Y-11500952D02*
X11337857Y-11329524D01*
X11518810Y-11520000D02*
X11499762Y-11529524D01*
X11499762Y-11529524D02*
X11461667Y-11529524D01*
X11461667Y-11529524D02*
X11442619Y-11520000D01*
X11442619Y-11520000D02*
X11433096Y-11500952D01*
X11433096Y-11500952D02*
X11433096Y-11424762D01*
X11433096Y-11424762D02*
X11442619Y-11405714D01*
X11442619Y-11405714D02*
X11461667Y-11396190D01*
X11461667Y-11396190D02*
X11499762Y-11396190D01*
X11499762Y-11396190D02*
X11518810Y-11405714D01*
X11518810Y-11405714D02*
X11528334Y-11424762D01*
X11528334Y-11424762D02*
X11528334Y-11443809D01*
X11528334Y-11443809D02*
X11433096Y-11462857D01*
X11604524Y-11520000D02*
X11623572Y-11529524D01*
X11623572Y-11529524D02*
X11661667Y-11529524D01*
X11661667Y-11529524D02*
X11680715Y-11520000D01*
X11680715Y-11520000D02*
X11690238Y-11500952D01*
X11690238Y-11500952D02*
X11690238Y-11491428D01*
X11690238Y-11491428D02*
X11680715Y-11472381D01*
X11680715Y-11472381D02*
X11661667Y-11462857D01*
X11661667Y-11462857D02*
X11633096Y-11462857D01*
X11633096Y-11462857D02*
X11614048Y-11453333D01*
X11614048Y-11453333D02*
X11604524Y-11434286D01*
X11604524Y-11434286D02*
X11604524Y-11424762D01*
X11604524Y-11424762D02*
X11614048Y-11405714D01*
X11614048Y-11405714D02*
X11633096Y-11396190D01*
X11633096Y-11396190D02*
X11661667Y-11396190D01*
X11661667Y-11396190D02*
X11680715Y-11405714D01*
X11756905Y-11605714D02*
X11766429Y-11596190D01*
X11766429Y-11596190D02*
X11785477Y-11567619D01*
X11785477Y-11567619D02*
X11795000Y-11548571D01*
X11795000Y-11548571D02*
X11804524Y-11520000D01*
X11804524Y-11520000D02*
X11814048Y-11472381D01*
X11814048Y-11472381D02*
X11814048Y-11434286D01*
X11814048Y-11434286D02*
X11804524Y-11386667D01*
X11804524Y-11386667D02*
X11795000Y-11358095D01*
X11795000Y-11358095D02*
X11785477Y-11339048D01*
X11785477Y-11339048D02*
X11766429Y-11310476D01*
X11766429Y-11310476D02*
X11756905Y-11300952D01*
D15*
X6935500Y-11760500D02*
X6995000Y-11701000D01*
X6935500Y-11641500D01*
X6876000Y-11701000D01*
X6935500Y-11760500D01*
D11*
X7347381Y-11793524D02*
X7233095Y-11793524D01*
X7290238Y-11793524D02*
X7290238Y-11593524D01*
X7290238Y-11593524D02*
X7271190Y-11622095D01*
X7271190Y-11622095D02*
X7252143Y-11641143D01*
X7252143Y-11641143D02*
X7233095Y-11650667D01*
X7433095Y-11774476D02*
X7442619Y-11784000D01*
X7442619Y-11784000D02*
X7433095Y-11793524D01*
X7433095Y-11793524D02*
X7423571Y-11784000D01*
X7423571Y-11784000D02*
X7433095Y-11774476D01*
X7433095Y-11774476D02*
X7433095Y-11793524D01*
X7633095Y-11793524D02*
X7518809Y-11793524D01*
X7575952Y-11793524D02*
X7575952Y-11593524D01*
X7575952Y-11593524D02*
X7556905Y-11622095D01*
X7556905Y-11622095D02*
X7537857Y-11641143D01*
X7537857Y-11641143D02*
X7518809Y-11650667D01*
X7728333Y-11793524D02*
X7766428Y-11793524D01*
X7766428Y-11793524D02*
X7785476Y-11784000D01*
X7785476Y-11784000D02*
X7795000Y-11774476D01*
X7795000Y-11774476D02*
X7814048Y-11745905D01*
X7814048Y-11745905D02*
X7823571Y-11707809D01*
X7823571Y-11707809D02*
X7823571Y-11631619D01*
X7823571Y-11631619D02*
X7814048Y-11612571D01*
X7814048Y-11612571D02*
X7804524Y-11603048D01*
X7804524Y-11603048D02*
X7785476Y-11593524D01*
X7785476Y-11593524D02*
X7747381Y-11593524D01*
X7747381Y-11593524D02*
X7728333Y-11603048D01*
X7728333Y-11603048D02*
X7718809Y-11612571D01*
X7718809Y-11612571D02*
X7709286Y-11631619D01*
X7709286Y-11631619D02*
X7709286Y-11679238D01*
X7709286Y-11679238D02*
X7718809Y-11698286D01*
X7718809Y-11698286D02*
X7728333Y-11707809D01*
X7728333Y-11707809D02*
X7747381Y-11717333D01*
X7747381Y-11717333D02*
X7785476Y-11717333D01*
X7785476Y-11717333D02*
X7804524Y-11707809D01*
X7804524Y-11707809D02*
X7814048Y-11698286D01*
X7814048Y-11698286D02*
X7823571Y-11679238D01*
X7947381Y-11593524D02*
X7966429Y-11593524D01*
X7966429Y-11593524D02*
X7985476Y-11603048D01*
X7985476Y-11603048D02*
X7995000Y-11612571D01*
X7995000Y-11612571D02*
X8004524Y-11631619D01*
X8004524Y-11631619D02*
X8014048Y-11669714D01*
X8014048Y-11669714D02*
X8014048Y-11717333D01*
X8014048Y-11717333D02*
X8004524Y-11755428D01*
X8004524Y-11755428D02*
X7995000Y-11774476D01*
X7995000Y-11774476D02*
X7985476Y-11784000D01*
X7985476Y-11784000D02*
X7966429Y-11793524D01*
X7966429Y-11793524D02*
X7947381Y-11793524D01*
X7947381Y-11793524D02*
X7928333Y-11784000D01*
X7928333Y-11784000D02*
X7918809Y-11774476D01*
X7918809Y-11774476D02*
X7909286Y-11755428D01*
X7909286Y-11755428D02*
X7899762Y-11717333D01*
X7899762Y-11717333D02*
X7899762Y-11669714D01*
X7899762Y-11669714D02*
X7909286Y-11631619D01*
X7909286Y-11631619D02*
X7918809Y-11612571D01*
X7918809Y-11612571D02*
X7928333Y-11603048D01*
X7928333Y-11603048D02*
X7947381Y-11593524D01*
X8099762Y-11793524D02*
X8099762Y-11660190D01*
X8099762Y-11679238D02*
X8109286Y-11669714D01*
X8109286Y-11669714D02*
X8128333Y-11660190D01*
X8128333Y-11660190D02*
X8156905Y-11660190D01*
X8156905Y-11660190D02*
X8175952Y-11669714D01*
X8175952Y-11669714D02*
X8185476Y-11688762D01*
X8185476Y-11688762D02*
X8185476Y-11793524D01*
X8185476Y-11688762D02*
X8195000Y-11669714D01*
X8195000Y-11669714D02*
X8214048Y-11660190D01*
X8214048Y-11660190D02*
X8242619Y-11660190D01*
X8242619Y-11660190D02*
X8261667Y-11669714D01*
X8261667Y-11669714D02*
X8271190Y-11688762D01*
X8271190Y-11688762D02*
X8271190Y-11793524D01*
X8366429Y-11793524D02*
X8366429Y-11660190D01*
X8366429Y-11679238D02*
X8375952Y-11669714D01*
X8375952Y-11669714D02*
X8395000Y-11660190D01*
X8395000Y-11660190D02*
X8423572Y-11660190D01*
X8423572Y-11660190D02*
X8442619Y-11669714D01*
X8442619Y-11669714D02*
X8452143Y-11688762D01*
X8452143Y-11688762D02*
X8452143Y-11793524D01*
X8452143Y-11688762D02*
X8461667Y-11669714D01*
X8461667Y-11669714D02*
X8480714Y-11660190D01*
X8480714Y-11660190D02*
X8509286Y-11660190D01*
X8509286Y-11660190D02*
X8528333Y-11669714D01*
X8528333Y-11669714D02*
X8537857Y-11688762D01*
X8537857Y-11688762D02*
X8537857Y-11793524D01*
X8928333Y-11584000D02*
X8756905Y-11841143D01*
X9185476Y-11593524D02*
X9204524Y-11593524D01*
X9204524Y-11593524D02*
X9223572Y-11603048D01*
X9223572Y-11603048D02*
X9233095Y-11612571D01*
X9233095Y-11612571D02*
X9242619Y-11631619D01*
X9242619Y-11631619D02*
X9252143Y-11669714D01*
X9252143Y-11669714D02*
X9252143Y-11717333D01*
X9252143Y-11717333D02*
X9242619Y-11755428D01*
X9242619Y-11755428D02*
X9233095Y-11774476D01*
X9233095Y-11774476D02*
X9223572Y-11784000D01*
X9223572Y-11784000D02*
X9204524Y-11793524D01*
X9204524Y-11793524D02*
X9185476Y-11793524D01*
X9185476Y-11793524D02*
X9166429Y-11784000D01*
X9166429Y-11784000D02*
X9156905Y-11774476D01*
X9156905Y-11774476D02*
X9147381Y-11755428D01*
X9147381Y-11755428D02*
X9137857Y-11717333D01*
X9137857Y-11717333D02*
X9137857Y-11669714D01*
X9137857Y-11669714D02*
X9147381Y-11631619D01*
X9147381Y-11631619D02*
X9156905Y-11612571D01*
X9156905Y-11612571D02*
X9166429Y-11603048D01*
X9166429Y-11603048D02*
X9185476Y-11593524D01*
X9337857Y-11774476D02*
X9347381Y-11784000D01*
X9347381Y-11784000D02*
X9337857Y-11793524D01*
X9337857Y-11793524D02*
X9328334Y-11784000D01*
X9328334Y-11784000D02*
X9337857Y-11774476D01*
X9337857Y-11774476D02*
X9337857Y-11793524D01*
X9471191Y-11593524D02*
X9490238Y-11593524D01*
X9490238Y-11593524D02*
X9509286Y-11603048D01*
X9509286Y-11603048D02*
X9518810Y-11612571D01*
X9518810Y-11612571D02*
X9528334Y-11631619D01*
X9528334Y-11631619D02*
X9537857Y-11669714D01*
X9537857Y-11669714D02*
X9537857Y-11717333D01*
X9537857Y-11717333D02*
X9528334Y-11755428D01*
X9528334Y-11755428D02*
X9518810Y-11774476D01*
X9518810Y-11774476D02*
X9509286Y-11784000D01*
X9509286Y-11784000D02*
X9490238Y-11793524D01*
X9490238Y-11793524D02*
X9471191Y-11793524D01*
X9471191Y-11793524D02*
X9452143Y-11784000D01*
X9452143Y-11784000D02*
X9442619Y-11774476D01*
X9442619Y-11774476D02*
X9433095Y-11755428D01*
X9433095Y-11755428D02*
X9423572Y-11717333D01*
X9423572Y-11717333D02*
X9423572Y-11669714D01*
X9423572Y-11669714D02*
X9433095Y-11631619D01*
X9433095Y-11631619D02*
X9442619Y-11612571D01*
X9442619Y-11612571D02*
X9452143Y-11603048D01*
X9452143Y-11603048D02*
X9471191Y-11593524D01*
X9709286Y-11660190D02*
X9709286Y-11793524D01*
X9661667Y-11584000D02*
X9614048Y-11726857D01*
X9614048Y-11726857D02*
X9737857Y-11726857D01*
X9899762Y-11593524D02*
X9861667Y-11593524D01*
X9861667Y-11593524D02*
X9842619Y-11603048D01*
X9842619Y-11603048D02*
X9833095Y-11612571D01*
X9833095Y-11612571D02*
X9814048Y-11641143D01*
X9814048Y-11641143D02*
X9804524Y-11679238D01*
X9804524Y-11679238D02*
X9804524Y-11755428D01*
X9804524Y-11755428D02*
X9814048Y-11774476D01*
X9814048Y-11774476D02*
X9823572Y-11784000D01*
X9823572Y-11784000D02*
X9842619Y-11793524D01*
X9842619Y-11793524D02*
X9880715Y-11793524D01*
X9880715Y-11793524D02*
X9899762Y-11784000D01*
X9899762Y-11784000D02*
X9909286Y-11774476D01*
X9909286Y-11774476D02*
X9918810Y-11755428D01*
X9918810Y-11755428D02*
X9918810Y-11707809D01*
X9918810Y-11707809D02*
X9909286Y-11688762D01*
X9909286Y-11688762D02*
X9899762Y-11679238D01*
X9899762Y-11679238D02*
X9880715Y-11669714D01*
X9880715Y-11669714D02*
X9842619Y-11669714D01*
X9842619Y-11669714D02*
X9823572Y-11679238D01*
X9823572Y-11679238D02*
X9814048Y-11688762D01*
X9814048Y-11688762D02*
X9804524Y-11707809D01*
X10014048Y-11793524D02*
X10052143Y-11793524D01*
X10052143Y-11793524D02*
X10071191Y-11784000D01*
X10071191Y-11784000D02*
X10080715Y-11774476D01*
X10080715Y-11774476D02*
X10099762Y-11745905D01*
X10099762Y-11745905D02*
X10109286Y-11707809D01*
X10109286Y-11707809D02*
X10109286Y-11631619D01*
X10109286Y-11631619D02*
X10099762Y-11612571D01*
X10099762Y-11612571D02*
X10090238Y-11603048D01*
X10090238Y-11603048D02*
X10071191Y-11593524D01*
X10071191Y-11593524D02*
X10033095Y-11593524D01*
X10033095Y-11593524D02*
X10014048Y-11603048D01*
X10014048Y-11603048D02*
X10004524Y-11612571D01*
X10004524Y-11612571D02*
X9995000Y-11631619D01*
X9995000Y-11631619D02*
X9995000Y-11679238D01*
X9995000Y-11679238D02*
X10004524Y-11698286D01*
X10004524Y-11698286D02*
X10014048Y-11707809D01*
X10014048Y-11707809D02*
X10033095Y-11717333D01*
X10033095Y-11717333D02*
X10071191Y-11717333D01*
X10071191Y-11717333D02*
X10090238Y-11707809D01*
X10090238Y-11707809D02*
X10099762Y-11698286D01*
X10099762Y-11698286D02*
X10109286Y-11679238D01*
X10185476Y-11593524D02*
X10185476Y-11631619D01*
X10261667Y-11593524D02*
X10261667Y-11631619D01*
X10556905Y-11869714D02*
X10547381Y-11860190D01*
X10547381Y-11860190D02*
X10528334Y-11831619D01*
X10528334Y-11831619D02*
X10518810Y-11812571D01*
X10518810Y-11812571D02*
X10509286Y-11784000D01*
X10509286Y-11784000D02*
X10499762Y-11736381D01*
X10499762Y-11736381D02*
X10499762Y-11698286D01*
X10499762Y-11698286D02*
X10509286Y-11650667D01*
X10509286Y-11650667D02*
X10518810Y-11622095D01*
X10518810Y-11622095D02*
X10528334Y-11603048D01*
X10528334Y-11603048D02*
X10547381Y-11574476D01*
X10547381Y-11574476D02*
X10556905Y-11564952D01*
X10718810Y-11660190D02*
X10718810Y-11793524D01*
X10671191Y-11584000D02*
X10623572Y-11726857D01*
X10623572Y-11726857D02*
X10747381Y-11726857D01*
X10975953Y-11793524D02*
X10975953Y-11593524D01*
X11061667Y-11793524D02*
X11061667Y-11688762D01*
X11061667Y-11688762D02*
X11052143Y-11669714D01*
X11052143Y-11669714D02*
X11033096Y-11660190D01*
X11033096Y-11660190D02*
X11004524Y-11660190D01*
X11004524Y-11660190D02*
X10985477Y-11669714D01*
X10985477Y-11669714D02*
X10975953Y-11679238D01*
X11185476Y-11793524D02*
X11166429Y-11784000D01*
X11166429Y-11784000D02*
X11156905Y-11774476D01*
X11156905Y-11774476D02*
X11147381Y-11755428D01*
X11147381Y-11755428D02*
X11147381Y-11698286D01*
X11147381Y-11698286D02*
X11156905Y-11679238D01*
X11156905Y-11679238D02*
X11166429Y-11669714D01*
X11166429Y-11669714D02*
X11185476Y-11660190D01*
X11185476Y-11660190D02*
X11214048Y-11660190D01*
X11214048Y-11660190D02*
X11233096Y-11669714D01*
X11233096Y-11669714D02*
X11242619Y-11679238D01*
X11242619Y-11679238D02*
X11252143Y-11698286D01*
X11252143Y-11698286D02*
X11252143Y-11755428D01*
X11252143Y-11755428D02*
X11242619Y-11774476D01*
X11242619Y-11774476D02*
X11233096Y-11784000D01*
X11233096Y-11784000D02*
X11214048Y-11793524D01*
X11214048Y-11793524D02*
X11185476Y-11793524D01*
X11366429Y-11793524D02*
X11347381Y-11784000D01*
X11347381Y-11784000D02*
X11337857Y-11764952D01*
X11337857Y-11764952D02*
X11337857Y-11593524D01*
X11518810Y-11784000D02*
X11499762Y-11793524D01*
X11499762Y-11793524D02*
X11461667Y-11793524D01*
X11461667Y-11793524D02*
X11442619Y-11784000D01*
X11442619Y-11784000D02*
X11433096Y-11764952D01*
X11433096Y-11764952D02*
X11433096Y-11688762D01*
X11433096Y-11688762D02*
X11442619Y-11669714D01*
X11442619Y-11669714D02*
X11461667Y-11660190D01*
X11461667Y-11660190D02*
X11499762Y-11660190D01*
X11499762Y-11660190D02*
X11518810Y-11669714D01*
X11518810Y-11669714D02*
X11528334Y-11688762D01*
X11528334Y-11688762D02*
X11528334Y-11707809D01*
X11528334Y-11707809D02*
X11433096Y-11726857D01*
X11604524Y-11784000D02*
X11623572Y-11793524D01*
X11623572Y-11793524D02*
X11661667Y-11793524D01*
X11661667Y-11793524D02*
X11680715Y-11784000D01*
X11680715Y-11784000D02*
X11690238Y-11764952D01*
X11690238Y-11764952D02*
X11690238Y-11755428D01*
X11690238Y-11755428D02*
X11680715Y-11736381D01*
X11680715Y-11736381D02*
X11661667Y-11726857D01*
X11661667Y-11726857D02*
X11633096Y-11726857D01*
X11633096Y-11726857D02*
X11614048Y-11717333D01*
X11614048Y-11717333D02*
X11604524Y-11698286D01*
X11604524Y-11698286D02*
X11604524Y-11688762D01*
X11604524Y-11688762D02*
X11614048Y-11669714D01*
X11614048Y-11669714D02*
X11633096Y-11660190D01*
X11633096Y-11660190D02*
X11661667Y-11660190D01*
X11661667Y-11660190D02*
X11680715Y-11669714D01*
X11756905Y-11869714D02*
X11766429Y-11860190D01*
X11766429Y-11860190D02*
X11785477Y-11831619D01*
X11785477Y-11831619D02*
X11795000Y-11812571D01*
X11795000Y-11812571D02*
X11804524Y-11784000D01*
X11804524Y-11784000D02*
X11814048Y-11736381D01*
X11814048Y-11736381D02*
X11814048Y-11698286D01*
X11814048Y-11698286D02*
X11804524Y-11650667D01*
X11804524Y-11650667D02*
X11795000Y-11622095D01*
X11795000Y-11622095D02*
X11785477Y-11603048D01*
X11785477Y-11603048D02*
X11766429Y-11574476D01*
X11766429Y-11574476D02*
X11756905Y-11564952D01*
D16*
X6845000Y-11890000D02*
X6995000Y-12040000D01*
X6995000Y-11890000D02*
X6845000Y-12040000D01*
X6995000Y-11965000D02*
G75*
G03*
X6995000Y-11965000I-75000J0D01*
G01*
D11*
X7347381Y-12057524D02*
X7233095Y-12057524D01*
X7290238Y-12057524D02*
X7290238Y-11857524D01*
X7290238Y-11857524D02*
X7271190Y-11886095D01*
X7271190Y-11886095D02*
X7252143Y-11905143D01*
X7252143Y-11905143D02*
X7233095Y-11914667D01*
X7433095Y-12038476D02*
X7442619Y-12048000D01*
X7442619Y-12048000D02*
X7433095Y-12057524D01*
X7433095Y-12057524D02*
X7423571Y-12048000D01*
X7423571Y-12048000D02*
X7433095Y-12038476D01*
X7433095Y-12038476D02*
X7433095Y-12057524D01*
X7623571Y-11857524D02*
X7528333Y-11857524D01*
X7528333Y-11857524D02*
X7518809Y-11952762D01*
X7518809Y-11952762D02*
X7528333Y-11943238D01*
X7528333Y-11943238D02*
X7547381Y-11933714D01*
X7547381Y-11933714D02*
X7595000Y-11933714D01*
X7595000Y-11933714D02*
X7614048Y-11943238D01*
X7614048Y-11943238D02*
X7623571Y-11952762D01*
X7623571Y-11952762D02*
X7633095Y-11971809D01*
X7633095Y-11971809D02*
X7633095Y-12019428D01*
X7633095Y-12019428D02*
X7623571Y-12038476D01*
X7623571Y-12038476D02*
X7614048Y-12048000D01*
X7614048Y-12048000D02*
X7595000Y-12057524D01*
X7595000Y-12057524D02*
X7547381Y-12057524D01*
X7547381Y-12057524D02*
X7528333Y-12048000D01*
X7528333Y-12048000D02*
X7518809Y-12038476D01*
X7756905Y-11857524D02*
X7775952Y-11857524D01*
X7775952Y-11857524D02*
X7795000Y-11867048D01*
X7795000Y-11867048D02*
X7804524Y-11876571D01*
X7804524Y-11876571D02*
X7814048Y-11895619D01*
X7814048Y-11895619D02*
X7823571Y-11933714D01*
X7823571Y-11933714D02*
X7823571Y-11981333D01*
X7823571Y-11981333D02*
X7814048Y-12019428D01*
X7814048Y-12019428D02*
X7804524Y-12038476D01*
X7804524Y-12038476D02*
X7795000Y-12048000D01*
X7795000Y-12048000D02*
X7775952Y-12057524D01*
X7775952Y-12057524D02*
X7756905Y-12057524D01*
X7756905Y-12057524D02*
X7737857Y-12048000D01*
X7737857Y-12048000D02*
X7728333Y-12038476D01*
X7728333Y-12038476D02*
X7718809Y-12019428D01*
X7718809Y-12019428D02*
X7709286Y-11981333D01*
X7709286Y-11981333D02*
X7709286Y-11933714D01*
X7709286Y-11933714D02*
X7718809Y-11895619D01*
X7718809Y-11895619D02*
X7728333Y-11876571D01*
X7728333Y-11876571D02*
X7737857Y-11867048D01*
X7737857Y-11867048D02*
X7756905Y-11857524D01*
X7947381Y-11857524D02*
X7966429Y-11857524D01*
X7966429Y-11857524D02*
X7985476Y-11867048D01*
X7985476Y-11867048D02*
X7995000Y-11876571D01*
X7995000Y-11876571D02*
X8004524Y-11895619D01*
X8004524Y-11895619D02*
X8014048Y-11933714D01*
X8014048Y-11933714D02*
X8014048Y-11981333D01*
X8014048Y-11981333D02*
X8004524Y-12019428D01*
X8004524Y-12019428D02*
X7995000Y-12038476D01*
X7995000Y-12038476D02*
X7985476Y-12048000D01*
X7985476Y-12048000D02*
X7966429Y-12057524D01*
X7966429Y-12057524D02*
X7947381Y-12057524D01*
X7947381Y-12057524D02*
X7928333Y-12048000D01*
X7928333Y-12048000D02*
X7918809Y-12038476D01*
X7918809Y-12038476D02*
X7909286Y-12019428D01*
X7909286Y-12019428D02*
X7899762Y-11981333D01*
X7899762Y-11981333D02*
X7899762Y-11933714D01*
X7899762Y-11933714D02*
X7909286Y-11895619D01*
X7909286Y-11895619D02*
X7918809Y-11876571D01*
X7918809Y-11876571D02*
X7928333Y-11867048D01*
X7928333Y-11867048D02*
X7947381Y-11857524D01*
X8099762Y-12057524D02*
X8099762Y-11924190D01*
X8099762Y-11943238D02*
X8109286Y-11933714D01*
X8109286Y-11933714D02*
X8128333Y-11924190D01*
X8128333Y-11924190D02*
X8156905Y-11924190D01*
X8156905Y-11924190D02*
X8175952Y-11933714D01*
X8175952Y-11933714D02*
X8185476Y-11952762D01*
X8185476Y-11952762D02*
X8185476Y-12057524D01*
X8185476Y-11952762D02*
X8195000Y-11933714D01*
X8195000Y-11933714D02*
X8214048Y-11924190D01*
X8214048Y-11924190D02*
X8242619Y-11924190D01*
X8242619Y-11924190D02*
X8261667Y-11933714D01*
X8261667Y-11933714D02*
X8271190Y-11952762D01*
X8271190Y-11952762D02*
X8271190Y-12057524D01*
X8366429Y-12057524D02*
X8366429Y-11924190D01*
X8366429Y-11943238D02*
X8375952Y-11933714D01*
X8375952Y-11933714D02*
X8395000Y-11924190D01*
X8395000Y-11924190D02*
X8423572Y-11924190D01*
X8423572Y-11924190D02*
X8442619Y-11933714D01*
X8442619Y-11933714D02*
X8452143Y-11952762D01*
X8452143Y-11952762D02*
X8452143Y-12057524D01*
X8452143Y-11952762D02*
X8461667Y-11933714D01*
X8461667Y-11933714D02*
X8480714Y-11924190D01*
X8480714Y-11924190D02*
X8509286Y-11924190D01*
X8509286Y-11924190D02*
X8528333Y-11933714D01*
X8528333Y-11933714D02*
X8537857Y-11952762D01*
X8537857Y-11952762D02*
X8537857Y-12057524D01*
X8928333Y-11848000D02*
X8756905Y-12105143D01*
X9185476Y-11857524D02*
X9204524Y-11857524D01*
X9204524Y-11857524D02*
X9223572Y-11867048D01*
X9223572Y-11867048D02*
X9233095Y-11876571D01*
X9233095Y-11876571D02*
X9242619Y-11895619D01*
X9242619Y-11895619D02*
X9252143Y-11933714D01*
X9252143Y-11933714D02*
X9252143Y-11981333D01*
X9252143Y-11981333D02*
X9242619Y-12019428D01*
X9242619Y-12019428D02*
X9233095Y-12038476D01*
X9233095Y-12038476D02*
X9223572Y-12048000D01*
X9223572Y-12048000D02*
X9204524Y-12057524D01*
X9204524Y-12057524D02*
X9185476Y-12057524D01*
X9185476Y-12057524D02*
X9166429Y-12048000D01*
X9166429Y-12048000D02*
X9156905Y-12038476D01*
X9156905Y-12038476D02*
X9147381Y-12019428D01*
X9147381Y-12019428D02*
X9137857Y-11981333D01*
X9137857Y-11981333D02*
X9137857Y-11933714D01*
X9137857Y-11933714D02*
X9147381Y-11895619D01*
X9147381Y-11895619D02*
X9156905Y-11876571D01*
X9156905Y-11876571D02*
X9166429Y-11867048D01*
X9166429Y-11867048D02*
X9185476Y-11857524D01*
X9337857Y-12038476D02*
X9347381Y-12048000D01*
X9347381Y-12048000D02*
X9337857Y-12057524D01*
X9337857Y-12057524D02*
X9328334Y-12048000D01*
X9328334Y-12048000D02*
X9337857Y-12038476D01*
X9337857Y-12038476D02*
X9337857Y-12057524D01*
X9471191Y-11857524D02*
X9490238Y-11857524D01*
X9490238Y-11857524D02*
X9509286Y-11867048D01*
X9509286Y-11867048D02*
X9518810Y-11876571D01*
X9518810Y-11876571D02*
X9528334Y-11895619D01*
X9528334Y-11895619D02*
X9537857Y-11933714D01*
X9537857Y-11933714D02*
X9537857Y-11981333D01*
X9537857Y-11981333D02*
X9528334Y-12019428D01*
X9528334Y-12019428D02*
X9518810Y-12038476D01*
X9518810Y-12038476D02*
X9509286Y-12048000D01*
X9509286Y-12048000D02*
X9490238Y-12057524D01*
X9490238Y-12057524D02*
X9471191Y-12057524D01*
X9471191Y-12057524D02*
X9452143Y-12048000D01*
X9452143Y-12048000D02*
X9442619Y-12038476D01*
X9442619Y-12038476D02*
X9433095Y-12019428D01*
X9433095Y-12019428D02*
X9423572Y-11981333D01*
X9423572Y-11981333D02*
X9423572Y-11933714D01*
X9423572Y-11933714D02*
X9433095Y-11895619D01*
X9433095Y-11895619D02*
X9442619Y-11876571D01*
X9442619Y-11876571D02*
X9452143Y-11867048D01*
X9452143Y-11867048D02*
X9471191Y-11857524D01*
X9718810Y-11857524D02*
X9623572Y-11857524D01*
X9623572Y-11857524D02*
X9614048Y-11952762D01*
X9614048Y-11952762D02*
X9623572Y-11943238D01*
X9623572Y-11943238D02*
X9642619Y-11933714D01*
X9642619Y-11933714D02*
X9690238Y-11933714D01*
X9690238Y-11933714D02*
X9709286Y-11943238D01*
X9709286Y-11943238D02*
X9718810Y-11952762D01*
X9718810Y-11952762D02*
X9728334Y-11971809D01*
X9728334Y-11971809D02*
X9728334Y-12019428D01*
X9728334Y-12019428D02*
X9718810Y-12038476D01*
X9718810Y-12038476D02*
X9709286Y-12048000D01*
X9709286Y-12048000D02*
X9690238Y-12057524D01*
X9690238Y-12057524D02*
X9642619Y-12057524D01*
X9642619Y-12057524D02*
X9623572Y-12048000D01*
X9623572Y-12048000D02*
X9614048Y-12038476D01*
X9823572Y-12057524D02*
X9861667Y-12057524D01*
X9861667Y-12057524D02*
X9880715Y-12048000D01*
X9880715Y-12048000D02*
X9890238Y-12038476D01*
X9890238Y-12038476D02*
X9909286Y-12009905D01*
X9909286Y-12009905D02*
X9918810Y-11971809D01*
X9918810Y-11971809D02*
X9918810Y-11895619D01*
X9918810Y-11895619D02*
X9909286Y-11876571D01*
X9909286Y-11876571D02*
X9899762Y-11867048D01*
X9899762Y-11867048D02*
X9880715Y-11857524D01*
X9880715Y-11857524D02*
X9842619Y-11857524D01*
X9842619Y-11857524D02*
X9823572Y-11867048D01*
X9823572Y-11867048D02*
X9814048Y-11876571D01*
X9814048Y-11876571D02*
X9804524Y-11895619D01*
X9804524Y-11895619D02*
X9804524Y-11943238D01*
X9804524Y-11943238D02*
X9814048Y-11962286D01*
X9814048Y-11962286D02*
X9823572Y-11971809D01*
X9823572Y-11971809D02*
X9842619Y-11981333D01*
X9842619Y-11981333D02*
X9880715Y-11981333D01*
X9880715Y-11981333D02*
X9899762Y-11971809D01*
X9899762Y-11971809D02*
X9909286Y-11962286D01*
X9909286Y-11962286D02*
X9918810Y-11943238D01*
X10109286Y-12057524D02*
X9995000Y-12057524D01*
X10052143Y-12057524D02*
X10052143Y-11857524D01*
X10052143Y-11857524D02*
X10033095Y-11886095D01*
X10033095Y-11886095D02*
X10014048Y-11905143D01*
X10014048Y-11905143D02*
X9995000Y-11914667D01*
X10185476Y-11857524D02*
X10185476Y-11895619D01*
X10261667Y-11857524D02*
X10261667Y-11895619D01*
X10556905Y-12133714D02*
X10547381Y-12124190D01*
X10547381Y-12124190D02*
X10528334Y-12095619D01*
X10528334Y-12095619D02*
X10518810Y-12076571D01*
X10518810Y-12076571D02*
X10509286Y-12048000D01*
X10509286Y-12048000D02*
X10499762Y-12000381D01*
X10499762Y-12000381D02*
X10499762Y-11962286D01*
X10499762Y-11962286D02*
X10509286Y-11914667D01*
X10509286Y-11914667D02*
X10518810Y-11886095D01*
X10518810Y-11886095D02*
X10528334Y-11867048D01*
X10528334Y-11867048D02*
X10547381Y-11838476D01*
X10547381Y-11838476D02*
X10556905Y-11828952D01*
X10718810Y-11924190D02*
X10718810Y-12057524D01*
X10671191Y-11848000D02*
X10623572Y-11990857D01*
X10623572Y-11990857D02*
X10747381Y-11990857D01*
X10975953Y-12057524D02*
X10975953Y-11857524D01*
X11061667Y-12057524D02*
X11061667Y-11952762D01*
X11061667Y-11952762D02*
X11052143Y-11933714D01*
X11052143Y-11933714D02*
X11033096Y-11924190D01*
X11033096Y-11924190D02*
X11004524Y-11924190D01*
X11004524Y-11924190D02*
X10985477Y-11933714D01*
X10985477Y-11933714D02*
X10975953Y-11943238D01*
X11185476Y-12057524D02*
X11166429Y-12048000D01*
X11166429Y-12048000D02*
X11156905Y-12038476D01*
X11156905Y-12038476D02*
X11147381Y-12019428D01*
X11147381Y-12019428D02*
X11147381Y-11962286D01*
X11147381Y-11962286D02*
X11156905Y-11943238D01*
X11156905Y-11943238D02*
X11166429Y-11933714D01*
X11166429Y-11933714D02*
X11185476Y-11924190D01*
X11185476Y-11924190D02*
X11214048Y-11924190D01*
X11214048Y-11924190D02*
X11233096Y-11933714D01*
X11233096Y-11933714D02*
X11242619Y-11943238D01*
X11242619Y-11943238D02*
X11252143Y-11962286D01*
X11252143Y-11962286D02*
X11252143Y-12019428D01*
X11252143Y-12019428D02*
X11242619Y-12038476D01*
X11242619Y-12038476D02*
X11233096Y-12048000D01*
X11233096Y-12048000D02*
X11214048Y-12057524D01*
X11214048Y-12057524D02*
X11185476Y-12057524D01*
X11366429Y-12057524D02*
X11347381Y-12048000D01*
X11347381Y-12048000D02*
X11337857Y-12028952D01*
X11337857Y-12028952D02*
X11337857Y-11857524D01*
X11518810Y-12048000D02*
X11499762Y-12057524D01*
X11499762Y-12057524D02*
X11461667Y-12057524D01*
X11461667Y-12057524D02*
X11442619Y-12048000D01*
X11442619Y-12048000D02*
X11433096Y-12028952D01*
X11433096Y-12028952D02*
X11433096Y-11952762D01*
X11433096Y-11952762D02*
X11442619Y-11933714D01*
X11442619Y-11933714D02*
X11461667Y-11924190D01*
X11461667Y-11924190D02*
X11499762Y-11924190D01*
X11499762Y-11924190D02*
X11518810Y-11933714D01*
X11518810Y-11933714D02*
X11528334Y-11952762D01*
X11528334Y-11952762D02*
X11528334Y-11971809D01*
X11528334Y-11971809D02*
X11433096Y-11990857D01*
X11604524Y-12048000D02*
X11623572Y-12057524D01*
X11623572Y-12057524D02*
X11661667Y-12057524D01*
X11661667Y-12057524D02*
X11680715Y-12048000D01*
X11680715Y-12048000D02*
X11690238Y-12028952D01*
X11690238Y-12028952D02*
X11690238Y-12019428D01*
X11690238Y-12019428D02*
X11680715Y-12000381D01*
X11680715Y-12000381D02*
X11661667Y-11990857D01*
X11661667Y-11990857D02*
X11633096Y-11990857D01*
X11633096Y-11990857D02*
X11614048Y-11981333D01*
X11614048Y-11981333D02*
X11604524Y-11962286D01*
X11604524Y-11962286D02*
X11604524Y-11952762D01*
X11604524Y-11952762D02*
X11614048Y-11933714D01*
X11614048Y-11933714D02*
X11633096Y-11924190D01*
X11633096Y-11924190D02*
X11661667Y-11924190D01*
X11661667Y-11924190D02*
X11680715Y-11933714D01*
X11756905Y-12133714D02*
X11766429Y-12124190D01*
X11766429Y-12124190D02*
X11785477Y-12095619D01*
X11785477Y-12095619D02*
X11795000Y-12076571D01*
X11795000Y-12076571D02*
X11804524Y-12048000D01*
X11804524Y-12048000D02*
X11814048Y-12000381D01*
X11814048Y-12000381D02*
X11814048Y-11962286D01*
X11814048Y-11962286D02*
X11804524Y-11914667D01*
X11804524Y-11914667D02*
X11795000Y-11886095D01*
X11795000Y-11886095D02*
X11785477Y-11867048D01*
X11785477Y-11867048D02*
X11766429Y-11838476D01*
X11766429Y-11838476D02*
X11756905Y-11828952D01*
D17*
X6815000Y-12145000D02*
X6995000Y-12325000D01*
X6995000Y-12145000D02*
X6815000Y-12325000D01*
X6905000Y-12145000D02*
X6905000Y-12325000D01*
X6815000Y-12235000D02*
X6995000Y-12235000D01*
D11*
X7347381Y-12327524D02*
X7233095Y-12327524D01*
X7290238Y-12327524D02*
X7290238Y-12127524D01*
X7290238Y-12127524D02*
X7271190Y-12156095D01*
X7271190Y-12156095D02*
X7252143Y-12175143D01*
X7252143Y-12175143D02*
X7233095Y-12184667D01*
X7433095Y-12308476D02*
X7442619Y-12318000D01*
X7442619Y-12318000D02*
X7433095Y-12327524D01*
X7433095Y-12327524D02*
X7423571Y-12318000D01*
X7423571Y-12318000D02*
X7433095Y-12308476D01*
X7433095Y-12308476D02*
X7433095Y-12327524D01*
X7556905Y-12213238D02*
X7537857Y-12203714D01*
X7537857Y-12203714D02*
X7528333Y-12194190D01*
X7528333Y-12194190D02*
X7518809Y-12175143D01*
X7518809Y-12175143D02*
X7518809Y-12165619D01*
X7518809Y-12165619D02*
X7528333Y-12146571D01*
X7528333Y-12146571D02*
X7537857Y-12137048D01*
X7537857Y-12137048D02*
X7556905Y-12127524D01*
X7556905Y-12127524D02*
X7595000Y-12127524D01*
X7595000Y-12127524D02*
X7614048Y-12137048D01*
X7614048Y-12137048D02*
X7623571Y-12146571D01*
X7623571Y-12146571D02*
X7633095Y-12165619D01*
X7633095Y-12165619D02*
X7633095Y-12175143D01*
X7633095Y-12175143D02*
X7623571Y-12194190D01*
X7623571Y-12194190D02*
X7614048Y-12203714D01*
X7614048Y-12203714D02*
X7595000Y-12213238D01*
X7595000Y-12213238D02*
X7556905Y-12213238D01*
X7556905Y-12213238D02*
X7537857Y-12222762D01*
X7537857Y-12222762D02*
X7528333Y-12232286D01*
X7528333Y-12232286D02*
X7518809Y-12251333D01*
X7518809Y-12251333D02*
X7518809Y-12289428D01*
X7518809Y-12289428D02*
X7528333Y-12308476D01*
X7528333Y-12308476D02*
X7537857Y-12318000D01*
X7537857Y-12318000D02*
X7556905Y-12327524D01*
X7556905Y-12327524D02*
X7595000Y-12327524D01*
X7595000Y-12327524D02*
X7614048Y-12318000D01*
X7614048Y-12318000D02*
X7623571Y-12308476D01*
X7623571Y-12308476D02*
X7633095Y-12289428D01*
X7633095Y-12289428D02*
X7633095Y-12251333D01*
X7633095Y-12251333D02*
X7623571Y-12232286D01*
X7623571Y-12232286D02*
X7614048Y-12222762D01*
X7614048Y-12222762D02*
X7595000Y-12213238D01*
X7756905Y-12127524D02*
X7775952Y-12127524D01*
X7775952Y-12127524D02*
X7795000Y-12137048D01*
X7795000Y-12137048D02*
X7804524Y-12146571D01*
X7804524Y-12146571D02*
X7814048Y-12165619D01*
X7814048Y-12165619D02*
X7823571Y-12203714D01*
X7823571Y-12203714D02*
X7823571Y-12251333D01*
X7823571Y-12251333D02*
X7814048Y-12289428D01*
X7814048Y-12289428D02*
X7804524Y-12308476D01*
X7804524Y-12308476D02*
X7795000Y-12318000D01*
X7795000Y-12318000D02*
X7775952Y-12327524D01*
X7775952Y-12327524D02*
X7756905Y-12327524D01*
X7756905Y-12327524D02*
X7737857Y-12318000D01*
X7737857Y-12318000D02*
X7728333Y-12308476D01*
X7728333Y-12308476D02*
X7718809Y-12289428D01*
X7718809Y-12289428D02*
X7709286Y-12251333D01*
X7709286Y-12251333D02*
X7709286Y-12203714D01*
X7709286Y-12203714D02*
X7718809Y-12165619D01*
X7718809Y-12165619D02*
X7728333Y-12146571D01*
X7728333Y-12146571D02*
X7737857Y-12137048D01*
X7737857Y-12137048D02*
X7756905Y-12127524D01*
X7947381Y-12127524D02*
X7966429Y-12127524D01*
X7966429Y-12127524D02*
X7985476Y-12137048D01*
X7985476Y-12137048D02*
X7995000Y-12146571D01*
X7995000Y-12146571D02*
X8004524Y-12165619D01*
X8004524Y-12165619D02*
X8014048Y-12203714D01*
X8014048Y-12203714D02*
X8014048Y-12251333D01*
X8014048Y-12251333D02*
X8004524Y-12289428D01*
X8004524Y-12289428D02*
X7995000Y-12308476D01*
X7995000Y-12308476D02*
X7985476Y-12318000D01*
X7985476Y-12318000D02*
X7966429Y-12327524D01*
X7966429Y-12327524D02*
X7947381Y-12327524D01*
X7947381Y-12327524D02*
X7928333Y-12318000D01*
X7928333Y-12318000D02*
X7918809Y-12308476D01*
X7918809Y-12308476D02*
X7909286Y-12289428D01*
X7909286Y-12289428D02*
X7899762Y-12251333D01*
X7899762Y-12251333D02*
X7899762Y-12203714D01*
X7899762Y-12203714D02*
X7909286Y-12165619D01*
X7909286Y-12165619D02*
X7918809Y-12146571D01*
X7918809Y-12146571D02*
X7928333Y-12137048D01*
X7928333Y-12137048D02*
X7947381Y-12127524D01*
X8099762Y-12327524D02*
X8099762Y-12194190D01*
X8099762Y-12213238D02*
X8109286Y-12203714D01*
X8109286Y-12203714D02*
X8128333Y-12194190D01*
X8128333Y-12194190D02*
X8156905Y-12194190D01*
X8156905Y-12194190D02*
X8175952Y-12203714D01*
X8175952Y-12203714D02*
X8185476Y-12222762D01*
X8185476Y-12222762D02*
X8185476Y-12327524D01*
X8185476Y-12222762D02*
X8195000Y-12203714D01*
X8195000Y-12203714D02*
X8214048Y-12194190D01*
X8214048Y-12194190D02*
X8242619Y-12194190D01*
X8242619Y-12194190D02*
X8261667Y-12203714D01*
X8261667Y-12203714D02*
X8271190Y-12222762D01*
X8271190Y-12222762D02*
X8271190Y-12327524D01*
X8366429Y-12327524D02*
X8366429Y-12194190D01*
X8366429Y-12213238D02*
X8375952Y-12203714D01*
X8375952Y-12203714D02*
X8395000Y-12194190D01*
X8395000Y-12194190D02*
X8423572Y-12194190D01*
X8423572Y-12194190D02*
X8442619Y-12203714D01*
X8442619Y-12203714D02*
X8452143Y-12222762D01*
X8452143Y-12222762D02*
X8452143Y-12327524D01*
X8452143Y-12222762D02*
X8461667Y-12203714D01*
X8461667Y-12203714D02*
X8480714Y-12194190D01*
X8480714Y-12194190D02*
X8509286Y-12194190D01*
X8509286Y-12194190D02*
X8528333Y-12203714D01*
X8528333Y-12203714D02*
X8537857Y-12222762D01*
X8537857Y-12222762D02*
X8537857Y-12327524D01*
X8928333Y-12118000D02*
X8756905Y-12375143D01*
X9185476Y-12127524D02*
X9204524Y-12127524D01*
X9204524Y-12127524D02*
X9223572Y-12137048D01*
X9223572Y-12137048D02*
X9233095Y-12146571D01*
X9233095Y-12146571D02*
X9242619Y-12165619D01*
X9242619Y-12165619D02*
X9252143Y-12203714D01*
X9252143Y-12203714D02*
X9252143Y-12251333D01*
X9252143Y-12251333D02*
X9242619Y-12289428D01*
X9242619Y-12289428D02*
X9233095Y-12308476D01*
X9233095Y-12308476D02*
X9223572Y-12318000D01*
X9223572Y-12318000D02*
X9204524Y-12327524D01*
X9204524Y-12327524D02*
X9185476Y-12327524D01*
X9185476Y-12327524D02*
X9166429Y-12318000D01*
X9166429Y-12318000D02*
X9156905Y-12308476D01*
X9156905Y-12308476D02*
X9147381Y-12289428D01*
X9147381Y-12289428D02*
X9137857Y-12251333D01*
X9137857Y-12251333D02*
X9137857Y-12203714D01*
X9137857Y-12203714D02*
X9147381Y-12165619D01*
X9147381Y-12165619D02*
X9156905Y-12146571D01*
X9156905Y-12146571D02*
X9166429Y-12137048D01*
X9166429Y-12137048D02*
X9185476Y-12127524D01*
X9337857Y-12308476D02*
X9347381Y-12318000D01*
X9347381Y-12318000D02*
X9337857Y-12327524D01*
X9337857Y-12327524D02*
X9328334Y-12318000D01*
X9328334Y-12318000D02*
X9337857Y-12308476D01*
X9337857Y-12308476D02*
X9337857Y-12327524D01*
X9471191Y-12127524D02*
X9490238Y-12127524D01*
X9490238Y-12127524D02*
X9509286Y-12137048D01*
X9509286Y-12137048D02*
X9518810Y-12146571D01*
X9518810Y-12146571D02*
X9528334Y-12165619D01*
X9528334Y-12165619D02*
X9537857Y-12203714D01*
X9537857Y-12203714D02*
X9537857Y-12251333D01*
X9537857Y-12251333D02*
X9528334Y-12289428D01*
X9528334Y-12289428D02*
X9518810Y-12308476D01*
X9518810Y-12308476D02*
X9509286Y-12318000D01*
X9509286Y-12318000D02*
X9490238Y-12327524D01*
X9490238Y-12327524D02*
X9471191Y-12327524D01*
X9471191Y-12327524D02*
X9452143Y-12318000D01*
X9452143Y-12318000D02*
X9442619Y-12308476D01*
X9442619Y-12308476D02*
X9433095Y-12289428D01*
X9433095Y-12289428D02*
X9423572Y-12251333D01*
X9423572Y-12251333D02*
X9423572Y-12203714D01*
X9423572Y-12203714D02*
X9433095Y-12165619D01*
X9433095Y-12165619D02*
X9442619Y-12146571D01*
X9442619Y-12146571D02*
X9452143Y-12137048D01*
X9452143Y-12137048D02*
X9471191Y-12127524D01*
X9604524Y-12127524D02*
X9737857Y-12127524D01*
X9737857Y-12127524D02*
X9652143Y-12327524D01*
X9852143Y-12127524D02*
X9871191Y-12127524D01*
X9871191Y-12127524D02*
X9890238Y-12137048D01*
X9890238Y-12137048D02*
X9899762Y-12146571D01*
X9899762Y-12146571D02*
X9909286Y-12165619D01*
X9909286Y-12165619D02*
X9918810Y-12203714D01*
X9918810Y-12203714D02*
X9918810Y-12251333D01*
X9918810Y-12251333D02*
X9909286Y-12289428D01*
X9909286Y-12289428D02*
X9899762Y-12308476D01*
X9899762Y-12308476D02*
X9890238Y-12318000D01*
X9890238Y-12318000D02*
X9871191Y-12327524D01*
X9871191Y-12327524D02*
X9852143Y-12327524D01*
X9852143Y-12327524D02*
X9833095Y-12318000D01*
X9833095Y-12318000D02*
X9823572Y-12308476D01*
X9823572Y-12308476D02*
X9814048Y-12289428D01*
X9814048Y-12289428D02*
X9804524Y-12251333D01*
X9804524Y-12251333D02*
X9804524Y-12203714D01*
X9804524Y-12203714D02*
X9814048Y-12165619D01*
X9814048Y-12165619D02*
X9823572Y-12146571D01*
X9823572Y-12146571D02*
X9833095Y-12137048D01*
X9833095Y-12137048D02*
X9852143Y-12127524D01*
X10014048Y-12327524D02*
X10052143Y-12327524D01*
X10052143Y-12327524D02*
X10071191Y-12318000D01*
X10071191Y-12318000D02*
X10080715Y-12308476D01*
X10080715Y-12308476D02*
X10099762Y-12279905D01*
X10099762Y-12279905D02*
X10109286Y-12241809D01*
X10109286Y-12241809D02*
X10109286Y-12165619D01*
X10109286Y-12165619D02*
X10099762Y-12146571D01*
X10099762Y-12146571D02*
X10090238Y-12137048D01*
X10090238Y-12137048D02*
X10071191Y-12127524D01*
X10071191Y-12127524D02*
X10033095Y-12127524D01*
X10033095Y-12127524D02*
X10014048Y-12137048D01*
X10014048Y-12137048D02*
X10004524Y-12146571D01*
X10004524Y-12146571D02*
X9995000Y-12165619D01*
X9995000Y-12165619D02*
X9995000Y-12213238D01*
X9995000Y-12213238D02*
X10004524Y-12232286D01*
X10004524Y-12232286D02*
X10014048Y-12241809D01*
X10014048Y-12241809D02*
X10033095Y-12251333D01*
X10033095Y-12251333D02*
X10071191Y-12251333D01*
X10071191Y-12251333D02*
X10090238Y-12241809D01*
X10090238Y-12241809D02*
X10099762Y-12232286D01*
X10099762Y-12232286D02*
X10109286Y-12213238D01*
X10185476Y-12127524D02*
X10185476Y-12165619D01*
X10261667Y-12127524D02*
X10261667Y-12165619D01*
X10556905Y-12403714D02*
X10547381Y-12394190D01*
X10547381Y-12394190D02*
X10528334Y-12365619D01*
X10528334Y-12365619D02*
X10518810Y-12346571D01*
X10518810Y-12346571D02*
X10509286Y-12318000D01*
X10509286Y-12318000D02*
X10499762Y-12270381D01*
X10499762Y-12270381D02*
X10499762Y-12232286D01*
X10499762Y-12232286D02*
X10509286Y-12184667D01*
X10509286Y-12184667D02*
X10518810Y-12156095D01*
X10518810Y-12156095D02*
X10528334Y-12137048D01*
X10528334Y-12137048D02*
X10547381Y-12108476D01*
X10547381Y-12108476D02*
X10556905Y-12098952D01*
X10671191Y-12127524D02*
X10690238Y-12127524D01*
X10690238Y-12127524D02*
X10709286Y-12137048D01*
X10709286Y-12137048D02*
X10718810Y-12146571D01*
X10718810Y-12146571D02*
X10728334Y-12165619D01*
X10728334Y-12165619D02*
X10737857Y-12203714D01*
X10737857Y-12203714D02*
X10737857Y-12251333D01*
X10737857Y-12251333D02*
X10728334Y-12289428D01*
X10728334Y-12289428D02*
X10718810Y-12308476D01*
X10718810Y-12308476D02*
X10709286Y-12318000D01*
X10709286Y-12318000D02*
X10690238Y-12327524D01*
X10690238Y-12327524D02*
X10671191Y-12327524D01*
X10671191Y-12327524D02*
X10652143Y-12318000D01*
X10652143Y-12318000D02*
X10642619Y-12308476D01*
X10642619Y-12308476D02*
X10633096Y-12289428D01*
X10633096Y-12289428D02*
X10623572Y-12251333D01*
X10623572Y-12251333D02*
X10623572Y-12203714D01*
X10623572Y-12203714D02*
X10633096Y-12165619D01*
X10633096Y-12165619D02*
X10642619Y-12146571D01*
X10642619Y-12146571D02*
X10652143Y-12137048D01*
X10652143Y-12137048D02*
X10671191Y-12127524D01*
X10975953Y-12327524D02*
X10975953Y-12127524D01*
X11061667Y-12327524D02*
X11061667Y-12222762D01*
X11061667Y-12222762D02*
X11052143Y-12203714D01*
X11052143Y-12203714D02*
X11033096Y-12194190D01*
X11033096Y-12194190D02*
X11004524Y-12194190D01*
X11004524Y-12194190D02*
X10985477Y-12203714D01*
X10985477Y-12203714D02*
X10975953Y-12213238D01*
X11185476Y-12327524D02*
X11166429Y-12318000D01*
X11166429Y-12318000D02*
X11156905Y-12308476D01*
X11156905Y-12308476D02*
X11147381Y-12289428D01*
X11147381Y-12289428D02*
X11147381Y-12232286D01*
X11147381Y-12232286D02*
X11156905Y-12213238D01*
X11156905Y-12213238D02*
X11166429Y-12203714D01*
X11166429Y-12203714D02*
X11185476Y-12194190D01*
X11185476Y-12194190D02*
X11214048Y-12194190D01*
X11214048Y-12194190D02*
X11233096Y-12203714D01*
X11233096Y-12203714D02*
X11242619Y-12213238D01*
X11242619Y-12213238D02*
X11252143Y-12232286D01*
X11252143Y-12232286D02*
X11252143Y-12289428D01*
X11252143Y-12289428D02*
X11242619Y-12308476D01*
X11242619Y-12308476D02*
X11233096Y-12318000D01*
X11233096Y-12318000D02*
X11214048Y-12327524D01*
X11214048Y-12327524D02*
X11185476Y-12327524D01*
X11366429Y-12327524D02*
X11347381Y-12318000D01*
X11347381Y-12318000D02*
X11337857Y-12298952D01*
X11337857Y-12298952D02*
X11337857Y-12127524D01*
X11518810Y-12318000D02*
X11499762Y-12327524D01*
X11499762Y-12327524D02*
X11461667Y-12327524D01*
X11461667Y-12327524D02*
X11442619Y-12318000D01*
X11442619Y-12318000D02*
X11433096Y-12298952D01*
X11433096Y-12298952D02*
X11433096Y-12222762D01*
X11433096Y-12222762D02*
X11442619Y-12203714D01*
X11442619Y-12203714D02*
X11461667Y-12194190D01*
X11461667Y-12194190D02*
X11499762Y-12194190D01*
X11499762Y-12194190D02*
X11518810Y-12203714D01*
X11518810Y-12203714D02*
X11528334Y-12222762D01*
X11528334Y-12222762D02*
X11528334Y-12241809D01*
X11528334Y-12241809D02*
X11433096Y-12260857D01*
X11604524Y-12318000D02*
X11623572Y-12327524D01*
X11623572Y-12327524D02*
X11661667Y-12327524D01*
X11661667Y-12327524D02*
X11680715Y-12318000D01*
X11680715Y-12318000D02*
X11690238Y-12298952D01*
X11690238Y-12298952D02*
X11690238Y-12289428D01*
X11690238Y-12289428D02*
X11680715Y-12270381D01*
X11680715Y-12270381D02*
X11661667Y-12260857D01*
X11661667Y-12260857D02*
X11633096Y-12260857D01*
X11633096Y-12260857D02*
X11614048Y-12251333D01*
X11614048Y-12251333D02*
X11604524Y-12232286D01*
X11604524Y-12232286D02*
X11604524Y-12222762D01*
X11604524Y-12222762D02*
X11614048Y-12203714D01*
X11614048Y-12203714D02*
X11633096Y-12194190D01*
X11633096Y-12194190D02*
X11661667Y-12194190D01*
X11661667Y-12194190D02*
X11680715Y-12203714D01*
X11928334Y-12251333D02*
X12080715Y-12251333D01*
X12004524Y-12327524D02*
X12004524Y-12175143D01*
X12318810Y-12146571D02*
X12328334Y-12137048D01*
X12328334Y-12137048D02*
X12347381Y-12127524D01*
X12347381Y-12127524D02*
X12395000Y-12127524D01*
X12395000Y-12127524D02*
X12414048Y-12137048D01*
X12414048Y-12137048D02*
X12423572Y-12146571D01*
X12423572Y-12146571D02*
X12433096Y-12165619D01*
X12433096Y-12165619D02*
X12433096Y-12184667D01*
X12433096Y-12184667D02*
X12423572Y-12213238D01*
X12423572Y-12213238D02*
X12309286Y-12327524D01*
X12309286Y-12327524D02*
X12433096Y-12327524D01*
X12661667Y-12318000D02*
X12680715Y-12327524D01*
X12680715Y-12327524D02*
X12718810Y-12327524D01*
X12718810Y-12327524D02*
X12737858Y-12318000D01*
X12737858Y-12318000D02*
X12747381Y-12298952D01*
X12747381Y-12298952D02*
X12747381Y-12289428D01*
X12747381Y-12289428D02*
X12737858Y-12270381D01*
X12737858Y-12270381D02*
X12718810Y-12260857D01*
X12718810Y-12260857D02*
X12690239Y-12260857D01*
X12690239Y-12260857D02*
X12671191Y-12251333D01*
X12671191Y-12251333D02*
X12661667Y-12232286D01*
X12661667Y-12232286D02*
X12661667Y-12222762D01*
X12661667Y-12222762D02*
X12671191Y-12203714D01*
X12671191Y-12203714D02*
X12690239Y-12194190D01*
X12690239Y-12194190D02*
X12718810Y-12194190D01*
X12718810Y-12194190D02*
X12737858Y-12203714D01*
X12861667Y-12327524D02*
X12842620Y-12318000D01*
X12842620Y-12318000D02*
X12833096Y-12298952D01*
X12833096Y-12298952D02*
X12833096Y-12127524D01*
X12966429Y-12327524D02*
X12947381Y-12318000D01*
X12947381Y-12318000D02*
X12937858Y-12308476D01*
X12937858Y-12308476D02*
X12928334Y-12289428D01*
X12928334Y-12289428D02*
X12928334Y-12232286D01*
X12928334Y-12232286D02*
X12937858Y-12213238D01*
X12937858Y-12213238D02*
X12947381Y-12203714D01*
X12947381Y-12203714D02*
X12966429Y-12194190D01*
X12966429Y-12194190D02*
X12995001Y-12194190D01*
X12995001Y-12194190D02*
X13014048Y-12203714D01*
X13014048Y-12203714D02*
X13023572Y-12213238D01*
X13023572Y-12213238D02*
X13033096Y-12232286D01*
X13033096Y-12232286D02*
X13033096Y-12289428D01*
X13033096Y-12289428D02*
X13023572Y-12308476D01*
X13023572Y-12308476D02*
X13014048Y-12318000D01*
X13014048Y-12318000D02*
X12995001Y-12327524D01*
X12995001Y-12327524D02*
X12966429Y-12327524D01*
X13090239Y-12194190D02*
X13166429Y-12194190D01*
X13118810Y-12127524D02*
X13118810Y-12298952D01*
X13118810Y-12298952D02*
X13128334Y-12318000D01*
X13128334Y-12318000D02*
X13147381Y-12327524D01*
X13147381Y-12327524D02*
X13166429Y-12327524D01*
X13223572Y-12318000D02*
X13242620Y-12327524D01*
X13242620Y-12327524D02*
X13280715Y-12327524D01*
X13280715Y-12327524D02*
X13299762Y-12318000D01*
X13299762Y-12318000D02*
X13309286Y-12298952D01*
X13309286Y-12298952D02*
X13309286Y-12289428D01*
X13309286Y-12289428D02*
X13299762Y-12270381D01*
X13299762Y-12270381D02*
X13280715Y-12260857D01*
X13280715Y-12260857D02*
X13252143Y-12260857D01*
X13252143Y-12260857D02*
X13233096Y-12251333D01*
X13233096Y-12251333D02*
X13223572Y-12232286D01*
X13223572Y-12232286D02*
X13223572Y-12222762D01*
X13223572Y-12222762D02*
X13233096Y-12203714D01*
X13233096Y-12203714D02*
X13252143Y-12194190D01*
X13252143Y-12194190D02*
X13280715Y-12194190D01*
X13280715Y-12194190D02*
X13299762Y-12203714D01*
X13375953Y-12403714D02*
X13385477Y-12394190D01*
X13385477Y-12394190D02*
X13404524Y-12365619D01*
X13404524Y-12365619D02*
X13414048Y-12346571D01*
X13414048Y-12346571D02*
X13423572Y-12318000D01*
X13423572Y-12318000D02*
X13433096Y-12270381D01*
X13433096Y-12270381D02*
X13433096Y-12232286D01*
X13433096Y-12232286D02*
X13423572Y-12184667D01*
X13423572Y-12184667D02*
X13414048Y-12156095D01*
X13414048Y-12156095D02*
X13404524Y-12137048D01*
X13404524Y-12137048D02*
X13385477Y-12108476D01*
X13385477Y-12108476D02*
X13375953Y-12098952D01*
D18*
X6810000Y-12442500D02*
X6995000Y-12627500D01*
X6995000Y-12442500D02*
X6810000Y-12627500D01*
X6967908Y-12600408D02*
X6967908Y-12469592D01*
X6837092Y-12469592D01*
X6837092Y-12600408D01*
X6967908Y-12600408D01*
D11*
X7347381Y-12627524D02*
X7233095Y-12627524D01*
X7290238Y-12627524D02*
X7290238Y-12427524D01*
X7290238Y-12427524D02*
X7271190Y-12456095D01*
X7271190Y-12456095D02*
X7252143Y-12475143D01*
X7252143Y-12475143D02*
X7233095Y-12484667D01*
X7433095Y-12608476D02*
X7442619Y-12618000D01*
X7442619Y-12618000D02*
X7433095Y-12627524D01*
X7433095Y-12627524D02*
X7423571Y-12618000D01*
X7423571Y-12618000D02*
X7433095Y-12608476D01*
X7433095Y-12608476D02*
X7433095Y-12627524D01*
X7556905Y-12513238D02*
X7537857Y-12503714D01*
X7537857Y-12503714D02*
X7528333Y-12494190D01*
X7528333Y-12494190D02*
X7518809Y-12475143D01*
X7518809Y-12475143D02*
X7518809Y-12465619D01*
X7518809Y-12465619D02*
X7528333Y-12446571D01*
X7528333Y-12446571D02*
X7537857Y-12437048D01*
X7537857Y-12437048D02*
X7556905Y-12427524D01*
X7556905Y-12427524D02*
X7595000Y-12427524D01*
X7595000Y-12427524D02*
X7614048Y-12437048D01*
X7614048Y-12437048D02*
X7623571Y-12446571D01*
X7623571Y-12446571D02*
X7633095Y-12465619D01*
X7633095Y-12465619D02*
X7633095Y-12475143D01*
X7633095Y-12475143D02*
X7623571Y-12494190D01*
X7623571Y-12494190D02*
X7614048Y-12503714D01*
X7614048Y-12503714D02*
X7595000Y-12513238D01*
X7595000Y-12513238D02*
X7556905Y-12513238D01*
X7556905Y-12513238D02*
X7537857Y-12522762D01*
X7537857Y-12522762D02*
X7528333Y-12532286D01*
X7528333Y-12532286D02*
X7518809Y-12551333D01*
X7518809Y-12551333D02*
X7518809Y-12589428D01*
X7518809Y-12589428D02*
X7528333Y-12608476D01*
X7528333Y-12608476D02*
X7537857Y-12618000D01*
X7537857Y-12618000D02*
X7556905Y-12627524D01*
X7556905Y-12627524D02*
X7595000Y-12627524D01*
X7595000Y-12627524D02*
X7614048Y-12618000D01*
X7614048Y-12618000D02*
X7623571Y-12608476D01*
X7623571Y-12608476D02*
X7633095Y-12589428D01*
X7633095Y-12589428D02*
X7633095Y-12551333D01*
X7633095Y-12551333D02*
X7623571Y-12532286D01*
X7623571Y-12532286D02*
X7614048Y-12522762D01*
X7614048Y-12522762D02*
X7595000Y-12513238D01*
X7814048Y-12427524D02*
X7718809Y-12427524D01*
X7718809Y-12427524D02*
X7709286Y-12522762D01*
X7709286Y-12522762D02*
X7718809Y-12513238D01*
X7718809Y-12513238D02*
X7737857Y-12503714D01*
X7737857Y-12503714D02*
X7785476Y-12503714D01*
X7785476Y-12503714D02*
X7804524Y-12513238D01*
X7804524Y-12513238D02*
X7814048Y-12522762D01*
X7814048Y-12522762D02*
X7823571Y-12541809D01*
X7823571Y-12541809D02*
X7823571Y-12589428D01*
X7823571Y-12589428D02*
X7814048Y-12608476D01*
X7814048Y-12608476D02*
X7804524Y-12618000D01*
X7804524Y-12618000D02*
X7785476Y-12627524D01*
X7785476Y-12627524D02*
X7737857Y-12627524D01*
X7737857Y-12627524D02*
X7718809Y-12618000D01*
X7718809Y-12618000D02*
X7709286Y-12608476D01*
X7947381Y-12427524D02*
X7966429Y-12427524D01*
X7966429Y-12427524D02*
X7985476Y-12437048D01*
X7985476Y-12437048D02*
X7995000Y-12446571D01*
X7995000Y-12446571D02*
X8004524Y-12465619D01*
X8004524Y-12465619D02*
X8014048Y-12503714D01*
X8014048Y-12503714D02*
X8014048Y-12551333D01*
X8014048Y-12551333D02*
X8004524Y-12589428D01*
X8004524Y-12589428D02*
X7995000Y-12608476D01*
X7995000Y-12608476D02*
X7985476Y-12618000D01*
X7985476Y-12618000D02*
X7966429Y-12627524D01*
X7966429Y-12627524D02*
X7947381Y-12627524D01*
X7947381Y-12627524D02*
X7928333Y-12618000D01*
X7928333Y-12618000D02*
X7918809Y-12608476D01*
X7918809Y-12608476D02*
X7909286Y-12589428D01*
X7909286Y-12589428D02*
X7899762Y-12551333D01*
X7899762Y-12551333D02*
X7899762Y-12503714D01*
X7899762Y-12503714D02*
X7909286Y-12465619D01*
X7909286Y-12465619D02*
X7918809Y-12446571D01*
X7918809Y-12446571D02*
X7928333Y-12437048D01*
X7928333Y-12437048D02*
X7947381Y-12427524D01*
X8099762Y-12627524D02*
X8099762Y-12494190D01*
X8099762Y-12513238D02*
X8109286Y-12503714D01*
X8109286Y-12503714D02*
X8128333Y-12494190D01*
X8128333Y-12494190D02*
X8156905Y-12494190D01*
X8156905Y-12494190D02*
X8175952Y-12503714D01*
X8175952Y-12503714D02*
X8185476Y-12522762D01*
X8185476Y-12522762D02*
X8185476Y-12627524D01*
X8185476Y-12522762D02*
X8195000Y-12503714D01*
X8195000Y-12503714D02*
X8214048Y-12494190D01*
X8214048Y-12494190D02*
X8242619Y-12494190D01*
X8242619Y-12494190D02*
X8261667Y-12503714D01*
X8261667Y-12503714D02*
X8271190Y-12522762D01*
X8271190Y-12522762D02*
X8271190Y-12627524D01*
X8366429Y-12627524D02*
X8366429Y-12494190D01*
X8366429Y-12513238D02*
X8375952Y-12503714D01*
X8375952Y-12503714D02*
X8395000Y-12494190D01*
X8395000Y-12494190D02*
X8423572Y-12494190D01*
X8423572Y-12494190D02*
X8442619Y-12503714D01*
X8442619Y-12503714D02*
X8452143Y-12522762D01*
X8452143Y-12522762D02*
X8452143Y-12627524D01*
X8452143Y-12522762D02*
X8461667Y-12503714D01*
X8461667Y-12503714D02*
X8480714Y-12494190D01*
X8480714Y-12494190D02*
X8509286Y-12494190D01*
X8509286Y-12494190D02*
X8528333Y-12503714D01*
X8528333Y-12503714D02*
X8537857Y-12522762D01*
X8537857Y-12522762D02*
X8537857Y-12627524D01*
X8928333Y-12418000D02*
X8756905Y-12675143D01*
X9185476Y-12427524D02*
X9204524Y-12427524D01*
X9204524Y-12427524D02*
X9223572Y-12437048D01*
X9223572Y-12437048D02*
X9233095Y-12446571D01*
X9233095Y-12446571D02*
X9242619Y-12465619D01*
X9242619Y-12465619D02*
X9252143Y-12503714D01*
X9252143Y-12503714D02*
X9252143Y-12551333D01*
X9252143Y-12551333D02*
X9242619Y-12589428D01*
X9242619Y-12589428D02*
X9233095Y-12608476D01*
X9233095Y-12608476D02*
X9223572Y-12618000D01*
X9223572Y-12618000D02*
X9204524Y-12627524D01*
X9204524Y-12627524D02*
X9185476Y-12627524D01*
X9185476Y-12627524D02*
X9166429Y-12618000D01*
X9166429Y-12618000D02*
X9156905Y-12608476D01*
X9156905Y-12608476D02*
X9147381Y-12589428D01*
X9147381Y-12589428D02*
X9137857Y-12551333D01*
X9137857Y-12551333D02*
X9137857Y-12503714D01*
X9137857Y-12503714D02*
X9147381Y-12465619D01*
X9147381Y-12465619D02*
X9156905Y-12446571D01*
X9156905Y-12446571D02*
X9166429Y-12437048D01*
X9166429Y-12437048D02*
X9185476Y-12427524D01*
X9337857Y-12608476D02*
X9347381Y-12618000D01*
X9347381Y-12618000D02*
X9337857Y-12627524D01*
X9337857Y-12627524D02*
X9328334Y-12618000D01*
X9328334Y-12618000D02*
X9337857Y-12608476D01*
X9337857Y-12608476D02*
X9337857Y-12627524D01*
X9471191Y-12427524D02*
X9490238Y-12427524D01*
X9490238Y-12427524D02*
X9509286Y-12437048D01*
X9509286Y-12437048D02*
X9518810Y-12446571D01*
X9518810Y-12446571D02*
X9528334Y-12465619D01*
X9528334Y-12465619D02*
X9537857Y-12503714D01*
X9537857Y-12503714D02*
X9537857Y-12551333D01*
X9537857Y-12551333D02*
X9528334Y-12589428D01*
X9528334Y-12589428D02*
X9518810Y-12608476D01*
X9518810Y-12608476D02*
X9509286Y-12618000D01*
X9509286Y-12618000D02*
X9490238Y-12627524D01*
X9490238Y-12627524D02*
X9471191Y-12627524D01*
X9471191Y-12627524D02*
X9452143Y-12618000D01*
X9452143Y-12618000D02*
X9442619Y-12608476D01*
X9442619Y-12608476D02*
X9433095Y-12589428D01*
X9433095Y-12589428D02*
X9423572Y-12551333D01*
X9423572Y-12551333D02*
X9423572Y-12503714D01*
X9423572Y-12503714D02*
X9433095Y-12465619D01*
X9433095Y-12465619D02*
X9442619Y-12446571D01*
X9442619Y-12446571D02*
X9452143Y-12437048D01*
X9452143Y-12437048D02*
X9471191Y-12427524D01*
X9604524Y-12427524D02*
X9737857Y-12427524D01*
X9737857Y-12427524D02*
X9652143Y-12627524D01*
X9804524Y-12446571D02*
X9814048Y-12437048D01*
X9814048Y-12437048D02*
X9833095Y-12427524D01*
X9833095Y-12427524D02*
X9880715Y-12427524D01*
X9880715Y-12427524D02*
X9899762Y-12437048D01*
X9899762Y-12437048D02*
X9909286Y-12446571D01*
X9909286Y-12446571D02*
X9918810Y-12465619D01*
X9918810Y-12465619D02*
X9918810Y-12484667D01*
X9918810Y-12484667D02*
X9909286Y-12513238D01*
X9909286Y-12513238D02*
X9795000Y-12627524D01*
X9795000Y-12627524D02*
X9918810Y-12627524D01*
X10033095Y-12513238D02*
X10014048Y-12503714D01*
X10014048Y-12503714D02*
X10004524Y-12494190D01*
X10004524Y-12494190D02*
X9995000Y-12475143D01*
X9995000Y-12475143D02*
X9995000Y-12465619D01*
X9995000Y-12465619D02*
X10004524Y-12446571D01*
X10004524Y-12446571D02*
X10014048Y-12437048D01*
X10014048Y-12437048D02*
X10033095Y-12427524D01*
X10033095Y-12427524D02*
X10071191Y-12427524D01*
X10071191Y-12427524D02*
X10090238Y-12437048D01*
X10090238Y-12437048D02*
X10099762Y-12446571D01*
X10099762Y-12446571D02*
X10109286Y-12465619D01*
X10109286Y-12465619D02*
X10109286Y-12475143D01*
X10109286Y-12475143D02*
X10099762Y-12494190D01*
X10099762Y-12494190D02*
X10090238Y-12503714D01*
X10090238Y-12503714D02*
X10071191Y-12513238D01*
X10071191Y-12513238D02*
X10033095Y-12513238D01*
X10033095Y-12513238D02*
X10014048Y-12522762D01*
X10014048Y-12522762D02*
X10004524Y-12532286D01*
X10004524Y-12532286D02*
X9995000Y-12551333D01*
X9995000Y-12551333D02*
X9995000Y-12589428D01*
X9995000Y-12589428D02*
X10004524Y-12608476D01*
X10004524Y-12608476D02*
X10014048Y-12618000D01*
X10014048Y-12618000D02*
X10033095Y-12627524D01*
X10033095Y-12627524D02*
X10071191Y-12627524D01*
X10071191Y-12627524D02*
X10090238Y-12618000D01*
X10090238Y-12618000D02*
X10099762Y-12608476D01*
X10099762Y-12608476D02*
X10109286Y-12589428D01*
X10109286Y-12589428D02*
X10109286Y-12551333D01*
X10109286Y-12551333D02*
X10099762Y-12532286D01*
X10099762Y-12532286D02*
X10090238Y-12522762D01*
X10090238Y-12522762D02*
X10071191Y-12513238D01*
X10185476Y-12427524D02*
X10185476Y-12465619D01*
X10261667Y-12427524D02*
X10261667Y-12465619D01*
X10556905Y-12703714D02*
X10547381Y-12694190D01*
X10547381Y-12694190D02*
X10528334Y-12665619D01*
X10528334Y-12665619D02*
X10518810Y-12646571D01*
X10518810Y-12646571D02*
X10509286Y-12618000D01*
X10509286Y-12618000D02*
X10499762Y-12570381D01*
X10499762Y-12570381D02*
X10499762Y-12532286D01*
X10499762Y-12532286D02*
X10509286Y-12484667D01*
X10509286Y-12484667D02*
X10518810Y-12456095D01*
X10518810Y-12456095D02*
X10528334Y-12437048D01*
X10528334Y-12437048D02*
X10547381Y-12408476D01*
X10547381Y-12408476D02*
X10556905Y-12398952D01*
X10614048Y-12427524D02*
X10737857Y-12427524D01*
X10737857Y-12427524D02*
X10671191Y-12503714D01*
X10671191Y-12503714D02*
X10699762Y-12503714D01*
X10699762Y-12503714D02*
X10718810Y-12513238D01*
X10718810Y-12513238D02*
X10728334Y-12522762D01*
X10728334Y-12522762D02*
X10737857Y-12541809D01*
X10737857Y-12541809D02*
X10737857Y-12589428D01*
X10737857Y-12589428D02*
X10728334Y-12608476D01*
X10728334Y-12608476D02*
X10718810Y-12618000D01*
X10718810Y-12618000D02*
X10699762Y-12627524D01*
X10699762Y-12627524D02*
X10642619Y-12627524D01*
X10642619Y-12627524D02*
X10623572Y-12618000D01*
X10623572Y-12618000D02*
X10614048Y-12608476D01*
X10975953Y-12627524D02*
X10975953Y-12427524D01*
X11061667Y-12627524D02*
X11061667Y-12522762D01*
X11061667Y-12522762D02*
X11052143Y-12503714D01*
X11052143Y-12503714D02*
X11033096Y-12494190D01*
X11033096Y-12494190D02*
X11004524Y-12494190D01*
X11004524Y-12494190D02*
X10985477Y-12503714D01*
X10985477Y-12503714D02*
X10975953Y-12513238D01*
X11185476Y-12627524D02*
X11166429Y-12618000D01*
X11166429Y-12618000D02*
X11156905Y-12608476D01*
X11156905Y-12608476D02*
X11147381Y-12589428D01*
X11147381Y-12589428D02*
X11147381Y-12532286D01*
X11147381Y-12532286D02*
X11156905Y-12513238D01*
X11156905Y-12513238D02*
X11166429Y-12503714D01*
X11166429Y-12503714D02*
X11185476Y-12494190D01*
X11185476Y-12494190D02*
X11214048Y-12494190D01*
X11214048Y-12494190D02*
X11233096Y-12503714D01*
X11233096Y-12503714D02*
X11242619Y-12513238D01*
X11242619Y-12513238D02*
X11252143Y-12532286D01*
X11252143Y-12532286D02*
X11252143Y-12589428D01*
X11252143Y-12589428D02*
X11242619Y-12608476D01*
X11242619Y-12608476D02*
X11233096Y-12618000D01*
X11233096Y-12618000D02*
X11214048Y-12627524D01*
X11214048Y-12627524D02*
X11185476Y-12627524D01*
X11366429Y-12627524D02*
X11347381Y-12618000D01*
X11347381Y-12618000D02*
X11337857Y-12598952D01*
X11337857Y-12598952D02*
X11337857Y-12427524D01*
X11518810Y-12618000D02*
X11499762Y-12627524D01*
X11499762Y-12627524D02*
X11461667Y-12627524D01*
X11461667Y-12627524D02*
X11442619Y-12618000D01*
X11442619Y-12618000D02*
X11433096Y-12598952D01*
X11433096Y-12598952D02*
X11433096Y-12522762D01*
X11433096Y-12522762D02*
X11442619Y-12503714D01*
X11442619Y-12503714D02*
X11461667Y-12494190D01*
X11461667Y-12494190D02*
X11499762Y-12494190D01*
X11499762Y-12494190D02*
X11518810Y-12503714D01*
X11518810Y-12503714D02*
X11528334Y-12522762D01*
X11528334Y-12522762D02*
X11528334Y-12541809D01*
X11528334Y-12541809D02*
X11433096Y-12560857D01*
X11604524Y-12618000D02*
X11623572Y-12627524D01*
X11623572Y-12627524D02*
X11661667Y-12627524D01*
X11661667Y-12627524D02*
X11680715Y-12618000D01*
X11680715Y-12618000D02*
X11690238Y-12598952D01*
X11690238Y-12598952D02*
X11690238Y-12589428D01*
X11690238Y-12589428D02*
X11680715Y-12570381D01*
X11680715Y-12570381D02*
X11661667Y-12560857D01*
X11661667Y-12560857D02*
X11633096Y-12560857D01*
X11633096Y-12560857D02*
X11614048Y-12551333D01*
X11614048Y-12551333D02*
X11604524Y-12532286D01*
X11604524Y-12532286D02*
X11604524Y-12522762D01*
X11604524Y-12522762D02*
X11614048Y-12503714D01*
X11614048Y-12503714D02*
X11633096Y-12494190D01*
X11633096Y-12494190D02*
X11661667Y-12494190D01*
X11661667Y-12494190D02*
X11680715Y-12503714D01*
X11756905Y-12703714D02*
X11766429Y-12694190D01*
X11766429Y-12694190D02*
X11785477Y-12665619D01*
X11785477Y-12665619D02*
X11795000Y-12646571D01*
X11795000Y-12646571D02*
X11804524Y-12618000D01*
X11804524Y-12618000D02*
X11814048Y-12570381D01*
X11814048Y-12570381D02*
X11814048Y-12532286D01*
X11814048Y-12532286D02*
X11804524Y-12484667D01*
X11804524Y-12484667D02*
X11795000Y-12456095D01*
X11795000Y-12456095D02*
X11785477Y-12437048D01*
X11785477Y-12437048D02*
X11766429Y-12408476D01*
X11766429Y-12408476D02*
X11756905Y-12398952D01*
X6795000Y-12740000D02*
X6995000Y-12940000D01*
X6995000Y-12740000D02*
X6795000Y-12940000D01*
X6895000Y-12940000D02*
X6995000Y-12840000D01*
X6895000Y-12740000D01*
X6795000Y-12840000D01*
X6895000Y-12940000D01*
X7233095Y-12751571D02*
X7242619Y-12742048D01*
X7242619Y-12742048D02*
X7261667Y-12732524D01*
X7261667Y-12732524D02*
X7309286Y-12732524D01*
X7309286Y-12732524D02*
X7328333Y-12742048D01*
X7328333Y-12742048D02*
X7337857Y-12751571D01*
X7337857Y-12751571D02*
X7347381Y-12770619D01*
X7347381Y-12770619D02*
X7347381Y-12789667D01*
X7347381Y-12789667D02*
X7337857Y-12818238D01*
X7337857Y-12818238D02*
X7223571Y-12932524D01*
X7223571Y-12932524D02*
X7347381Y-12932524D01*
X7433095Y-12913476D02*
X7442619Y-12923000D01*
X7442619Y-12923000D02*
X7433095Y-12932524D01*
X7433095Y-12932524D02*
X7423571Y-12923000D01*
X7423571Y-12923000D02*
X7433095Y-12913476D01*
X7433095Y-12913476D02*
X7433095Y-12932524D01*
X7509286Y-12732524D02*
X7633095Y-12732524D01*
X7633095Y-12732524D02*
X7566428Y-12808714D01*
X7566428Y-12808714D02*
X7595000Y-12808714D01*
X7595000Y-12808714D02*
X7614048Y-12818238D01*
X7614048Y-12818238D02*
X7623571Y-12827762D01*
X7623571Y-12827762D02*
X7633095Y-12846809D01*
X7633095Y-12846809D02*
X7633095Y-12894428D01*
X7633095Y-12894428D02*
X7623571Y-12913476D01*
X7623571Y-12913476D02*
X7614048Y-12923000D01*
X7614048Y-12923000D02*
X7595000Y-12932524D01*
X7595000Y-12932524D02*
X7537857Y-12932524D01*
X7537857Y-12932524D02*
X7518809Y-12923000D01*
X7518809Y-12923000D02*
X7509286Y-12913476D01*
X7699762Y-12732524D02*
X7823571Y-12732524D01*
X7823571Y-12732524D02*
X7756905Y-12808714D01*
X7756905Y-12808714D02*
X7785476Y-12808714D01*
X7785476Y-12808714D02*
X7804524Y-12818238D01*
X7804524Y-12818238D02*
X7814048Y-12827762D01*
X7814048Y-12827762D02*
X7823571Y-12846809D01*
X7823571Y-12846809D02*
X7823571Y-12894428D01*
X7823571Y-12894428D02*
X7814048Y-12913476D01*
X7814048Y-12913476D02*
X7804524Y-12923000D01*
X7804524Y-12923000D02*
X7785476Y-12932524D01*
X7785476Y-12932524D02*
X7728333Y-12932524D01*
X7728333Y-12932524D02*
X7709286Y-12923000D01*
X7709286Y-12923000D02*
X7699762Y-12913476D01*
X7947381Y-12732524D02*
X7966429Y-12732524D01*
X7966429Y-12732524D02*
X7985476Y-12742048D01*
X7985476Y-12742048D02*
X7995000Y-12751571D01*
X7995000Y-12751571D02*
X8004524Y-12770619D01*
X8004524Y-12770619D02*
X8014048Y-12808714D01*
X8014048Y-12808714D02*
X8014048Y-12856333D01*
X8014048Y-12856333D02*
X8004524Y-12894428D01*
X8004524Y-12894428D02*
X7995000Y-12913476D01*
X7995000Y-12913476D02*
X7985476Y-12923000D01*
X7985476Y-12923000D02*
X7966429Y-12932524D01*
X7966429Y-12932524D02*
X7947381Y-12932524D01*
X7947381Y-12932524D02*
X7928333Y-12923000D01*
X7928333Y-12923000D02*
X7918809Y-12913476D01*
X7918809Y-12913476D02*
X7909286Y-12894428D01*
X7909286Y-12894428D02*
X7899762Y-12856333D01*
X7899762Y-12856333D02*
X7899762Y-12808714D01*
X7899762Y-12808714D02*
X7909286Y-12770619D01*
X7909286Y-12770619D02*
X7918809Y-12751571D01*
X7918809Y-12751571D02*
X7928333Y-12742048D01*
X7928333Y-12742048D02*
X7947381Y-12732524D01*
X8099762Y-12932524D02*
X8099762Y-12799190D01*
X8099762Y-12818238D02*
X8109286Y-12808714D01*
X8109286Y-12808714D02*
X8128333Y-12799190D01*
X8128333Y-12799190D02*
X8156905Y-12799190D01*
X8156905Y-12799190D02*
X8175952Y-12808714D01*
X8175952Y-12808714D02*
X8185476Y-12827762D01*
X8185476Y-12827762D02*
X8185476Y-12932524D01*
X8185476Y-12827762D02*
X8195000Y-12808714D01*
X8195000Y-12808714D02*
X8214048Y-12799190D01*
X8214048Y-12799190D02*
X8242619Y-12799190D01*
X8242619Y-12799190D02*
X8261667Y-12808714D01*
X8261667Y-12808714D02*
X8271190Y-12827762D01*
X8271190Y-12827762D02*
X8271190Y-12932524D01*
X8366429Y-12932524D02*
X8366429Y-12799190D01*
X8366429Y-12818238D02*
X8375952Y-12808714D01*
X8375952Y-12808714D02*
X8395000Y-12799190D01*
X8395000Y-12799190D02*
X8423572Y-12799190D01*
X8423572Y-12799190D02*
X8442619Y-12808714D01*
X8442619Y-12808714D02*
X8452143Y-12827762D01*
X8452143Y-12827762D02*
X8452143Y-12932524D01*
X8452143Y-12827762D02*
X8461667Y-12808714D01*
X8461667Y-12808714D02*
X8480714Y-12799190D01*
X8480714Y-12799190D02*
X8509286Y-12799190D01*
X8509286Y-12799190D02*
X8528333Y-12808714D01*
X8528333Y-12808714D02*
X8537857Y-12827762D01*
X8537857Y-12827762D02*
X8537857Y-12932524D01*
X8928333Y-12723000D02*
X8756905Y-12980143D01*
X9185476Y-12732524D02*
X9204524Y-12732524D01*
X9204524Y-12732524D02*
X9223572Y-12742048D01*
X9223572Y-12742048D02*
X9233095Y-12751571D01*
X9233095Y-12751571D02*
X9242619Y-12770619D01*
X9242619Y-12770619D02*
X9252143Y-12808714D01*
X9252143Y-12808714D02*
X9252143Y-12856333D01*
X9252143Y-12856333D02*
X9242619Y-12894428D01*
X9242619Y-12894428D02*
X9233095Y-12913476D01*
X9233095Y-12913476D02*
X9223572Y-12923000D01*
X9223572Y-12923000D02*
X9204524Y-12932524D01*
X9204524Y-12932524D02*
X9185476Y-12932524D01*
X9185476Y-12932524D02*
X9166429Y-12923000D01*
X9166429Y-12923000D02*
X9156905Y-12913476D01*
X9156905Y-12913476D02*
X9147381Y-12894428D01*
X9147381Y-12894428D02*
X9137857Y-12856333D01*
X9137857Y-12856333D02*
X9137857Y-12808714D01*
X9137857Y-12808714D02*
X9147381Y-12770619D01*
X9147381Y-12770619D02*
X9156905Y-12751571D01*
X9156905Y-12751571D02*
X9166429Y-12742048D01*
X9166429Y-12742048D02*
X9185476Y-12732524D01*
X9337857Y-12913476D02*
X9347381Y-12923000D01*
X9347381Y-12923000D02*
X9337857Y-12932524D01*
X9337857Y-12932524D02*
X9328334Y-12923000D01*
X9328334Y-12923000D02*
X9337857Y-12913476D01*
X9337857Y-12913476D02*
X9337857Y-12932524D01*
X9471191Y-12732524D02*
X9490238Y-12732524D01*
X9490238Y-12732524D02*
X9509286Y-12742048D01*
X9509286Y-12742048D02*
X9518810Y-12751571D01*
X9518810Y-12751571D02*
X9528334Y-12770619D01*
X9528334Y-12770619D02*
X9537857Y-12808714D01*
X9537857Y-12808714D02*
X9537857Y-12856333D01*
X9537857Y-12856333D02*
X9528334Y-12894428D01*
X9528334Y-12894428D02*
X9518810Y-12913476D01*
X9518810Y-12913476D02*
X9509286Y-12923000D01*
X9509286Y-12923000D02*
X9490238Y-12932524D01*
X9490238Y-12932524D02*
X9471191Y-12932524D01*
X9471191Y-12932524D02*
X9452143Y-12923000D01*
X9452143Y-12923000D02*
X9442619Y-12913476D01*
X9442619Y-12913476D02*
X9433095Y-12894428D01*
X9433095Y-12894428D02*
X9423572Y-12856333D01*
X9423572Y-12856333D02*
X9423572Y-12808714D01*
X9423572Y-12808714D02*
X9433095Y-12770619D01*
X9433095Y-12770619D02*
X9442619Y-12751571D01*
X9442619Y-12751571D02*
X9452143Y-12742048D01*
X9452143Y-12742048D02*
X9471191Y-12732524D01*
X9633095Y-12932524D02*
X9671191Y-12932524D01*
X9671191Y-12932524D02*
X9690238Y-12923000D01*
X9690238Y-12923000D02*
X9699762Y-12913476D01*
X9699762Y-12913476D02*
X9718810Y-12884905D01*
X9718810Y-12884905D02*
X9728334Y-12846809D01*
X9728334Y-12846809D02*
X9728334Y-12770619D01*
X9728334Y-12770619D02*
X9718810Y-12751571D01*
X9718810Y-12751571D02*
X9709286Y-12742048D01*
X9709286Y-12742048D02*
X9690238Y-12732524D01*
X9690238Y-12732524D02*
X9652143Y-12732524D01*
X9652143Y-12732524D02*
X9633095Y-12742048D01*
X9633095Y-12742048D02*
X9623572Y-12751571D01*
X9623572Y-12751571D02*
X9614048Y-12770619D01*
X9614048Y-12770619D02*
X9614048Y-12818238D01*
X9614048Y-12818238D02*
X9623572Y-12837286D01*
X9623572Y-12837286D02*
X9633095Y-12846809D01*
X9633095Y-12846809D02*
X9652143Y-12856333D01*
X9652143Y-12856333D02*
X9690238Y-12856333D01*
X9690238Y-12856333D02*
X9709286Y-12846809D01*
X9709286Y-12846809D02*
X9718810Y-12837286D01*
X9718810Y-12837286D02*
X9728334Y-12818238D01*
X9918810Y-12932524D02*
X9804524Y-12932524D01*
X9861667Y-12932524D02*
X9861667Y-12732524D01*
X9861667Y-12732524D02*
X9842619Y-12761095D01*
X9842619Y-12761095D02*
X9823572Y-12780143D01*
X9823572Y-12780143D02*
X9804524Y-12789667D01*
X9985476Y-12732524D02*
X10118810Y-12732524D01*
X10118810Y-12732524D02*
X10033095Y-12932524D01*
X10185476Y-12732524D02*
X10185476Y-12770619D01*
X10261667Y-12732524D02*
X10261667Y-12770619D01*
X10556905Y-13008714D02*
X10547381Y-12999190D01*
X10547381Y-12999190D02*
X10528334Y-12970619D01*
X10528334Y-12970619D02*
X10518810Y-12951571D01*
X10518810Y-12951571D02*
X10509286Y-12923000D01*
X10509286Y-12923000D02*
X10499762Y-12875381D01*
X10499762Y-12875381D02*
X10499762Y-12837286D01*
X10499762Y-12837286D02*
X10509286Y-12789667D01*
X10509286Y-12789667D02*
X10518810Y-12761095D01*
X10518810Y-12761095D02*
X10528334Y-12742048D01*
X10528334Y-12742048D02*
X10547381Y-12713476D01*
X10547381Y-12713476D02*
X10556905Y-12703952D01*
X10623572Y-12751571D02*
X10633096Y-12742048D01*
X10633096Y-12742048D02*
X10652143Y-12732524D01*
X10652143Y-12732524D02*
X10699762Y-12732524D01*
X10699762Y-12732524D02*
X10718810Y-12742048D01*
X10718810Y-12742048D02*
X10728334Y-12751571D01*
X10728334Y-12751571D02*
X10737857Y-12770619D01*
X10737857Y-12770619D02*
X10737857Y-12789667D01*
X10737857Y-12789667D02*
X10728334Y-12818238D01*
X10728334Y-12818238D02*
X10614048Y-12932524D01*
X10614048Y-12932524D02*
X10737857Y-12932524D01*
X10975953Y-12932524D02*
X10975953Y-12732524D01*
X11061667Y-12932524D02*
X11061667Y-12827762D01*
X11061667Y-12827762D02*
X11052143Y-12808714D01*
X11052143Y-12808714D02*
X11033096Y-12799190D01*
X11033096Y-12799190D02*
X11004524Y-12799190D01*
X11004524Y-12799190D02*
X10985477Y-12808714D01*
X10985477Y-12808714D02*
X10975953Y-12818238D01*
X11185476Y-12932524D02*
X11166429Y-12923000D01*
X11166429Y-12923000D02*
X11156905Y-12913476D01*
X11156905Y-12913476D02*
X11147381Y-12894428D01*
X11147381Y-12894428D02*
X11147381Y-12837286D01*
X11147381Y-12837286D02*
X11156905Y-12818238D01*
X11156905Y-12818238D02*
X11166429Y-12808714D01*
X11166429Y-12808714D02*
X11185476Y-12799190D01*
X11185476Y-12799190D02*
X11214048Y-12799190D01*
X11214048Y-12799190D02*
X11233096Y-12808714D01*
X11233096Y-12808714D02*
X11242619Y-12818238D01*
X11242619Y-12818238D02*
X11252143Y-12837286D01*
X11252143Y-12837286D02*
X11252143Y-12894428D01*
X11252143Y-12894428D02*
X11242619Y-12913476D01*
X11242619Y-12913476D02*
X11233096Y-12923000D01*
X11233096Y-12923000D02*
X11214048Y-12932524D01*
X11214048Y-12932524D02*
X11185476Y-12932524D01*
X11366429Y-12932524D02*
X11347381Y-12923000D01*
X11347381Y-12923000D02*
X11337857Y-12903952D01*
X11337857Y-12903952D02*
X11337857Y-12732524D01*
X11518810Y-12923000D02*
X11499762Y-12932524D01*
X11499762Y-12932524D02*
X11461667Y-12932524D01*
X11461667Y-12932524D02*
X11442619Y-12923000D01*
X11442619Y-12923000D02*
X11433096Y-12903952D01*
X11433096Y-12903952D02*
X11433096Y-12827762D01*
X11433096Y-12827762D02*
X11442619Y-12808714D01*
X11442619Y-12808714D02*
X11461667Y-12799190D01*
X11461667Y-12799190D02*
X11499762Y-12799190D01*
X11499762Y-12799190D02*
X11518810Y-12808714D01*
X11518810Y-12808714D02*
X11528334Y-12827762D01*
X11528334Y-12827762D02*
X11528334Y-12846809D01*
X11528334Y-12846809D02*
X11433096Y-12865857D01*
X11604524Y-12923000D02*
X11623572Y-12932524D01*
X11623572Y-12932524D02*
X11661667Y-12932524D01*
X11661667Y-12932524D02*
X11680715Y-12923000D01*
X11680715Y-12923000D02*
X11690238Y-12903952D01*
X11690238Y-12903952D02*
X11690238Y-12894428D01*
X11690238Y-12894428D02*
X11680715Y-12875381D01*
X11680715Y-12875381D02*
X11661667Y-12865857D01*
X11661667Y-12865857D02*
X11633096Y-12865857D01*
X11633096Y-12865857D02*
X11614048Y-12856333D01*
X11614048Y-12856333D02*
X11604524Y-12837286D01*
X11604524Y-12837286D02*
X11604524Y-12827762D01*
X11604524Y-12827762D02*
X11614048Y-12808714D01*
X11614048Y-12808714D02*
X11633096Y-12799190D01*
X11633096Y-12799190D02*
X11661667Y-12799190D01*
X11661667Y-12799190D02*
X11680715Y-12808714D01*
X11756905Y-13008714D02*
X11766429Y-12999190D01*
X11766429Y-12999190D02*
X11785477Y-12970619D01*
X11785477Y-12970619D02*
X11795000Y-12951571D01*
X11795000Y-12951571D02*
X11804524Y-12923000D01*
X11804524Y-12923000D02*
X11814048Y-12875381D01*
X11814048Y-12875381D02*
X11814048Y-12837286D01*
X11814048Y-12837286D02*
X11804524Y-12789667D01*
X11804524Y-12789667D02*
X11795000Y-12761095D01*
X11795000Y-12761095D02*
X11785477Y-12742048D01*
X11785477Y-12742048D02*
X11766429Y-12713476D01*
X11766429Y-12713476D02*
X11756905Y-12703952D01*
M02*
