%TF.GenerationSoftware,KiCad,Pcbnew,(7.0.0)*%
%TF.CreationDate,2023-03-01T02:56:50+01:00*%
%TF.ProjectId,Extracteur_Air_PcFan_5v,45787472-6163-4746-9575-725f4169725f,1.0*%
%TF.SameCoordinates,Original*%
%TF.FileFunction,Drillmap*%
%TF.FilePolarity,Positive*%
%FSLAX45Y45*%
G04 Gerber Fmt 4.5, Leading zero omitted, Abs format (unit mm)*
G04 Created by KiCad (PCBNEW (7.0.0)) date 2023-03-01 02:56:50*
%MOMM*%
%LPD*%
G01*
G04 APERTURE LIST*
%ADD10C,0.100000*%
%ADD11C,0.200000*%
%ADD12C,0.030000*%
%ADD13C,0.050000*%
%ADD14C,0.080000*%
%ADD15C,0.092000*%
%ADD16C,0.119000*%
%ADD17C,0.150000*%
%ADD18C,0.180000*%
%ADD19C,0.185000*%
%ADD20C,0.233000*%
%ADD21C,0.320000*%
G04 APERTURE END LIST*
D10*
X7000000Y-6000000D02*
X16500000Y-6000000D01*
X16500000Y-6000000D02*
X16500000Y-10000000D01*
X16500000Y-10000000D02*
X7000000Y-10000000D01*
X7000000Y-10000000D02*
X7000000Y-6000000D01*
D11*
D12*
X10016000Y-7865000D02*
X10046000Y-7895000D01*
X10046000Y-7865000D02*
X10016000Y-7895000D01*
X10075000Y-8190000D02*
X10105000Y-8220000D01*
X10105000Y-8190000D02*
X10075000Y-8220000D01*
X10075000Y-8260000D02*
X10105000Y-8290000D01*
X10105000Y-8260000D02*
X10075000Y-8290000D01*
X10095000Y-7865000D02*
X10125000Y-7895000D01*
X10125000Y-7865000D02*
X10095000Y-7895000D01*
X10140000Y-8380000D02*
X10170000Y-8410000D01*
X10170000Y-8380000D02*
X10140000Y-8410000D01*
X10140000Y-8450000D02*
X10170000Y-8480000D01*
X10170000Y-8450000D02*
X10140000Y-8480000D01*
X10140000Y-8520000D02*
X10170000Y-8550000D01*
X10170000Y-8520000D02*
X10140000Y-8550000D01*
X10140000Y-8590000D02*
X10170000Y-8620000D01*
X10170000Y-8590000D02*
X10140000Y-8620000D01*
X10175000Y-7865000D02*
X10205000Y-7895000D01*
X10205000Y-7865000D02*
X10175000Y-7895000D01*
X10255000Y-7865000D02*
X10285000Y-7895000D01*
X10285000Y-7865000D02*
X10255000Y-7895000D01*
X10585000Y-8315000D02*
X10615000Y-8345000D01*
X10615000Y-8315000D02*
X10585000Y-8345000D01*
X10660000Y-8315000D02*
X10690000Y-8345000D01*
X10690000Y-8315000D02*
X10660000Y-8345000D01*
X10735000Y-8315000D02*
X10765000Y-8345000D01*
X10765000Y-8315000D02*
X10735000Y-8345000D01*
X10810000Y-8315000D02*
X10840000Y-8345000D01*
X10840000Y-8315000D02*
X10810000Y-8345000D01*
D13*
X10825000Y-9800000D02*
G75*
G03*
X10825000Y-9800000I-25000J0D01*
G01*
X11025000Y-9800000D02*
G75*
G03*
X11025000Y-9800000I-25000J0D01*
G01*
X11225000Y-9800000D02*
G75*
G03*
X11225000Y-9800000I-25000J0D01*
G01*
X11425000Y-9800000D02*
G75*
G03*
X11425000Y-9800000I-25000J0D01*
G01*
X11625000Y-9800000D02*
G75*
G03*
X11625000Y-9800000I-25000J0D01*
G01*
X11825000Y-9800000D02*
G75*
G03*
X11825000Y-9800000I-25000J0D01*
G01*
X12025000Y-9800000D02*
G75*
G03*
X12025000Y-9800000I-25000J0D01*
G01*
X12125000Y-7100000D02*
G75*
G03*
X12125000Y-7100000I-25000J0D01*
G01*
X12125000Y-7300000D02*
G75*
G03*
X12125000Y-7300000I-25000J0D01*
G01*
X12125000Y-7500000D02*
G75*
G03*
X12125000Y-7500000I-25000J0D01*
G01*
X12125000Y-7700000D02*
G75*
G03*
X12125000Y-7700000I-25000J0D01*
G01*
X12125000Y-7900000D02*
G75*
G03*
X12125000Y-7900000I-25000J0D01*
G01*
X15125000Y-6300000D02*
G75*
G03*
X15125000Y-6300000I-25000J0D01*
G01*
X15325000Y-6300000D02*
G75*
G03*
X15325000Y-6300000I-25000J0D01*
G01*
X15525000Y-6300000D02*
G75*
G03*
X15525000Y-6300000I-25000J0D01*
G01*
X15725000Y-6300000D02*
G75*
G03*
X15725000Y-6300000I-25000J0D01*
G01*
X15925000Y-6300000D02*
G75*
G03*
X15925000Y-6300000I-25000J0D01*
G01*
D14*
X9895000Y-6890000D02*
X9895000Y-6970000D01*
X9855000Y-6930000D02*
X9935000Y-6930000D01*
X11165000Y-6890000D02*
X11165000Y-6970000D01*
X11125000Y-6930000D02*
X11205000Y-6930000D01*
X12590000Y-9290000D02*
X12590000Y-9370000D01*
X12550000Y-9330000D02*
X12630000Y-9330000D01*
X12597500Y-7768500D02*
X12597500Y-7848500D01*
X12557500Y-7808500D02*
X12637500Y-7808500D01*
X12597500Y-8268500D02*
X12597500Y-8348500D01*
X12557500Y-8308500D02*
X12637500Y-8308500D01*
X12600000Y-6394000D02*
X12600000Y-6474000D01*
X12560000Y-6434000D02*
X12640000Y-6434000D01*
X12600000Y-7410000D02*
X12600000Y-7490000D01*
X12560000Y-7450000D02*
X12640000Y-7450000D01*
X12950000Y-6450000D02*
X12950000Y-6530000D01*
X12910000Y-6490000D02*
X12990000Y-6490000D01*
X13090000Y-9290000D02*
X13090000Y-9370000D01*
X13050000Y-9330000D02*
X13130000Y-9330000D01*
X13128000Y-7076000D02*
X13128000Y-7156000D01*
X13088000Y-7116000D02*
X13168000Y-7116000D01*
X13128000Y-7330000D02*
X13128000Y-7410000D01*
X13088000Y-7370000D02*
X13168000Y-7370000D01*
X13128000Y-7584000D02*
X13128000Y-7664000D01*
X13088000Y-7624000D02*
X13168000Y-7624000D01*
X13128000Y-7838000D02*
X13128000Y-7918000D01*
X13088000Y-7878000D02*
X13168000Y-7878000D01*
X13128000Y-8092000D02*
X13128000Y-8172000D01*
X13088000Y-8132000D02*
X13168000Y-8132000D01*
X13128000Y-8346000D02*
X13128000Y-8426000D01*
X13088000Y-8386000D02*
X13168000Y-8386000D01*
X13128000Y-8600000D02*
X13128000Y-8680000D01*
X13088000Y-8640000D02*
X13168000Y-8640000D01*
X13452000Y-9290000D02*
X13452000Y-9370000D01*
X13412000Y-9330000D02*
X13492000Y-9330000D01*
X13890000Y-7076000D02*
X13890000Y-7156000D01*
X13850000Y-7116000D02*
X13930000Y-7116000D01*
X13890000Y-7330000D02*
X13890000Y-7410000D01*
X13850000Y-7370000D02*
X13930000Y-7370000D01*
X13890000Y-7584000D02*
X13890000Y-7664000D01*
X13850000Y-7624000D02*
X13930000Y-7624000D01*
X13890000Y-7838000D02*
X13890000Y-7918000D01*
X13850000Y-7878000D02*
X13930000Y-7878000D01*
X13890000Y-8092000D02*
X13890000Y-8172000D01*
X13850000Y-8132000D02*
X13930000Y-8132000D01*
X13890000Y-8346000D02*
X13890000Y-8426000D01*
X13850000Y-8386000D02*
X13930000Y-8386000D01*
X13890000Y-8600000D02*
X13890000Y-8680000D01*
X13850000Y-8640000D02*
X13930000Y-8640000D01*
X13966000Y-6450000D02*
X13966000Y-6530000D01*
X13926000Y-6490000D02*
X14006000Y-6490000D01*
X14202000Y-7540000D02*
X14202000Y-7620000D01*
X14162000Y-7580000D02*
X14242000Y-7580000D01*
X14202000Y-8020000D02*
X14202000Y-8100000D01*
X14162000Y-8060000D02*
X14242000Y-8060000D01*
X14240000Y-7058500D02*
X14240000Y-7138500D01*
X14200000Y-7098500D02*
X14280000Y-7098500D01*
X14360000Y-6450000D02*
X14360000Y-6530000D01*
X14320000Y-6490000D02*
X14400000Y-6490000D01*
X14468000Y-9290000D02*
X14468000Y-9370000D01*
X14428000Y-9330000D02*
X14508000Y-9330000D01*
X14560000Y-6450000D02*
X14560000Y-6530000D01*
X14520000Y-6490000D02*
X14600000Y-6490000D01*
X14740000Y-7058500D02*
X14740000Y-7138500D01*
X14700000Y-7098500D02*
X14780000Y-7098500D01*
X15218000Y-7540000D02*
X15218000Y-7620000D01*
X15178000Y-7580000D02*
X15258000Y-7580000D01*
X15218000Y-8020000D02*
X15218000Y-8100000D01*
X15178000Y-8060000D02*
X15258000Y-8060000D01*
X15260000Y-6610000D02*
X15260000Y-6690000D01*
X15220000Y-6650000D02*
X15300000Y-6650000D01*
X15260000Y-7110000D02*
X15260000Y-7190000D01*
X15220000Y-7150000D02*
X15300000Y-7150000D01*
D15*
X8321527Y-8852527D02*
X8321527Y-8787473D01*
X8256473Y-8787473D01*
X8256473Y-8852527D01*
X8321527Y-8852527D01*
X8390277Y-6987527D02*
X8390277Y-6922473D01*
X8325223Y-6922473D01*
X8325223Y-6987527D01*
X8390277Y-6987527D01*
X8390277Y-7237527D02*
X8390277Y-7172473D01*
X8325223Y-7172473D01*
X8325223Y-7237527D01*
X8390277Y-7237527D01*
X8521527Y-8852527D02*
X8521527Y-8787473D01*
X8456473Y-8787473D01*
X8456473Y-8852527D01*
X8521527Y-8852527D01*
X8590277Y-6987527D02*
X8590277Y-6922473D01*
X8525223Y-6922473D01*
X8525223Y-6987527D01*
X8590277Y-6987527D01*
X8590277Y-7237527D02*
X8590277Y-7172473D01*
X8525223Y-7172473D01*
X8525223Y-7237527D01*
X8590277Y-7237527D01*
X8721527Y-8852527D02*
X8721527Y-8787473D01*
X8656473Y-8787473D01*
X8656473Y-8852527D01*
X8721527Y-8852527D01*
X8921527Y-8852527D02*
X8921527Y-8787473D01*
X8856473Y-8787473D01*
X8856473Y-8852527D01*
X8921527Y-8852527D01*
D10*
X14960000Y-8930000D02*
X15010000Y-8880000D01*
X14960000Y-8830000D01*
X14910000Y-8880000D01*
X14960000Y-8930000D01*
X14960000Y-9180000D02*
X15010000Y-9130000D01*
X14960000Y-9080000D01*
X14910000Y-9130000D01*
X14960000Y-9180000D01*
X14960000Y-9430000D02*
X15010000Y-9380000D01*
X14960000Y-9330000D01*
X14910000Y-9380000D01*
X14960000Y-9430000D01*
D16*
X10850500Y-6305500D02*
X10969500Y-6424500D01*
X10969500Y-6305500D02*
X10850500Y-6424500D01*
X10969500Y-6365000D02*
G75*
G03*
X10969500Y-6365000I-59500J0D01*
G01*
X11104500Y-6305500D02*
X11223500Y-6424500D01*
X11223500Y-6305500D02*
X11104500Y-6424500D01*
X11223500Y-6365000D02*
G75*
G03*
X11223500Y-6365000I-59500J0D01*
G01*
X11358500Y-6305500D02*
X11477500Y-6424500D01*
X11477500Y-6305500D02*
X11358500Y-6424500D01*
X11477500Y-6365000D02*
G75*
G03*
X11477500Y-6365000I-59500J0D01*
G01*
X11612500Y-6305500D02*
X11731500Y-6424500D01*
X11731500Y-6305500D02*
X11612500Y-6424500D01*
X11731500Y-6365000D02*
G75*
G03*
X11731500Y-6365000I-59500J0D01*
G01*
D17*
X8141000Y-8473000D02*
X8291000Y-8623000D01*
X8291000Y-8473000D02*
X8141000Y-8623000D01*
X8216000Y-8473000D02*
X8216000Y-8623000D01*
X8141000Y-8548000D02*
X8291000Y-8548000D01*
X8141000Y-9017000D02*
X8291000Y-9167000D01*
X8291000Y-9017000D02*
X8141000Y-9167000D01*
X8216000Y-9017000D02*
X8216000Y-9167000D01*
X8141000Y-9092000D02*
X8291000Y-9092000D01*
X8841000Y-8473000D02*
X8991000Y-8623000D01*
X8991000Y-8473000D02*
X8841000Y-8623000D01*
X8916000Y-8473000D02*
X8916000Y-8623000D01*
X8841000Y-8548000D02*
X8991000Y-8548000D01*
X8841000Y-9017000D02*
X8991000Y-9167000D01*
X8991000Y-9017000D02*
X8841000Y-9167000D01*
X8916000Y-9017000D02*
X8916000Y-9167000D01*
X8841000Y-9092000D02*
X8991000Y-9092000D01*
D18*
X15570000Y-8600000D02*
X15750000Y-8780000D01*
X15750000Y-8600000D02*
X15570000Y-8780000D01*
X15723640Y-8753640D02*
X15723640Y-8626360D01*
X15596360Y-8626360D01*
X15596360Y-8753640D01*
X15723640Y-8753640D01*
D11*
X15645000Y-8780000D02*
X15675000Y-8780000D01*
X15675000Y-8780000D02*
G75*
G03*
X15675000Y-8600000I0J90000D01*
G01*
X15675000Y-8600000D02*
X15645000Y-8600000D01*
X15645000Y-8600000D02*
G75*
G03*
X15645000Y-8780000I0J-90000D01*
G01*
D18*
X15570000Y-9480000D02*
X15750000Y-9660000D01*
X15750000Y-9480000D02*
X15570000Y-9660000D01*
X15723640Y-9633640D02*
X15723640Y-9506360D01*
X15596360Y-9506360D01*
X15596360Y-9633640D01*
X15723640Y-9633640D01*
D11*
X15645000Y-9660000D02*
X15675000Y-9660000D01*
X15675000Y-9660000D02*
G75*
G03*
X15675000Y-9480000I0J90000D01*
G01*
X15675000Y-9480000D02*
X15645000Y-9480000D01*
X15645000Y-9480000D02*
G75*
G03*
X15645000Y-9660000I0J-90000D01*
G01*
D19*
X9047500Y-7107500D02*
X9232500Y-7292500D01*
X9232500Y-7107500D02*
X9047500Y-7292500D01*
X9140000Y-7292500D02*
X9232500Y-7200000D01*
X9140000Y-7107500D01*
X9047500Y-7200000D01*
X9140000Y-7292500D01*
X9047500Y-7577500D02*
X9232500Y-7762500D01*
X9232500Y-7577500D02*
X9047500Y-7762500D01*
X9140000Y-7762500D02*
X9232500Y-7670000D01*
X9140000Y-7577500D01*
X9047500Y-7670000D01*
X9140000Y-7762500D01*
X9047500Y-8047500D02*
X9232500Y-8232500D01*
X9232500Y-8047500D02*
X9047500Y-8232500D01*
X9140000Y-8232500D02*
X9232500Y-8140000D01*
X9140000Y-8047500D01*
X9047500Y-8140000D01*
X9140000Y-8232500D01*
D20*
X8086750Y-6361500D02*
X8086750Y-6594500D01*
X7970250Y-6478000D02*
X8203250Y-6478000D01*
X8203250Y-6478000D02*
G75*
G03*
X8203250Y-6478000I-116500J0D01*
G01*
X8086750Y-7565500D02*
X8086750Y-7798500D01*
X7970250Y-7682000D02*
X8203250Y-7682000D01*
X8203250Y-7682000D02*
G75*
G03*
X8203250Y-7682000I-116500J0D01*
G01*
D21*
X7513138Y-9713138D02*
X7513138Y-9486862D01*
X7286862Y-9486862D01*
X7286862Y-9713138D01*
X7513138Y-9713138D01*
X7560000Y-9600000D02*
G75*
G03*
X7560000Y-9600000I-160000J0D01*
G01*
X9913138Y-6513138D02*
X9913138Y-6286862D01*
X9686862Y-6286862D01*
X9686862Y-6513138D01*
X9913138Y-6513138D01*
X9960000Y-6400000D02*
G75*
G03*
X9960000Y-6400000I-160000J0D01*
G01*
X16213138Y-7713138D02*
X16213138Y-7486862D01*
X15986862Y-7486862D01*
X15986862Y-7713138D01*
X16213138Y-7713138D01*
X16260000Y-7600000D02*
G75*
G03*
X16260000Y-7600000I-160000J0D01*
G01*
D11*
X7242619Y-10298476D02*
X7242619Y-10098476D01*
X7242619Y-10098476D02*
X7290238Y-10098476D01*
X7290238Y-10098476D02*
X7318809Y-10108000D01*
X7318809Y-10108000D02*
X7337857Y-10127048D01*
X7337857Y-10127048D02*
X7347381Y-10146095D01*
X7347381Y-10146095D02*
X7356905Y-10184190D01*
X7356905Y-10184190D02*
X7356905Y-10212762D01*
X7356905Y-10212762D02*
X7347381Y-10250857D01*
X7347381Y-10250857D02*
X7337857Y-10269905D01*
X7337857Y-10269905D02*
X7318809Y-10288952D01*
X7318809Y-10288952D02*
X7290238Y-10298476D01*
X7290238Y-10298476D02*
X7242619Y-10298476D01*
X7442619Y-10298476D02*
X7442619Y-10165143D01*
X7442619Y-10203238D02*
X7452143Y-10184190D01*
X7452143Y-10184190D02*
X7461667Y-10174667D01*
X7461667Y-10174667D02*
X7480714Y-10165143D01*
X7480714Y-10165143D02*
X7499762Y-10165143D01*
X7566428Y-10298476D02*
X7566428Y-10165143D01*
X7566428Y-10098476D02*
X7556905Y-10108000D01*
X7556905Y-10108000D02*
X7566428Y-10117524D01*
X7566428Y-10117524D02*
X7575952Y-10108000D01*
X7575952Y-10108000D02*
X7566428Y-10098476D01*
X7566428Y-10098476D02*
X7566428Y-10117524D01*
X7690238Y-10298476D02*
X7671190Y-10288952D01*
X7671190Y-10288952D02*
X7661667Y-10269905D01*
X7661667Y-10269905D02*
X7661667Y-10098476D01*
X7795000Y-10298476D02*
X7775952Y-10288952D01*
X7775952Y-10288952D02*
X7766428Y-10269905D01*
X7766428Y-10269905D02*
X7766428Y-10098476D01*
X7991190Y-10298476D02*
X7991190Y-10098476D01*
X7991190Y-10098476D02*
X8057857Y-10241333D01*
X8057857Y-10241333D02*
X8124524Y-10098476D01*
X8124524Y-10098476D02*
X8124524Y-10298476D01*
X8305476Y-10298476D02*
X8305476Y-10193714D01*
X8305476Y-10193714D02*
X8295952Y-10174667D01*
X8295952Y-10174667D02*
X8276905Y-10165143D01*
X8276905Y-10165143D02*
X8238809Y-10165143D01*
X8238809Y-10165143D02*
X8219762Y-10174667D01*
X8305476Y-10288952D02*
X8286428Y-10298476D01*
X8286428Y-10298476D02*
X8238809Y-10298476D01*
X8238809Y-10298476D02*
X8219762Y-10288952D01*
X8219762Y-10288952D02*
X8210238Y-10269905D01*
X8210238Y-10269905D02*
X8210238Y-10250857D01*
X8210238Y-10250857D02*
X8219762Y-10231810D01*
X8219762Y-10231810D02*
X8238809Y-10222286D01*
X8238809Y-10222286D02*
X8286428Y-10222286D01*
X8286428Y-10222286D02*
X8305476Y-10212762D01*
X8400714Y-10165143D02*
X8400714Y-10365143D01*
X8400714Y-10174667D02*
X8419762Y-10165143D01*
X8419762Y-10165143D02*
X8457857Y-10165143D01*
X8457857Y-10165143D02*
X8476905Y-10174667D01*
X8476905Y-10174667D02*
X8486429Y-10184190D01*
X8486429Y-10184190D02*
X8495952Y-10203238D01*
X8495952Y-10203238D02*
X8495952Y-10260381D01*
X8495952Y-10260381D02*
X8486429Y-10279429D01*
X8486429Y-10279429D02*
X8476905Y-10288952D01*
X8476905Y-10288952D02*
X8457857Y-10298476D01*
X8457857Y-10298476D02*
X8419762Y-10298476D01*
X8419762Y-10298476D02*
X8400714Y-10288952D01*
X8581667Y-10279429D02*
X8591190Y-10288952D01*
X8591190Y-10288952D02*
X8581667Y-10298476D01*
X8581667Y-10298476D02*
X8572143Y-10288952D01*
X8572143Y-10288952D02*
X8581667Y-10279429D01*
X8581667Y-10279429D02*
X8581667Y-10298476D01*
X8581667Y-10174667D02*
X8591190Y-10184190D01*
X8591190Y-10184190D02*
X8581667Y-10193714D01*
X8581667Y-10193714D02*
X8572143Y-10184190D01*
X8572143Y-10184190D02*
X8581667Y-10174667D01*
X8581667Y-10174667D02*
X8581667Y-10193714D01*
D12*
X6965000Y-10630000D02*
X6995000Y-10660000D01*
X6995000Y-10630000D02*
X6965000Y-10660000D01*
D11*
X7280714Y-10518476D02*
X7299762Y-10518476D01*
X7299762Y-10518476D02*
X7318809Y-10528000D01*
X7318809Y-10528000D02*
X7328333Y-10537524D01*
X7328333Y-10537524D02*
X7337857Y-10556571D01*
X7337857Y-10556571D02*
X7347381Y-10594667D01*
X7347381Y-10594667D02*
X7347381Y-10642286D01*
X7347381Y-10642286D02*
X7337857Y-10680381D01*
X7337857Y-10680381D02*
X7328333Y-10699429D01*
X7328333Y-10699429D02*
X7318809Y-10708952D01*
X7318809Y-10708952D02*
X7299762Y-10718476D01*
X7299762Y-10718476D02*
X7280714Y-10718476D01*
X7280714Y-10718476D02*
X7261667Y-10708952D01*
X7261667Y-10708952D02*
X7252143Y-10699429D01*
X7252143Y-10699429D02*
X7242619Y-10680381D01*
X7242619Y-10680381D02*
X7233095Y-10642286D01*
X7233095Y-10642286D02*
X7233095Y-10594667D01*
X7233095Y-10594667D02*
X7242619Y-10556571D01*
X7242619Y-10556571D02*
X7252143Y-10537524D01*
X7252143Y-10537524D02*
X7261667Y-10528000D01*
X7261667Y-10528000D02*
X7280714Y-10518476D01*
X7433095Y-10699429D02*
X7442619Y-10708952D01*
X7442619Y-10708952D02*
X7433095Y-10718476D01*
X7433095Y-10718476D02*
X7423571Y-10708952D01*
X7423571Y-10708952D02*
X7433095Y-10699429D01*
X7433095Y-10699429D02*
X7433095Y-10718476D01*
X7509286Y-10518476D02*
X7633095Y-10518476D01*
X7633095Y-10518476D02*
X7566428Y-10594667D01*
X7566428Y-10594667D02*
X7595000Y-10594667D01*
X7595000Y-10594667D02*
X7614048Y-10604190D01*
X7614048Y-10604190D02*
X7623571Y-10613714D01*
X7623571Y-10613714D02*
X7633095Y-10632762D01*
X7633095Y-10632762D02*
X7633095Y-10680381D01*
X7633095Y-10680381D02*
X7623571Y-10699429D01*
X7623571Y-10699429D02*
X7614048Y-10708952D01*
X7614048Y-10708952D02*
X7595000Y-10718476D01*
X7595000Y-10718476D02*
X7537857Y-10718476D01*
X7537857Y-10718476D02*
X7518809Y-10708952D01*
X7518809Y-10708952D02*
X7509286Y-10699429D01*
X7756905Y-10518476D02*
X7775952Y-10518476D01*
X7775952Y-10518476D02*
X7795000Y-10528000D01*
X7795000Y-10528000D02*
X7804524Y-10537524D01*
X7804524Y-10537524D02*
X7814048Y-10556571D01*
X7814048Y-10556571D02*
X7823571Y-10594667D01*
X7823571Y-10594667D02*
X7823571Y-10642286D01*
X7823571Y-10642286D02*
X7814048Y-10680381D01*
X7814048Y-10680381D02*
X7804524Y-10699429D01*
X7804524Y-10699429D02*
X7795000Y-10708952D01*
X7795000Y-10708952D02*
X7775952Y-10718476D01*
X7775952Y-10718476D02*
X7756905Y-10718476D01*
X7756905Y-10718476D02*
X7737857Y-10708952D01*
X7737857Y-10708952D02*
X7728333Y-10699429D01*
X7728333Y-10699429D02*
X7718809Y-10680381D01*
X7718809Y-10680381D02*
X7709286Y-10642286D01*
X7709286Y-10642286D02*
X7709286Y-10594667D01*
X7709286Y-10594667D02*
X7718809Y-10556571D01*
X7718809Y-10556571D02*
X7728333Y-10537524D01*
X7728333Y-10537524D02*
X7737857Y-10528000D01*
X7737857Y-10528000D02*
X7756905Y-10518476D01*
X7947381Y-10518476D02*
X7966429Y-10518476D01*
X7966429Y-10518476D02*
X7985476Y-10528000D01*
X7985476Y-10528000D02*
X7995000Y-10537524D01*
X7995000Y-10537524D02*
X8004524Y-10556571D01*
X8004524Y-10556571D02*
X8014048Y-10594667D01*
X8014048Y-10594667D02*
X8014048Y-10642286D01*
X8014048Y-10642286D02*
X8004524Y-10680381D01*
X8004524Y-10680381D02*
X7995000Y-10699429D01*
X7995000Y-10699429D02*
X7985476Y-10708952D01*
X7985476Y-10708952D02*
X7966429Y-10718476D01*
X7966429Y-10718476D02*
X7947381Y-10718476D01*
X7947381Y-10718476D02*
X7928333Y-10708952D01*
X7928333Y-10708952D02*
X7918809Y-10699429D01*
X7918809Y-10699429D02*
X7909286Y-10680381D01*
X7909286Y-10680381D02*
X7899762Y-10642286D01*
X7899762Y-10642286D02*
X7899762Y-10594667D01*
X7899762Y-10594667D02*
X7909286Y-10556571D01*
X7909286Y-10556571D02*
X7918809Y-10537524D01*
X7918809Y-10537524D02*
X7928333Y-10528000D01*
X7928333Y-10528000D02*
X7947381Y-10518476D01*
X8099762Y-10718476D02*
X8099762Y-10585143D01*
X8099762Y-10604190D02*
X8109286Y-10594667D01*
X8109286Y-10594667D02*
X8128333Y-10585143D01*
X8128333Y-10585143D02*
X8156905Y-10585143D01*
X8156905Y-10585143D02*
X8175952Y-10594667D01*
X8175952Y-10594667D02*
X8185476Y-10613714D01*
X8185476Y-10613714D02*
X8185476Y-10718476D01*
X8185476Y-10613714D02*
X8195000Y-10594667D01*
X8195000Y-10594667D02*
X8214048Y-10585143D01*
X8214048Y-10585143D02*
X8242619Y-10585143D01*
X8242619Y-10585143D02*
X8261667Y-10594667D01*
X8261667Y-10594667D02*
X8271190Y-10613714D01*
X8271190Y-10613714D02*
X8271190Y-10718476D01*
X8366429Y-10718476D02*
X8366429Y-10585143D01*
X8366429Y-10604190D02*
X8375952Y-10594667D01*
X8375952Y-10594667D02*
X8395000Y-10585143D01*
X8395000Y-10585143D02*
X8423572Y-10585143D01*
X8423572Y-10585143D02*
X8442619Y-10594667D01*
X8442619Y-10594667D02*
X8452143Y-10613714D01*
X8452143Y-10613714D02*
X8452143Y-10718476D01*
X8452143Y-10613714D02*
X8461667Y-10594667D01*
X8461667Y-10594667D02*
X8480714Y-10585143D01*
X8480714Y-10585143D02*
X8509286Y-10585143D01*
X8509286Y-10585143D02*
X8528333Y-10594667D01*
X8528333Y-10594667D02*
X8537857Y-10613714D01*
X8537857Y-10613714D02*
X8537857Y-10718476D01*
X8895952Y-10508952D02*
X8724524Y-10766095D01*
X9120714Y-10518476D02*
X9139762Y-10518476D01*
X9139762Y-10518476D02*
X9158810Y-10528000D01*
X9158810Y-10528000D02*
X9168333Y-10537524D01*
X9168333Y-10537524D02*
X9177857Y-10556571D01*
X9177857Y-10556571D02*
X9187381Y-10594667D01*
X9187381Y-10594667D02*
X9187381Y-10642286D01*
X9187381Y-10642286D02*
X9177857Y-10680381D01*
X9177857Y-10680381D02*
X9168333Y-10699429D01*
X9168333Y-10699429D02*
X9158810Y-10708952D01*
X9158810Y-10708952D02*
X9139762Y-10718476D01*
X9139762Y-10718476D02*
X9120714Y-10718476D01*
X9120714Y-10718476D02*
X9101667Y-10708952D01*
X9101667Y-10708952D02*
X9092143Y-10699429D01*
X9092143Y-10699429D02*
X9082619Y-10680381D01*
X9082619Y-10680381D02*
X9073095Y-10642286D01*
X9073095Y-10642286D02*
X9073095Y-10594667D01*
X9073095Y-10594667D02*
X9082619Y-10556571D01*
X9082619Y-10556571D02*
X9092143Y-10537524D01*
X9092143Y-10537524D02*
X9101667Y-10528000D01*
X9101667Y-10528000D02*
X9120714Y-10518476D01*
X9273095Y-10699429D02*
X9282619Y-10708952D01*
X9282619Y-10708952D02*
X9273095Y-10718476D01*
X9273095Y-10718476D02*
X9263572Y-10708952D01*
X9263572Y-10708952D02*
X9273095Y-10699429D01*
X9273095Y-10699429D02*
X9273095Y-10718476D01*
X9406429Y-10518476D02*
X9425476Y-10518476D01*
X9425476Y-10518476D02*
X9444524Y-10528000D01*
X9444524Y-10528000D02*
X9454048Y-10537524D01*
X9454048Y-10537524D02*
X9463572Y-10556571D01*
X9463572Y-10556571D02*
X9473095Y-10594667D01*
X9473095Y-10594667D02*
X9473095Y-10642286D01*
X9473095Y-10642286D02*
X9463572Y-10680381D01*
X9463572Y-10680381D02*
X9454048Y-10699429D01*
X9454048Y-10699429D02*
X9444524Y-10708952D01*
X9444524Y-10708952D02*
X9425476Y-10718476D01*
X9425476Y-10718476D02*
X9406429Y-10718476D01*
X9406429Y-10718476D02*
X9387381Y-10708952D01*
X9387381Y-10708952D02*
X9377857Y-10699429D01*
X9377857Y-10699429D02*
X9368333Y-10680381D01*
X9368333Y-10680381D02*
X9358810Y-10642286D01*
X9358810Y-10642286D02*
X9358810Y-10594667D01*
X9358810Y-10594667D02*
X9368333Y-10556571D01*
X9368333Y-10556571D02*
X9377857Y-10537524D01*
X9377857Y-10537524D02*
X9387381Y-10528000D01*
X9387381Y-10528000D02*
X9406429Y-10518476D01*
X9663572Y-10718476D02*
X9549286Y-10718476D01*
X9606429Y-10718476D02*
X9606429Y-10518476D01*
X9606429Y-10518476D02*
X9587381Y-10547048D01*
X9587381Y-10547048D02*
X9568333Y-10566095D01*
X9568333Y-10566095D02*
X9549286Y-10575619D01*
X9854048Y-10718476D02*
X9739762Y-10718476D01*
X9796905Y-10718476D02*
X9796905Y-10518476D01*
X9796905Y-10518476D02*
X9777857Y-10547048D01*
X9777857Y-10547048D02*
X9758810Y-10566095D01*
X9758810Y-10566095D02*
X9739762Y-10575619D01*
X9968333Y-10604190D02*
X9949286Y-10594667D01*
X9949286Y-10594667D02*
X9939762Y-10585143D01*
X9939762Y-10585143D02*
X9930238Y-10566095D01*
X9930238Y-10566095D02*
X9930238Y-10556571D01*
X9930238Y-10556571D02*
X9939762Y-10537524D01*
X9939762Y-10537524D02*
X9949286Y-10528000D01*
X9949286Y-10528000D02*
X9968333Y-10518476D01*
X9968333Y-10518476D02*
X10006429Y-10518476D01*
X10006429Y-10518476D02*
X10025476Y-10528000D01*
X10025476Y-10528000D02*
X10035000Y-10537524D01*
X10035000Y-10537524D02*
X10044524Y-10556571D01*
X10044524Y-10556571D02*
X10044524Y-10566095D01*
X10044524Y-10566095D02*
X10035000Y-10585143D01*
X10035000Y-10585143D02*
X10025476Y-10594667D01*
X10025476Y-10594667D02*
X10006429Y-10604190D01*
X10006429Y-10604190D02*
X9968333Y-10604190D01*
X9968333Y-10604190D02*
X9949286Y-10613714D01*
X9949286Y-10613714D02*
X9939762Y-10623238D01*
X9939762Y-10623238D02*
X9930238Y-10642286D01*
X9930238Y-10642286D02*
X9930238Y-10680381D01*
X9930238Y-10680381D02*
X9939762Y-10699429D01*
X9939762Y-10699429D02*
X9949286Y-10708952D01*
X9949286Y-10708952D02*
X9968333Y-10718476D01*
X9968333Y-10718476D02*
X10006429Y-10718476D01*
X10006429Y-10718476D02*
X10025476Y-10708952D01*
X10025476Y-10708952D02*
X10035000Y-10699429D01*
X10035000Y-10699429D02*
X10044524Y-10680381D01*
X10044524Y-10680381D02*
X10044524Y-10642286D01*
X10044524Y-10642286D02*
X10035000Y-10623238D01*
X10035000Y-10623238D02*
X10025476Y-10613714D01*
X10025476Y-10613714D02*
X10006429Y-10604190D01*
X10120714Y-10518476D02*
X10120714Y-10556571D01*
X10196905Y-10518476D02*
X10196905Y-10556571D01*
X10459762Y-10794667D02*
X10450238Y-10785143D01*
X10450238Y-10785143D02*
X10431191Y-10756571D01*
X10431191Y-10756571D02*
X10421667Y-10737524D01*
X10421667Y-10737524D02*
X10412143Y-10708952D01*
X10412143Y-10708952D02*
X10402619Y-10661333D01*
X10402619Y-10661333D02*
X10402619Y-10623238D01*
X10402619Y-10623238D02*
X10412143Y-10575619D01*
X10412143Y-10575619D02*
X10421667Y-10547048D01*
X10421667Y-10547048D02*
X10431191Y-10528000D01*
X10431191Y-10528000D02*
X10450238Y-10499429D01*
X10450238Y-10499429D02*
X10459762Y-10489905D01*
X10640714Y-10718476D02*
X10526429Y-10718476D01*
X10583572Y-10718476D02*
X10583572Y-10518476D01*
X10583572Y-10518476D02*
X10564524Y-10547048D01*
X10564524Y-10547048D02*
X10545476Y-10566095D01*
X10545476Y-10566095D02*
X10526429Y-10575619D01*
X10812143Y-10585143D02*
X10812143Y-10718476D01*
X10764524Y-10508952D02*
X10716905Y-10651810D01*
X10716905Y-10651810D02*
X10840714Y-10651810D01*
X11036905Y-10718476D02*
X11036905Y-10518476D01*
X11122619Y-10718476D02*
X11122619Y-10613714D01*
X11122619Y-10613714D02*
X11113095Y-10594667D01*
X11113095Y-10594667D02*
X11094048Y-10585143D01*
X11094048Y-10585143D02*
X11065476Y-10585143D01*
X11065476Y-10585143D02*
X11046429Y-10594667D01*
X11046429Y-10594667D02*
X11036905Y-10604190D01*
X11246429Y-10718476D02*
X11227381Y-10708952D01*
X11227381Y-10708952D02*
X11217857Y-10699429D01*
X11217857Y-10699429D02*
X11208333Y-10680381D01*
X11208333Y-10680381D02*
X11208333Y-10623238D01*
X11208333Y-10623238D02*
X11217857Y-10604190D01*
X11217857Y-10604190D02*
X11227381Y-10594667D01*
X11227381Y-10594667D02*
X11246429Y-10585143D01*
X11246429Y-10585143D02*
X11275000Y-10585143D01*
X11275000Y-10585143D02*
X11294048Y-10594667D01*
X11294048Y-10594667D02*
X11303572Y-10604190D01*
X11303572Y-10604190D02*
X11313095Y-10623238D01*
X11313095Y-10623238D02*
X11313095Y-10680381D01*
X11313095Y-10680381D02*
X11303572Y-10699429D01*
X11303572Y-10699429D02*
X11294048Y-10708952D01*
X11294048Y-10708952D02*
X11275000Y-10718476D01*
X11275000Y-10718476D02*
X11246429Y-10718476D01*
X11427381Y-10718476D02*
X11408333Y-10708952D01*
X11408333Y-10708952D02*
X11398810Y-10689905D01*
X11398810Y-10689905D02*
X11398810Y-10518476D01*
X11579762Y-10708952D02*
X11560714Y-10718476D01*
X11560714Y-10718476D02*
X11522619Y-10718476D01*
X11522619Y-10718476D02*
X11503572Y-10708952D01*
X11503572Y-10708952D02*
X11494048Y-10689905D01*
X11494048Y-10689905D02*
X11494048Y-10613714D01*
X11494048Y-10613714D02*
X11503572Y-10594667D01*
X11503572Y-10594667D02*
X11522619Y-10585143D01*
X11522619Y-10585143D02*
X11560714Y-10585143D01*
X11560714Y-10585143D02*
X11579762Y-10594667D01*
X11579762Y-10594667D02*
X11589286Y-10613714D01*
X11589286Y-10613714D02*
X11589286Y-10632762D01*
X11589286Y-10632762D02*
X11494048Y-10651810D01*
X11665476Y-10708952D02*
X11684524Y-10718476D01*
X11684524Y-10718476D02*
X11722619Y-10718476D01*
X11722619Y-10718476D02*
X11741667Y-10708952D01*
X11741667Y-10708952D02*
X11751191Y-10689905D01*
X11751191Y-10689905D02*
X11751191Y-10680381D01*
X11751191Y-10680381D02*
X11741667Y-10661333D01*
X11741667Y-10661333D02*
X11722619Y-10651810D01*
X11722619Y-10651810D02*
X11694048Y-10651810D01*
X11694048Y-10651810D02*
X11675000Y-10642286D01*
X11675000Y-10642286D02*
X11665476Y-10623238D01*
X11665476Y-10623238D02*
X11665476Y-10613714D01*
X11665476Y-10613714D02*
X11675000Y-10594667D01*
X11675000Y-10594667D02*
X11694048Y-10585143D01*
X11694048Y-10585143D02*
X11722619Y-10585143D01*
X11722619Y-10585143D02*
X11741667Y-10594667D01*
X11817857Y-10794667D02*
X11827381Y-10785143D01*
X11827381Y-10785143D02*
X11846429Y-10756571D01*
X11846429Y-10756571D02*
X11855953Y-10737524D01*
X11855953Y-10737524D02*
X11865476Y-10708952D01*
X11865476Y-10708952D02*
X11875000Y-10661333D01*
X11875000Y-10661333D02*
X11875000Y-10623238D01*
X11875000Y-10623238D02*
X11865476Y-10575619D01*
X11865476Y-10575619D02*
X11855953Y-10547048D01*
X11855953Y-10547048D02*
X11846429Y-10528000D01*
X11846429Y-10528000D02*
X11827381Y-10499429D01*
X11827381Y-10499429D02*
X11817857Y-10489905D01*
D13*
X6995000Y-10909000D02*
G75*
G03*
X6995000Y-10909000I-25000J0D01*
G01*
D11*
X7280714Y-10782476D02*
X7299762Y-10782476D01*
X7299762Y-10782476D02*
X7318809Y-10792000D01*
X7318809Y-10792000D02*
X7328333Y-10801524D01*
X7328333Y-10801524D02*
X7337857Y-10820571D01*
X7337857Y-10820571D02*
X7347381Y-10858667D01*
X7347381Y-10858667D02*
X7347381Y-10906286D01*
X7347381Y-10906286D02*
X7337857Y-10944381D01*
X7337857Y-10944381D02*
X7328333Y-10963429D01*
X7328333Y-10963429D02*
X7318809Y-10972952D01*
X7318809Y-10972952D02*
X7299762Y-10982476D01*
X7299762Y-10982476D02*
X7280714Y-10982476D01*
X7280714Y-10982476D02*
X7261667Y-10972952D01*
X7261667Y-10972952D02*
X7252143Y-10963429D01*
X7252143Y-10963429D02*
X7242619Y-10944381D01*
X7242619Y-10944381D02*
X7233095Y-10906286D01*
X7233095Y-10906286D02*
X7233095Y-10858667D01*
X7233095Y-10858667D02*
X7242619Y-10820571D01*
X7242619Y-10820571D02*
X7252143Y-10801524D01*
X7252143Y-10801524D02*
X7261667Y-10792000D01*
X7261667Y-10792000D02*
X7280714Y-10782476D01*
X7433095Y-10963429D02*
X7442619Y-10972952D01*
X7442619Y-10972952D02*
X7433095Y-10982476D01*
X7433095Y-10982476D02*
X7423571Y-10972952D01*
X7423571Y-10972952D02*
X7433095Y-10963429D01*
X7433095Y-10963429D02*
X7433095Y-10982476D01*
X7623571Y-10782476D02*
X7528333Y-10782476D01*
X7528333Y-10782476D02*
X7518809Y-10877714D01*
X7518809Y-10877714D02*
X7528333Y-10868190D01*
X7528333Y-10868190D02*
X7547381Y-10858667D01*
X7547381Y-10858667D02*
X7595000Y-10858667D01*
X7595000Y-10858667D02*
X7614048Y-10868190D01*
X7614048Y-10868190D02*
X7623571Y-10877714D01*
X7623571Y-10877714D02*
X7633095Y-10896762D01*
X7633095Y-10896762D02*
X7633095Y-10944381D01*
X7633095Y-10944381D02*
X7623571Y-10963429D01*
X7623571Y-10963429D02*
X7614048Y-10972952D01*
X7614048Y-10972952D02*
X7595000Y-10982476D01*
X7595000Y-10982476D02*
X7547381Y-10982476D01*
X7547381Y-10982476D02*
X7528333Y-10972952D01*
X7528333Y-10972952D02*
X7518809Y-10963429D01*
X7756905Y-10782476D02*
X7775952Y-10782476D01*
X7775952Y-10782476D02*
X7795000Y-10792000D01*
X7795000Y-10792000D02*
X7804524Y-10801524D01*
X7804524Y-10801524D02*
X7814048Y-10820571D01*
X7814048Y-10820571D02*
X7823571Y-10858667D01*
X7823571Y-10858667D02*
X7823571Y-10906286D01*
X7823571Y-10906286D02*
X7814048Y-10944381D01*
X7814048Y-10944381D02*
X7804524Y-10963429D01*
X7804524Y-10963429D02*
X7795000Y-10972952D01*
X7795000Y-10972952D02*
X7775952Y-10982476D01*
X7775952Y-10982476D02*
X7756905Y-10982476D01*
X7756905Y-10982476D02*
X7737857Y-10972952D01*
X7737857Y-10972952D02*
X7728333Y-10963429D01*
X7728333Y-10963429D02*
X7718809Y-10944381D01*
X7718809Y-10944381D02*
X7709286Y-10906286D01*
X7709286Y-10906286D02*
X7709286Y-10858667D01*
X7709286Y-10858667D02*
X7718809Y-10820571D01*
X7718809Y-10820571D02*
X7728333Y-10801524D01*
X7728333Y-10801524D02*
X7737857Y-10792000D01*
X7737857Y-10792000D02*
X7756905Y-10782476D01*
X7947381Y-10782476D02*
X7966429Y-10782476D01*
X7966429Y-10782476D02*
X7985476Y-10792000D01*
X7985476Y-10792000D02*
X7995000Y-10801524D01*
X7995000Y-10801524D02*
X8004524Y-10820571D01*
X8004524Y-10820571D02*
X8014048Y-10858667D01*
X8014048Y-10858667D02*
X8014048Y-10906286D01*
X8014048Y-10906286D02*
X8004524Y-10944381D01*
X8004524Y-10944381D02*
X7995000Y-10963429D01*
X7995000Y-10963429D02*
X7985476Y-10972952D01*
X7985476Y-10972952D02*
X7966429Y-10982476D01*
X7966429Y-10982476D02*
X7947381Y-10982476D01*
X7947381Y-10982476D02*
X7928333Y-10972952D01*
X7928333Y-10972952D02*
X7918809Y-10963429D01*
X7918809Y-10963429D02*
X7909286Y-10944381D01*
X7909286Y-10944381D02*
X7899762Y-10906286D01*
X7899762Y-10906286D02*
X7899762Y-10858667D01*
X7899762Y-10858667D02*
X7909286Y-10820571D01*
X7909286Y-10820571D02*
X7918809Y-10801524D01*
X7918809Y-10801524D02*
X7928333Y-10792000D01*
X7928333Y-10792000D02*
X7947381Y-10782476D01*
X8099762Y-10982476D02*
X8099762Y-10849143D01*
X8099762Y-10868190D02*
X8109286Y-10858667D01*
X8109286Y-10858667D02*
X8128333Y-10849143D01*
X8128333Y-10849143D02*
X8156905Y-10849143D01*
X8156905Y-10849143D02*
X8175952Y-10858667D01*
X8175952Y-10858667D02*
X8185476Y-10877714D01*
X8185476Y-10877714D02*
X8185476Y-10982476D01*
X8185476Y-10877714D02*
X8195000Y-10858667D01*
X8195000Y-10858667D02*
X8214048Y-10849143D01*
X8214048Y-10849143D02*
X8242619Y-10849143D01*
X8242619Y-10849143D02*
X8261667Y-10858667D01*
X8261667Y-10858667D02*
X8271190Y-10877714D01*
X8271190Y-10877714D02*
X8271190Y-10982476D01*
X8366429Y-10982476D02*
X8366429Y-10849143D01*
X8366429Y-10868190D02*
X8375952Y-10858667D01*
X8375952Y-10858667D02*
X8395000Y-10849143D01*
X8395000Y-10849143D02*
X8423572Y-10849143D01*
X8423572Y-10849143D02*
X8442619Y-10858667D01*
X8442619Y-10858667D02*
X8452143Y-10877714D01*
X8452143Y-10877714D02*
X8452143Y-10982476D01*
X8452143Y-10877714D02*
X8461667Y-10858667D01*
X8461667Y-10858667D02*
X8480714Y-10849143D01*
X8480714Y-10849143D02*
X8509286Y-10849143D01*
X8509286Y-10849143D02*
X8528333Y-10858667D01*
X8528333Y-10858667D02*
X8537857Y-10877714D01*
X8537857Y-10877714D02*
X8537857Y-10982476D01*
X8895952Y-10772952D02*
X8724524Y-11030095D01*
X9120714Y-10782476D02*
X9139762Y-10782476D01*
X9139762Y-10782476D02*
X9158810Y-10792000D01*
X9158810Y-10792000D02*
X9168333Y-10801524D01*
X9168333Y-10801524D02*
X9177857Y-10820571D01*
X9177857Y-10820571D02*
X9187381Y-10858667D01*
X9187381Y-10858667D02*
X9187381Y-10906286D01*
X9187381Y-10906286D02*
X9177857Y-10944381D01*
X9177857Y-10944381D02*
X9168333Y-10963429D01*
X9168333Y-10963429D02*
X9158810Y-10972952D01*
X9158810Y-10972952D02*
X9139762Y-10982476D01*
X9139762Y-10982476D02*
X9120714Y-10982476D01*
X9120714Y-10982476D02*
X9101667Y-10972952D01*
X9101667Y-10972952D02*
X9092143Y-10963429D01*
X9092143Y-10963429D02*
X9082619Y-10944381D01*
X9082619Y-10944381D02*
X9073095Y-10906286D01*
X9073095Y-10906286D02*
X9073095Y-10858667D01*
X9073095Y-10858667D02*
X9082619Y-10820571D01*
X9082619Y-10820571D02*
X9092143Y-10801524D01*
X9092143Y-10801524D02*
X9101667Y-10792000D01*
X9101667Y-10792000D02*
X9120714Y-10782476D01*
X9273095Y-10963429D02*
X9282619Y-10972952D01*
X9282619Y-10972952D02*
X9273095Y-10982476D01*
X9273095Y-10982476D02*
X9263572Y-10972952D01*
X9263572Y-10972952D02*
X9273095Y-10963429D01*
X9273095Y-10963429D02*
X9273095Y-10982476D01*
X9406429Y-10782476D02*
X9425476Y-10782476D01*
X9425476Y-10782476D02*
X9444524Y-10792000D01*
X9444524Y-10792000D02*
X9454048Y-10801524D01*
X9454048Y-10801524D02*
X9463572Y-10820571D01*
X9463572Y-10820571D02*
X9473095Y-10858667D01*
X9473095Y-10858667D02*
X9473095Y-10906286D01*
X9473095Y-10906286D02*
X9463572Y-10944381D01*
X9463572Y-10944381D02*
X9454048Y-10963429D01*
X9454048Y-10963429D02*
X9444524Y-10972952D01*
X9444524Y-10972952D02*
X9425476Y-10982476D01*
X9425476Y-10982476D02*
X9406429Y-10982476D01*
X9406429Y-10982476D02*
X9387381Y-10972952D01*
X9387381Y-10972952D02*
X9377857Y-10963429D01*
X9377857Y-10963429D02*
X9368333Y-10944381D01*
X9368333Y-10944381D02*
X9358810Y-10906286D01*
X9358810Y-10906286D02*
X9358810Y-10858667D01*
X9358810Y-10858667D02*
X9368333Y-10820571D01*
X9368333Y-10820571D02*
X9377857Y-10801524D01*
X9377857Y-10801524D02*
X9387381Y-10792000D01*
X9387381Y-10792000D02*
X9406429Y-10782476D01*
X9663572Y-10982476D02*
X9549286Y-10982476D01*
X9606429Y-10982476D02*
X9606429Y-10782476D01*
X9606429Y-10782476D02*
X9587381Y-10811048D01*
X9587381Y-10811048D02*
X9568333Y-10830095D01*
X9568333Y-10830095D02*
X9549286Y-10839619D01*
X9758810Y-10982476D02*
X9796905Y-10982476D01*
X9796905Y-10982476D02*
X9815953Y-10972952D01*
X9815953Y-10972952D02*
X9825476Y-10963429D01*
X9825476Y-10963429D02*
X9844524Y-10934857D01*
X9844524Y-10934857D02*
X9854048Y-10896762D01*
X9854048Y-10896762D02*
X9854048Y-10820571D01*
X9854048Y-10820571D02*
X9844524Y-10801524D01*
X9844524Y-10801524D02*
X9835000Y-10792000D01*
X9835000Y-10792000D02*
X9815953Y-10782476D01*
X9815953Y-10782476D02*
X9777857Y-10782476D01*
X9777857Y-10782476D02*
X9758810Y-10792000D01*
X9758810Y-10792000D02*
X9749286Y-10801524D01*
X9749286Y-10801524D02*
X9739762Y-10820571D01*
X9739762Y-10820571D02*
X9739762Y-10868190D01*
X9739762Y-10868190D02*
X9749286Y-10887238D01*
X9749286Y-10887238D02*
X9758810Y-10896762D01*
X9758810Y-10896762D02*
X9777857Y-10906286D01*
X9777857Y-10906286D02*
X9815953Y-10906286D01*
X9815953Y-10906286D02*
X9835000Y-10896762D01*
X9835000Y-10896762D02*
X9844524Y-10887238D01*
X9844524Y-10887238D02*
X9854048Y-10868190D01*
X9920714Y-10782476D02*
X10054048Y-10782476D01*
X10054048Y-10782476D02*
X9968333Y-10982476D01*
X10120714Y-10782476D02*
X10120714Y-10820571D01*
X10196905Y-10782476D02*
X10196905Y-10820571D01*
X10459762Y-11058667D02*
X10450238Y-11049143D01*
X10450238Y-11049143D02*
X10431191Y-11020571D01*
X10431191Y-11020571D02*
X10421667Y-11001524D01*
X10421667Y-11001524D02*
X10412143Y-10972952D01*
X10412143Y-10972952D02*
X10402619Y-10925333D01*
X10402619Y-10925333D02*
X10402619Y-10887238D01*
X10402619Y-10887238D02*
X10412143Y-10839619D01*
X10412143Y-10839619D02*
X10421667Y-10811048D01*
X10421667Y-10811048D02*
X10431191Y-10792000D01*
X10431191Y-10792000D02*
X10450238Y-10763429D01*
X10450238Y-10763429D02*
X10459762Y-10753905D01*
X10640714Y-10982476D02*
X10526429Y-10982476D01*
X10583572Y-10982476D02*
X10583572Y-10782476D01*
X10583572Y-10782476D02*
X10564524Y-10811048D01*
X10564524Y-10811048D02*
X10545476Y-10830095D01*
X10545476Y-10830095D02*
X10526429Y-10839619D01*
X10707381Y-10782476D02*
X10840714Y-10782476D01*
X10840714Y-10782476D02*
X10755000Y-10982476D01*
X11036905Y-10982476D02*
X11036905Y-10782476D01*
X11122619Y-10982476D02*
X11122619Y-10877714D01*
X11122619Y-10877714D02*
X11113095Y-10858667D01*
X11113095Y-10858667D02*
X11094048Y-10849143D01*
X11094048Y-10849143D02*
X11065476Y-10849143D01*
X11065476Y-10849143D02*
X11046429Y-10858667D01*
X11046429Y-10858667D02*
X11036905Y-10868190D01*
X11246429Y-10982476D02*
X11227381Y-10972952D01*
X11227381Y-10972952D02*
X11217857Y-10963429D01*
X11217857Y-10963429D02*
X11208333Y-10944381D01*
X11208333Y-10944381D02*
X11208333Y-10887238D01*
X11208333Y-10887238D02*
X11217857Y-10868190D01*
X11217857Y-10868190D02*
X11227381Y-10858667D01*
X11227381Y-10858667D02*
X11246429Y-10849143D01*
X11246429Y-10849143D02*
X11275000Y-10849143D01*
X11275000Y-10849143D02*
X11294048Y-10858667D01*
X11294048Y-10858667D02*
X11303572Y-10868190D01*
X11303572Y-10868190D02*
X11313095Y-10887238D01*
X11313095Y-10887238D02*
X11313095Y-10944381D01*
X11313095Y-10944381D02*
X11303572Y-10963429D01*
X11303572Y-10963429D02*
X11294048Y-10972952D01*
X11294048Y-10972952D02*
X11275000Y-10982476D01*
X11275000Y-10982476D02*
X11246429Y-10982476D01*
X11427381Y-10982476D02*
X11408333Y-10972952D01*
X11408333Y-10972952D02*
X11398810Y-10953905D01*
X11398810Y-10953905D02*
X11398810Y-10782476D01*
X11579762Y-10972952D02*
X11560714Y-10982476D01*
X11560714Y-10982476D02*
X11522619Y-10982476D01*
X11522619Y-10982476D02*
X11503572Y-10972952D01*
X11503572Y-10972952D02*
X11494048Y-10953905D01*
X11494048Y-10953905D02*
X11494048Y-10877714D01*
X11494048Y-10877714D02*
X11503572Y-10858667D01*
X11503572Y-10858667D02*
X11522619Y-10849143D01*
X11522619Y-10849143D02*
X11560714Y-10849143D01*
X11560714Y-10849143D02*
X11579762Y-10858667D01*
X11579762Y-10858667D02*
X11589286Y-10877714D01*
X11589286Y-10877714D02*
X11589286Y-10896762D01*
X11589286Y-10896762D02*
X11494048Y-10915810D01*
X11665476Y-10972952D02*
X11684524Y-10982476D01*
X11684524Y-10982476D02*
X11722619Y-10982476D01*
X11722619Y-10982476D02*
X11741667Y-10972952D01*
X11741667Y-10972952D02*
X11751191Y-10953905D01*
X11751191Y-10953905D02*
X11751191Y-10944381D01*
X11751191Y-10944381D02*
X11741667Y-10925333D01*
X11741667Y-10925333D02*
X11722619Y-10915810D01*
X11722619Y-10915810D02*
X11694048Y-10915810D01*
X11694048Y-10915810D02*
X11675000Y-10906286D01*
X11675000Y-10906286D02*
X11665476Y-10887238D01*
X11665476Y-10887238D02*
X11665476Y-10877714D01*
X11665476Y-10877714D02*
X11675000Y-10858667D01*
X11675000Y-10858667D02*
X11694048Y-10849143D01*
X11694048Y-10849143D02*
X11722619Y-10849143D01*
X11722619Y-10849143D02*
X11741667Y-10858667D01*
X11817857Y-11058667D02*
X11827381Y-11049143D01*
X11827381Y-11049143D02*
X11846429Y-11020571D01*
X11846429Y-11020571D02*
X11855953Y-11001524D01*
X11855953Y-11001524D02*
X11865476Y-10972952D01*
X11865476Y-10972952D02*
X11875000Y-10925333D01*
X11875000Y-10925333D02*
X11875000Y-10887238D01*
X11875000Y-10887238D02*
X11865476Y-10839619D01*
X11865476Y-10839619D02*
X11855953Y-10811048D01*
X11855953Y-10811048D02*
X11846429Y-10792000D01*
X11846429Y-10792000D02*
X11827381Y-10763429D01*
X11827381Y-10763429D02*
X11817857Y-10753905D01*
D14*
X6955000Y-11133000D02*
X6955000Y-11213000D01*
X6915000Y-11173000D02*
X6995000Y-11173000D01*
D11*
X7280714Y-11046476D02*
X7299762Y-11046476D01*
X7299762Y-11046476D02*
X7318809Y-11056000D01*
X7318809Y-11056000D02*
X7328333Y-11065524D01*
X7328333Y-11065524D02*
X7337857Y-11084571D01*
X7337857Y-11084571D02*
X7347381Y-11122667D01*
X7347381Y-11122667D02*
X7347381Y-11170286D01*
X7347381Y-11170286D02*
X7337857Y-11208381D01*
X7337857Y-11208381D02*
X7328333Y-11227428D01*
X7328333Y-11227428D02*
X7318809Y-11236952D01*
X7318809Y-11236952D02*
X7299762Y-11246476D01*
X7299762Y-11246476D02*
X7280714Y-11246476D01*
X7280714Y-11246476D02*
X7261667Y-11236952D01*
X7261667Y-11236952D02*
X7252143Y-11227428D01*
X7252143Y-11227428D02*
X7242619Y-11208381D01*
X7242619Y-11208381D02*
X7233095Y-11170286D01*
X7233095Y-11170286D02*
X7233095Y-11122667D01*
X7233095Y-11122667D02*
X7242619Y-11084571D01*
X7242619Y-11084571D02*
X7252143Y-11065524D01*
X7252143Y-11065524D02*
X7261667Y-11056000D01*
X7261667Y-11056000D02*
X7280714Y-11046476D01*
X7433095Y-11227428D02*
X7442619Y-11236952D01*
X7442619Y-11236952D02*
X7433095Y-11246476D01*
X7433095Y-11246476D02*
X7423571Y-11236952D01*
X7423571Y-11236952D02*
X7433095Y-11227428D01*
X7433095Y-11227428D02*
X7433095Y-11246476D01*
X7556905Y-11132190D02*
X7537857Y-11122667D01*
X7537857Y-11122667D02*
X7528333Y-11113143D01*
X7528333Y-11113143D02*
X7518809Y-11094095D01*
X7518809Y-11094095D02*
X7518809Y-11084571D01*
X7518809Y-11084571D02*
X7528333Y-11065524D01*
X7528333Y-11065524D02*
X7537857Y-11056000D01*
X7537857Y-11056000D02*
X7556905Y-11046476D01*
X7556905Y-11046476D02*
X7595000Y-11046476D01*
X7595000Y-11046476D02*
X7614048Y-11056000D01*
X7614048Y-11056000D02*
X7623571Y-11065524D01*
X7623571Y-11065524D02*
X7633095Y-11084571D01*
X7633095Y-11084571D02*
X7633095Y-11094095D01*
X7633095Y-11094095D02*
X7623571Y-11113143D01*
X7623571Y-11113143D02*
X7614048Y-11122667D01*
X7614048Y-11122667D02*
X7595000Y-11132190D01*
X7595000Y-11132190D02*
X7556905Y-11132190D01*
X7556905Y-11132190D02*
X7537857Y-11141714D01*
X7537857Y-11141714D02*
X7528333Y-11151238D01*
X7528333Y-11151238D02*
X7518809Y-11170286D01*
X7518809Y-11170286D02*
X7518809Y-11208381D01*
X7518809Y-11208381D02*
X7528333Y-11227428D01*
X7528333Y-11227428D02*
X7537857Y-11236952D01*
X7537857Y-11236952D02*
X7556905Y-11246476D01*
X7556905Y-11246476D02*
X7595000Y-11246476D01*
X7595000Y-11246476D02*
X7614048Y-11236952D01*
X7614048Y-11236952D02*
X7623571Y-11227428D01*
X7623571Y-11227428D02*
X7633095Y-11208381D01*
X7633095Y-11208381D02*
X7633095Y-11170286D01*
X7633095Y-11170286D02*
X7623571Y-11151238D01*
X7623571Y-11151238D02*
X7614048Y-11141714D01*
X7614048Y-11141714D02*
X7595000Y-11132190D01*
X7756905Y-11046476D02*
X7775952Y-11046476D01*
X7775952Y-11046476D02*
X7795000Y-11056000D01*
X7795000Y-11056000D02*
X7804524Y-11065524D01*
X7804524Y-11065524D02*
X7814048Y-11084571D01*
X7814048Y-11084571D02*
X7823571Y-11122667D01*
X7823571Y-11122667D02*
X7823571Y-11170286D01*
X7823571Y-11170286D02*
X7814048Y-11208381D01*
X7814048Y-11208381D02*
X7804524Y-11227428D01*
X7804524Y-11227428D02*
X7795000Y-11236952D01*
X7795000Y-11236952D02*
X7775952Y-11246476D01*
X7775952Y-11246476D02*
X7756905Y-11246476D01*
X7756905Y-11246476D02*
X7737857Y-11236952D01*
X7737857Y-11236952D02*
X7728333Y-11227428D01*
X7728333Y-11227428D02*
X7718809Y-11208381D01*
X7718809Y-11208381D02*
X7709286Y-11170286D01*
X7709286Y-11170286D02*
X7709286Y-11122667D01*
X7709286Y-11122667D02*
X7718809Y-11084571D01*
X7718809Y-11084571D02*
X7728333Y-11065524D01*
X7728333Y-11065524D02*
X7737857Y-11056000D01*
X7737857Y-11056000D02*
X7756905Y-11046476D01*
X7947381Y-11046476D02*
X7966429Y-11046476D01*
X7966429Y-11046476D02*
X7985476Y-11056000D01*
X7985476Y-11056000D02*
X7995000Y-11065524D01*
X7995000Y-11065524D02*
X8004524Y-11084571D01*
X8004524Y-11084571D02*
X8014048Y-11122667D01*
X8014048Y-11122667D02*
X8014048Y-11170286D01*
X8014048Y-11170286D02*
X8004524Y-11208381D01*
X8004524Y-11208381D02*
X7995000Y-11227428D01*
X7995000Y-11227428D02*
X7985476Y-11236952D01*
X7985476Y-11236952D02*
X7966429Y-11246476D01*
X7966429Y-11246476D02*
X7947381Y-11246476D01*
X7947381Y-11246476D02*
X7928333Y-11236952D01*
X7928333Y-11236952D02*
X7918809Y-11227428D01*
X7918809Y-11227428D02*
X7909286Y-11208381D01*
X7909286Y-11208381D02*
X7899762Y-11170286D01*
X7899762Y-11170286D02*
X7899762Y-11122667D01*
X7899762Y-11122667D02*
X7909286Y-11084571D01*
X7909286Y-11084571D02*
X7918809Y-11065524D01*
X7918809Y-11065524D02*
X7928333Y-11056000D01*
X7928333Y-11056000D02*
X7947381Y-11046476D01*
X8099762Y-11246476D02*
X8099762Y-11113143D01*
X8099762Y-11132190D02*
X8109286Y-11122667D01*
X8109286Y-11122667D02*
X8128333Y-11113143D01*
X8128333Y-11113143D02*
X8156905Y-11113143D01*
X8156905Y-11113143D02*
X8175952Y-11122667D01*
X8175952Y-11122667D02*
X8185476Y-11141714D01*
X8185476Y-11141714D02*
X8185476Y-11246476D01*
X8185476Y-11141714D02*
X8195000Y-11122667D01*
X8195000Y-11122667D02*
X8214048Y-11113143D01*
X8214048Y-11113143D02*
X8242619Y-11113143D01*
X8242619Y-11113143D02*
X8261667Y-11122667D01*
X8261667Y-11122667D02*
X8271190Y-11141714D01*
X8271190Y-11141714D02*
X8271190Y-11246476D01*
X8366429Y-11246476D02*
X8366429Y-11113143D01*
X8366429Y-11132190D02*
X8375952Y-11122667D01*
X8375952Y-11122667D02*
X8395000Y-11113143D01*
X8395000Y-11113143D02*
X8423572Y-11113143D01*
X8423572Y-11113143D02*
X8442619Y-11122667D01*
X8442619Y-11122667D02*
X8452143Y-11141714D01*
X8452143Y-11141714D02*
X8452143Y-11246476D01*
X8452143Y-11141714D02*
X8461667Y-11122667D01*
X8461667Y-11122667D02*
X8480714Y-11113143D01*
X8480714Y-11113143D02*
X8509286Y-11113143D01*
X8509286Y-11113143D02*
X8528333Y-11122667D01*
X8528333Y-11122667D02*
X8537857Y-11141714D01*
X8537857Y-11141714D02*
X8537857Y-11246476D01*
X8895952Y-11036952D02*
X8724524Y-11294095D01*
X9120714Y-11046476D02*
X9139762Y-11046476D01*
X9139762Y-11046476D02*
X9158810Y-11056000D01*
X9158810Y-11056000D02*
X9168333Y-11065524D01*
X9168333Y-11065524D02*
X9177857Y-11084571D01*
X9177857Y-11084571D02*
X9187381Y-11122667D01*
X9187381Y-11122667D02*
X9187381Y-11170286D01*
X9187381Y-11170286D02*
X9177857Y-11208381D01*
X9177857Y-11208381D02*
X9168333Y-11227428D01*
X9168333Y-11227428D02*
X9158810Y-11236952D01*
X9158810Y-11236952D02*
X9139762Y-11246476D01*
X9139762Y-11246476D02*
X9120714Y-11246476D01*
X9120714Y-11246476D02*
X9101667Y-11236952D01*
X9101667Y-11236952D02*
X9092143Y-11227428D01*
X9092143Y-11227428D02*
X9082619Y-11208381D01*
X9082619Y-11208381D02*
X9073095Y-11170286D01*
X9073095Y-11170286D02*
X9073095Y-11122667D01*
X9073095Y-11122667D02*
X9082619Y-11084571D01*
X9082619Y-11084571D02*
X9092143Y-11065524D01*
X9092143Y-11065524D02*
X9101667Y-11056000D01*
X9101667Y-11056000D02*
X9120714Y-11046476D01*
X9273095Y-11227428D02*
X9282619Y-11236952D01*
X9282619Y-11236952D02*
X9273095Y-11246476D01*
X9273095Y-11246476D02*
X9263572Y-11236952D01*
X9263572Y-11236952D02*
X9273095Y-11227428D01*
X9273095Y-11227428D02*
X9273095Y-11246476D01*
X9406429Y-11046476D02*
X9425476Y-11046476D01*
X9425476Y-11046476D02*
X9444524Y-11056000D01*
X9444524Y-11056000D02*
X9454048Y-11065524D01*
X9454048Y-11065524D02*
X9463572Y-11084571D01*
X9463572Y-11084571D02*
X9473095Y-11122667D01*
X9473095Y-11122667D02*
X9473095Y-11170286D01*
X9473095Y-11170286D02*
X9463572Y-11208381D01*
X9463572Y-11208381D02*
X9454048Y-11227428D01*
X9454048Y-11227428D02*
X9444524Y-11236952D01*
X9444524Y-11236952D02*
X9425476Y-11246476D01*
X9425476Y-11246476D02*
X9406429Y-11246476D01*
X9406429Y-11246476D02*
X9387381Y-11236952D01*
X9387381Y-11236952D02*
X9377857Y-11227428D01*
X9377857Y-11227428D02*
X9368333Y-11208381D01*
X9368333Y-11208381D02*
X9358810Y-11170286D01*
X9358810Y-11170286D02*
X9358810Y-11122667D01*
X9358810Y-11122667D02*
X9368333Y-11084571D01*
X9368333Y-11084571D02*
X9377857Y-11065524D01*
X9377857Y-11065524D02*
X9387381Y-11056000D01*
X9387381Y-11056000D02*
X9406429Y-11046476D01*
X9539762Y-11046476D02*
X9663572Y-11046476D01*
X9663572Y-11046476D02*
X9596905Y-11122667D01*
X9596905Y-11122667D02*
X9625476Y-11122667D01*
X9625476Y-11122667D02*
X9644524Y-11132190D01*
X9644524Y-11132190D02*
X9654048Y-11141714D01*
X9654048Y-11141714D02*
X9663572Y-11160762D01*
X9663572Y-11160762D02*
X9663572Y-11208381D01*
X9663572Y-11208381D02*
X9654048Y-11227428D01*
X9654048Y-11227428D02*
X9644524Y-11236952D01*
X9644524Y-11236952D02*
X9625476Y-11246476D01*
X9625476Y-11246476D02*
X9568333Y-11246476D01*
X9568333Y-11246476D02*
X9549286Y-11236952D01*
X9549286Y-11236952D02*
X9539762Y-11227428D01*
X9854048Y-11246476D02*
X9739762Y-11246476D01*
X9796905Y-11246476D02*
X9796905Y-11046476D01*
X9796905Y-11046476D02*
X9777857Y-11075048D01*
X9777857Y-11075048D02*
X9758810Y-11094095D01*
X9758810Y-11094095D02*
X9739762Y-11103619D01*
X10035000Y-11046476D02*
X9939762Y-11046476D01*
X9939762Y-11046476D02*
X9930238Y-11141714D01*
X9930238Y-11141714D02*
X9939762Y-11132190D01*
X9939762Y-11132190D02*
X9958810Y-11122667D01*
X9958810Y-11122667D02*
X10006429Y-11122667D01*
X10006429Y-11122667D02*
X10025476Y-11132190D01*
X10025476Y-11132190D02*
X10035000Y-11141714D01*
X10035000Y-11141714D02*
X10044524Y-11160762D01*
X10044524Y-11160762D02*
X10044524Y-11208381D01*
X10044524Y-11208381D02*
X10035000Y-11227428D01*
X10035000Y-11227428D02*
X10025476Y-11236952D01*
X10025476Y-11236952D02*
X10006429Y-11246476D01*
X10006429Y-11246476D02*
X9958810Y-11246476D01*
X9958810Y-11246476D02*
X9939762Y-11236952D01*
X9939762Y-11236952D02*
X9930238Y-11227428D01*
X10120714Y-11046476D02*
X10120714Y-11084571D01*
X10196905Y-11046476D02*
X10196905Y-11084571D01*
X10459762Y-11322667D02*
X10450238Y-11313143D01*
X10450238Y-11313143D02*
X10431191Y-11284571D01*
X10431191Y-11284571D02*
X10421667Y-11265524D01*
X10421667Y-11265524D02*
X10412143Y-11236952D01*
X10412143Y-11236952D02*
X10402619Y-11189333D01*
X10402619Y-11189333D02*
X10402619Y-11151238D01*
X10402619Y-11151238D02*
X10412143Y-11103619D01*
X10412143Y-11103619D02*
X10421667Y-11075048D01*
X10421667Y-11075048D02*
X10431191Y-11056000D01*
X10431191Y-11056000D02*
X10450238Y-11027429D01*
X10450238Y-11027429D02*
X10459762Y-11017905D01*
X10516905Y-11046476D02*
X10640714Y-11046476D01*
X10640714Y-11046476D02*
X10574048Y-11122667D01*
X10574048Y-11122667D02*
X10602619Y-11122667D01*
X10602619Y-11122667D02*
X10621667Y-11132190D01*
X10621667Y-11132190D02*
X10631191Y-11141714D01*
X10631191Y-11141714D02*
X10640714Y-11160762D01*
X10640714Y-11160762D02*
X10640714Y-11208381D01*
X10640714Y-11208381D02*
X10631191Y-11227428D01*
X10631191Y-11227428D02*
X10621667Y-11236952D01*
X10621667Y-11236952D02*
X10602619Y-11246476D01*
X10602619Y-11246476D02*
X10545476Y-11246476D01*
X10545476Y-11246476D02*
X10526429Y-11236952D01*
X10526429Y-11236952D02*
X10516905Y-11227428D01*
X10812143Y-11046476D02*
X10774048Y-11046476D01*
X10774048Y-11046476D02*
X10755000Y-11056000D01*
X10755000Y-11056000D02*
X10745476Y-11065524D01*
X10745476Y-11065524D02*
X10726429Y-11094095D01*
X10726429Y-11094095D02*
X10716905Y-11132190D01*
X10716905Y-11132190D02*
X10716905Y-11208381D01*
X10716905Y-11208381D02*
X10726429Y-11227428D01*
X10726429Y-11227428D02*
X10735953Y-11236952D01*
X10735953Y-11236952D02*
X10755000Y-11246476D01*
X10755000Y-11246476D02*
X10793095Y-11246476D01*
X10793095Y-11246476D02*
X10812143Y-11236952D01*
X10812143Y-11236952D02*
X10821667Y-11227428D01*
X10821667Y-11227428D02*
X10831191Y-11208381D01*
X10831191Y-11208381D02*
X10831191Y-11160762D01*
X10831191Y-11160762D02*
X10821667Y-11141714D01*
X10821667Y-11141714D02*
X10812143Y-11132190D01*
X10812143Y-11132190D02*
X10793095Y-11122667D01*
X10793095Y-11122667D02*
X10755000Y-11122667D01*
X10755000Y-11122667D02*
X10735953Y-11132190D01*
X10735953Y-11132190D02*
X10726429Y-11141714D01*
X10726429Y-11141714D02*
X10716905Y-11160762D01*
X11036905Y-11246476D02*
X11036905Y-11046476D01*
X11122619Y-11246476D02*
X11122619Y-11141714D01*
X11122619Y-11141714D02*
X11113095Y-11122667D01*
X11113095Y-11122667D02*
X11094048Y-11113143D01*
X11094048Y-11113143D02*
X11065476Y-11113143D01*
X11065476Y-11113143D02*
X11046429Y-11122667D01*
X11046429Y-11122667D02*
X11036905Y-11132190D01*
X11246429Y-11246476D02*
X11227381Y-11236952D01*
X11227381Y-11236952D02*
X11217857Y-11227428D01*
X11217857Y-11227428D02*
X11208333Y-11208381D01*
X11208333Y-11208381D02*
X11208333Y-11151238D01*
X11208333Y-11151238D02*
X11217857Y-11132190D01*
X11217857Y-11132190D02*
X11227381Y-11122667D01*
X11227381Y-11122667D02*
X11246429Y-11113143D01*
X11246429Y-11113143D02*
X11275000Y-11113143D01*
X11275000Y-11113143D02*
X11294048Y-11122667D01*
X11294048Y-11122667D02*
X11303572Y-11132190D01*
X11303572Y-11132190D02*
X11313095Y-11151238D01*
X11313095Y-11151238D02*
X11313095Y-11208381D01*
X11313095Y-11208381D02*
X11303572Y-11227428D01*
X11303572Y-11227428D02*
X11294048Y-11236952D01*
X11294048Y-11236952D02*
X11275000Y-11246476D01*
X11275000Y-11246476D02*
X11246429Y-11246476D01*
X11427381Y-11246476D02*
X11408333Y-11236952D01*
X11408333Y-11236952D02*
X11398810Y-11217905D01*
X11398810Y-11217905D02*
X11398810Y-11046476D01*
X11579762Y-11236952D02*
X11560714Y-11246476D01*
X11560714Y-11246476D02*
X11522619Y-11246476D01*
X11522619Y-11246476D02*
X11503572Y-11236952D01*
X11503572Y-11236952D02*
X11494048Y-11217905D01*
X11494048Y-11217905D02*
X11494048Y-11141714D01*
X11494048Y-11141714D02*
X11503572Y-11122667D01*
X11503572Y-11122667D02*
X11522619Y-11113143D01*
X11522619Y-11113143D02*
X11560714Y-11113143D01*
X11560714Y-11113143D02*
X11579762Y-11122667D01*
X11579762Y-11122667D02*
X11589286Y-11141714D01*
X11589286Y-11141714D02*
X11589286Y-11160762D01*
X11589286Y-11160762D02*
X11494048Y-11179810D01*
X11665476Y-11236952D02*
X11684524Y-11246476D01*
X11684524Y-11246476D02*
X11722619Y-11246476D01*
X11722619Y-11246476D02*
X11741667Y-11236952D01*
X11741667Y-11236952D02*
X11751191Y-11217905D01*
X11751191Y-11217905D02*
X11751191Y-11208381D01*
X11751191Y-11208381D02*
X11741667Y-11189333D01*
X11741667Y-11189333D02*
X11722619Y-11179810D01*
X11722619Y-11179810D02*
X11694048Y-11179810D01*
X11694048Y-11179810D02*
X11675000Y-11170286D01*
X11675000Y-11170286D02*
X11665476Y-11151238D01*
X11665476Y-11151238D02*
X11665476Y-11141714D01*
X11665476Y-11141714D02*
X11675000Y-11122667D01*
X11675000Y-11122667D02*
X11694048Y-11113143D01*
X11694048Y-11113143D02*
X11722619Y-11113143D01*
X11722619Y-11113143D02*
X11741667Y-11122667D01*
X11817857Y-11322667D02*
X11827381Y-11313143D01*
X11827381Y-11313143D02*
X11846429Y-11284571D01*
X11846429Y-11284571D02*
X11855953Y-11265524D01*
X11855953Y-11265524D02*
X11865476Y-11236952D01*
X11865476Y-11236952D02*
X11875000Y-11189333D01*
X11875000Y-11189333D02*
X11875000Y-11151238D01*
X11875000Y-11151238D02*
X11865476Y-11103619D01*
X11865476Y-11103619D02*
X11855953Y-11075048D01*
X11855953Y-11075048D02*
X11846429Y-11056000D01*
X11846429Y-11056000D02*
X11827381Y-11027429D01*
X11827381Y-11027429D02*
X11817857Y-11017905D01*
D15*
X6981527Y-11469527D02*
X6981527Y-11404473D01*
X6916473Y-11404473D01*
X6916473Y-11469527D01*
X6981527Y-11469527D01*
D11*
X7280714Y-11310476D02*
X7299762Y-11310476D01*
X7299762Y-11310476D02*
X7318809Y-11320000D01*
X7318809Y-11320000D02*
X7328333Y-11329524D01*
X7328333Y-11329524D02*
X7337857Y-11348571D01*
X7337857Y-11348571D02*
X7347381Y-11386667D01*
X7347381Y-11386667D02*
X7347381Y-11434286D01*
X7347381Y-11434286D02*
X7337857Y-11472381D01*
X7337857Y-11472381D02*
X7328333Y-11491428D01*
X7328333Y-11491428D02*
X7318809Y-11500952D01*
X7318809Y-11500952D02*
X7299762Y-11510476D01*
X7299762Y-11510476D02*
X7280714Y-11510476D01*
X7280714Y-11510476D02*
X7261667Y-11500952D01*
X7261667Y-11500952D02*
X7252143Y-11491428D01*
X7252143Y-11491428D02*
X7242619Y-11472381D01*
X7242619Y-11472381D02*
X7233095Y-11434286D01*
X7233095Y-11434286D02*
X7233095Y-11386667D01*
X7233095Y-11386667D02*
X7242619Y-11348571D01*
X7242619Y-11348571D02*
X7252143Y-11329524D01*
X7252143Y-11329524D02*
X7261667Y-11320000D01*
X7261667Y-11320000D02*
X7280714Y-11310476D01*
X7433095Y-11491428D02*
X7442619Y-11500952D01*
X7442619Y-11500952D02*
X7433095Y-11510476D01*
X7433095Y-11510476D02*
X7423571Y-11500952D01*
X7423571Y-11500952D02*
X7433095Y-11491428D01*
X7433095Y-11491428D02*
X7433095Y-11510476D01*
X7537857Y-11510476D02*
X7575952Y-11510476D01*
X7575952Y-11510476D02*
X7595000Y-11500952D01*
X7595000Y-11500952D02*
X7604524Y-11491428D01*
X7604524Y-11491428D02*
X7623571Y-11462857D01*
X7623571Y-11462857D02*
X7633095Y-11424762D01*
X7633095Y-11424762D02*
X7633095Y-11348571D01*
X7633095Y-11348571D02*
X7623571Y-11329524D01*
X7623571Y-11329524D02*
X7614048Y-11320000D01*
X7614048Y-11320000D02*
X7595000Y-11310476D01*
X7595000Y-11310476D02*
X7556905Y-11310476D01*
X7556905Y-11310476D02*
X7537857Y-11320000D01*
X7537857Y-11320000D02*
X7528333Y-11329524D01*
X7528333Y-11329524D02*
X7518809Y-11348571D01*
X7518809Y-11348571D02*
X7518809Y-11396190D01*
X7518809Y-11396190D02*
X7528333Y-11415238D01*
X7528333Y-11415238D02*
X7537857Y-11424762D01*
X7537857Y-11424762D02*
X7556905Y-11434286D01*
X7556905Y-11434286D02*
X7595000Y-11434286D01*
X7595000Y-11434286D02*
X7614048Y-11424762D01*
X7614048Y-11424762D02*
X7623571Y-11415238D01*
X7623571Y-11415238D02*
X7633095Y-11396190D01*
X7709286Y-11329524D02*
X7718809Y-11320000D01*
X7718809Y-11320000D02*
X7737857Y-11310476D01*
X7737857Y-11310476D02*
X7785476Y-11310476D01*
X7785476Y-11310476D02*
X7804524Y-11320000D01*
X7804524Y-11320000D02*
X7814048Y-11329524D01*
X7814048Y-11329524D02*
X7823571Y-11348571D01*
X7823571Y-11348571D02*
X7823571Y-11367619D01*
X7823571Y-11367619D02*
X7814048Y-11396190D01*
X7814048Y-11396190D02*
X7699762Y-11510476D01*
X7699762Y-11510476D02*
X7823571Y-11510476D01*
X7947381Y-11310476D02*
X7966429Y-11310476D01*
X7966429Y-11310476D02*
X7985476Y-11320000D01*
X7985476Y-11320000D02*
X7995000Y-11329524D01*
X7995000Y-11329524D02*
X8004524Y-11348571D01*
X8004524Y-11348571D02*
X8014048Y-11386667D01*
X8014048Y-11386667D02*
X8014048Y-11434286D01*
X8014048Y-11434286D02*
X8004524Y-11472381D01*
X8004524Y-11472381D02*
X7995000Y-11491428D01*
X7995000Y-11491428D02*
X7985476Y-11500952D01*
X7985476Y-11500952D02*
X7966429Y-11510476D01*
X7966429Y-11510476D02*
X7947381Y-11510476D01*
X7947381Y-11510476D02*
X7928333Y-11500952D01*
X7928333Y-11500952D02*
X7918809Y-11491428D01*
X7918809Y-11491428D02*
X7909286Y-11472381D01*
X7909286Y-11472381D02*
X7899762Y-11434286D01*
X7899762Y-11434286D02*
X7899762Y-11386667D01*
X7899762Y-11386667D02*
X7909286Y-11348571D01*
X7909286Y-11348571D02*
X7918809Y-11329524D01*
X7918809Y-11329524D02*
X7928333Y-11320000D01*
X7928333Y-11320000D02*
X7947381Y-11310476D01*
X8099762Y-11510476D02*
X8099762Y-11377143D01*
X8099762Y-11396190D02*
X8109286Y-11386667D01*
X8109286Y-11386667D02*
X8128333Y-11377143D01*
X8128333Y-11377143D02*
X8156905Y-11377143D01*
X8156905Y-11377143D02*
X8175952Y-11386667D01*
X8175952Y-11386667D02*
X8185476Y-11405714D01*
X8185476Y-11405714D02*
X8185476Y-11510476D01*
X8185476Y-11405714D02*
X8195000Y-11386667D01*
X8195000Y-11386667D02*
X8214048Y-11377143D01*
X8214048Y-11377143D02*
X8242619Y-11377143D01*
X8242619Y-11377143D02*
X8261667Y-11386667D01*
X8261667Y-11386667D02*
X8271190Y-11405714D01*
X8271190Y-11405714D02*
X8271190Y-11510476D01*
X8366429Y-11510476D02*
X8366429Y-11377143D01*
X8366429Y-11396190D02*
X8375952Y-11386667D01*
X8375952Y-11386667D02*
X8395000Y-11377143D01*
X8395000Y-11377143D02*
X8423572Y-11377143D01*
X8423572Y-11377143D02*
X8442619Y-11386667D01*
X8442619Y-11386667D02*
X8452143Y-11405714D01*
X8452143Y-11405714D02*
X8452143Y-11510476D01*
X8452143Y-11405714D02*
X8461667Y-11386667D01*
X8461667Y-11386667D02*
X8480714Y-11377143D01*
X8480714Y-11377143D02*
X8509286Y-11377143D01*
X8509286Y-11377143D02*
X8528333Y-11386667D01*
X8528333Y-11386667D02*
X8537857Y-11405714D01*
X8537857Y-11405714D02*
X8537857Y-11510476D01*
X8895952Y-11300952D02*
X8724524Y-11558095D01*
X9120714Y-11310476D02*
X9139762Y-11310476D01*
X9139762Y-11310476D02*
X9158810Y-11320000D01*
X9158810Y-11320000D02*
X9168333Y-11329524D01*
X9168333Y-11329524D02*
X9177857Y-11348571D01*
X9177857Y-11348571D02*
X9187381Y-11386667D01*
X9187381Y-11386667D02*
X9187381Y-11434286D01*
X9187381Y-11434286D02*
X9177857Y-11472381D01*
X9177857Y-11472381D02*
X9168333Y-11491428D01*
X9168333Y-11491428D02*
X9158810Y-11500952D01*
X9158810Y-11500952D02*
X9139762Y-11510476D01*
X9139762Y-11510476D02*
X9120714Y-11510476D01*
X9120714Y-11510476D02*
X9101667Y-11500952D01*
X9101667Y-11500952D02*
X9092143Y-11491428D01*
X9092143Y-11491428D02*
X9082619Y-11472381D01*
X9082619Y-11472381D02*
X9073095Y-11434286D01*
X9073095Y-11434286D02*
X9073095Y-11386667D01*
X9073095Y-11386667D02*
X9082619Y-11348571D01*
X9082619Y-11348571D02*
X9092143Y-11329524D01*
X9092143Y-11329524D02*
X9101667Y-11320000D01*
X9101667Y-11320000D02*
X9120714Y-11310476D01*
X9273095Y-11491428D02*
X9282619Y-11500952D01*
X9282619Y-11500952D02*
X9273095Y-11510476D01*
X9273095Y-11510476D02*
X9263572Y-11500952D01*
X9263572Y-11500952D02*
X9273095Y-11491428D01*
X9273095Y-11491428D02*
X9273095Y-11510476D01*
X9406429Y-11310476D02*
X9425476Y-11310476D01*
X9425476Y-11310476D02*
X9444524Y-11320000D01*
X9444524Y-11320000D02*
X9454048Y-11329524D01*
X9454048Y-11329524D02*
X9463572Y-11348571D01*
X9463572Y-11348571D02*
X9473095Y-11386667D01*
X9473095Y-11386667D02*
X9473095Y-11434286D01*
X9473095Y-11434286D02*
X9463572Y-11472381D01*
X9463572Y-11472381D02*
X9454048Y-11491428D01*
X9454048Y-11491428D02*
X9444524Y-11500952D01*
X9444524Y-11500952D02*
X9425476Y-11510476D01*
X9425476Y-11510476D02*
X9406429Y-11510476D01*
X9406429Y-11510476D02*
X9387381Y-11500952D01*
X9387381Y-11500952D02*
X9377857Y-11491428D01*
X9377857Y-11491428D02*
X9368333Y-11472381D01*
X9368333Y-11472381D02*
X9358810Y-11434286D01*
X9358810Y-11434286D02*
X9358810Y-11386667D01*
X9358810Y-11386667D02*
X9368333Y-11348571D01*
X9368333Y-11348571D02*
X9377857Y-11329524D01*
X9377857Y-11329524D02*
X9387381Y-11320000D01*
X9387381Y-11320000D02*
X9406429Y-11310476D01*
X9539762Y-11310476D02*
X9663572Y-11310476D01*
X9663572Y-11310476D02*
X9596905Y-11386667D01*
X9596905Y-11386667D02*
X9625476Y-11386667D01*
X9625476Y-11386667D02*
X9644524Y-11396190D01*
X9644524Y-11396190D02*
X9654048Y-11405714D01*
X9654048Y-11405714D02*
X9663572Y-11424762D01*
X9663572Y-11424762D02*
X9663572Y-11472381D01*
X9663572Y-11472381D02*
X9654048Y-11491428D01*
X9654048Y-11491428D02*
X9644524Y-11500952D01*
X9644524Y-11500952D02*
X9625476Y-11510476D01*
X9625476Y-11510476D02*
X9568333Y-11510476D01*
X9568333Y-11510476D02*
X9549286Y-11500952D01*
X9549286Y-11500952D02*
X9539762Y-11491428D01*
X9835000Y-11310476D02*
X9796905Y-11310476D01*
X9796905Y-11310476D02*
X9777857Y-11320000D01*
X9777857Y-11320000D02*
X9768333Y-11329524D01*
X9768333Y-11329524D02*
X9749286Y-11358095D01*
X9749286Y-11358095D02*
X9739762Y-11396190D01*
X9739762Y-11396190D02*
X9739762Y-11472381D01*
X9739762Y-11472381D02*
X9749286Y-11491428D01*
X9749286Y-11491428D02*
X9758810Y-11500952D01*
X9758810Y-11500952D02*
X9777857Y-11510476D01*
X9777857Y-11510476D02*
X9815953Y-11510476D01*
X9815953Y-11510476D02*
X9835000Y-11500952D01*
X9835000Y-11500952D02*
X9844524Y-11491428D01*
X9844524Y-11491428D02*
X9854048Y-11472381D01*
X9854048Y-11472381D02*
X9854048Y-11424762D01*
X9854048Y-11424762D02*
X9844524Y-11405714D01*
X9844524Y-11405714D02*
X9835000Y-11396190D01*
X9835000Y-11396190D02*
X9815953Y-11386667D01*
X9815953Y-11386667D02*
X9777857Y-11386667D01*
X9777857Y-11386667D02*
X9758810Y-11396190D01*
X9758810Y-11396190D02*
X9749286Y-11405714D01*
X9749286Y-11405714D02*
X9739762Y-11424762D01*
X9930238Y-11329524D02*
X9939762Y-11320000D01*
X9939762Y-11320000D02*
X9958810Y-11310476D01*
X9958810Y-11310476D02*
X10006429Y-11310476D01*
X10006429Y-11310476D02*
X10025476Y-11320000D01*
X10025476Y-11320000D02*
X10035000Y-11329524D01*
X10035000Y-11329524D02*
X10044524Y-11348571D01*
X10044524Y-11348571D02*
X10044524Y-11367619D01*
X10044524Y-11367619D02*
X10035000Y-11396190D01*
X10035000Y-11396190D02*
X9920714Y-11510476D01*
X9920714Y-11510476D02*
X10044524Y-11510476D01*
X10120714Y-11310476D02*
X10120714Y-11348571D01*
X10196905Y-11310476D02*
X10196905Y-11348571D01*
X10459762Y-11586667D02*
X10450238Y-11577143D01*
X10450238Y-11577143D02*
X10431191Y-11548571D01*
X10431191Y-11548571D02*
X10421667Y-11529524D01*
X10421667Y-11529524D02*
X10412143Y-11500952D01*
X10412143Y-11500952D02*
X10402619Y-11453333D01*
X10402619Y-11453333D02*
X10402619Y-11415238D01*
X10402619Y-11415238D02*
X10412143Y-11367619D01*
X10412143Y-11367619D02*
X10421667Y-11339048D01*
X10421667Y-11339048D02*
X10431191Y-11320000D01*
X10431191Y-11320000D02*
X10450238Y-11291428D01*
X10450238Y-11291428D02*
X10459762Y-11281905D01*
X10564524Y-11396190D02*
X10545476Y-11386667D01*
X10545476Y-11386667D02*
X10535953Y-11377143D01*
X10535953Y-11377143D02*
X10526429Y-11358095D01*
X10526429Y-11358095D02*
X10526429Y-11348571D01*
X10526429Y-11348571D02*
X10535953Y-11329524D01*
X10535953Y-11329524D02*
X10545476Y-11320000D01*
X10545476Y-11320000D02*
X10564524Y-11310476D01*
X10564524Y-11310476D02*
X10602619Y-11310476D01*
X10602619Y-11310476D02*
X10621667Y-11320000D01*
X10621667Y-11320000D02*
X10631191Y-11329524D01*
X10631191Y-11329524D02*
X10640714Y-11348571D01*
X10640714Y-11348571D02*
X10640714Y-11358095D01*
X10640714Y-11358095D02*
X10631191Y-11377143D01*
X10631191Y-11377143D02*
X10621667Y-11386667D01*
X10621667Y-11386667D02*
X10602619Y-11396190D01*
X10602619Y-11396190D02*
X10564524Y-11396190D01*
X10564524Y-11396190D02*
X10545476Y-11405714D01*
X10545476Y-11405714D02*
X10535953Y-11415238D01*
X10535953Y-11415238D02*
X10526429Y-11434286D01*
X10526429Y-11434286D02*
X10526429Y-11472381D01*
X10526429Y-11472381D02*
X10535953Y-11491428D01*
X10535953Y-11491428D02*
X10545476Y-11500952D01*
X10545476Y-11500952D02*
X10564524Y-11510476D01*
X10564524Y-11510476D02*
X10602619Y-11510476D01*
X10602619Y-11510476D02*
X10621667Y-11500952D01*
X10621667Y-11500952D02*
X10631191Y-11491428D01*
X10631191Y-11491428D02*
X10640714Y-11472381D01*
X10640714Y-11472381D02*
X10640714Y-11434286D01*
X10640714Y-11434286D02*
X10631191Y-11415238D01*
X10631191Y-11415238D02*
X10621667Y-11405714D01*
X10621667Y-11405714D02*
X10602619Y-11396190D01*
X10846429Y-11510476D02*
X10846429Y-11310476D01*
X10932143Y-11510476D02*
X10932143Y-11405714D01*
X10932143Y-11405714D02*
X10922619Y-11386667D01*
X10922619Y-11386667D02*
X10903572Y-11377143D01*
X10903572Y-11377143D02*
X10875000Y-11377143D01*
X10875000Y-11377143D02*
X10855953Y-11386667D01*
X10855953Y-11386667D02*
X10846429Y-11396190D01*
X11055953Y-11510476D02*
X11036905Y-11500952D01*
X11036905Y-11500952D02*
X11027381Y-11491428D01*
X11027381Y-11491428D02*
X11017857Y-11472381D01*
X11017857Y-11472381D02*
X11017857Y-11415238D01*
X11017857Y-11415238D02*
X11027381Y-11396190D01*
X11027381Y-11396190D02*
X11036905Y-11386667D01*
X11036905Y-11386667D02*
X11055953Y-11377143D01*
X11055953Y-11377143D02*
X11084524Y-11377143D01*
X11084524Y-11377143D02*
X11103572Y-11386667D01*
X11103572Y-11386667D02*
X11113095Y-11396190D01*
X11113095Y-11396190D02*
X11122619Y-11415238D01*
X11122619Y-11415238D02*
X11122619Y-11472381D01*
X11122619Y-11472381D02*
X11113095Y-11491428D01*
X11113095Y-11491428D02*
X11103572Y-11500952D01*
X11103572Y-11500952D02*
X11084524Y-11510476D01*
X11084524Y-11510476D02*
X11055953Y-11510476D01*
X11236905Y-11510476D02*
X11217857Y-11500952D01*
X11217857Y-11500952D02*
X11208333Y-11481905D01*
X11208333Y-11481905D02*
X11208333Y-11310476D01*
X11389286Y-11500952D02*
X11370238Y-11510476D01*
X11370238Y-11510476D02*
X11332143Y-11510476D01*
X11332143Y-11510476D02*
X11313095Y-11500952D01*
X11313095Y-11500952D02*
X11303572Y-11481905D01*
X11303572Y-11481905D02*
X11303572Y-11405714D01*
X11303572Y-11405714D02*
X11313095Y-11386667D01*
X11313095Y-11386667D02*
X11332143Y-11377143D01*
X11332143Y-11377143D02*
X11370238Y-11377143D01*
X11370238Y-11377143D02*
X11389286Y-11386667D01*
X11389286Y-11386667D02*
X11398810Y-11405714D01*
X11398810Y-11405714D02*
X11398810Y-11424762D01*
X11398810Y-11424762D02*
X11303572Y-11443809D01*
X11475000Y-11500952D02*
X11494048Y-11510476D01*
X11494048Y-11510476D02*
X11532143Y-11510476D01*
X11532143Y-11510476D02*
X11551191Y-11500952D01*
X11551191Y-11500952D02*
X11560714Y-11481905D01*
X11560714Y-11481905D02*
X11560714Y-11472381D01*
X11560714Y-11472381D02*
X11551191Y-11453333D01*
X11551191Y-11453333D02*
X11532143Y-11443809D01*
X11532143Y-11443809D02*
X11503572Y-11443809D01*
X11503572Y-11443809D02*
X11484524Y-11434286D01*
X11484524Y-11434286D02*
X11475000Y-11415238D01*
X11475000Y-11415238D02*
X11475000Y-11405714D01*
X11475000Y-11405714D02*
X11484524Y-11386667D01*
X11484524Y-11386667D02*
X11503572Y-11377143D01*
X11503572Y-11377143D02*
X11532143Y-11377143D01*
X11532143Y-11377143D02*
X11551191Y-11386667D01*
X11627381Y-11586667D02*
X11636905Y-11577143D01*
X11636905Y-11577143D02*
X11655953Y-11548571D01*
X11655953Y-11548571D02*
X11665476Y-11529524D01*
X11665476Y-11529524D02*
X11675000Y-11500952D01*
X11675000Y-11500952D02*
X11684524Y-11453333D01*
X11684524Y-11453333D02*
X11684524Y-11415238D01*
X11684524Y-11415238D02*
X11675000Y-11367619D01*
X11675000Y-11367619D02*
X11665476Y-11339048D01*
X11665476Y-11339048D02*
X11655953Y-11320000D01*
X11655953Y-11320000D02*
X11636905Y-11291428D01*
X11636905Y-11291428D02*
X11627381Y-11281905D01*
D10*
X6945000Y-11751000D02*
X6995000Y-11701000D01*
X6945000Y-11651000D01*
X6895000Y-11701000D01*
X6945000Y-11751000D01*
D11*
X7347381Y-11774476D02*
X7233095Y-11774476D01*
X7290238Y-11774476D02*
X7290238Y-11574476D01*
X7290238Y-11574476D02*
X7271190Y-11603048D01*
X7271190Y-11603048D02*
X7252143Y-11622095D01*
X7252143Y-11622095D02*
X7233095Y-11631619D01*
X7433095Y-11755428D02*
X7442619Y-11764952D01*
X7442619Y-11764952D02*
X7433095Y-11774476D01*
X7433095Y-11774476D02*
X7423571Y-11764952D01*
X7423571Y-11764952D02*
X7433095Y-11755428D01*
X7433095Y-11755428D02*
X7433095Y-11774476D01*
X7566428Y-11574476D02*
X7585476Y-11574476D01*
X7585476Y-11574476D02*
X7604524Y-11584000D01*
X7604524Y-11584000D02*
X7614048Y-11593524D01*
X7614048Y-11593524D02*
X7623571Y-11612571D01*
X7623571Y-11612571D02*
X7633095Y-11650667D01*
X7633095Y-11650667D02*
X7633095Y-11698286D01*
X7633095Y-11698286D02*
X7623571Y-11736381D01*
X7623571Y-11736381D02*
X7614048Y-11755428D01*
X7614048Y-11755428D02*
X7604524Y-11764952D01*
X7604524Y-11764952D02*
X7585476Y-11774476D01*
X7585476Y-11774476D02*
X7566428Y-11774476D01*
X7566428Y-11774476D02*
X7547381Y-11764952D01*
X7547381Y-11764952D02*
X7537857Y-11755428D01*
X7537857Y-11755428D02*
X7528333Y-11736381D01*
X7528333Y-11736381D02*
X7518809Y-11698286D01*
X7518809Y-11698286D02*
X7518809Y-11650667D01*
X7518809Y-11650667D02*
X7528333Y-11612571D01*
X7528333Y-11612571D02*
X7537857Y-11593524D01*
X7537857Y-11593524D02*
X7547381Y-11584000D01*
X7547381Y-11584000D02*
X7566428Y-11574476D01*
X7756905Y-11574476D02*
X7775952Y-11574476D01*
X7775952Y-11574476D02*
X7795000Y-11584000D01*
X7795000Y-11584000D02*
X7804524Y-11593524D01*
X7804524Y-11593524D02*
X7814048Y-11612571D01*
X7814048Y-11612571D02*
X7823571Y-11650667D01*
X7823571Y-11650667D02*
X7823571Y-11698286D01*
X7823571Y-11698286D02*
X7814048Y-11736381D01*
X7814048Y-11736381D02*
X7804524Y-11755428D01*
X7804524Y-11755428D02*
X7795000Y-11764952D01*
X7795000Y-11764952D02*
X7775952Y-11774476D01*
X7775952Y-11774476D02*
X7756905Y-11774476D01*
X7756905Y-11774476D02*
X7737857Y-11764952D01*
X7737857Y-11764952D02*
X7728333Y-11755428D01*
X7728333Y-11755428D02*
X7718809Y-11736381D01*
X7718809Y-11736381D02*
X7709286Y-11698286D01*
X7709286Y-11698286D02*
X7709286Y-11650667D01*
X7709286Y-11650667D02*
X7718809Y-11612571D01*
X7718809Y-11612571D02*
X7728333Y-11593524D01*
X7728333Y-11593524D02*
X7737857Y-11584000D01*
X7737857Y-11584000D02*
X7756905Y-11574476D01*
X7947381Y-11574476D02*
X7966429Y-11574476D01*
X7966429Y-11574476D02*
X7985476Y-11584000D01*
X7985476Y-11584000D02*
X7995000Y-11593524D01*
X7995000Y-11593524D02*
X8004524Y-11612571D01*
X8004524Y-11612571D02*
X8014048Y-11650667D01*
X8014048Y-11650667D02*
X8014048Y-11698286D01*
X8014048Y-11698286D02*
X8004524Y-11736381D01*
X8004524Y-11736381D02*
X7995000Y-11755428D01*
X7995000Y-11755428D02*
X7985476Y-11764952D01*
X7985476Y-11764952D02*
X7966429Y-11774476D01*
X7966429Y-11774476D02*
X7947381Y-11774476D01*
X7947381Y-11774476D02*
X7928333Y-11764952D01*
X7928333Y-11764952D02*
X7918809Y-11755428D01*
X7918809Y-11755428D02*
X7909286Y-11736381D01*
X7909286Y-11736381D02*
X7899762Y-11698286D01*
X7899762Y-11698286D02*
X7899762Y-11650667D01*
X7899762Y-11650667D02*
X7909286Y-11612571D01*
X7909286Y-11612571D02*
X7918809Y-11593524D01*
X7918809Y-11593524D02*
X7928333Y-11584000D01*
X7928333Y-11584000D02*
X7947381Y-11574476D01*
X8099762Y-11774476D02*
X8099762Y-11641143D01*
X8099762Y-11660190D02*
X8109286Y-11650667D01*
X8109286Y-11650667D02*
X8128333Y-11641143D01*
X8128333Y-11641143D02*
X8156905Y-11641143D01*
X8156905Y-11641143D02*
X8175952Y-11650667D01*
X8175952Y-11650667D02*
X8185476Y-11669714D01*
X8185476Y-11669714D02*
X8185476Y-11774476D01*
X8185476Y-11669714D02*
X8195000Y-11650667D01*
X8195000Y-11650667D02*
X8214048Y-11641143D01*
X8214048Y-11641143D02*
X8242619Y-11641143D01*
X8242619Y-11641143D02*
X8261667Y-11650667D01*
X8261667Y-11650667D02*
X8271190Y-11669714D01*
X8271190Y-11669714D02*
X8271190Y-11774476D01*
X8366429Y-11774476D02*
X8366429Y-11641143D01*
X8366429Y-11660190D02*
X8375952Y-11650667D01*
X8375952Y-11650667D02*
X8395000Y-11641143D01*
X8395000Y-11641143D02*
X8423572Y-11641143D01*
X8423572Y-11641143D02*
X8442619Y-11650667D01*
X8442619Y-11650667D02*
X8452143Y-11669714D01*
X8452143Y-11669714D02*
X8452143Y-11774476D01*
X8452143Y-11669714D02*
X8461667Y-11650667D01*
X8461667Y-11650667D02*
X8480714Y-11641143D01*
X8480714Y-11641143D02*
X8509286Y-11641143D01*
X8509286Y-11641143D02*
X8528333Y-11650667D01*
X8528333Y-11650667D02*
X8537857Y-11669714D01*
X8537857Y-11669714D02*
X8537857Y-11774476D01*
X8895952Y-11564952D02*
X8724524Y-11822095D01*
X9120714Y-11574476D02*
X9139762Y-11574476D01*
X9139762Y-11574476D02*
X9158810Y-11584000D01*
X9158810Y-11584000D02*
X9168333Y-11593524D01*
X9168333Y-11593524D02*
X9177857Y-11612571D01*
X9177857Y-11612571D02*
X9187381Y-11650667D01*
X9187381Y-11650667D02*
X9187381Y-11698286D01*
X9187381Y-11698286D02*
X9177857Y-11736381D01*
X9177857Y-11736381D02*
X9168333Y-11755428D01*
X9168333Y-11755428D02*
X9158810Y-11764952D01*
X9158810Y-11764952D02*
X9139762Y-11774476D01*
X9139762Y-11774476D02*
X9120714Y-11774476D01*
X9120714Y-11774476D02*
X9101667Y-11764952D01*
X9101667Y-11764952D02*
X9092143Y-11755428D01*
X9092143Y-11755428D02*
X9082619Y-11736381D01*
X9082619Y-11736381D02*
X9073095Y-11698286D01*
X9073095Y-11698286D02*
X9073095Y-11650667D01*
X9073095Y-11650667D02*
X9082619Y-11612571D01*
X9082619Y-11612571D02*
X9092143Y-11593524D01*
X9092143Y-11593524D02*
X9101667Y-11584000D01*
X9101667Y-11584000D02*
X9120714Y-11574476D01*
X9273095Y-11755428D02*
X9282619Y-11764952D01*
X9282619Y-11764952D02*
X9273095Y-11774476D01*
X9273095Y-11774476D02*
X9263572Y-11764952D01*
X9263572Y-11764952D02*
X9273095Y-11755428D01*
X9273095Y-11755428D02*
X9273095Y-11774476D01*
X9406429Y-11574476D02*
X9425476Y-11574476D01*
X9425476Y-11574476D02*
X9444524Y-11584000D01*
X9444524Y-11584000D02*
X9454048Y-11593524D01*
X9454048Y-11593524D02*
X9463572Y-11612571D01*
X9463572Y-11612571D02*
X9473095Y-11650667D01*
X9473095Y-11650667D02*
X9473095Y-11698286D01*
X9473095Y-11698286D02*
X9463572Y-11736381D01*
X9463572Y-11736381D02*
X9454048Y-11755428D01*
X9454048Y-11755428D02*
X9444524Y-11764952D01*
X9444524Y-11764952D02*
X9425476Y-11774476D01*
X9425476Y-11774476D02*
X9406429Y-11774476D01*
X9406429Y-11774476D02*
X9387381Y-11764952D01*
X9387381Y-11764952D02*
X9377857Y-11755428D01*
X9377857Y-11755428D02*
X9368333Y-11736381D01*
X9368333Y-11736381D02*
X9358810Y-11698286D01*
X9358810Y-11698286D02*
X9358810Y-11650667D01*
X9358810Y-11650667D02*
X9368333Y-11612571D01*
X9368333Y-11612571D02*
X9377857Y-11593524D01*
X9377857Y-11593524D02*
X9387381Y-11584000D01*
X9387381Y-11584000D02*
X9406429Y-11574476D01*
X9539762Y-11574476D02*
X9663572Y-11574476D01*
X9663572Y-11574476D02*
X9596905Y-11650667D01*
X9596905Y-11650667D02*
X9625476Y-11650667D01*
X9625476Y-11650667D02*
X9644524Y-11660190D01*
X9644524Y-11660190D02*
X9654048Y-11669714D01*
X9654048Y-11669714D02*
X9663572Y-11688762D01*
X9663572Y-11688762D02*
X9663572Y-11736381D01*
X9663572Y-11736381D02*
X9654048Y-11755428D01*
X9654048Y-11755428D02*
X9644524Y-11764952D01*
X9644524Y-11764952D02*
X9625476Y-11774476D01*
X9625476Y-11774476D02*
X9568333Y-11774476D01*
X9568333Y-11774476D02*
X9549286Y-11764952D01*
X9549286Y-11764952D02*
X9539762Y-11755428D01*
X9758810Y-11774476D02*
X9796905Y-11774476D01*
X9796905Y-11774476D02*
X9815953Y-11764952D01*
X9815953Y-11764952D02*
X9825476Y-11755428D01*
X9825476Y-11755428D02*
X9844524Y-11726857D01*
X9844524Y-11726857D02*
X9854048Y-11688762D01*
X9854048Y-11688762D02*
X9854048Y-11612571D01*
X9854048Y-11612571D02*
X9844524Y-11593524D01*
X9844524Y-11593524D02*
X9835000Y-11584000D01*
X9835000Y-11584000D02*
X9815953Y-11574476D01*
X9815953Y-11574476D02*
X9777857Y-11574476D01*
X9777857Y-11574476D02*
X9758810Y-11584000D01*
X9758810Y-11584000D02*
X9749286Y-11593524D01*
X9749286Y-11593524D02*
X9739762Y-11612571D01*
X9739762Y-11612571D02*
X9739762Y-11660190D01*
X9739762Y-11660190D02*
X9749286Y-11679238D01*
X9749286Y-11679238D02*
X9758810Y-11688762D01*
X9758810Y-11688762D02*
X9777857Y-11698286D01*
X9777857Y-11698286D02*
X9815953Y-11698286D01*
X9815953Y-11698286D02*
X9835000Y-11688762D01*
X9835000Y-11688762D02*
X9844524Y-11679238D01*
X9844524Y-11679238D02*
X9854048Y-11660190D01*
X10025476Y-11641143D02*
X10025476Y-11774476D01*
X9977857Y-11564952D02*
X9930238Y-11707809D01*
X9930238Y-11707809D02*
X10054048Y-11707809D01*
X10120714Y-11574476D02*
X10120714Y-11612571D01*
X10196905Y-11574476D02*
X10196905Y-11612571D01*
X10459762Y-11850667D02*
X10450238Y-11841143D01*
X10450238Y-11841143D02*
X10431191Y-11812571D01*
X10431191Y-11812571D02*
X10421667Y-11793524D01*
X10421667Y-11793524D02*
X10412143Y-11764952D01*
X10412143Y-11764952D02*
X10402619Y-11717333D01*
X10402619Y-11717333D02*
X10402619Y-11679238D01*
X10402619Y-11679238D02*
X10412143Y-11631619D01*
X10412143Y-11631619D02*
X10421667Y-11603048D01*
X10421667Y-11603048D02*
X10431191Y-11584000D01*
X10431191Y-11584000D02*
X10450238Y-11555428D01*
X10450238Y-11555428D02*
X10459762Y-11545905D01*
X10516905Y-11574476D02*
X10640714Y-11574476D01*
X10640714Y-11574476D02*
X10574048Y-11650667D01*
X10574048Y-11650667D02*
X10602619Y-11650667D01*
X10602619Y-11650667D02*
X10621667Y-11660190D01*
X10621667Y-11660190D02*
X10631191Y-11669714D01*
X10631191Y-11669714D02*
X10640714Y-11688762D01*
X10640714Y-11688762D02*
X10640714Y-11736381D01*
X10640714Y-11736381D02*
X10631191Y-11755428D01*
X10631191Y-11755428D02*
X10621667Y-11764952D01*
X10621667Y-11764952D02*
X10602619Y-11774476D01*
X10602619Y-11774476D02*
X10545476Y-11774476D01*
X10545476Y-11774476D02*
X10526429Y-11764952D01*
X10526429Y-11764952D02*
X10516905Y-11755428D01*
X10846429Y-11774476D02*
X10846429Y-11574476D01*
X10932143Y-11774476D02*
X10932143Y-11669714D01*
X10932143Y-11669714D02*
X10922619Y-11650667D01*
X10922619Y-11650667D02*
X10903572Y-11641143D01*
X10903572Y-11641143D02*
X10875000Y-11641143D01*
X10875000Y-11641143D02*
X10855953Y-11650667D01*
X10855953Y-11650667D02*
X10846429Y-11660190D01*
X11055953Y-11774476D02*
X11036905Y-11764952D01*
X11036905Y-11764952D02*
X11027381Y-11755428D01*
X11027381Y-11755428D02*
X11017857Y-11736381D01*
X11017857Y-11736381D02*
X11017857Y-11679238D01*
X11017857Y-11679238D02*
X11027381Y-11660190D01*
X11027381Y-11660190D02*
X11036905Y-11650667D01*
X11036905Y-11650667D02*
X11055953Y-11641143D01*
X11055953Y-11641143D02*
X11084524Y-11641143D01*
X11084524Y-11641143D02*
X11103572Y-11650667D01*
X11103572Y-11650667D02*
X11113095Y-11660190D01*
X11113095Y-11660190D02*
X11122619Y-11679238D01*
X11122619Y-11679238D02*
X11122619Y-11736381D01*
X11122619Y-11736381D02*
X11113095Y-11755428D01*
X11113095Y-11755428D02*
X11103572Y-11764952D01*
X11103572Y-11764952D02*
X11084524Y-11774476D01*
X11084524Y-11774476D02*
X11055953Y-11774476D01*
X11236905Y-11774476D02*
X11217857Y-11764952D01*
X11217857Y-11764952D02*
X11208333Y-11745905D01*
X11208333Y-11745905D02*
X11208333Y-11574476D01*
X11389286Y-11764952D02*
X11370238Y-11774476D01*
X11370238Y-11774476D02*
X11332143Y-11774476D01*
X11332143Y-11774476D02*
X11313095Y-11764952D01*
X11313095Y-11764952D02*
X11303572Y-11745905D01*
X11303572Y-11745905D02*
X11303572Y-11669714D01*
X11303572Y-11669714D02*
X11313095Y-11650667D01*
X11313095Y-11650667D02*
X11332143Y-11641143D01*
X11332143Y-11641143D02*
X11370238Y-11641143D01*
X11370238Y-11641143D02*
X11389286Y-11650667D01*
X11389286Y-11650667D02*
X11398810Y-11669714D01*
X11398810Y-11669714D02*
X11398810Y-11688762D01*
X11398810Y-11688762D02*
X11303572Y-11707809D01*
X11475000Y-11764952D02*
X11494048Y-11774476D01*
X11494048Y-11774476D02*
X11532143Y-11774476D01*
X11532143Y-11774476D02*
X11551191Y-11764952D01*
X11551191Y-11764952D02*
X11560714Y-11745905D01*
X11560714Y-11745905D02*
X11560714Y-11736381D01*
X11560714Y-11736381D02*
X11551191Y-11717333D01*
X11551191Y-11717333D02*
X11532143Y-11707809D01*
X11532143Y-11707809D02*
X11503572Y-11707809D01*
X11503572Y-11707809D02*
X11484524Y-11698286D01*
X11484524Y-11698286D02*
X11475000Y-11679238D01*
X11475000Y-11679238D02*
X11475000Y-11669714D01*
X11475000Y-11669714D02*
X11484524Y-11650667D01*
X11484524Y-11650667D02*
X11503572Y-11641143D01*
X11503572Y-11641143D02*
X11532143Y-11641143D01*
X11532143Y-11641143D02*
X11551191Y-11650667D01*
X11627381Y-11850667D02*
X11636905Y-11841143D01*
X11636905Y-11841143D02*
X11655953Y-11812571D01*
X11655953Y-11812571D02*
X11665476Y-11793524D01*
X11665476Y-11793524D02*
X11675000Y-11764952D01*
X11675000Y-11764952D02*
X11684524Y-11717333D01*
X11684524Y-11717333D02*
X11684524Y-11679238D01*
X11684524Y-11679238D02*
X11675000Y-11631619D01*
X11675000Y-11631619D02*
X11665476Y-11603048D01*
X11665476Y-11603048D02*
X11655953Y-11584000D01*
X11655953Y-11584000D02*
X11636905Y-11555428D01*
X11636905Y-11555428D02*
X11627381Y-11545905D01*
D16*
X6876000Y-11905500D02*
X6995000Y-12024500D01*
X6995000Y-11905500D02*
X6876000Y-12024500D01*
X6995000Y-11965000D02*
G75*
G03*
X6995000Y-11965000I-59500J0D01*
G01*
D11*
X7347381Y-12038476D02*
X7233095Y-12038476D01*
X7290238Y-12038476D02*
X7290238Y-11838476D01*
X7290238Y-11838476D02*
X7271190Y-11867048D01*
X7271190Y-11867048D02*
X7252143Y-11886095D01*
X7252143Y-11886095D02*
X7233095Y-11895619D01*
X7433095Y-12019428D02*
X7442619Y-12028952D01*
X7442619Y-12028952D02*
X7433095Y-12038476D01*
X7433095Y-12038476D02*
X7423571Y-12028952D01*
X7423571Y-12028952D02*
X7433095Y-12019428D01*
X7433095Y-12019428D02*
X7433095Y-12038476D01*
X7633095Y-12038476D02*
X7518809Y-12038476D01*
X7575952Y-12038476D02*
X7575952Y-11838476D01*
X7575952Y-11838476D02*
X7556905Y-11867048D01*
X7556905Y-11867048D02*
X7537857Y-11886095D01*
X7537857Y-11886095D02*
X7518809Y-11895619D01*
X7728333Y-12038476D02*
X7766428Y-12038476D01*
X7766428Y-12038476D02*
X7785476Y-12028952D01*
X7785476Y-12028952D02*
X7795000Y-12019428D01*
X7795000Y-12019428D02*
X7814048Y-11990857D01*
X7814048Y-11990857D02*
X7823571Y-11952762D01*
X7823571Y-11952762D02*
X7823571Y-11876571D01*
X7823571Y-11876571D02*
X7814048Y-11857524D01*
X7814048Y-11857524D02*
X7804524Y-11848000D01*
X7804524Y-11848000D02*
X7785476Y-11838476D01*
X7785476Y-11838476D02*
X7747381Y-11838476D01*
X7747381Y-11838476D02*
X7728333Y-11848000D01*
X7728333Y-11848000D02*
X7718809Y-11857524D01*
X7718809Y-11857524D02*
X7709286Y-11876571D01*
X7709286Y-11876571D02*
X7709286Y-11924190D01*
X7709286Y-11924190D02*
X7718809Y-11943238D01*
X7718809Y-11943238D02*
X7728333Y-11952762D01*
X7728333Y-11952762D02*
X7747381Y-11962286D01*
X7747381Y-11962286D02*
X7785476Y-11962286D01*
X7785476Y-11962286D02*
X7804524Y-11952762D01*
X7804524Y-11952762D02*
X7814048Y-11943238D01*
X7814048Y-11943238D02*
X7823571Y-11924190D01*
X7947381Y-11838476D02*
X7966429Y-11838476D01*
X7966429Y-11838476D02*
X7985476Y-11848000D01*
X7985476Y-11848000D02*
X7995000Y-11857524D01*
X7995000Y-11857524D02*
X8004524Y-11876571D01*
X8004524Y-11876571D02*
X8014048Y-11914667D01*
X8014048Y-11914667D02*
X8014048Y-11962286D01*
X8014048Y-11962286D02*
X8004524Y-12000381D01*
X8004524Y-12000381D02*
X7995000Y-12019428D01*
X7995000Y-12019428D02*
X7985476Y-12028952D01*
X7985476Y-12028952D02*
X7966429Y-12038476D01*
X7966429Y-12038476D02*
X7947381Y-12038476D01*
X7947381Y-12038476D02*
X7928333Y-12028952D01*
X7928333Y-12028952D02*
X7918809Y-12019428D01*
X7918809Y-12019428D02*
X7909286Y-12000381D01*
X7909286Y-12000381D02*
X7899762Y-11962286D01*
X7899762Y-11962286D02*
X7899762Y-11914667D01*
X7899762Y-11914667D02*
X7909286Y-11876571D01*
X7909286Y-11876571D02*
X7918809Y-11857524D01*
X7918809Y-11857524D02*
X7928333Y-11848000D01*
X7928333Y-11848000D02*
X7947381Y-11838476D01*
X8099762Y-12038476D02*
X8099762Y-11905143D01*
X8099762Y-11924190D02*
X8109286Y-11914667D01*
X8109286Y-11914667D02*
X8128333Y-11905143D01*
X8128333Y-11905143D02*
X8156905Y-11905143D01*
X8156905Y-11905143D02*
X8175952Y-11914667D01*
X8175952Y-11914667D02*
X8185476Y-11933714D01*
X8185476Y-11933714D02*
X8185476Y-12038476D01*
X8185476Y-11933714D02*
X8195000Y-11914667D01*
X8195000Y-11914667D02*
X8214048Y-11905143D01*
X8214048Y-11905143D02*
X8242619Y-11905143D01*
X8242619Y-11905143D02*
X8261667Y-11914667D01*
X8261667Y-11914667D02*
X8271190Y-11933714D01*
X8271190Y-11933714D02*
X8271190Y-12038476D01*
X8366429Y-12038476D02*
X8366429Y-11905143D01*
X8366429Y-11924190D02*
X8375952Y-11914667D01*
X8375952Y-11914667D02*
X8395000Y-11905143D01*
X8395000Y-11905143D02*
X8423572Y-11905143D01*
X8423572Y-11905143D02*
X8442619Y-11914667D01*
X8442619Y-11914667D02*
X8452143Y-11933714D01*
X8452143Y-11933714D02*
X8452143Y-12038476D01*
X8452143Y-11933714D02*
X8461667Y-11914667D01*
X8461667Y-11914667D02*
X8480714Y-11905143D01*
X8480714Y-11905143D02*
X8509286Y-11905143D01*
X8509286Y-11905143D02*
X8528333Y-11914667D01*
X8528333Y-11914667D02*
X8537857Y-11933714D01*
X8537857Y-11933714D02*
X8537857Y-12038476D01*
X8895952Y-11828952D02*
X8724524Y-12086095D01*
X9120714Y-11838476D02*
X9139762Y-11838476D01*
X9139762Y-11838476D02*
X9158810Y-11848000D01*
X9158810Y-11848000D02*
X9168333Y-11857524D01*
X9168333Y-11857524D02*
X9177857Y-11876571D01*
X9177857Y-11876571D02*
X9187381Y-11914667D01*
X9187381Y-11914667D02*
X9187381Y-11962286D01*
X9187381Y-11962286D02*
X9177857Y-12000381D01*
X9177857Y-12000381D02*
X9168333Y-12019428D01*
X9168333Y-12019428D02*
X9158810Y-12028952D01*
X9158810Y-12028952D02*
X9139762Y-12038476D01*
X9139762Y-12038476D02*
X9120714Y-12038476D01*
X9120714Y-12038476D02*
X9101667Y-12028952D01*
X9101667Y-12028952D02*
X9092143Y-12019428D01*
X9092143Y-12019428D02*
X9082619Y-12000381D01*
X9082619Y-12000381D02*
X9073095Y-11962286D01*
X9073095Y-11962286D02*
X9073095Y-11914667D01*
X9073095Y-11914667D02*
X9082619Y-11876571D01*
X9082619Y-11876571D02*
X9092143Y-11857524D01*
X9092143Y-11857524D02*
X9101667Y-11848000D01*
X9101667Y-11848000D02*
X9120714Y-11838476D01*
X9273095Y-12019428D02*
X9282619Y-12028952D01*
X9282619Y-12028952D02*
X9273095Y-12038476D01*
X9273095Y-12038476D02*
X9263572Y-12028952D01*
X9263572Y-12028952D02*
X9273095Y-12019428D01*
X9273095Y-12019428D02*
X9273095Y-12038476D01*
X9406429Y-11838476D02*
X9425476Y-11838476D01*
X9425476Y-11838476D02*
X9444524Y-11848000D01*
X9444524Y-11848000D02*
X9454048Y-11857524D01*
X9454048Y-11857524D02*
X9463572Y-11876571D01*
X9463572Y-11876571D02*
X9473095Y-11914667D01*
X9473095Y-11914667D02*
X9473095Y-11962286D01*
X9473095Y-11962286D02*
X9463572Y-12000381D01*
X9463572Y-12000381D02*
X9454048Y-12019428D01*
X9454048Y-12019428D02*
X9444524Y-12028952D01*
X9444524Y-12028952D02*
X9425476Y-12038476D01*
X9425476Y-12038476D02*
X9406429Y-12038476D01*
X9406429Y-12038476D02*
X9387381Y-12028952D01*
X9387381Y-12028952D02*
X9377857Y-12019428D01*
X9377857Y-12019428D02*
X9368333Y-12000381D01*
X9368333Y-12000381D02*
X9358810Y-11962286D01*
X9358810Y-11962286D02*
X9358810Y-11914667D01*
X9358810Y-11914667D02*
X9368333Y-11876571D01*
X9368333Y-11876571D02*
X9377857Y-11857524D01*
X9377857Y-11857524D02*
X9387381Y-11848000D01*
X9387381Y-11848000D02*
X9406429Y-11838476D01*
X9644524Y-11905143D02*
X9644524Y-12038476D01*
X9596905Y-11828952D02*
X9549286Y-11971809D01*
X9549286Y-11971809D02*
X9673095Y-11971809D01*
X9835000Y-11838476D02*
X9796905Y-11838476D01*
X9796905Y-11838476D02*
X9777857Y-11848000D01*
X9777857Y-11848000D02*
X9768333Y-11857524D01*
X9768333Y-11857524D02*
X9749286Y-11886095D01*
X9749286Y-11886095D02*
X9739762Y-11924190D01*
X9739762Y-11924190D02*
X9739762Y-12000381D01*
X9739762Y-12000381D02*
X9749286Y-12019428D01*
X9749286Y-12019428D02*
X9758810Y-12028952D01*
X9758810Y-12028952D02*
X9777857Y-12038476D01*
X9777857Y-12038476D02*
X9815953Y-12038476D01*
X9815953Y-12038476D02*
X9835000Y-12028952D01*
X9835000Y-12028952D02*
X9844524Y-12019428D01*
X9844524Y-12019428D02*
X9854048Y-12000381D01*
X9854048Y-12000381D02*
X9854048Y-11952762D01*
X9854048Y-11952762D02*
X9844524Y-11933714D01*
X9844524Y-11933714D02*
X9835000Y-11924190D01*
X9835000Y-11924190D02*
X9815953Y-11914667D01*
X9815953Y-11914667D02*
X9777857Y-11914667D01*
X9777857Y-11914667D02*
X9758810Y-11924190D01*
X9758810Y-11924190D02*
X9749286Y-11933714D01*
X9749286Y-11933714D02*
X9739762Y-11952762D01*
X9949286Y-12038476D02*
X9987381Y-12038476D01*
X9987381Y-12038476D02*
X10006429Y-12028952D01*
X10006429Y-12028952D02*
X10015953Y-12019428D01*
X10015953Y-12019428D02*
X10035000Y-11990857D01*
X10035000Y-11990857D02*
X10044524Y-11952762D01*
X10044524Y-11952762D02*
X10044524Y-11876571D01*
X10044524Y-11876571D02*
X10035000Y-11857524D01*
X10035000Y-11857524D02*
X10025476Y-11848000D01*
X10025476Y-11848000D02*
X10006429Y-11838476D01*
X10006429Y-11838476D02*
X9968333Y-11838476D01*
X9968333Y-11838476D02*
X9949286Y-11848000D01*
X9949286Y-11848000D02*
X9939762Y-11857524D01*
X9939762Y-11857524D02*
X9930238Y-11876571D01*
X9930238Y-11876571D02*
X9930238Y-11924190D01*
X9930238Y-11924190D02*
X9939762Y-11943238D01*
X9939762Y-11943238D02*
X9949286Y-11952762D01*
X9949286Y-11952762D02*
X9968333Y-11962286D01*
X9968333Y-11962286D02*
X10006429Y-11962286D01*
X10006429Y-11962286D02*
X10025476Y-11952762D01*
X10025476Y-11952762D02*
X10035000Y-11943238D01*
X10035000Y-11943238D02*
X10044524Y-11924190D01*
X10120714Y-11838476D02*
X10120714Y-11876571D01*
X10196905Y-11838476D02*
X10196905Y-11876571D01*
X10459762Y-12114667D02*
X10450238Y-12105143D01*
X10450238Y-12105143D02*
X10431191Y-12076571D01*
X10431191Y-12076571D02*
X10421667Y-12057524D01*
X10421667Y-12057524D02*
X10412143Y-12028952D01*
X10412143Y-12028952D02*
X10402619Y-11981333D01*
X10402619Y-11981333D02*
X10402619Y-11943238D01*
X10402619Y-11943238D02*
X10412143Y-11895619D01*
X10412143Y-11895619D02*
X10421667Y-11867048D01*
X10421667Y-11867048D02*
X10431191Y-11848000D01*
X10431191Y-11848000D02*
X10450238Y-11819428D01*
X10450238Y-11819428D02*
X10459762Y-11809905D01*
X10621667Y-11905143D02*
X10621667Y-12038476D01*
X10574048Y-11828952D02*
X10526429Y-11971809D01*
X10526429Y-11971809D02*
X10650238Y-11971809D01*
X10846429Y-12038476D02*
X10846429Y-11838476D01*
X10932143Y-12038476D02*
X10932143Y-11933714D01*
X10932143Y-11933714D02*
X10922619Y-11914667D01*
X10922619Y-11914667D02*
X10903572Y-11905143D01*
X10903572Y-11905143D02*
X10875000Y-11905143D01*
X10875000Y-11905143D02*
X10855953Y-11914667D01*
X10855953Y-11914667D02*
X10846429Y-11924190D01*
X11055953Y-12038476D02*
X11036905Y-12028952D01*
X11036905Y-12028952D02*
X11027381Y-12019428D01*
X11027381Y-12019428D02*
X11017857Y-12000381D01*
X11017857Y-12000381D02*
X11017857Y-11943238D01*
X11017857Y-11943238D02*
X11027381Y-11924190D01*
X11027381Y-11924190D02*
X11036905Y-11914667D01*
X11036905Y-11914667D02*
X11055953Y-11905143D01*
X11055953Y-11905143D02*
X11084524Y-11905143D01*
X11084524Y-11905143D02*
X11103572Y-11914667D01*
X11103572Y-11914667D02*
X11113095Y-11924190D01*
X11113095Y-11924190D02*
X11122619Y-11943238D01*
X11122619Y-11943238D02*
X11122619Y-12000381D01*
X11122619Y-12000381D02*
X11113095Y-12019428D01*
X11113095Y-12019428D02*
X11103572Y-12028952D01*
X11103572Y-12028952D02*
X11084524Y-12038476D01*
X11084524Y-12038476D02*
X11055953Y-12038476D01*
X11236905Y-12038476D02*
X11217857Y-12028952D01*
X11217857Y-12028952D02*
X11208333Y-12009905D01*
X11208333Y-12009905D02*
X11208333Y-11838476D01*
X11389286Y-12028952D02*
X11370238Y-12038476D01*
X11370238Y-12038476D02*
X11332143Y-12038476D01*
X11332143Y-12038476D02*
X11313095Y-12028952D01*
X11313095Y-12028952D02*
X11303572Y-12009905D01*
X11303572Y-12009905D02*
X11303572Y-11933714D01*
X11303572Y-11933714D02*
X11313095Y-11914667D01*
X11313095Y-11914667D02*
X11332143Y-11905143D01*
X11332143Y-11905143D02*
X11370238Y-11905143D01*
X11370238Y-11905143D02*
X11389286Y-11914667D01*
X11389286Y-11914667D02*
X11398810Y-11933714D01*
X11398810Y-11933714D02*
X11398810Y-11952762D01*
X11398810Y-11952762D02*
X11303572Y-11971809D01*
X11475000Y-12028952D02*
X11494048Y-12038476D01*
X11494048Y-12038476D02*
X11532143Y-12038476D01*
X11532143Y-12038476D02*
X11551191Y-12028952D01*
X11551191Y-12028952D02*
X11560714Y-12009905D01*
X11560714Y-12009905D02*
X11560714Y-12000381D01*
X11560714Y-12000381D02*
X11551191Y-11981333D01*
X11551191Y-11981333D02*
X11532143Y-11971809D01*
X11532143Y-11971809D02*
X11503572Y-11971809D01*
X11503572Y-11971809D02*
X11484524Y-11962286D01*
X11484524Y-11962286D02*
X11475000Y-11943238D01*
X11475000Y-11943238D02*
X11475000Y-11933714D01*
X11475000Y-11933714D02*
X11484524Y-11914667D01*
X11484524Y-11914667D02*
X11503572Y-11905143D01*
X11503572Y-11905143D02*
X11532143Y-11905143D01*
X11532143Y-11905143D02*
X11551191Y-11914667D01*
X11627381Y-12114667D02*
X11636905Y-12105143D01*
X11636905Y-12105143D02*
X11655953Y-12076571D01*
X11655953Y-12076571D02*
X11665476Y-12057524D01*
X11665476Y-12057524D02*
X11675000Y-12028952D01*
X11675000Y-12028952D02*
X11684524Y-11981333D01*
X11684524Y-11981333D02*
X11684524Y-11943238D01*
X11684524Y-11943238D02*
X11675000Y-11895619D01*
X11675000Y-11895619D02*
X11665476Y-11867048D01*
X11665476Y-11867048D02*
X11655953Y-11848000D01*
X11655953Y-11848000D02*
X11636905Y-11819428D01*
X11636905Y-11819428D02*
X11627381Y-11809905D01*
D17*
X6845000Y-12154000D02*
X6995000Y-12304000D01*
X6995000Y-12154000D02*
X6845000Y-12304000D01*
X6920000Y-12154000D02*
X6920000Y-12304000D01*
X6845000Y-12229000D02*
X6995000Y-12229000D01*
D11*
X7347381Y-12302476D02*
X7233095Y-12302476D01*
X7290238Y-12302476D02*
X7290238Y-12102476D01*
X7290238Y-12102476D02*
X7271190Y-12131048D01*
X7271190Y-12131048D02*
X7252143Y-12150095D01*
X7252143Y-12150095D02*
X7233095Y-12159619D01*
X7433095Y-12283428D02*
X7442619Y-12292952D01*
X7442619Y-12292952D02*
X7433095Y-12302476D01*
X7433095Y-12302476D02*
X7423571Y-12292952D01*
X7423571Y-12292952D02*
X7433095Y-12283428D01*
X7433095Y-12283428D02*
X7433095Y-12302476D01*
X7623571Y-12102476D02*
X7528333Y-12102476D01*
X7528333Y-12102476D02*
X7518809Y-12197714D01*
X7518809Y-12197714D02*
X7528333Y-12188190D01*
X7528333Y-12188190D02*
X7547381Y-12178667D01*
X7547381Y-12178667D02*
X7595000Y-12178667D01*
X7595000Y-12178667D02*
X7614048Y-12188190D01*
X7614048Y-12188190D02*
X7623571Y-12197714D01*
X7623571Y-12197714D02*
X7633095Y-12216762D01*
X7633095Y-12216762D02*
X7633095Y-12264381D01*
X7633095Y-12264381D02*
X7623571Y-12283428D01*
X7623571Y-12283428D02*
X7614048Y-12292952D01*
X7614048Y-12292952D02*
X7595000Y-12302476D01*
X7595000Y-12302476D02*
X7547381Y-12302476D01*
X7547381Y-12302476D02*
X7528333Y-12292952D01*
X7528333Y-12292952D02*
X7518809Y-12283428D01*
X7756905Y-12102476D02*
X7775952Y-12102476D01*
X7775952Y-12102476D02*
X7795000Y-12112000D01*
X7795000Y-12112000D02*
X7804524Y-12121524D01*
X7804524Y-12121524D02*
X7814048Y-12140571D01*
X7814048Y-12140571D02*
X7823571Y-12178667D01*
X7823571Y-12178667D02*
X7823571Y-12226286D01*
X7823571Y-12226286D02*
X7814048Y-12264381D01*
X7814048Y-12264381D02*
X7804524Y-12283428D01*
X7804524Y-12283428D02*
X7795000Y-12292952D01*
X7795000Y-12292952D02*
X7775952Y-12302476D01*
X7775952Y-12302476D02*
X7756905Y-12302476D01*
X7756905Y-12302476D02*
X7737857Y-12292952D01*
X7737857Y-12292952D02*
X7728333Y-12283428D01*
X7728333Y-12283428D02*
X7718809Y-12264381D01*
X7718809Y-12264381D02*
X7709286Y-12226286D01*
X7709286Y-12226286D02*
X7709286Y-12178667D01*
X7709286Y-12178667D02*
X7718809Y-12140571D01*
X7718809Y-12140571D02*
X7728333Y-12121524D01*
X7728333Y-12121524D02*
X7737857Y-12112000D01*
X7737857Y-12112000D02*
X7756905Y-12102476D01*
X7947381Y-12102476D02*
X7966429Y-12102476D01*
X7966429Y-12102476D02*
X7985476Y-12112000D01*
X7985476Y-12112000D02*
X7995000Y-12121524D01*
X7995000Y-12121524D02*
X8004524Y-12140571D01*
X8004524Y-12140571D02*
X8014048Y-12178667D01*
X8014048Y-12178667D02*
X8014048Y-12226286D01*
X8014048Y-12226286D02*
X8004524Y-12264381D01*
X8004524Y-12264381D02*
X7995000Y-12283428D01*
X7995000Y-12283428D02*
X7985476Y-12292952D01*
X7985476Y-12292952D02*
X7966429Y-12302476D01*
X7966429Y-12302476D02*
X7947381Y-12302476D01*
X7947381Y-12302476D02*
X7928333Y-12292952D01*
X7928333Y-12292952D02*
X7918809Y-12283428D01*
X7918809Y-12283428D02*
X7909286Y-12264381D01*
X7909286Y-12264381D02*
X7899762Y-12226286D01*
X7899762Y-12226286D02*
X7899762Y-12178667D01*
X7899762Y-12178667D02*
X7909286Y-12140571D01*
X7909286Y-12140571D02*
X7918809Y-12121524D01*
X7918809Y-12121524D02*
X7928333Y-12112000D01*
X7928333Y-12112000D02*
X7947381Y-12102476D01*
X8099762Y-12302476D02*
X8099762Y-12169143D01*
X8099762Y-12188190D02*
X8109286Y-12178667D01*
X8109286Y-12178667D02*
X8128333Y-12169143D01*
X8128333Y-12169143D02*
X8156905Y-12169143D01*
X8156905Y-12169143D02*
X8175952Y-12178667D01*
X8175952Y-12178667D02*
X8185476Y-12197714D01*
X8185476Y-12197714D02*
X8185476Y-12302476D01*
X8185476Y-12197714D02*
X8195000Y-12178667D01*
X8195000Y-12178667D02*
X8214048Y-12169143D01*
X8214048Y-12169143D02*
X8242619Y-12169143D01*
X8242619Y-12169143D02*
X8261667Y-12178667D01*
X8261667Y-12178667D02*
X8271190Y-12197714D01*
X8271190Y-12197714D02*
X8271190Y-12302476D01*
X8366429Y-12302476D02*
X8366429Y-12169143D01*
X8366429Y-12188190D02*
X8375952Y-12178667D01*
X8375952Y-12178667D02*
X8395000Y-12169143D01*
X8395000Y-12169143D02*
X8423572Y-12169143D01*
X8423572Y-12169143D02*
X8442619Y-12178667D01*
X8442619Y-12178667D02*
X8452143Y-12197714D01*
X8452143Y-12197714D02*
X8452143Y-12302476D01*
X8452143Y-12197714D02*
X8461667Y-12178667D01*
X8461667Y-12178667D02*
X8480714Y-12169143D01*
X8480714Y-12169143D02*
X8509286Y-12169143D01*
X8509286Y-12169143D02*
X8528333Y-12178667D01*
X8528333Y-12178667D02*
X8537857Y-12197714D01*
X8537857Y-12197714D02*
X8537857Y-12302476D01*
X8895952Y-12092952D02*
X8724524Y-12350095D01*
X9120714Y-12102476D02*
X9139762Y-12102476D01*
X9139762Y-12102476D02*
X9158810Y-12112000D01*
X9158810Y-12112000D02*
X9168333Y-12121524D01*
X9168333Y-12121524D02*
X9177857Y-12140571D01*
X9177857Y-12140571D02*
X9187381Y-12178667D01*
X9187381Y-12178667D02*
X9187381Y-12226286D01*
X9187381Y-12226286D02*
X9177857Y-12264381D01*
X9177857Y-12264381D02*
X9168333Y-12283428D01*
X9168333Y-12283428D02*
X9158810Y-12292952D01*
X9158810Y-12292952D02*
X9139762Y-12302476D01*
X9139762Y-12302476D02*
X9120714Y-12302476D01*
X9120714Y-12302476D02*
X9101667Y-12292952D01*
X9101667Y-12292952D02*
X9092143Y-12283428D01*
X9092143Y-12283428D02*
X9082619Y-12264381D01*
X9082619Y-12264381D02*
X9073095Y-12226286D01*
X9073095Y-12226286D02*
X9073095Y-12178667D01*
X9073095Y-12178667D02*
X9082619Y-12140571D01*
X9082619Y-12140571D02*
X9092143Y-12121524D01*
X9092143Y-12121524D02*
X9101667Y-12112000D01*
X9101667Y-12112000D02*
X9120714Y-12102476D01*
X9273095Y-12283428D02*
X9282619Y-12292952D01*
X9282619Y-12292952D02*
X9273095Y-12302476D01*
X9273095Y-12302476D02*
X9263572Y-12292952D01*
X9263572Y-12292952D02*
X9273095Y-12283428D01*
X9273095Y-12283428D02*
X9273095Y-12302476D01*
X9406429Y-12102476D02*
X9425476Y-12102476D01*
X9425476Y-12102476D02*
X9444524Y-12112000D01*
X9444524Y-12112000D02*
X9454048Y-12121524D01*
X9454048Y-12121524D02*
X9463572Y-12140571D01*
X9463572Y-12140571D02*
X9473095Y-12178667D01*
X9473095Y-12178667D02*
X9473095Y-12226286D01*
X9473095Y-12226286D02*
X9463572Y-12264381D01*
X9463572Y-12264381D02*
X9454048Y-12283428D01*
X9454048Y-12283428D02*
X9444524Y-12292952D01*
X9444524Y-12292952D02*
X9425476Y-12302476D01*
X9425476Y-12302476D02*
X9406429Y-12302476D01*
X9406429Y-12302476D02*
X9387381Y-12292952D01*
X9387381Y-12292952D02*
X9377857Y-12283428D01*
X9377857Y-12283428D02*
X9368333Y-12264381D01*
X9368333Y-12264381D02*
X9358810Y-12226286D01*
X9358810Y-12226286D02*
X9358810Y-12178667D01*
X9358810Y-12178667D02*
X9368333Y-12140571D01*
X9368333Y-12140571D02*
X9377857Y-12121524D01*
X9377857Y-12121524D02*
X9387381Y-12112000D01*
X9387381Y-12112000D02*
X9406429Y-12102476D01*
X9654048Y-12102476D02*
X9558810Y-12102476D01*
X9558810Y-12102476D02*
X9549286Y-12197714D01*
X9549286Y-12197714D02*
X9558810Y-12188190D01*
X9558810Y-12188190D02*
X9577857Y-12178667D01*
X9577857Y-12178667D02*
X9625476Y-12178667D01*
X9625476Y-12178667D02*
X9644524Y-12188190D01*
X9644524Y-12188190D02*
X9654048Y-12197714D01*
X9654048Y-12197714D02*
X9663572Y-12216762D01*
X9663572Y-12216762D02*
X9663572Y-12264381D01*
X9663572Y-12264381D02*
X9654048Y-12283428D01*
X9654048Y-12283428D02*
X9644524Y-12292952D01*
X9644524Y-12292952D02*
X9625476Y-12302476D01*
X9625476Y-12302476D02*
X9577857Y-12302476D01*
X9577857Y-12302476D02*
X9558810Y-12292952D01*
X9558810Y-12292952D02*
X9549286Y-12283428D01*
X9758810Y-12302476D02*
X9796905Y-12302476D01*
X9796905Y-12302476D02*
X9815953Y-12292952D01*
X9815953Y-12292952D02*
X9825476Y-12283428D01*
X9825476Y-12283428D02*
X9844524Y-12254857D01*
X9844524Y-12254857D02*
X9854048Y-12216762D01*
X9854048Y-12216762D02*
X9854048Y-12140571D01*
X9854048Y-12140571D02*
X9844524Y-12121524D01*
X9844524Y-12121524D02*
X9835000Y-12112000D01*
X9835000Y-12112000D02*
X9815953Y-12102476D01*
X9815953Y-12102476D02*
X9777857Y-12102476D01*
X9777857Y-12102476D02*
X9758810Y-12112000D01*
X9758810Y-12112000D02*
X9749286Y-12121524D01*
X9749286Y-12121524D02*
X9739762Y-12140571D01*
X9739762Y-12140571D02*
X9739762Y-12188190D01*
X9739762Y-12188190D02*
X9749286Y-12207238D01*
X9749286Y-12207238D02*
X9758810Y-12216762D01*
X9758810Y-12216762D02*
X9777857Y-12226286D01*
X9777857Y-12226286D02*
X9815953Y-12226286D01*
X9815953Y-12226286D02*
X9835000Y-12216762D01*
X9835000Y-12216762D02*
X9844524Y-12207238D01*
X9844524Y-12207238D02*
X9854048Y-12188190D01*
X10044524Y-12302476D02*
X9930238Y-12302476D01*
X9987381Y-12302476D02*
X9987381Y-12102476D01*
X9987381Y-12102476D02*
X9968333Y-12131048D01*
X9968333Y-12131048D02*
X9949286Y-12150095D01*
X9949286Y-12150095D02*
X9930238Y-12159619D01*
X10120714Y-12102476D02*
X10120714Y-12140571D01*
X10196905Y-12102476D02*
X10196905Y-12140571D01*
X10459762Y-12378667D02*
X10450238Y-12369143D01*
X10450238Y-12369143D02*
X10431191Y-12340571D01*
X10431191Y-12340571D02*
X10421667Y-12321524D01*
X10421667Y-12321524D02*
X10412143Y-12292952D01*
X10412143Y-12292952D02*
X10402619Y-12245333D01*
X10402619Y-12245333D02*
X10402619Y-12207238D01*
X10402619Y-12207238D02*
X10412143Y-12159619D01*
X10412143Y-12159619D02*
X10421667Y-12131048D01*
X10421667Y-12131048D02*
X10431191Y-12112000D01*
X10431191Y-12112000D02*
X10450238Y-12083428D01*
X10450238Y-12083428D02*
X10459762Y-12073905D01*
X10621667Y-12169143D02*
X10621667Y-12302476D01*
X10574048Y-12092952D02*
X10526429Y-12235809D01*
X10526429Y-12235809D02*
X10650238Y-12235809D01*
X10846429Y-12302476D02*
X10846429Y-12102476D01*
X10932143Y-12302476D02*
X10932143Y-12197714D01*
X10932143Y-12197714D02*
X10922619Y-12178667D01*
X10922619Y-12178667D02*
X10903572Y-12169143D01*
X10903572Y-12169143D02*
X10875000Y-12169143D01*
X10875000Y-12169143D02*
X10855953Y-12178667D01*
X10855953Y-12178667D02*
X10846429Y-12188190D01*
X11055953Y-12302476D02*
X11036905Y-12292952D01*
X11036905Y-12292952D02*
X11027381Y-12283428D01*
X11027381Y-12283428D02*
X11017857Y-12264381D01*
X11017857Y-12264381D02*
X11017857Y-12207238D01*
X11017857Y-12207238D02*
X11027381Y-12188190D01*
X11027381Y-12188190D02*
X11036905Y-12178667D01*
X11036905Y-12178667D02*
X11055953Y-12169143D01*
X11055953Y-12169143D02*
X11084524Y-12169143D01*
X11084524Y-12169143D02*
X11103572Y-12178667D01*
X11103572Y-12178667D02*
X11113095Y-12188190D01*
X11113095Y-12188190D02*
X11122619Y-12207238D01*
X11122619Y-12207238D02*
X11122619Y-12264381D01*
X11122619Y-12264381D02*
X11113095Y-12283428D01*
X11113095Y-12283428D02*
X11103572Y-12292952D01*
X11103572Y-12292952D02*
X11084524Y-12302476D01*
X11084524Y-12302476D02*
X11055953Y-12302476D01*
X11236905Y-12302476D02*
X11217857Y-12292952D01*
X11217857Y-12292952D02*
X11208333Y-12273905D01*
X11208333Y-12273905D02*
X11208333Y-12102476D01*
X11389286Y-12292952D02*
X11370238Y-12302476D01*
X11370238Y-12302476D02*
X11332143Y-12302476D01*
X11332143Y-12302476D02*
X11313095Y-12292952D01*
X11313095Y-12292952D02*
X11303572Y-12273905D01*
X11303572Y-12273905D02*
X11303572Y-12197714D01*
X11303572Y-12197714D02*
X11313095Y-12178667D01*
X11313095Y-12178667D02*
X11332143Y-12169143D01*
X11332143Y-12169143D02*
X11370238Y-12169143D01*
X11370238Y-12169143D02*
X11389286Y-12178667D01*
X11389286Y-12178667D02*
X11398810Y-12197714D01*
X11398810Y-12197714D02*
X11398810Y-12216762D01*
X11398810Y-12216762D02*
X11303572Y-12235809D01*
X11475000Y-12292952D02*
X11494048Y-12302476D01*
X11494048Y-12302476D02*
X11532143Y-12302476D01*
X11532143Y-12302476D02*
X11551191Y-12292952D01*
X11551191Y-12292952D02*
X11560714Y-12273905D01*
X11560714Y-12273905D02*
X11560714Y-12264381D01*
X11560714Y-12264381D02*
X11551191Y-12245333D01*
X11551191Y-12245333D02*
X11532143Y-12235809D01*
X11532143Y-12235809D02*
X11503572Y-12235809D01*
X11503572Y-12235809D02*
X11484524Y-12226286D01*
X11484524Y-12226286D02*
X11475000Y-12207238D01*
X11475000Y-12207238D02*
X11475000Y-12197714D01*
X11475000Y-12197714D02*
X11484524Y-12178667D01*
X11484524Y-12178667D02*
X11503572Y-12169143D01*
X11503572Y-12169143D02*
X11532143Y-12169143D01*
X11532143Y-12169143D02*
X11551191Y-12178667D01*
X11627381Y-12378667D02*
X11636905Y-12369143D01*
X11636905Y-12369143D02*
X11655953Y-12340571D01*
X11655953Y-12340571D02*
X11665476Y-12321524D01*
X11665476Y-12321524D02*
X11675000Y-12292952D01*
X11675000Y-12292952D02*
X11684524Y-12245333D01*
X11684524Y-12245333D02*
X11684524Y-12207238D01*
X11684524Y-12207238D02*
X11675000Y-12159619D01*
X11675000Y-12159619D02*
X11665476Y-12131048D01*
X11665476Y-12131048D02*
X11655953Y-12112000D01*
X11655953Y-12112000D02*
X11636905Y-12083428D01*
X11636905Y-12083428D02*
X11627381Y-12073905D01*
D18*
X6815000Y-12409000D02*
X6995000Y-12589000D01*
X6995000Y-12409000D02*
X6815000Y-12589000D01*
X6968640Y-12562640D02*
X6968640Y-12435360D01*
X6841360Y-12435360D01*
X6841360Y-12562640D01*
X6968640Y-12562640D01*
D11*
X7347381Y-12572476D02*
X7233095Y-12572476D01*
X7290238Y-12572476D02*
X7290238Y-12372476D01*
X7290238Y-12372476D02*
X7271190Y-12401048D01*
X7271190Y-12401048D02*
X7252143Y-12420095D01*
X7252143Y-12420095D02*
X7233095Y-12429619D01*
X7433095Y-12553428D02*
X7442619Y-12562952D01*
X7442619Y-12562952D02*
X7433095Y-12572476D01*
X7433095Y-12572476D02*
X7423571Y-12562952D01*
X7423571Y-12562952D02*
X7433095Y-12553428D01*
X7433095Y-12553428D02*
X7433095Y-12572476D01*
X7556905Y-12458190D02*
X7537857Y-12448667D01*
X7537857Y-12448667D02*
X7528333Y-12439143D01*
X7528333Y-12439143D02*
X7518809Y-12420095D01*
X7518809Y-12420095D02*
X7518809Y-12410571D01*
X7518809Y-12410571D02*
X7528333Y-12391524D01*
X7528333Y-12391524D02*
X7537857Y-12382000D01*
X7537857Y-12382000D02*
X7556905Y-12372476D01*
X7556905Y-12372476D02*
X7595000Y-12372476D01*
X7595000Y-12372476D02*
X7614048Y-12382000D01*
X7614048Y-12382000D02*
X7623571Y-12391524D01*
X7623571Y-12391524D02*
X7633095Y-12410571D01*
X7633095Y-12410571D02*
X7633095Y-12420095D01*
X7633095Y-12420095D02*
X7623571Y-12439143D01*
X7623571Y-12439143D02*
X7614048Y-12448667D01*
X7614048Y-12448667D02*
X7595000Y-12458190D01*
X7595000Y-12458190D02*
X7556905Y-12458190D01*
X7556905Y-12458190D02*
X7537857Y-12467714D01*
X7537857Y-12467714D02*
X7528333Y-12477238D01*
X7528333Y-12477238D02*
X7518809Y-12496286D01*
X7518809Y-12496286D02*
X7518809Y-12534381D01*
X7518809Y-12534381D02*
X7528333Y-12553428D01*
X7528333Y-12553428D02*
X7537857Y-12562952D01*
X7537857Y-12562952D02*
X7556905Y-12572476D01*
X7556905Y-12572476D02*
X7595000Y-12572476D01*
X7595000Y-12572476D02*
X7614048Y-12562952D01*
X7614048Y-12562952D02*
X7623571Y-12553428D01*
X7623571Y-12553428D02*
X7633095Y-12534381D01*
X7633095Y-12534381D02*
X7633095Y-12496286D01*
X7633095Y-12496286D02*
X7623571Y-12477238D01*
X7623571Y-12477238D02*
X7614048Y-12467714D01*
X7614048Y-12467714D02*
X7595000Y-12458190D01*
X7756905Y-12372476D02*
X7775952Y-12372476D01*
X7775952Y-12372476D02*
X7795000Y-12382000D01*
X7795000Y-12382000D02*
X7804524Y-12391524D01*
X7804524Y-12391524D02*
X7814048Y-12410571D01*
X7814048Y-12410571D02*
X7823571Y-12448667D01*
X7823571Y-12448667D02*
X7823571Y-12496286D01*
X7823571Y-12496286D02*
X7814048Y-12534381D01*
X7814048Y-12534381D02*
X7804524Y-12553428D01*
X7804524Y-12553428D02*
X7795000Y-12562952D01*
X7795000Y-12562952D02*
X7775952Y-12572476D01*
X7775952Y-12572476D02*
X7756905Y-12572476D01*
X7756905Y-12572476D02*
X7737857Y-12562952D01*
X7737857Y-12562952D02*
X7728333Y-12553428D01*
X7728333Y-12553428D02*
X7718809Y-12534381D01*
X7718809Y-12534381D02*
X7709286Y-12496286D01*
X7709286Y-12496286D02*
X7709286Y-12448667D01*
X7709286Y-12448667D02*
X7718809Y-12410571D01*
X7718809Y-12410571D02*
X7728333Y-12391524D01*
X7728333Y-12391524D02*
X7737857Y-12382000D01*
X7737857Y-12382000D02*
X7756905Y-12372476D01*
X7947381Y-12372476D02*
X7966429Y-12372476D01*
X7966429Y-12372476D02*
X7985476Y-12382000D01*
X7985476Y-12382000D02*
X7995000Y-12391524D01*
X7995000Y-12391524D02*
X8004524Y-12410571D01*
X8004524Y-12410571D02*
X8014048Y-12448667D01*
X8014048Y-12448667D02*
X8014048Y-12496286D01*
X8014048Y-12496286D02*
X8004524Y-12534381D01*
X8004524Y-12534381D02*
X7995000Y-12553428D01*
X7995000Y-12553428D02*
X7985476Y-12562952D01*
X7985476Y-12562952D02*
X7966429Y-12572476D01*
X7966429Y-12572476D02*
X7947381Y-12572476D01*
X7947381Y-12572476D02*
X7928333Y-12562952D01*
X7928333Y-12562952D02*
X7918809Y-12553428D01*
X7918809Y-12553428D02*
X7909286Y-12534381D01*
X7909286Y-12534381D02*
X7899762Y-12496286D01*
X7899762Y-12496286D02*
X7899762Y-12448667D01*
X7899762Y-12448667D02*
X7909286Y-12410571D01*
X7909286Y-12410571D02*
X7918809Y-12391524D01*
X7918809Y-12391524D02*
X7928333Y-12382000D01*
X7928333Y-12382000D02*
X7947381Y-12372476D01*
X8099762Y-12572476D02*
X8099762Y-12439143D01*
X8099762Y-12458190D02*
X8109286Y-12448667D01*
X8109286Y-12448667D02*
X8128333Y-12439143D01*
X8128333Y-12439143D02*
X8156905Y-12439143D01*
X8156905Y-12439143D02*
X8175952Y-12448667D01*
X8175952Y-12448667D02*
X8185476Y-12467714D01*
X8185476Y-12467714D02*
X8185476Y-12572476D01*
X8185476Y-12467714D02*
X8195000Y-12448667D01*
X8195000Y-12448667D02*
X8214048Y-12439143D01*
X8214048Y-12439143D02*
X8242619Y-12439143D01*
X8242619Y-12439143D02*
X8261667Y-12448667D01*
X8261667Y-12448667D02*
X8271190Y-12467714D01*
X8271190Y-12467714D02*
X8271190Y-12572476D01*
X8366429Y-12572476D02*
X8366429Y-12439143D01*
X8366429Y-12458190D02*
X8375952Y-12448667D01*
X8375952Y-12448667D02*
X8395000Y-12439143D01*
X8395000Y-12439143D02*
X8423572Y-12439143D01*
X8423572Y-12439143D02*
X8442619Y-12448667D01*
X8442619Y-12448667D02*
X8452143Y-12467714D01*
X8452143Y-12467714D02*
X8452143Y-12572476D01*
X8452143Y-12467714D02*
X8461667Y-12448667D01*
X8461667Y-12448667D02*
X8480714Y-12439143D01*
X8480714Y-12439143D02*
X8509286Y-12439143D01*
X8509286Y-12439143D02*
X8528333Y-12448667D01*
X8528333Y-12448667D02*
X8537857Y-12467714D01*
X8537857Y-12467714D02*
X8537857Y-12572476D01*
X8895952Y-12362952D02*
X8724524Y-12620095D01*
X9120714Y-12372476D02*
X9139762Y-12372476D01*
X9139762Y-12372476D02*
X9158810Y-12382000D01*
X9158810Y-12382000D02*
X9168333Y-12391524D01*
X9168333Y-12391524D02*
X9177857Y-12410571D01*
X9177857Y-12410571D02*
X9187381Y-12448667D01*
X9187381Y-12448667D02*
X9187381Y-12496286D01*
X9187381Y-12496286D02*
X9177857Y-12534381D01*
X9177857Y-12534381D02*
X9168333Y-12553428D01*
X9168333Y-12553428D02*
X9158810Y-12562952D01*
X9158810Y-12562952D02*
X9139762Y-12572476D01*
X9139762Y-12572476D02*
X9120714Y-12572476D01*
X9120714Y-12572476D02*
X9101667Y-12562952D01*
X9101667Y-12562952D02*
X9092143Y-12553428D01*
X9092143Y-12553428D02*
X9082619Y-12534381D01*
X9082619Y-12534381D02*
X9073095Y-12496286D01*
X9073095Y-12496286D02*
X9073095Y-12448667D01*
X9073095Y-12448667D02*
X9082619Y-12410571D01*
X9082619Y-12410571D02*
X9092143Y-12391524D01*
X9092143Y-12391524D02*
X9101667Y-12382000D01*
X9101667Y-12382000D02*
X9120714Y-12372476D01*
X9273095Y-12553428D02*
X9282619Y-12562952D01*
X9282619Y-12562952D02*
X9273095Y-12572476D01*
X9273095Y-12572476D02*
X9263572Y-12562952D01*
X9263572Y-12562952D02*
X9273095Y-12553428D01*
X9273095Y-12553428D02*
X9273095Y-12572476D01*
X9406429Y-12372476D02*
X9425476Y-12372476D01*
X9425476Y-12372476D02*
X9444524Y-12382000D01*
X9444524Y-12382000D02*
X9454048Y-12391524D01*
X9454048Y-12391524D02*
X9463572Y-12410571D01*
X9463572Y-12410571D02*
X9473095Y-12448667D01*
X9473095Y-12448667D02*
X9473095Y-12496286D01*
X9473095Y-12496286D02*
X9463572Y-12534381D01*
X9463572Y-12534381D02*
X9454048Y-12553428D01*
X9454048Y-12553428D02*
X9444524Y-12562952D01*
X9444524Y-12562952D02*
X9425476Y-12572476D01*
X9425476Y-12572476D02*
X9406429Y-12572476D01*
X9406429Y-12572476D02*
X9387381Y-12562952D01*
X9387381Y-12562952D02*
X9377857Y-12553428D01*
X9377857Y-12553428D02*
X9368333Y-12534381D01*
X9368333Y-12534381D02*
X9358810Y-12496286D01*
X9358810Y-12496286D02*
X9358810Y-12448667D01*
X9358810Y-12448667D02*
X9368333Y-12410571D01*
X9368333Y-12410571D02*
X9377857Y-12391524D01*
X9377857Y-12391524D02*
X9387381Y-12382000D01*
X9387381Y-12382000D02*
X9406429Y-12372476D01*
X9539762Y-12372476D02*
X9673095Y-12372476D01*
X9673095Y-12372476D02*
X9587381Y-12572476D01*
X9787381Y-12372476D02*
X9806429Y-12372476D01*
X9806429Y-12372476D02*
X9825476Y-12382000D01*
X9825476Y-12382000D02*
X9835000Y-12391524D01*
X9835000Y-12391524D02*
X9844524Y-12410571D01*
X9844524Y-12410571D02*
X9854048Y-12448667D01*
X9854048Y-12448667D02*
X9854048Y-12496286D01*
X9854048Y-12496286D02*
X9844524Y-12534381D01*
X9844524Y-12534381D02*
X9835000Y-12553428D01*
X9835000Y-12553428D02*
X9825476Y-12562952D01*
X9825476Y-12562952D02*
X9806429Y-12572476D01*
X9806429Y-12572476D02*
X9787381Y-12572476D01*
X9787381Y-12572476D02*
X9768333Y-12562952D01*
X9768333Y-12562952D02*
X9758810Y-12553428D01*
X9758810Y-12553428D02*
X9749286Y-12534381D01*
X9749286Y-12534381D02*
X9739762Y-12496286D01*
X9739762Y-12496286D02*
X9739762Y-12448667D01*
X9739762Y-12448667D02*
X9749286Y-12410571D01*
X9749286Y-12410571D02*
X9758810Y-12391524D01*
X9758810Y-12391524D02*
X9768333Y-12382000D01*
X9768333Y-12382000D02*
X9787381Y-12372476D01*
X9949286Y-12572476D02*
X9987381Y-12572476D01*
X9987381Y-12572476D02*
X10006429Y-12562952D01*
X10006429Y-12562952D02*
X10015953Y-12553428D01*
X10015953Y-12553428D02*
X10035000Y-12524857D01*
X10035000Y-12524857D02*
X10044524Y-12486762D01*
X10044524Y-12486762D02*
X10044524Y-12410571D01*
X10044524Y-12410571D02*
X10035000Y-12391524D01*
X10035000Y-12391524D02*
X10025476Y-12382000D01*
X10025476Y-12382000D02*
X10006429Y-12372476D01*
X10006429Y-12372476D02*
X9968333Y-12372476D01*
X9968333Y-12372476D02*
X9949286Y-12382000D01*
X9949286Y-12382000D02*
X9939762Y-12391524D01*
X9939762Y-12391524D02*
X9930238Y-12410571D01*
X9930238Y-12410571D02*
X9930238Y-12458190D01*
X9930238Y-12458190D02*
X9939762Y-12477238D01*
X9939762Y-12477238D02*
X9949286Y-12486762D01*
X9949286Y-12486762D02*
X9968333Y-12496286D01*
X9968333Y-12496286D02*
X10006429Y-12496286D01*
X10006429Y-12496286D02*
X10025476Y-12486762D01*
X10025476Y-12486762D02*
X10035000Y-12477238D01*
X10035000Y-12477238D02*
X10044524Y-12458190D01*
X10120714Y-12372476D02*
X10120714Y-12410571D01*
X10196905Y-12372476D02*
X10196905Y-12410571D01*
X10459762Y-12648667D02*
X10450238Y-12639143D01*
X10450238Y-12639143D02*
X10431191Y-12610571D01*
X10431191Y-12610571D02*
X10421667Y-12591524D01*
X10421667Y-12591524D02*
X10412143Y-12562952D01*
X10412143Y-12562952D02*
X10402619Y-12515333D01*
X10402619Y-12515333D02*
X10402619Y-12477238D01*
X10402619Y-12477238D02*
X10412143Y-12429619D01*
X10412143Y-12429619D02*
X10421667Y-12401048D01*
X10421667Y-12401048D02*
X10431191Y-12382000D01*
X10431191Y-12382000D02*
X10450238Y-12353428D01*
X10450238Y-12353428D02*
X10459762Y-12343905D01*
X10574048Y-12372476D02*
X10593095Y-12372476D01*
X10593095Y-12372476D02*
X10612143Y-12382000D01*
X10612143Y-12382000D02*
X10621667Y-12391524D01*
X10621667Y-12391524D02*
X10631191Y-12410571D01*
X10631191Y-12410571D02*
X10640714Y-12448667D01*
X10640714Y-12448667D02*
X10640714Y-12496286D01*
X10640714Y-12496286D02*
X10631191Y-12534381D01*
X10631191Y-12534381D02*
X10621667Y-12553428D01*
X10621667Y-12553428D02*
X10612143Y-12562952D01*
X10612143Y-12562952D02*
X10593095Y-12572476D01*
X10593095Y-12572476D02*
X10574048Y-12572476D01*
X10574048Y-12572476D02*
X10555000Y-12562952D01*
X10555000Y-12562952D02*
X10545476Y-12553428D01*
X10545476Y-12553428D02*
X10535953Y-12534381D01*
X10535953Y-12534381D02*
X10526429Y-12496286D01*
X10526429Y-12496286D02*
X10526429Y-12448667D01*
X10526429Y-12448667D02*
X10535953Y-12410571D01*
X10535953Y-12410571D02*
X10545476Y-12391524D01*
X10545476Y-12391524D02*
X10555000Y-12382000D01*
X10555000Y-12382000D02*
X10574048Y-12372476D01*
X10846429Y-12572476D02*
X10846429Y-12372476D01*
X10932143Y-12572476D02*
X10932143Y-12467714D01*
X10932143Y-12467714D02*
X10922619Y-12448667D01*
X10922619Y-12448667D02*
X10903572Y-12439143D01*
X10903572Y-12439143D02*
X10875000Y-12439143D01*
X10875000Y-12439143D02*
X10855953Y-12448667D01*
X10855953Y-12448667D02*
X10846429Y-12458190D01*
X11055953Y-12572476D02*
X11036905Y-12562952D01*
X11036905Y-12562952D02*
X11027381Y-12553428D01*
X11027381Y-12553428D02*
X11017857Y-12534381D01*
X11017857Y-12534381D02*
X11017857Y-12477238D01*
X11017857Y-12477238D02*
X11027381Y-12458190D01*
X11027381Y-12458190D02*
X11036905Y-12448667D01*
X11036905Y-12448667D02*
X11055953Y-12439143D01*
X11055953Y-12439143D02*
X11084524Y-12439143D01*
X11084524Y-12439143D02*
X11103572Y-12448667D01*
X11103572Y-12448667D02*
X11113095Y-12458190D01*
X11113095Y-12458190D02*
X11122619Y-12477238D01*
X11122619Y-12477238D02*
X11122619Y-12534381D01*
X11122619Y-12534381D02*
X11113095Y-12553428D01*
X11113095Y-12553428D02*
X11103572Y-12562952D01*
X11103572Y-12562952D02*
X11084524Y-12572476D01*
X11084524Y-12572476D02*
X11055953Y-12572476D01*
X11236905Y-12572476D02*
X11217857Y-12562952D01*
X11217857Y-12562952D02*
X11208333Y-12543905D01*
X11208333Y-12543905D02*
X11208333Y-12372476D01*
X11389286Y-12562952D02*
X11370238Y-12572476D01*
X11370238Y-12572476D02*
X11332143Y-12572476D01*
X11332143Y-12572476D02*
X11313095Y-12562952D01*
X11313095Y-12562952D02*
X11303572Y-12543905D01*
X11303572Y-12543905D02*
X11303572Y-12467714D01*
X11303572Y-12467714D02*
X11313095Y-12448667D01*
X11313095Y-12448667D02*
X11332143Y-12439143D01*
X11332143Y-12439143D02*
X11370238Y-12439143D01*
X11370238Y-12439143D02*
X11389286Y-12448667D01*
X11389286Y-12448667D02*
X11398810Y-12467714D01*
X11398810Y-12467714D02*
X11398810Y-12486762D01*
X11398810Y-12486762D02*
X11303572Y-12505809D01*
X11475000Y-12562952D02*
X11494048Y-12572476D01*
X11494048Y-12572476D02*
X11532143Y-12572476D01*
X11532143Y-12572476D02*
X11551191Y-12562952D01*
X11551191Y-12562952D02*
X11560714Y-12543905D01*
X11560714Y-12543905D02*
X11560714Y-12534381D01*
X11560714Y-12534381D02*
X11551191Y-12515333D01*
X11551191Y-12515333D02*
X11532143Y-12505809D01*
X11532143Y-12505809D02*
X11503572Y-12505809D01*
X11503572Y-12505809D02*
X11484524Y-12496286D01*
X11484524Y-12496286D02*
X11475000Y-12477238D01*
X11475000Y-12477238D02*
X11475000Y-12467714D01*
X11475000Y-12467714D02*
X11484524Y-12448667D01*
X11484524Y-12448667D02*
X11503572Y-12439143D01*
X11503572Y-12439143D02*
X11532143Y-12439143D01*
X11532143Y-12439143D02*
X11551191Y-12448667D01*
X11766429Y-12496286D02*
X11918810Y-12496286D01*
X11842619Y-12572476D02*
X11842619Y-12420095D01*
X12124524Y-12391524D02*
X12134048Y-12382000D01*
X12134048Y-12382000D02*
X12153095Y-12372476D01*
X12153095Y-12372476D02*
X12200714Y-12372476D01*
X12200714Y-12372476D02*
X12219762Y-12382000D01*
X12219762Y-12382000D02*
X12229286Y-12391524D01*
X12229286Y-12391524D02*
X12238810Y-12410571D01*
X12238810Y-12410571D02*
X12238810Y-12429619D01*
X12238810Y-12429619D02*
X12229286Y-12458190D01*
X12229286Y-12458190D02*
X12115000Y-12572476D01*
X12115000Y-12572476D02*
X12238810Y-12572476D01*
X12435000Y-12562952D02*
X12454048Y-12572476D01*
X12454048Y-12572476D02*
X12492143Y-12572476D01*
X12492143Y-12572476D02*
X12511191Y-12562952D01*
X12511191Y-12562952D02*
X12520714Y-12543905D01*
X12520714Y-12543905D02*
X12520714Y-12534381D01*
X12520714Y-12534381D02*
X12511191Y-12515333D01*
X12511191Y-12515333D02*
X12492143Y-12505809D01*
X12492143Y-12505809D02*
X12463572Y-12505809D01*
X12463572Y-12505809D02*
X12444524Y-12496286D01*
X12444524Y-12496286D02*
X12435000Y-12477238D01*
X12435000Y-12477238D02*
X12435000Y-12467714D01*
X12435000Y-12467714D02*
X12444524Y-12448667D01*
X12444524Y-12448667D02*
X12463572Y-12439143D01*
X12463572Y-12439143D02*
X12492143Y-12439143D01*
X12492143Y-12439143D02*
X12511191Y-12448667D01*
X12635000Y-12572476D02*
X12615953Y-12562952D01*
X12615953Y-12562952D02*
X12606429Y-12543905D01*
X12606429Y-12543905D02*
X12606429Y-12372476D01*
X12739762Y-12572476D02*
X12720714Y-12562952D01*
X12720714Y-12562952D02*
X12711191Y-12553428D01*
X12711191Y-12553428D02*
X12701667Y-12534381D01*
X12701667Y-12534381D02*
X12701667Y-12477238D01*
X12701667Y-12477238D02*
X12711191Y-12458190D01*
X12711191Y-12458190D02*
X12720714Y-12448667D01*
X12720714Y-12448667D02*
X12739762Y-12439143D01*
X12739762Y-12439143D02*
X12768334Y-12439143D01*
X12768334Y-12439143D02*
X12787381Y-12448667D01*
X12787381Y-12448667D02*
X12796905Y-12458190D01*
X12796905Y-12458190D02*
X12806429Y-12477238D01*
X12806429Y-12477238D02*
X12806429Y-12534381D01*
X12806429Y-12534381D02*
X12796905Y-12553428D01*
X12796905Y-12553428D02*
X12787381Y-12562952D01*
X12787381Y-12562952D02*
X12768334Y-12572476D01*
X12768334Y-12572476D02*
X12739762Y-12572476D01*
X12863572Y-12439143D02*
X12939762Y-12439143D01*
X12892143Y-12372476D02*
X12892143Y-12543905D01*
X12892143Y-12543905D02*
X12901667Y-12562952D01*
X12901667Y-12562952D02*
X12920714Y-12572476D01*
X12920714Y-12572476D02*
X12939762Y-12572476D01*
X12996905Y-12562952D02*
X13015953Y-12572476D01*
X13015953Y-12572476D02*
X13054048Y-12572476D01*
X13054048Y-12572476D02*
X13073095Y-12562952D01*
X13073095Y-12562952D02*
X13082619Y-12543905D01*
X13082619Y-12543905D02*
X13082619Y-12534381D01*
X13082619Y-12534381D02*
X13073095Y-12515333D01*
X13073095Y-12515333D02*
X13054048Y-12505809D01*
X13054048Y-12505809D02*
X13025476Y-12505809D01*
X13025476Y-12505809D02*
X13006429Y-12496286D01*
X13006429Y-12496286D02*
X12996905Y-12477238D01*
X12996905Y-12477238D02*
X12996905Y-12467714D01*
X12996905Y-12467714D02*
X13006429Y-12448667D01*
X13006429Y-12448667D02*
X13025476Y-12439143D01*
X13025476Y-12439143D02*
X13054048Y-12439143D01*
X13054048Y-12439143D02*
X13073095Y-12448667D01*
X13149286Y-12648667D02*
X13158810Y-12639143D01*
X13158810Y-12639143D02*
X13177857Y-12610571D01*
X13177857Y-12610571D02*
X13187381Y-12591524D01*
X13187381Y-12591524D02*
X13196905Y-12562952D01*
X13196905Y-12562952D02*
X13206429Y-12515333D01*
X13206429Y-12515333D02*
X13206429Y-12477238D01*
X13206429Y-12477238D02*
X13196905Y-12429619D01*
X13196905Y-12429619D02*
X13187381Y-12401048D01*
X13187381Y-12401048D02*
X13177857Y-12382000D01*
X13177857Y-12382000D02*
X13158810Y-12353428D01*
X13158810Y-12353428D02*
X13149286Y-12343905D01*
D19*
X6810000Y-12706500D02*
X6995000Y-12891500D01*
X6995000Y-12706500D02*
X6810000Y-12891500D01*
X6902500Y-12891500D02*
X6995000Y-12799000D01*
X6902500Y-12706500D01*
X6810000Y-12799000D01*
X6902500Y-12891500D01*
D11*
X7347381Y-12872476D02*
X7233095Y-12872476D01*
X7290238Y-12872476D02*
X7290238Y-12672476D01*
X7290238Y-12672476D02*
X7271190Y-12701048D01*
X7271190Y-12701048D02*
X7252143Y-12720095D01*
X7252143Y-12720095D02*
X7233095Y-12729619D01*
X7433095Y-12853428D02*
X7442619Y-12862952D01*
X7442619Y-12862952D02*
X7433095Y-12872476D01*
X7433095Y-12872476D02*
X7423571Y-12862952D01*
X7423571Y-12862952D02*
X7433095Y-12853428D01*
X7433095Y-12853428D02*
X7433095Y-12872476D01*
X7556905Y-12758190D02*
X7537857Y-12748667D01*
X7537857Y-12748667D02*
X7528333Y-12739143D01*
X7528333Y-12739143D02*
X7518809Y-12720095D01*
X7518809Y-12720095D02*
X7518809Y-12710571D01*
X7518809Y-12710571D02*
X7528333Y-12691524D01*
X7528333Y-12691524D02*
X7537857Y-12682000D01*
X7537857Y-12682000D02*
X7556905Y-12672476D01*
X7556905Y-12672476D02*
X7595000Y-12672476D01*
X7595000Y-12672476D02*
X7614048Y-12682000D01*
X7614048Y-12682000D02*
X7623571Y-12691524D01*
X7623571Y-12691524D02*
X7633095Y-12710571D01*
X7633095Y-12710571D02*
X7633095Y-12720095D01*
X7633095Y-12720095D02*
X7623571Y-12739143D01*
X7623571Y-12739143D02*
X7614048Y-12748667D01*
X7614048Y-12748667D02*
X7595000Y-12758190D01*
X7595000Y-12758190D02*
X7556905Y-12758190D01*
X7556905Y-12758190D02*
X7537857Y-12767714D01*
X7537857Y-12767714D02*
X7528333Y-12777238D01*
X7528333Y-12777238D02*
X7518809Y-12796286D01*
X7518809Y-12796286D02*
X7518809Y-12834381D01*
X7518809Y-12834381D02*
X7528333Y-12853428D01*
X7528333Y-12853428D02*
X7537857Y-12862952D01*
X7537857Y-12862952D02*
X7556905Y-12872476D01*
X7556905Y-12872476D02*
X7595000Y-12872476D01*
X7595000Y-12872476D02*
X7614048Y-12862952D01*
X7614048Y-12862952D02*
X7623571Y-12853428D01*
X7623571Y-12853428D02*
X7633095Y-12834381D01*
X7633095Y-12834381D02*
X7633095Y-12796286D01*
X7633095Y-12796286D02*
X7623571Y-12777238D01*
X7623571Y-12777238D02*
X7614048Y-12767714D01*
X7614048Y-12767714D02*
X7595000Y-12758190D01*
X7814048Y-12672476D02*
X7718809Y-12672476D01*
X7718809Y-12672476D02*
X7709286Y-12767714D01*
X7709286Y-12767714D02*
X7718809Y-12758190D01*
X7718809Y-12758190D02*
X7737857Y-12748667D01*
X7737857Y-12748667D02*
X7785476Y-12748667D01*
X7785476Y-12748667D02*
X7804524Y-12758190D01*
X7804524Y-12758190D02*
X7814048Y-12767714D01*
X7814048Y-12767714D02*
X7823571Y-12786762D01*
X7823571Y-12786762D02*
X7823571Y-12834381D01*
X7823571Y-12834381D02*
X7814048Y-12853428D01*
X7814048Y-12853428D02*
X7804524Y-12862952D01*
X7804524Y-12862952D02*
X7785476Y-12872476D01*
X7785476Y-12872476D02*
X7737857Y-12872476D01*
X7737857Y-12872476D02*
X7718809Y-12862952D01*
X7718809Y-12862952D02*
X7709286Y-12853428D01*
X7947381Y-12672476D02*
X7966429Y-12672476D01*
X7966429Y-12672476D02*
X7985476Y-12682000D01*
X7985476Y-12682000D02*
X7995000Y-12691524D01*
X7995000Y-12691524D02*
X8004524Y-12710571D01*
X8004524Y-12710571D02*
X8014048Y-12748667D01*
X8014048Y-12748667D02*
X8014048Y-12796286D01*
X8014048Y-12796286D02*
X8004524Y-12834381D01*
X8004524Y-12834381D02*
X7995000Y-12853428D01*
X7995000Y-12853428D02*
X7985476Y-12862952D01*
X7985476Y-12862952D02*
X7966429Y-12872476D01*
X7966429Y-12872476D02*
X7947381Y-12872476D01*
X7947381Y-12872476D02*
X7928333Y-12862952D01*
X7928333Y-12862952D02*
X7918809Y-12853428D01*
X7918809Y-12853428D02*
X7909286Y-12834381D01*
X7909286Y-12834381D02*
X7899762Y-12796286D01*
X7899762Y-12796286D02*
X7899762Y-12748667D01*
X7899762Y-12748667D02*
X7909286Y-12710571D01*
X7909286Y-12710571D02*
X7918809Y-12691524D01*
X7918809Y-12691524D02*
X7928333Y-12682000D01*
X7928333Y-12682000D02*
X7947381Y-12672476D01*
X8099762Y-12872476D02*
X8099762Y-12739143D01*
X8099762Y-12758190D02*
X8109286Y-12748667D01*
X8109286Y-12748667D02*
X8128333Y-12739143D01*
X8128333Y-12739143D02*
X8156905Y-12739143D01*
X8156905Y-12739143D02*
X8175952Y-12748667D01*
X8175952Y-12748667D02*
X8185476Y-12767714D01*
X8185476Y-12767714D02*
X8185476Y-12872476D01*
X8185476Y-12767714D02*
X8195000Y-12748667D01*
X8195000Y-12748667D02*
X8214048Y-12739143D01*
X8214048Y-12739143D02*
X8242619Y-12739143D01*
X8242619Y-12739143D02*
X8261667Y-12748667D01*
X8261667Y-12748667D02*
X8271190Y-12767714D01*
X8271190Y-12767714D02*
X8271190Y-12872476D01*
X8366429Y-12872476D02*
X8366429Y-12739143D01*
X8366429Y-12758190D02*
X8375952Y-12748667D01*
X8375952Y-12748667D02*
X8395000Y-12739143D01*
X8395000Y-12739143D02*
X8423572Y-12739143D01*
X8423572Y-12739143D02*
X8442619Y-12748667D01*
X8442619Y-12748667D02*
X8452143Y-12767714D01*
X8452143Y-12767714D02*
X8452143Y-12872476D01*
X8452143Y-12767714D02*
X8461667Y-12748667D01*
X8461667Y-12748667D02*
X8480714Y-12739143D01*
X8480714Y-12739143D02*
X8509286Y-12739143D01*
X8509286Y-12739143D02*
X8528333Y-12748667D01*
X8528333Y-12748667D02*
X8537857Y-12767714D01*
X8537857Y-12767714D02*
X8537857Y-12872476D01*
X8895952Y-12662952D02*
X8724524Y-12920095D01*
X9120714Y-12672476D02*
X9139762Y-12672476D01*
X9139762Y-12672476D02*
X9158810Y-12682000D01*
X9158810Y-12682000D02*
X9168333Y-12691524D01*
X9168333Y-12691524D02*
X9177857Y-12710571D01*
X9177857Y-12710571D02*
X9187381Y-12748667D01*
X9187381Y-12748667D02*
X9187381Y-12796286D01*
X9187381Y-12796286D02*
X9177857Y-12834381D01*
X9177857Y-12834381D02*
X9168333Y-12853428D01*
X9168333Y-12853428D02*
X9158810Y-12862952D01*
X9158810Y-12862952D02*
X9139762Y-12872476D01*
X9139762Y-12872476D02*
X9120714Y-12872476D01*
X9120714Y-12872476D02*
X9101667Y-12862952D01*
X9101667Y-12862952D02*
X9092143Y-12853428D01*
X9092143Y-12853428D02*
X9082619Y-12834381D01*
X9082619Y-12834381D02*
X9073095Y-12796286D01*
X9073095Y-12796286D02*
X9073095Y-12748667D01*
X9073095Y-12748667D02*
X9082619Y-12710571D01*
X9082619Y-12710571D02*
X9092143Y-12691524D01*
X9092143Y-12691524D02*
X9101667Y-12682000D01*
X9101667Y-12682000D02*
X9120714Y-12672476D01*
X9273095Y-12853428D02*
X9282619Y-12862952D01*
X9282619Y-12862952D02*
X9273095Y-12872476D01*
X9273095Y-12872476D02*
X9263572Y-12862952D01*
X9263572Y-12862952D02*
X9273095Y-12853428D01*
X9273095Y-12853428D02*
X9273095Y-12872476D01*
X9406429Y-12672476D02*
X9425476Y-12672476D01*
X9425476Y-12672476D02*
X9444524Y-12682000D01*
X9444524Y-12682000D02*
X9454048Y-12691524D01*
X9454048Y-12691524D02*
X9463572Y-12710571D01*
X9463572Y-12710571D02*
X9473095Y-12748667D01*
X9473095Y-12748667D02*
X9473095Y-12796286D01*
X9473095Y-12796286D02*
X9463572Y-12834381D01*
X9463572Y-12834381D02*
X9454048Y-12853428D01*
X9454048Y-12853428D02*
X9444524Y-12862952D01*
X9444524Y-12862952D02*
X9425476Y-12872476D01*
X9425476Y-12872476D02*
X9406429Y-12872476D01*
X9406429Y-12872476D02*
X9387381Y-12862952D01*
X9387381Y-12862952D02*
X9377857Y-12853428D01*
X9377857Y-12853428D02*
X9368333Y-12834381D01*
X9368333Y-12834381D02*
X9358810Y-12796286D01*
X9358810Y-12796286D02*
X9358810Y-12748667D01*
X9358810Y-12748667D02*
X9368333Y-12710571D01*
X9368333Y-12710571D02*
X9377857Y-12691524D01*
X9377857Y-12691524D02*
X9387381Y-12682000D01*
X9387381Y-12682000D02*
X9406429Y-12672476D01*
X9539762Y-12672476D02*
X9673095Y-12672476D01*
X9673095Y-12672476D02*
X9587381Y-12872476D01*
X9739762Y-12691524D02*
X9749286Y-12682000D01*
X9749286Y-12682000D02*
X9768333Y-12672476D01*
X9768333Y-12672476D02*
X9815953Y-12672476D01*
X9815953Y-12672476D02*
X9835000Y-12682000D01*
X9835000Y-12682000D02*
X9844524Y-12691524D01*
X9844524Y-12691524D02*
X9854048Y-12710571D01*
X9854048Y-12710571D02*
X9854048Y-12729619D01*
X9854048Y-12729619D02*
X9844524Y-12758190D01*
X9844524Y-12758190D02*
X9730238Y-12872476D01*
X9730238Y-12872476D02*
X9854048Y-12872476D01*
X9968333Y-12758190D02*
X9949286Y-12748667D01*
X9949286Y-12748667D02*
X9939762Y-12739143D01*
X9939762Y-12739143D02*
X9930238Y-12720095D01*
X9930238Y-12720095D02*
X9930238Y-12710571D01*
X9930238Y-12710571D02*
X9939762Y-12691524D01*
X9939762Y-12691524D02*
X9949286Y-12682000D01*
X9949286Y-12682000D02*
X9968333Y-12672476D01*
X9968333Y-12672476D02*
X10006429Y-12672476D01*
X10006429Y-12672476D02*
X10025476Y-12682000D01*
X10025476Y-12682000D02*
X10035000Y-12691524D01*
X10035000Y-12691524D02*
X10044524Y-12710571D01*
X10044524Y-12710571D02*
X10044524Y-12720095D01*
X10044524Y-12720095D02*
X10035000Y-12739143D01*
X10035000Y-12739143D02*
X10025476Y-12748667D01*
X10025476Y-12748667D02*
X10006429Y-12758190D01*
X10006429Y-12758190D02*
X9968333Y-12758190D01*
X9968333Y-12758190D02*
X9949286Y-12767714D01*
X9949286Y-12767714D02*
X9939762Y-12777238D01*
X9939762Y-12777238D02*
X9930238Y-12796286D01*
X9930238Y-12796286D02*
X9930238Y-12834381D01*
X9930238Y-12834381D02*
X9939762Y-12853428D01*
X9939762Y-12853428D02*
X9949286Y-12862952D01*
X9949286Y-12862952D02*
X9968333Y-12872476D01*
X9968333Y-12872476D02*
X10006429Y-12872476D01*
X10006429Y-12872476D02*
X10025476Y-12862952D01*
X10025476Y-12862952D02*
X10035000Y-12853428D01*
X10035000Y-12853428D02*
X10044524Y-12834381D01*
X10044524Y-12834381D02*
X10044524Y-12796286D01*
X10044524Y-12796286D02*
X10035000Y-12777238D01*
X10035000Y-12777238D02*
X10025476Y-12767714D01*
X10025476Y-12767714D02*
X10006429Y-12758190D01*
X10120714Y-12672476D02*
X10120714Y-12710571D01*
X10196905Y-12672476D02*
X10196905Y-12710571D01*
X10459762Y-12948667D02*
X10450238Y-12939143D01*
X10450238Y-12939143D02*
X10431191Y-12910571D01*
X10431191Y-12910571D02*
X10421667Y-12891524D01*
X10421667Y-12891524D02*
X10412143Y-12862952D01*
X10412143Y-12862952D02*
X10402619Y-12815333D01*
X10402619Y-12815333D02*
X10402619Y-12777238D01*
X10402619Y-12777238D02*
X10412143Y-12729619D01*
X10412143Y-12729619D02*
X10421667Y-12701048D01*
X10421667Y-12701048D02*
X10431191Y-12682000D01*
X10431191Y-12682000D02*
X10450238Y-12653428D01*
X10450238Y-12653428D02*
X10459762Y-12643905D01*
X10516905Y-12672476D02*
X10640714Y-12672476D01*
X10640714Y-12672476D02*
X10574048Y-12748667D01*
X10574048Y-12748667D02*
X10602619Y-12748667D01*
X10602619Y-12748667D02*
X10621667Y-12758190D01*
X10621667Y-12758190D02*
X10631191Y-12767714D01*
X10631191Y-12767714D02*
X10640714Y-12786762D01*
X10640714Y-12786762D02*
X10640714Y-12834381D01*
X10640714Y-12834381D02*
X10631191Y-12853428D01*
X10631191Y-12853428D02*
X10621667Y-12862952D01*
X10621667Y-12862952D02*
X10602619Y-12872476D01*
X10602619Y-12872476D02*
X10545476Y-12872476D01*
X10545476Y-12872476D02*
X10526429Y-12862952D01*
X10526429Y-12862952D02*
X10516905Y-12853428D01*
X10846429Y-12872476D02*
X10846429Y-12672476D01*
X10932143Y-12872476D02*
X10932143Y-12767714D01*
X10932143Y-12767714D02*
X10922619Y-12748667D01*
X10922619Y-12748667D02*
X10903572Y-12739143D01*
X10903572Y-12739143D02*
X10875000Y-12739143D01*
X10875000Y-12739143D02*
X10855953Y-12748667D01*
X10855953Y-12748667D02*
X10846429Y-12758190D01*
X11055953Y-12872476D02*
X11036905Y-12862952D01*
X11036905Y-12862952D02*
X11027381Y-12853428D01*
X11027381Y-12853428D02*
X11017857Y-12834381D01*
X11017857Y-12834381D02*
X11017857Y-12777238D01*
X11017857Y-12777238D02*
X11027381Y-12758190D01*
X11027381Y-12758190D02*
X11036905Y-12748667D01*
X11036905Y-12748667D02*
X11055953Y-12739143D01*
X11055953Y-12739143D02*
X11084524Y-12739143D01*
X11084524Y-12739143D02*
X11103572Y-12748667D01*
X11103572Y-12748667D02*
X11113095Y-12758190D01*
X11113095Y-12758190D02*
X11122619Y-12777238D01*
X11122619Y-12777238D02*
X11122619Y-12834381D01*
X11122619Y-12834381D02*
X11113095Y-12853428D01*
X11113095Y-12853428D02*
X11103572Y-12862952D01*
X11103572Y-12862952D02*
X11084524Y-12872476D01*
X11084524Y-12872476D02*
X11055953Y-12872476D01*
X11236905Y-12872476D02*
X11217857Y-12862952D01*
X11217857Y-12862952D02*
X11208333Y-12843905D01*
X11208333Y-12843905D02*
X11208333Y-12672476D01*
X11389286Y-12862952D02*
X11370238Y-12872476D01*
X11370238Y-12872476D02*
X11332143Y-12872476D01*
X11332143Y-12872476D02*
X11313095Y-12862952D01*
X11313095Y-12862952D02*
X11303572Y-12843905D01*
X11303572Y-12843905D02*
X11303572Y-12767714D01*
X11303572Y-12767714D02*
X11313095Y-12748667D01*
X11313095Y-12748667D02*
X11332143Y-12739143D01*
X11332143Y-12739143D02*
X11370238Y-12739143D01*
X11370238Y-12739143D02*
X11389286Y-12748667D01*
X11389286Y-12748667D02*
X11398810Y-12767714D01*
X11398810Y-12767714D02*
X11398810Y-12786762D01*
X11398810Y-12786762D02*
X11303572Y-12805809D01*
X11475000Y-12862952D02*
X11494048Y-12872476D01*
X11494048Y-12872476D02*
X11532143Y-12872476D01*
X11532143Y-12872476D02*
X11551191Y-12862952D01*
X11551191Y-12862952D02*
X11560714Y-12843905D01*
X11560714Y-12843905D02*
X11560714Y-12834381D01*
X11560714Y-12834381D02*
X11551191Y-12815333D01*
X11551191Y-12815333D02*
X11532143Y-12805809D01*
X11532143Y-12805809D02*
X11503572Y-12805809D01*
X11503572Y-12805809D02*
X11484524Y-12796286D01*
X11484524Y-12796286D02*
X11475000Y-12777238D01*
X11475000Y-12777238D02*
X11475000Y-12767714D01*
X11475000Y-12767714D02*
X11484524Y-12748667D01*
X11484524Y-12748667D02*
X11503572Y-12739143D01*
X11503572Y-12739143D02*
X11532143Y-12739143D01*
X11532143Y-12739143D02*
X11551191Y-12748667D01*
X11627381Y-12948667D02*
X11636905Y-12939143D01*
X11636905Y-12939143D02*
X11655953Y-12910571D01*
X11655953Y-12910571D02*
X11665476Y-12891524D01*
X11665476Y-12891524D02*
X11675000Y-12862952D01*
X11675000Y-12862952D02*
X11684524Y-12815333D01*
X11684524Y-12815333D02*
X11684524Y-12777238D01*
X11684524Y-12777238D02*
X11675000Y-12729619D01*
X11675000Y-12729619D02*
X11665476Y-12701048D01*
X11665476Y-12701048D02*
X11655953Y-12682000D01*
X11655953Y-12682000D02*
X11636905Y-12653428D01*
X11636905Y-12653428D02*
X11627381Y-12643905D01*
X6895000Y-13004000D02*
X6895000Y-13204000D01*
X6795000Y-13104000D02*
X6995000Y-13104000D01*
X6995000Y-13104000D02*
G75*
G03*
X6995000Y-13104000I-100000J0D01*
G01*
X7233095Y-12996524D02*
X7242619Y-12987000D01*
X7242619Y-12987000D02*
X7261667Y-12977476D01*
X7261667Y-12977476D02*
X7309286Y-12977476D01*
X7309286Y-12977476D02*
X7328333Y-12987000D01*
X7328333Y-12987000D02*
X7337857Y-12996524D01*
X7337857Y-12996524D02*
X7347381Y-13015571D01*
X7347381Y-13015571D02*
X7347381Y-13034619D01*
X7347381Y-13034619D02*
X7337857Y-13063190D01*
X7337857Y-13063190D02*
X7223571Y-13177476D01*
X7223571Y-13177476D02*
X7347381Y-13177476D01*
X7433095Y-13158428D02*
X7442619Y-13167952D01*
X7442619Y-13167952D02*
X7433095Y-13177476D01*
X7433095Y-13177476D02*
X7423571Y-13167952D01*
X7423571Y-13167952D02*
X7433095Y-13158428D01*
X7433095Y-13158428D02*
X7433095Y-13177476D01*
X7509286Y-12977476D02*
X7633095Y-12977476D01*
X7633095Y-12977476D02*
X7566428Y-13053667D01*
X7566428Y-13053667D02*
X7595000Y-13053667D01*
X7595000Y-13053667D02*
X7614048Y-13063190D01*
X7614048Y-13063190D02*
X7623571Y-13072714D01*
X7623571Y-13072714D02*
X7633095Y-13091762D01*
X7633095Y-13091762D02*
X7633095Y-13139381D01*
X7633095Y-13139381D02*
X7623571Y-13158428D01*
X7623571Y-13158428D02*
X7614048Y-13167952D01*
X7614048Y-13167952D02*
X7595000Y-13177476D01*
X7595000Y-13177476D02*
X7537857Y-13177476D01*
X7537857Y-13177476D02*
X7518809Y-13167952D01*
X7518809Y-13167952D02*
X7509286Y-13158428D01*
X7699762Y-12977476D02*
X7823571Y-12977476D01*
X7823571Y-12977476D02*
X7756905Y-13053667D01*
X7756905Y-13053667D02*
X7785476Y-13053667D01*
X7785476Y-13053667D02*
X7804524Y-13063190D01*
X7804524Y-13063190D02*
X7814048Y-13072714D01*
X7814048Y-13072714D02*
X7823571Y-13091762D01*
X7823571Y-13091762D02*
X7823571Y-13139381D01*
X7823571Y-13139381D02*
X7814048Y-13158428D01*
X7814048Y-13158428D02*
X7804524Y-13167952D01*
X7804524Y-13167952D02*
X7785476Y-13177476D01*
X7785476Y-13177476D02*
X7728333Y-13177476D01*
X7728333Y-13177476D02*
X7709286Y-13167952D01*
X7709286Y-13167952D02*
X7699762Y-13158428D01*
X7947381Y-12977476D02*
X7966429Y-12977476D01*
X7966429Y-12977476D02*
X7985476Y-12987000D01*
X7985476Y-12987000D02*
X7995000Y-12996524D01*
X7995000Y-12996524D02*
X8004524Y-13015571D01*
X8004524Y-13015571D02*
X8014048Y-13053667D01*
X8014048Y-13053667D02*
X8014048Y-13101286D01*
X8014048Y-13101286D02*
X8004524Y-13139381D01*
X8004524Y-13139381D02*
X7995000Y-13158428D01*
X7995000Y-13158428D02*
X7985476Y-13167952D01*
X7985476Y-13167952D02*
X7966429Y-13177476D01*
X7966429Y-13177476D02*
X7947381Y-13177476D01*
X7947381Y-13177476D02*
X7928333Y-13167952D01*
X7928333Y-13167952D02*
X7918809Y-13158428D01*
X7918809Y-13158428D02*
X7909286Y-13139381D01*
X7909286Y-13139381D02*
X7899762Y-13101286D01*
X7899762Y-13101286D02*
X7899762Y-13053667D01*
X7899762Y-13053667D02*
X7909286Y-13015571D01*
X7909286Y-13015571D02*
X7918809Y-12996524D01*
X7918809Y-12996524D02*
X7928333Y-12987000D01*
X7928333Y-12987000D02*
X7947381Y-12977476D01*
X8099762Y-13177476D02*
X8099762Y-13044143D01*
X8099762Y-13063190D02*
X8109286Y-13053667D01*
X8109286Y-13053667D02*
X8128333Y-13044143D01*
X8128333Y-13044143D02*
X8156905Y-13044143D01*
X8156905Y-13044143D02*
X8175952Y-13053667D01*
X8175952Y-13053667D02*
X8185476Y-13072714D01*
X8185476Y-13072714D02*
X8185476Y-13177476D01*
X8185476Y-13072714D02*
X8195000Y-13053667D01*
X8195000Y-13053667D02*
X8214048Y-13044143D01*
X8214048Y-13044143D02*
X8242619Y-13044143D01*
X8242619Y-13044143D02*
X8261667Y-13053667D01*
X8261667Y-13053667D02*
X8271190Y-13072714D01*
X8271190Y-13072714D02*
X8271190Y-13177476D01*
X8366429Y-13177476D02*
X8366429Y-13044143D01*
X8366429Y-13063190D02*
X8375952Y-13053667D01*
X8375952Y-13053667D02*
X8395000Y-13044143D01*
X8395000Y-13044143D02*
X8423572Y-13044143D01*
X8423572Y-13044143D02*
X8442619Y-13053667D01*
X8442619Y-13053667D02*
X8452143Y-13072714D01*
X8452143Y-13072714D02*
X8452143Y-13177476D01*
X8452143Y-13072714D02*
X8461667Y-13053667D01*
X8461667Y-13053667D02*
X8480714Y-13044143D01*
X8480714Y-13044143D02*
X8509286Y-13044143D01*
X8509286Y-13044143D02*
X8528333Y-13053667D01*
X8528333Y-13053667D02*
X8537857Y-13072714D01*
X8537857Y-13072714D02*
X8537857Y-13177476D01*
X8895952Y-12967952D02*
X8724524Y-13225095D01*
X9120714Y-12977476D02*
X9139762Y-12977476D01*
X9139762Y-12977476D02*
X9158810Y-12987000D01*
X9158810Y-12987000D02*
X9168333Y-12996524D01*
X9168333Y-12996524D02*
X9177857Y-13015571D01*
X9177857Y-13015571D02*
X9187381Y-13053667D01*
X9187381Y-13053667D02*
X9187381Y-13101286D01*
X9187381Y-13101286D02*
X9177857Y-13139381D01*
X9177857Y-13139381D02*
X9168333Y-13158428D01*
X9168333Y-13158428D02*
X9158810Y-13167952D01*
X9158810Y-13167952D02*
X9139762Y-13177476D01*
X9139762Y-13177476D02*
X9120714Y-13177476D01*
X9120714Y-13177476D02*
X9101667Y-13167952D01*
X9101667Y-13167952D02*
X9092143Y-13158428D01*
X9092143Y-13158428D02*
X9082619Y-13139381D01*
X9082619Y-13139381D02*
X9073095Y-13101286D01*
X9073095Y-13101286D02*
X9073095Y-13053667D01*
X9073095Y-13053667D02*
X9082619Y-13015571D01*
X9082619Y-13015571D02*
X9092143Y-12996524D01*
X9092143Y-12996524D02*
X9101667Y-12987000D01*
X9101667Y-12987000D02*
X9120714Y-12977476D01*
X9273095Y-13158428D02*
X9282619Y-13167952D01*
X9282619Y-13167952D02*
X9273095Y-13177476D01*
X9273095Y-13177476D02*
X9263572Y-13167952D01*
X9263572Y-13167952D02*
X9273095Y-13158428D01*
X9273095Y-13158428D02*
X9273095Y-13177476D01*
X9406429Y-12977476D02*
X9425476Y-12977476D01*
X9425476Y-12977476D02*
X9444524Y-12987000D01*
X9444524Y-12987000D02*
X9454048Y-12996524D01*
X9454048Y-12996524D02*
X9463572Y-13015571D01*
X9463572Y-13015571D02*
X9473095Y-13053667D01*
X9473095Y-13053667D02*
X9473095Y-13101286D01*
X9473095Y-13101286D02*
X9463572Y-13139381D01*
X9463572Y-13139381D02*
X9454048Y-13158428D01*
X9454048Y-13158428D02*
X9444524Y-13167952D01*
X9444524Y-13167952D02*
X9425476Y-13177476D01*
X9425476Y-13177476D02*
X9406429Y-13177476D01*
X9406429Y-13177476D02*
X9387381Y-13167952D01*
X9387381Y-13167952D02*
X9377857Y-13158428D01*
X9377857Y-13158428D02*
X9368333Y-13139381D01*
X9368333Y-13139381D02*
X9358810Y-13101286D01*
X9358810Y-13101286D02*
X9358810Y-13053667D01*
X9358810Y-13053667D02*
X9368333Y-13015571D01*
X9368333Y-13015571D02*
X9377857Y-12996524D01*
X9377857Y-12996524D02*
X9387381Y-12987000D01*
X9387381Y-12987000D02*
X9406429Y-12977476D01*
X9568333Y-13177476D02*
X9606429Y-13177476D01*
X9606429Y-13177476D02*
X9625476Y-13167952D01*
X9625476Y-13167952D02*
X9635000Y-13158428D01*
X9635000Y-13158428D02*
X9654048Y-13129857D01*
X9654048Y-13129857D02*
X9663572Y-13091762D01*
X9663572Y-13091762D02*
X9663572Y-13015571D01*
X9663572Y-13015571D02*
X9654048Y-12996524D01*
X9654048Y-12996524D02*
X9644524Y-12987000D01*
X9644524Y-12987000D02*
X9625476Y-12977476D01*
X9625476Y-12977476D02*
X9587381Y-12977476D01*
X9587381Y-12977476D02*
X9568333Y-12987000D01*
X9568333Y-12987000D02*
X9558810Y-12996524D01*
X9558810Y-12996524D02*
X9549286Y-13015571D01*
X9549286Y-13015571D02*
X9549286Y-13063190D01*
X9549286Y-13063190D02*
X9558810Y-13082238D01*
X9558810Y-13082238D02*
X9568333Y-13091762D01*
X9568333Y-13091762D02*
X9587381Y-13101286D01*
X9587381Y-13101286D02*
X9625476Y-13101286D01*
X9625476Y-13101286D02*
X9644524Y-13091762D01*
X9644524Y-13091762D02*
X9654048Y-13082238D01*
X9654048Y-13082238D02*
X9663572Y-13063190D01*
X9854048Y-13177476D02*
X9739762Y-13177476D01*
X9796905Y-13177476D02*
X9796905Y-12977476D01*
X9796905Y-12977476D02*
X9777857Y-13006048D01*
X9777857Y-13006048D02*
X9758810Y-13025095D01*
X9758810Y-13025095D02*
X9739762Y-13034619D01*
X9920714Y-12977476D02*
X10054048Y-12977476D01*
X10054048Y-12977476D02*
X9968333Y-13177476D01*
X10120714Y-12977476D02*
X10120714Y-13015571D01*
X10196905Y-12977476D02*
X10196905Y-13015571D01*
X10459762Y-13253667D02*
X10450238Y-13244143D01*
X10450238Y-13244143D02*
X10431191Y-13215571D01*
X10431191Y-13215571D02*
X10421667Y-13196524D01*
X10421667Y-13196524D02*
X10412143Y-13167952D01*
X10412143Y-13167952D02*
X10402619Y-13120333D01*
X10402619Y-13120333D02*
X10402619Y-13082238D01*
X10402619Y-13082238D02*
X10412143Y-13034619D01*
X10412143Y-13034619D02*
X10421667Y-13006048D01*
X10421667Y-13006048D02*
X10431191Y-12987000D01*
X10431191Y-12987000D02*
X10450238Y-12958428D01*
X10450238Y-12958428D02*
X10459762Y-12948905D01*
X10526429Y-12996524D02*
X10535953Y-12987000D01*
X10535953Y-12987000D02*
X10555000Y-12977476D01*
X10555000Y-12977476D02*
X10602619Y-12977476D01*
X10602619Y-12977476D02*
X10621667Y-12987000D01*
X10621667Y-12987000D02*
X10631191Y-12996524D01*
X10631191Y-12996524D02*
X10640714Y-13015571D01*
X10640714Y-13015571D02*
X10640714Y-13034619D01*
X10640714Y-13034619D02*
X10631191Y-13063190D01*
X10631191Y-13063190D02*
X10516905Y-13177476D01*
X10516905Y-13177476D02*
X10640714Y-13177476D01*
X10846429Y-13177476D02*
X10846429Y-12977476D01*
X10932143Y-13177476D02*
X10932143Y-13072714D01*
X10932143Y-13072714D02*
X10922619Y-13053667D01*
X10922619Y-13053667D02*
X10903572Y-13044143D01*
X10903572Y-13044143D02*
X10875000Y-13044143D01*
X10875000Y-13044143D02*
X10855953Y-13053667D01*
X10855953Y-13053667D02*
X10846429Y-13063190D01*
X11055953Y-13177476D02*
X11036905Y-13167952D01*
X11036905Y-13167952D02*
X11027381Y-13158428D01*
X11027381Y-13158428D02*
X11017857Y-13139381D01*
X11017857Y-13139381D02*
X11017857Y-13082238D01*
X11017857Y-13082238D02*
X11027381Y-13063190D01*
X11027381Y-13063190D02*
X11036905Y-13053667D01*
X11036905Y-13053667D02*
X11055953Y-13044143D01*
X11055953Y-13044143D02*
X11084524Y-13044143D01*
X11084524Y-13044143D02*
X11103572Y-13053667D01*
X11103572Y-13053667D02*
X11113095Y-13063190D01*
X11113095Y-13063190D02*
X11122619Y-13082238D01*
X11122619Y-13082238D02*
X11122619Y-13139381D01*
X11122619Y-13139381D02*
X11113095Y-13158428D01*
X11113095Y-13158428D02*
X11103572Y-13167952D01*
X11103572Y-13167952D02*
X11084524Y-13177476D01*
X11084524Y-13177476D02*
X11055953Y-13177476D01*
X11236905Y-13177476D02*
X11217857Y-13167952D01*
X11217857Y-13167952D02*
X11208333Y-13148905D01*
X11208333Y-13148905D02*
X11208333Y-12977476D01*
X11389286Y-13167952D02*
X11370238Y-13177476D01*
X11370238Y-13177476D02*
X11332143Y-13177476D01*
X11332143Y-13177476D02*
X11313095Y-13167952D01*
X11313095Y-13167952D02*
X11303572Y-13148905D01*
X11303572Y-13148905D02*
X11303572Y-13072714D01*
X11303572Y-13072714D02*
X11313095Y-13053667D01*
X11313095Y-13053667D02*
X11332143Y-13044143D01*
X11332143Y-13044143D02*
X11370238Y-13044143D01*
X11370238Y-13044143D02*
X11389286Y-13053667D01*
X11389286Y-13053667D02*
X11398810Y-13072714D01*
X11398810Y-13072714D02*
X11398810Y-13091762D01*
X11398810Y-13091762D02*
X11303572Y-13110809D01*
X11475000Y-13167952D02*
X11494048Y-13177476D01*
X11494048Y-13177476D02*
X11532143Y-13177476D01*
X11532143Y-13177476D02*
X11551191Y-13167952D01*
X11551191Y-13167952D02*
X11560714Y-13148905D01*
X11560714Y-13148905D02*
X11560714Y-13139381D01*
X11560714Y-13139381D02*
X11551191Y-13120333D01*
X11551191Y-13120333D02*
X11532143Y-13110809D01*
X11532143Y-13110809D02*
X11503572Y-13110809D01*
X11503572Y-13110809D02*
X11484524Y-13101286D01*
X11484524Y-13101286D02*
X11475000Y-13082238D01*
X11475000Y-13082238D02*
X11475000Y-13072714D01*
X11475000Y-13072714D02*
X11484524Y-13053667D01*
X11484524Y-13053667D02*
X11503572Y-13044143D01*
X11503572Y-13044143D02*
X11532143Y-13044143D01*
X11532143Y-13044143D02*
X11551191Y-13053667D01*
X11627381Y-13253667D02*
X11636905Y-13244143D01*
X11636905Y-13244143D02*
X11655953Y-13215571D01*
X11655953Y-13215571D02*
X11665476Y-13196524D01*
X11665476Y-13196524D02*
X11675000Y-13167952D01*
X11675000Y-13167952D02*
X11684524Y-13120333D01*
X11684524Y-13120333D02*
X11684524Y-13082238D01*
X11684524Y-13082238D02*
X11675000Y-13034619D01*
X11675000Y-13034619D02*
X11665476Y-13006048D01*
X11665476Y-13006048D02*
X11655953Y-12987000D01*
X11655953Y-12987000D02*
X11636905Y-12958428D01*
X11636905Y-12958428D02*
X11627381Y-12948905D01*
X6965711Y-13494711D02*
X6965711Y-13353289D01*
X6824289Y-13353289D01*
X6824289Y-13494711D01*
X6965711Y-13494711D01*
X6995000Y-13424000D02*
G75*
G03*
X6995000Y-13424000I-100000J0D01*
G01*
X7223571Y-13297476D02*
X7347381Y-13297476D01*
X7347381Y-13297476D02*
X7280714Y-13373667D01*
X7280714Y-13373667D02*
X7309286Y-13373667D01*
X7309286Y-13373667D02*
X7328333Y-13383190D01*
X7328333Y-13383190D02*
X7337857Y-13392714D01*
X7337857Y-13392714D02*
X7347381Y-13411762D01*
X7347381Y-13411762D02*
X7347381Y-13459381D01*
X7347381Y-13459381D02*
X7337857Y-13478428D01*
X7337857Y-13478428D02*
X7328333Y-13487952D01*
X7328333Y-13487952D02*
X7309286Y-13497476D01*
X7309286Y-13497476D02*
X7252143Y-13497476D01*
X7252143Y-13497476D02*
X7233095Y-13487952D01*
X7233095Y-13487952D02*
X7223571Y-13478428D01*
X7433095Y-13478428D02*
X7442619Y-13487952D01*
X7442619Y-13487952D02*
X7433095Y-13497476D01*
X7433095Y-13497476D02*
X7423571Y-13487952D01*
X7423571Y-13487952D02*
X7433095Y-13478428D01*
X7433095Y-13478428D02*
X7433095Y-13497476D01*
X7518809Y-13316524D02*
X7528333Y-13307000D01*
X7528333Y-13307000D02*
X7547381Y-13297476D01*
X7547381Y-13297476D02*
X7595000Y-13297476D01*
X7595000Y-13297476D02*
X7614048Y-13307000D01*
X7614048Y-13307000D02*
X7623571Y-13316524D01*
X7623571Y-13316524D02*
X7633095Y-13335571D01*
X7633095Y-13335571D02*
X7633095Y-13354619D01*
X7633095Y-13354619D02*
X7623571Y-13383190D01*
X7623571Y-13383190D02*
X7509286Y-13497476D01*
X7509286Y-13497476D02*
X7633095Y-13497476D01*
X7756905Y-13297476D02*
X7775952Y-13297476D01*
X7775952Y-13297476D02*
X7795000Y-13307000D01*
X7795000Y-13307000D02*
X7804524Y-13316524D01*
X7804524Y-13316524D02*
X7814048Y-13335571D01*
X7814048Y-13335571D02*
X7823571Y-13373667D01*
X7823571Y-13373667D02*
X7823571Y-13421286D01*
X7823571Y-13421286D02*
X7814048Y-13459381D01*
X7814048Y-13459381D02*
X7804524Y-13478428D01*
X7804524Y-13478428D02*
X7795000Y-13487952D01*
X7795000Y-13487952D02*
X7775952Y-13497476D01*
X7775952Y-13497476D02*
X7756905Y-13497476D01*
X7756905Y-13497476D02*
X7737857Y-13487952D01*
X7737857Y-13487952D02*
X7728333Y-13478428D01*
X7728333Y-13478428D02*
X7718809Y-13459381D01*
X7718809Y-13459381D02*
X7709286Y-13421286D01*
X7709286Y-13421286D02*
X7709286Y-13373667D01*
X7709286Y-13373667D02*
X7718809Y-13335571D01*
X7718809Y-13335571D02*
X7728333Y-13316524D01*
X7728333Y-13316524D02*
X7737857Y-13307000D01*
X7737857Y-13307000D02*
X7756905Y-13297476D01*
X7947381Y-13297476D02*
X7966429Y-13297476D01*
X7966429Y-13297476D02*
X7985476Y-13307000D01*
X7985476Y-13307000D02*
X7995000Y-13316524D01*
X7995000Y-13316524D02*
X8004524Y-13335571D01*
X8004524Y-13335571D02*
X8014048Y-13373667D01*
X8014048Y-13373667D02*
X8014048Y-13421286D01*
X8014048Y-13421286D02*
X8004524Y-13459381D01*
X8004524Y-13459381D02*
X7995000Y-13478428D01*
X7995000Y-13478428D02*
X7985476Y-13487952D01*
X7985476Y-13487952D02*
X7966429Y-13497476D01*
X7966429Y-13497476D02*
X7947381Y-13497476D01*
X7947381Y-13497476D02*
X7928333Y-13487952D01*
X7928333Y-13487952D02*
X7918809Y-13478428D01*
X7918809Y-13478428D02*
X7909286Y-13459381D01*
X7909286Y-13459381D02*
X7899762Y-13421286D01*
X7899762Y-13421286D02*
X7899762Y-13373667D01*
X7899762Y-13373667D02*
X7909286Y-13335571D01*
X7909286Y-13335571D02*
X7918809Y-13316524D01*
X7918809Y-13316524D02*
X7928333Y-13307000D01*
X7928333Y-13307000D02*
X7947381Y-13297476D01*
X8099762Y-13497476D02*
X8099762Y-13364143D01*
X8099762Y-13383190D02*
X8109286Y-13373667D01*
X8109286Y-13373667D02*
X8128333Y-13364143D01*
X8128333Y-13364143D02*
X8156905Y-13364143D01*
X8156905Y-13364143D02*
X8175952Y-13373667D01*
X8175952Y-13373667D02*
X8185476Y-13392714D01*
X8185476Y-13392714D02*
X8185476Y-13497476D01*
X8185476Y-13392714D02*
X8195000Y-13373667D01*
X8195000Y-13373667D02*
X8214048Y-13364143D01*
X8214048Y-13364143D02*
X8242619Y-13364143D01*
X8242619Y-13364143D02*
X8261667Y-13373667D01*
X8261667Y-13373667D02*
X8271190Y-13392714D01*
X8271190Y-13392714D02*
X8271190Y-13497476D01*
X8366429Y-13497476D02*
X8366429Y-13364143D01*
X8366429Y-13383190D02*
X8375952Y-13373667D01*
X8375952Y-13373667D02*
X8395000Y-13364143D01*
X8395000Y-13364143D02*
X8423572Y-13364143D01*
X8423572Y-13364143D02*
X8442619Y-13373667D01*
X8442619Y-13373667D02*
X8452143Y-13392714D01*
X8452143Y-13392714D02*
X8452143Y-13497476D01*
X8452143Y-13392714D02*
X8461667Y-13373667D01*
X8461667Y-13373667D02*
X8480714Y-13364143D01*
X8480714Y-13364143D02*
X8509286Y-13364143D01*
X8509286Y-13364143D02*
X8528333Y-13373667D01*
X8528333Y-13373667D02*
X8537857Y-13392714D01*
X8537857Y-13392714D02*
X8537857Y-13497476D01*
X8895952Y-13287952D02*
X8724524Y-13545095D01*
X9120714Y-13297476D02*
X9139762Y-13297476D01*
X9139762Y-13297476D02*
X9158810Y-13307000D01*
X9158810Y-13307000D02*
X9168333Y-13316524D01*
X9168333Y-13316524D02*
X9177857Y-13335571D01*
X9177857Y-13335571D02*
X9187381Y-13373667D01*
X9187381Y-13373667D02*
X9187381Y-13421286D01*
X9187381Y-13421286D02*
X9177857Y-13459381D01*
X9177857Y-13459381D02*
X9168333Y-13478428D01*
X9168333Y-13478428D02*
X9158810Y-13487952D01*
X9158810Y-13487952D02*
X9139762Y-13497476D01*
X9139762Y-13497476D02*
X9120714Y-13497476D01*
X9120714Y-13497476D02*
X9101667Y-13487952D01*
X9101667Y-13487952D02*
X9092143Y-13478428D01*
X9092143Y-13478428D02*
X9082619Y-13459381D01*
X9082619Y-13459381D02*
X9073095Y-13421286D01*
X9073095Y-13421286D02*
X9073095Y-13373667D01*
X9073095Y-13373667D02*
X9082619Y-13335571D01*
X9082619Y-13335571D02*
X9092143Y-13316524D01*
X9092143Y-13316524D02*
X9101667Y-13307000D01*
X9101667Y-13307000D02*
X9120714Y-13297476D01*
X9273095Y-13478428D02*
X9282619Y-13487952D01*
X9282619Y-13487952D02*
X9273095Y-13497476D01*
X9273095Y-13497476D02*
X9263572Y-13487952D01*
X9263572Y-13487952D02*
X9273095Y-13478428D01*
X9273095Y-13478428D02*
X9273095Y-13497476D01*
X9473095Y-13497476D02*
X9358810Y-13497476D01*
X9415952Y-13497476D02*
X9415952Y-13297476D01*
X9415952Y-13297476D02*
X9396905Y-13326048D01*
X9396905Y-13326048D02*
X9377857Y-13345095D01*
X9377857Y-13345095D02*
X9358810Y-13354619D01*
X9549286Y-13316524D02*
X9558810Y-13307000D01*
X9558810Y-13307000D02*
X9577857Y-13297476D01*
X9577857Y-13297476D02*
X9625476Y-13297476D01*
X9625476Y-13297476D02*
X9644524Y-13307000D01*
X9644524Y-13307000D02*
X9654048Y-13316524D01*
X9654048Y-13316524D02*
X9663572Y-13335571D01*
X9663572Y-13335571D02*
X9663572Y-13354619D01*
X9663572Y-13354619D02*
X9654048Y-13383190D01*
X9654048Y-13383190D02*
X9539762Y-13497476D01*
X9539762Y-13497476D02*
X9663572Y-13497476D01*
X9835000Y-13297476D02*
X9796905Y-13297476D01*
X9796905Y-13297476D02*
X9777857Y-13307000D01*
X9777857Y-13307000D02*
X9768333Y-13316524D01*
X9768333Y-13316524D02*
X9749286Y-13345095D01*
X9749286Y-13345095D02*
X9739762Y-13383190D01*
X9739762Y-13383190D02*
X9739762Y-13459381D01*
X9739762Y-13459381D02*
X9749286Y-13478428D01*
X9749286Y-13478428D02*
X9758810Y-13487952D01*
X9758810Y-13487952D02*
X9777857Y-13497476D01*
X9777857Y-13497476D02*
X9815953Y-13497476D01*
X9815953Y-13497476D02*
X9835000Y-13487952D01*
X9835000Y-13487952D02*
X9844524Y-13478428D01*
X9844524Y-13478428D02*
X9854048Y-13459381D01*
X9854048Y-13459381D02*
X9854048Y-13411762D01*
X9854048Y-13411762D02*
X9844524Y-13392714D01*
X9844524Y-13392714D02*
X9835000Y-13383190D01*
X9835000Y-13383190D02*
X9815953Y-13373667D01*
X9815953Y-13373667D02*
X9777857Y-13373667D01*
X9777857Y-13373667D02*
X9758810Y-13383190D01*
X9758810Y-13383190D02*
X9749286Y-13392714D01*
X9749286Y-13392714D02*
X9739762Y-13411762D01*
X9977857Y-13297476D02*
X9996905Y-13297476D01*
X9996905Y-13297476D02*
X10015953Y-13307000D01*
X10015953Y-13307000D02*
X10025476Y-13316524D01*
X10025476Y-13316524D02*
X10035000Y-13335571D01*
X10035000Y-13335571D02*
X10044524Y-13373667D01*
X10044524Y-13373667D02*
X10044524Y-13421286D01*
X10044524Y-13421286D02*
X10035000Y-13459381D01*
X10035000Y-13459381D02*
X10025476Y-13478428D01*
X10025476Y-13478428D02*
X10015953Y-13487952D01*
X10015953Y-13487952D02*
X9996905Y-13497476D01*
X9996905Y-13497476D02*
X9977857Y-13497476D01*
X9977857Y-13497476D02*
X9958810Y-13487952D01*
X9958810Y-13487952D02*
X9949286Y-13478428D01*
X9949286Y-13478428D02*
X9939762Y-13459381D01*
X9939762Y-13459381D02*
X9930238Y-13421286D01*
X9930238Y-13421286D02*
X9930238Y-13373667D01*
X9930238Y-13373667D02*
X9939762Y-13335571D01*
X9939762Y-13335571D02*
X9949286Y-13316524D01*
X9949286Y-13316524D02*
X9958810Y-13307000D01*
X9958810Y-13307000D02*
X9977857Y-13297476D01*
X10120714Y-13297476D02*
X10120714Y-13335571D01*
X10196905Y-13297476D02*
X10196905Y-13335571D01*
X10459762Y-13573667D02*
X10450238Y-13564143D01*
X10450238Y-13564143D02*
X10431191Y-13535571D01*
X10431191Y-13535571D02*
X10421667Y-13516524D01*
X10421667Y-13516524D02*
X10412143Y-13487952D01*
X10412143Y-13487952D02*
X10402619Y-13440333D01*
X10402619Y-13440333D02*
X10402619Y-13402238D01*
X10402619Y-13402238D02*
X10412143Y-13354619D01*
X10412143Y-13354619D02*
X10421667Y-13326048D01*
X10421667Y-13326048D02*
X10431191Y-13307000D01*
X10431191Y-13307000D02*
X10450238Y-13278428D01*
X10450238Y-13278428D02*
X10459762Y-13268905D01*
X10516905Y-13297476D02*
X10640714Y-13297476D01*
X10640714Y-13297476D02*
X10574048Y-13373667D01*
X10574048Y-13373667D02*
X10602619Y-13373667D01*
X10602619Y-13373667D02*
X10621667Y-13383190D01*
X10621667Y-13383190D02*
X10631191Y-13392714D01*
X10631191Y-13392714D02*
X10640714Y-13411762D01*
X10640714Y-13411762D02*
X10640714Y-13459381D01*
X10640714Y-13459381D02*
X10631191Y-13478428D01*
X10631191Y-13478428D02*
X10621667Y-13487952D01*
X10621667Y-13487952D02*
X10602619Y-13497476D01*
X10602619Y-13497476D02*
X10545476Y-13497476D01*
X10545476Y-13497476D02*
X10526429Y-13487952D01*
X10526429Y-13487952D02*
X10516905Y-13478428D01*
X10846429Y-13497476D02*
X10846429Y-13297476D01*
X10932143Y-13497476D02*
X10932143Y-13392714D01*
X10932143Y-13392714D02*
X10922619Y-13373667D01*
X10922619Y-13373667D02*
X10903572Y-13364143D01*
X10903572Y-13364143D02*
X10875000Y-13364143D01*
X10875000Y-13364143D02*
X10855953Y-13373667D01*
X10855953Y-13373667D02*
X10846429Y-13383190D01*
X11055953Y-13497476D02*
X11036905Y-13487952D01*
X11036905Y-13487952D02*
X11027381Y-13478428D01*
X11027381Y-13478428D02*
X11017857Y-13459381D01*
X11017857Y-13459381D02*
X11017857Y-13402238D01*
X11017857Y-13402238D02*
X11027381Y-13383190D01*
X11027381Y-13383190D02*
X11036905Y-13373667D01*
X11036905Y-13373667D02*
X11055953Y-13364143D01*
X11055953Y-13364143D02*
X11084524Y-13364143D01*
X11084524Y-13364143D02*
X11103572Y-13373667D01*
X11103572Y-13373667D02*
X11113095Y-13383190D01*
X11113095Y-13383190D02*
X11122619Y-13402238D01*
X11122619Y-13402238D02*
X11122619Y-13459381D01*
X11122619Y-13459381D02*
X11113095Y-13478428D01*
X11113095Y-13478428D02*
X11103572Y-13487952D01*
X11103572Y-13487952D02*
X11084524Y-13497476D01*
X11084524Y-13497476D02*
X11055953Y-13497476D01*
X11236905Y-13497476D02*
X11217857Y-13487952D01*
X11217857Y-13487952D02*
X11208333Y-13468905D01*
X11208333Y-13468905D02*
X11208333Y-13297476D01*
X11389286Y-13487952D02*
X11370238Y-13497476D01*
X11370238Y-13497476D02*
X11332143Y-13497476D01*
X11332143Y-13497476D02*
X11313095Y-13487952D01*
X11313095Y-13487952D02*
X11303572Y-13468905D01*
X11303572Y-13468905D02*
X11303572Y-13392714D01*
X11303572Y-13392714D02*
X11313095Y-13373667D01*
X11313095Y-13373667D02*
X11332143Y-13364143D01*
X11332143Y-13364143D02*
X11370238Y-13364143D01*
X11370238Y-13364143D02*
X11389286Y-13373667D01*
X11389286Y-13373667D02*
X11398810Y-13392714D01*
X11398810Y-13392714D02*
X11398810Y-13411762D01*
X11398810Y-13411762D02*
X11303572Y-13430809D01*
X11475000Y-13487952D02*
X11494048Y-13497476D01*
X11494048Y-13497476D02*
X11532143Y-13497476D01*
X11532143Y-13497476D02*
X11551191Y-13487952D01*
X11551191Y-13487952D02*
X11560714Y-13468905D01*
X11560714Y-13468905D02*
X11560714Y-13459381D01*
X11560714Y-13459381D02*
X11551191Y-13440333D01*
X11551191Y-13440333D02*
X11532143Y-13430809D01*
X11532143Y-13430809D02*
X11503572Y-13430809D01*
X11503572Y-13430809D02*
X11484524Y-13421286D01*
X11484524Y-13421286D02*
X11475000Y-13402238D01*
X11475000Y-13402238D02*
X11475000Y-13392714D01*
X11475000Y-13392714D02*
X11484524Y-13373667D01*
X11484524Y-13373667D02*
X11503572Y-13364143D01*
X11503572Y-13364143D02*
X11532143Y-13364143D01*
X11532143Y-13364143D02*
X11551191Y-13373667D01*
X11627381Y-13573667D02*
X11636905Y-13564143D01*
X11636905Y-13564143D02*
X11655953Y-13535571D01*
X11655953Y-13535571D02*
X11665476Y-13516524D01*
X11665476Y-13516524D02*
X11675000Y-13487952D01*
X11675000Y-13487952D02*
X11684524Y-13440333D01*
X11684524Y-13440333D02*
X11684524Y-13402238D01*
X11684524Y-13402238D02*
X11675000Y-13354619D01*
X11675000Y-13354619D02*
X11665476Y-13326048D01*
X11665476Y-13326048D02*
X11655953Y-13307000D01*
X11655953Y-13307000D02*
X11636905Y-13278428D01*
X11636905Y-13278428D02*
X11627381Y-13268905D01*
M02*
