G04 #@! TF.GenerationSoftware,KiCad,Pcbnew,(7.0.0)*
G04 #@! TF.CreationDate,2023-03-01T02:56:27+01:00*
G04 #@! TF.ProjectId,Extracteur_Air_PcFan_5v,45787472-6163-4746-9575-725f4169725f,1.0*
G04 #@! TF.SameCoordinates,Original*
G04 #@! TF.FileFunction,Copper,L1,Top*
G04 #@! TF.FilePolarity,Positive*
%FSLAX46Y46*%
G04 Gerber Fmt 4.6, Leading zero omitted, Abs format (unit mm)*
G04 Created by KiCad (PCBNEW (7.0.0)) date 2023-03-01 02:56:27*
%MOMM*%
%LPD*%
G01*
G04 APERTURE LIST*
G04 Aperture macros list*
%AMRoundRect*
0 Rectangle with rounded corners*
0 $1 Rounding radius*
0 $2 $3 $4 $5 $6 $7 $8 $9 X,Y pos of 4 corners*
0 Add a 4 corners polygon primitive as box body*
4,1,4,$2,$3,$4,$5,$6,$7,$8,$9,$2,$3,0*
0 Add four circle primitives for the rounded corners*
1,1,$1+$1,$2,$3*
1,1,$1+$1,$4,$5*
1,1,$1+$1,$6,$7*
1,1,$1+$1,$8,$9*
0 Add four rect primitives between the rounded corners*
20,1,$1+$1,$2,$3,$4,$5,0*
20,1,$1+$1,$4,$5,$6,$7,0*
20,1,$1+$1,$6,$7,$8,$9,0*
20,1,$1+$1,$8,$9,$2,$3,0*%
G04 Aperture macros list end*
G04 #@! TA.AperFunction,ComponentPad*
%ADD10C,3.200000*%
G04 #@! TD*
G04 #@! TA.AperFunction,ComponentPad*
%ADD11C,5.600000*%
G04 #@! TD*
G04 #@! TA.AperFunction,ComponentPad*
%ADD12C,1.600000*%
G04 #@! TD*
G04 #@! TA.AperFunction,ComponentPad*
%ADD13O,1.600000X1.600000*%
G04 #@! TD*
G04 #@! TA.AperFunction,SMDPad,CuDef*
%ADD14RoundRect,0.250000X-0.450000X0.350000X-0.450000X-0.350000X0.450000X-0.350000X0.450000X0.350000X0*%
G04 #@! TD*
G04 #@! TA.AperFunction,SMDPad,CuDef*
%ADD15RoundRect,0.250000X0.350000X0.450000X-0.350000X0.450000X-0.350000X-0.450000X0.350000X-0.450000X0*%
G04 #@! TD*
G04 #@! TA.AperFunction,ComponentPad*
%ADD16R,1.700000X1.700000*%
G04 #@! TD*
G04 #@! TA.AperFunction,ComponentPad*
%ADD17C,1.700000*%
G04 #@! TD*
G04 #@! TA.AperFunction,ComponentPad*
%ADD18C,3.500000*%
G04 #@! TD*
G04 #@! TA.AperFunction,ComponentPad*
%ADD19R,2.400000X1.600000*%
G04 #@! TD*
G04 #@! TA.AperFunction,ComponentPad*
%ADD20O,2.400000X1.600000*%
G04 #@! TD*
G04 #@! TA.AperFunction,ComponentPad*
%ADD21RoundRect,0.250000X0.620000X0.845000X-0.620000X0.845000X-0.620000X-0.845000X0.620000X-0.845000X0*%
G04 #@! TD*
G04 #@! TA.AperFunction,ComponentPad*
%ADD22O,1.740000X2.190000*%
G04 #@! TD*
G04 #@! TA.AperFunction,ComponentPad*
%ADD23R,1.600000X1.600000*%
G04 #@! TD*
G04 #@! TA.AperFunction,ComponentPad*
%ADD24C,2.150000*%
G04 #@! TD*
G04 #@! TA.AperFunction,ComponentPad*
%ADD25R,1.800000X1.800000*%
G04 #@! TD*
G04 #@! TA.AperFunction,ComponentPad*
%ADD26C,1.800000*%
G04 #@! TD*
G04 #@! TA.AperFunction,ComponentPad*
%ADD27RoundRect,0.750000X-1.250000X-0.750000X1.250000X-0.750000X1.250000X0.750000X-1.250000X0.750000X0*%
G04 #@! TD*
G04 #@! TA.AperFunction,SMDPad,CuDef*
%ADD28RoundRect,0.300000X-0.300000X0.400000X-0.300000X-0.400000X0.300000X-0.400000X0.300000X0.400000X0*%
G04 #@! TD*
G04 #@! TA.AperFunction,SMDPad,CuDef*
%ADD29R,0.650000X1.560000*%
G04 #@! TD*
G04 #@! TA.AperFunction,SMDPad,CuDef*
%ADD30R,5.700000X2.600000*%
G04 #@! TD*
G04 #@! TA.AperFunction,SMDPad,CuDef*
%ADD31RoundRect,0.250000X0.337500X0.475000X-0.337500X0.475000X-0.337500X-0.475000X0.337500X-0.475000X0*%
G04 #@! TD*
G04 #@! TA.AperFunction,SMDPad,CuDef*
%ADD32RoundRect,0.250000X1.100000X-0.412500X1.100000X0.412500X-1.100000X0.412500X-1.100000X-0.412500X0*%
G04 #@! TD*
G04 #@! TA.AperFunction,SMDPad,CuDef*
%ADD33RoundRect,0.250000X-1.450000X0.537500X-1.450000X-0.537500X1.450000X-0.537500X1.450000X0.537500X0*%
G04 #@! TD*
G04 #@! TA.AperFunction,ViaPad*
%ADD34C,1.000000*%
G04 #@! TD*
G04 #@! TA.AperFunction,ViaPad*
%ADD35C,0.500000*%
G04 #@! TD*
G04 #@! TA.AperFunction,Conductor*
%ADD36C,2.000000*%
G04 #@! TD*
G04 #@! TA.AperFunction,Conductor*
%ADD37C,1.000000*%
G04 #@! TD*
G04 #@! TA.AperFunction,Conductor*
%ADD38C,1.500000*%
G04 #@! TD*
G04 #@! TA.AperFunction,Conductor*
%ADD39C,0.500000*%
G04 #@! TD*
G04 APERTURE END LIST*
D10*
X91400000Y-81400000D03*
X91400000Y-76700000D03*
X91400000Y-72000000D03*
D11*
X98000000Y-64000000D03*
X161000000Y-76000000D03*
X74000000Y-96000000D03*
D12*
X142020000Y-80600000D03*
D13*
X152179999Y-80599999D03*
D14*
X91000000Y-64300000D03*
X91000000Y-66300000D03*
D15*
X86900000Y-94800000D03*
X84900000Y-94800000D03*
D12*
X142020000Y-75800000D03*
D13*
X152179999Y-75799999D03*
D16*
X85577499Y-72049999D03*
D17*
X85577500Y-69550000D03*
X83577500Y-69550000D03*
X83577500Y-72050000D03*
D18*
X80867500Y-76820000D03*
X80867500Y-64780000D03*
D19*
X131279999Y-71159999D03*
D20*
X131279999Y-73699999D03*
X131279999Y-76239999D03*
X131279999Y-78779999D03*
X131279999Y-81319999D03*
X131279999Y-83859999D03*
X131279999Y-86399999D03*
X138899999Y-86399999D03*
X138899999Y-83859999D03*
X138899999Y-81319999D03*
X138899999Y-78779999D03*
X138899999Y-76239999D03*
X138899999Y-73699999D03*
X138899999Y-71159999D03*
D21*
X116720000Y-63650000D03*
D22*
X114179999Y-63649999D03*
X111639999Y-63649999D03*
X109099999Y-63649999D03*
D23*
X82889999Y-88199999D03*
D12*
X84890000Y-88200000D03*
X86890000Y-88200000D03*
X88890000Y-88200000D03*
D24*
X82160000Y-85480000D03*
X82160000Y-90920000D03*
X89160000Y-85480000D03*
X89160000Y-90920000D03*
D12*
X152600000Y-71500000D03*
X152600000Y-66500000D03*
X98950000Y-69300000D03*
D13*
X111649999Y-69299999D03*
D25*
X149599999Y-88799999D03*
D26*
X149600000Y-91300000D03*
X149600000Y-93800000D03*
D27*
X156600000Y-86900000D03*
X156600000Y-95700000D03*
D12*
X125975000Y-83085000D03*
X125975000Y-78085000D03*
D23*
X143599999Y-64899999D03*
D12*
X145600000Y-64900000D03*
X126000000Y-64340000D03*
D13*
X125999999Y-74499999D03*
D28*
X107200000Y-74850000D03*
X107200000Y-78650000D03*
D12*
X125900000Y-93300000D03*
X130900000Y-93300000D03*
D29*
X104799999Y-80649999D03*
X103849999Y-80649999D03*
X102899999Y-80649999D03*
X102899999Y-83349999D03*
X104799999Y-83349999D03*
D12*
X144680000Y-93300000D03*
D13*
X134519999Y-93299999D03*
D30*
X113399999Y-85399999D03*
X113399999Y-79699999D03*
D12*
X139660000Y-64900000D03*
D13*
X129499999Y-64899999D03*
D15*
X101300000Y-87300000D03*
X99300000Y-87300000D03*
X99450000Y-80600000D03*
X97450000Y-80600000D03*
D31*
X99487500Y-84000000D03*
X97412500Y-84000000D03*
D32*
X107800000Y-85262500D03*
X107800000Y-82137500D03*
D33*
X101860000Y-73212500D03*
X101860000Y-77487500D03*
D12*
X142400000Y-70985000D03*
X147400000Y-70985000D03*
D34*
X157000000Y-63000000D03*
X153000000Y-63000000D03*
X121000000Y-73000000D03*
X121000000Y-77000000D03*
X118000000Y-98000000D03*
X114000000Y-98000000D03*
X110000000Y-98000000D03*
X159000000Y-63000000D03*
X155000000Y-63000000D03*
X151000000Y-63000000D03*
X121000000Y-79000000D03*
X121000000Y-71000000D03*
X121000000Y-75000000D03*
X120000000Y-98000000D03*
X116000000Y-98000000D03*
X112000000Y-98000000D03*
X108000000Y-98000000D03*
D35*
X101550000Y-84650000D03*
X100310000Y-78800000D03*
X101100000Y-78800000D03*
X106750000Y-83300000D03*
X108250000Y-83300000D03*
X101550000Y-83950000D03*
X101900000Y-78800000D03*
X107500000Y-83300000D03*
X101550000Y-85350000D03*
X100900000Y-82050000D03*
X100900000Y-82750000D03*
X106000000Y-83300000D03*
X102700000Y-78800000D03*
X101550000Y-86050000D03*
D36*
X94600000Y-89400000D02*
X94950000Y-89750000D01*
X93800000Y-76700000D02*
X94600000Y-77500000D01*
X94600000Y-77500000D02*
X94600000Y-89400000D01*
X91400000Y-76700000D02*
X93800000Y-76700000D01*
X94950000Y-89750000D02*
X104300000Y-89750000D01*
X85600000Y-81400000D02*
X91400000Y-81400000D01*
D37*
X82890000Y-88200000D02*
X80500000Y-88200000D01*
D38*
X135500000Y-71160000D02*
X138900000Y-71160000D01*
X131280000Y-78780000D02*
X135095000Y-78780000D01*
X138900000Y-71160000D02*
X142225000Y-71160000D01*
D36*
X85600000Y-74400000D02*
X85600000Y-81400000D01*
D38*
X135100000Y-81500000D02*
X135100000Y-78775000D01*
D36*
X79250000Y-88200000D02*
X79250000Y-81400000D01*
D38*
X142400000Y-70985000D02*
X143600000Y-69785000D01*
D36*
X80500000Y-88200000D02*
X79250000Y-88200000D01*
D38*
X135100000Y-78775000D02*
X135100000Y-71560000D01*
X143600000Y-64900000D02*
X139660000Y-64900000D01*
X138900000Y-81320000D02*
X135280000Y-81320000D01*
D36*
X90800000Y-81400000D02*
X91949390Y-81400000D01*
D38*
X135100000Y-88800000D02*
X135100000Y-81500000D01*
D36*
X79250000Y-81400000D02*
X85600000Y-81400000D01*
D38*
X135100000Y-71560000D02*
X135500000Y-71160000D01*
X143600000Y-69785000D02*
X143600000Y-64900000D01*
X141300000Y-81320000D02*
X142020000Y-80600000D01*
X138900000Y-81320000D02*
X141300000Y-81320000D01*
X135280000Y-81320000D02*
X135100000Y-81500000D01*
D37*
X85577500Y-74377500D02*
X85600000Y-74400000D01*
D38*
X135095000Y-78780000D02*
X135100000Y-78775000D01*
X142225000Y-71160000D02*
X142400000Y-70985000D01*
X142020000Y-75800000D02*
X142020000Y-80600000D01*
D37*
X85577500Y-72050000D02*
X85577500Y-74377500D01*
D38*
X134150000Y-89750000D02*
X135100000Y-88800000D01*
X104300000Y-89750000D02*
X134150000Y-89750000D01*
D36*
X101860000Y-73212500D02*
X101860000Y-72210000D01*
X101860000Y-72210000D02*
X98950000Y-69300000D01*
D37*
X127565000Y-83085000D02*
X125975000Y-83085000D01*
X129135000Y-76240000D02*
X128625000Y-76750000D01*
X131280000Y-76240000D02*
X129135000Y-76240000D01*
X128625000Y-82025000D02*
X127565000Y-83085000D01*
X128625000Y-76750000D02*
X128625000Y-82025000D01*
X138900000Y-73700000D02*
X150080000Y-73700000D01*
X138900000Y-76240000D02*
X138900000Y-73700000D01*
X150080000Y-73700000D02*
X152180000Y-75800000D01*
X150400000Y-73700000D02*
X152600000Y-71500000D01*
X150080000Y-73700000D02*
X150400000Y-73700000D01*
X126800000Y-73700000D02*
X131280000Y-73700000D01*
X126000000Y-74500000D02*
X126800000Y-73700000D01*
D39*
X87750000Y-69550000D02*
X91000000Y-66300000D01*
X85577500Y-69550000D02*
X87750000Y-69550000D01*
X87500000Y-64300000D02*
X91000000Y-64300000D01*
X83577500Y-69550000D02*
X83577500Y-68222500D01*
X83577500Y-68222500D02*
X87500000Y-64300000D01*
D38*
X111650000Y-69300000D02*
X111650000Y-63660000D01*
X111650000Y-63660000D02*
X111640000Y-63650000D01*
D39*
X84890000Y-88200000D02*
X84890000Y-94790000D01*
X84890000Y-94790000D02*
X84900000Y-94800000D01*
X86890000Y-94790000D02*
X86900000Y-94800000D01*
X86890000Y-88200000D02*
X86890000Y-94790000D01*
D37*
X149600000Y-81400000D02*
X149600000Y-88800000D01*
X150400000Y-80600000D02*
X149600000Y-81400000D01*
X152180000Y-80600000D02*
X150400000Y-80600000D01*
X145180000Y-93800000D02*
X144680000Y-93300000D01*
X149600000Y-93800000D02*
X145180000Y-93800000D01*
X131275000Y-66675000D02*
X131275000Y-67225000D01*
X131275000Y-67225000D02*
X131280000Y-67230000D01*
X126000000Y-64340000D02*
X128940000Y-64340000D01*
X131280000Y-67230000D02*
X131280000Y-71160000D01*
X129500000Y-64900000D02*
X131275000Y-66675000D01*
X128940000Y-64340000D02*
X129500000Y-64900000D01*
G04 #@! TA.AperFunction,Conductor*
G36*
X105063000Y-82591613D02*
G01*
X105108387Y-82637000D01*
X105125000Y-82699000D01*
X105125000Y-83900000D01*
X116600000Y-83900000D01*
X116600000Y-89001000D01*
X116583387Y-89063000D01*
X116538000Y-89108387D01*
X116476000Y-89125000D01*
X105800000Y-89125000D01*
X105800000Y-89141326D01*
X105800000Y-90371000D01*
X105783387Y-90433000D01*
X105738000Y-90478387D01*
X105676000Y-90495000D01*
X105166289Y-90495000D01*
X105164075Y-90495160D01*
X105164059Y-90495161D01*
X105095632Y-90500119D01*
X105095606Y-90500121D01*
X105093409Y-90500281D01*
X105091232Y-90500598D01*
X105091206Y-90500601D01*
X105060220Y-90505116D01*
X105060206Y-90505118D01*
X105058027Y-90505436D01*
X105055881Y-90505909D01*
X105055860Y-90505913D01*
X104991049Y-90520203D01*
X104991038Y-90520206D01*
X104986676Y-90521168D01*
X104982496Y-90522749D01*
X104982487Y-90522752D01*
X104920433Y-90546228D01*
X104920408Y-90546238D01*
X104918337Y-90547022D01*
X104916314Y-90547959D01*
X104916294Y-90547968D01*
X104887934Y-90561113D01*
X104887926Y-90561116D01*
X104885898Y-90562057D01*
X104883960Y-90563131D01*
X104883936Y-90563144D01*
X104823938Y-90596419D01*
X104823911Y-90596435D01*
X104821984Y-90597504D01*
X104820140Y-90598708D01*
X104820113Y-90598725D01*
X104783787Y-90622458D01*
X104765777Y-90632204D01*
X104633597Y-90690183D01*
X104614227Y-90696833D01*
X104474282Y-90732272D01*
X104454083Y-90735642D01*
X104358267Y-90743582D01*
X104346280Y-90744576D01*
X104336042Y-90745000D01*
X102699000Y-90745000D01*
X102637000Y-90728387D01*
X102591613Y-90683000D01*
X102575000Y-90621000D01*
X102575000Y-82699000D01*
X102591613Y-82637000D01*
X102637000Y-82591613D01*
X102699000Y-82575000D01*
X105001000Y-82575000D01*
X105063000Y-82591613D01*
G37*
G04 #@! TD.AperFunction*
G04 #@! TA.AperFunction,Conductor*
G36*
X111138000Y-72116613D02*
G01*
X111183387Y-72162000D01*
X111200000Y-72224000D01*
X111200000Y-77226000D01*
X111183387Y-77288000D01*
X111138000Y-77333387D01*
X111076000Y-77350000D01*
X104874000Y-77350000D01*
X104812000Y-77333387D01*
X104766613Y-77288000D01*
X104750000Y-77226000D01*
X104750000Y-75816326D01*
X104750000Y-75800000D01*
X104733674Y-75800000D01*
X98266326Y-75800000D01*
X98250000Y-75800000D01*
X98250000Y-75816326D01*
X98250000Y-84876000D01*
X98233387Y-84938000D01*
X98188000Y-84983387D01*
X98126000Y-85000000D01*
X96874000Y-85000000D01*
X96812000Y-84983387D01*
X96766613Y-84938000D01*
X96750000Y-84876000D01*
X96750000Y-72224000D01*
X96766613Y-72162000D01*
X96812000Y-72116613D01*
X96874000Y-72100000D01*
X111076000Y-72100000D01*
X111138000Y-72116613D01*
G37*
G04 #@! TD.AperFunction*
G04 #@! TA.AperFunction,Conductor*
G36*
X104138000Y-76516613D02*
G01*
X104183387Y-76562000D01*
X104200000Y-76624000D01*
X104200000Y-81650000D01*
X104216326Y-81650000D01*
X105633674Y-81650000D01*
X105650000Y-81650000D01*
X105650000Y-81324000D01*
X105666613Y-81262000D01*
X105712000Y-81216613D01*
X105774000Y-81200000D01*
X109576000Y-81200000D01*
X109638000Y-81216613D01*
X109683387Y-81262000D01*
X109700000Y-81324000D01*
X109700000Y-83426000D01*
X109683387Y-83488000D01*
X109638000Y-83533387D01*
X109576000Y-83550000D01*
X105724000Y-83550000D01*
X105662000Y-83533387D01*
X105616613Y-83488000D01*
X105600000Y-83426000D01*
X105600000Y-82366326D01*
X105600000Y-82350000D01*
X105583674Y-82350000D01*
X101916326Y-82350000D01*
X101900000Y-82350000D01*
X101900000Y-82366326D01*
X101900000Y-87926000D01*
X101883387Y-87988000D01*
X101838000Y-88033387D01*
X101776000Y-88050000D01*
X100624000Y-88050000D01*
X100562000Y-88033387D01*
X100516613Y-87988000D01*
X100500000Y-87926000D01*
X100500000Y-81774000D01*
X100516613Y-81712000D01*
X100562000Y-81666613D01*
X100624000Y-81650000D01*
X103483674Y-81650000D01*
X103500000Y-81650000D01*
X103500000Y-79100000D01*
X103483674Y-79100000D01*
X99974000Y-79100000D01*
X99912000Y-79083387D01*
X99866613Y-79038000D01*
X99850000Y-78976000D01*
X99850000Y-76624000D01*
X99866613Y-76562000D01*
X99912000Y-76516613D01*
X99974000Y-76500000D01*
X104076000Y-76500000D01*
X104138000Y-76516613D01*
G37*
G04 #@! TD.AperFunction*
G04 #@! TA.AperFunction,Conductor*
G36*
X116538000Y-82816613D02*
G01*
X116583387Y-82862000D01*
X116600000Y-82924000D01*
X116600000Y-83900000D01*
X110050000Y-83900000D01*
X110050000Y-82924000D01*
X110066613Y-82862000D01*
X110112000Y-82816613D01*
X110174000Y-82800000D01*
X116476000Y-82800000D01*
X116538000Y-82816613D01*
G37*
G04 #@! TD.AperFunction*
G04 #@! TA.AperFunction,Conductor*
G36*
X116538000Y-77766613D02*
G01*
X116583387Y-77812000D01*
X116600000Y-77874000D01*
X116600000Y-81726000D01*
X116583387Y-81788000D01*
X116538000Y-81833387D01*
X116476000Y-81850000D01*
X110174000Y-81850000D01*
X110112000Y-81833387D01*
X110066613Y-81788000D01*
X110050000Y-81726000D01*
X110050000Y-80766326D01*
X110050000Y-80750000D01*
X110033674Y-80750000D01*
X105166326Y-80750000D01*
X105150000Y-80750000D01*
X105150000Y-80766326D01*
X105150000Y-81276000D01*
X105133387Y-81338000D01*
X105088000Y-81383387D01*
X105026000Y-81400000D01*
X104599000Y-81400000D01*
X104537000Y-81383387D01*
X104491613Y-81338000D01*
X104475000Y-81276000D01*
X104475000Y-77874000D01*
X104491613Y-77812000D01*
X104537000Y-77766613D01*
X104599000Y-77750000D01*
X116476000Y-77750000D01*
X116538000Y-77766613D01*
G37*
G04 #@! TD.AperFunction*
G04 #@! TA.AperFunction,Conductor*
G36*
X164737500Y-60217113D02*
G01*
X164782887Y-60262500D01*
X164799500Y-60324500D01*
X164799500Y-99675500D01*
X164782887Y-99737500D01*
X164737500Y-99782887D01*
X164675500Y-99799500D01*
X70324500Y-99799500D01*
X70262500Y-99782887D01*
X70217113Y-99737500D01*
X70200500Y-99675500D01*
X70200500Y-88324335D01*
X77749500Y-88324335D01*
X77750343Y-88329388D01*
X77750344Y-88329398D01*
X77758906Y-88380704D01*
X77760173Y-88390873D01*
X77764468Y-88442711D01*
X77764469Y-88442717D01*
X77764892Y-88447821D01*
X77766149Y-88452785D01*
X77766150Y-88452791D01*
X77778918Y-88503213D01*
X77781021Y-88513239D01*
X77790429Y-88569614D01*
X77792092Y-88574458D01*
X77808983Y-88623661D01*
X77811906Y-88633480D01*
X77824676Y-88683905D01*
X77824679Y-88683914D01*
X77825937Y-88688881D01*
X77827994Y-88693571D01*
X77827995Y-88693573D01*
X77848893Y-88741215D01*
X77852616Y-88750758D01*
X77871172Y-88804810D01*
X77873610Y-88809316D01*
X77873611Y-88809317D01*
X77898376Y-88855080D01*
X77902877Y-88864286D01*
X77925827Y-88916607D01*
X77928632Y-88920900D01*
X77957075Y-88964436D01*
X77962321Y-88973239D01*
X77989526Y-89023509D01*
X77992672Y-89027551D01*
X77992676Y-89027557D01*
X78024624Y-89068603D01*
X78030580Y-89076945D01*
X78059030Y-89120492D01*
X78059037Y-89120501D01*
X78061836Y-89124785D01*
X78065305Y-89128553D01*
X78065311Y-89128561D01*
X78100536Y-89166825D01*
X78107159Y-89174644D01*
X78142262Y-89219744D01*
X78184326Y-89258467D01*
X78191531Y-89265672D01*
X78230256Y-89307738D01*
X78275372Y-89342853D01*
X78283158Y-89349447D01*
X78325215Y-89388164D01*
X78329515Y-89390973D01*
X78373050Y-89419416D01*
X78381391Y-89425372D01*
X78422437Y-89457319D01*
X78426491Y-89460474D01*
X78476470Y-89487521D01*
X78476747Y-89487671D01*
X78485553Y-89492918D01*
X78529091Y-89521363D01*
X78529096Y-89521366D01*
X78533393Y-89524173D01*
X78585733Y-89547131D01*
X78594918Y-89551621D01*
X78645190Y-89578828D01*
X78699252Y-89597387D01*
X78708774Y-89601102D01*
X78761119Y-89624063D01*
X78766091Y-89625322D01*
X78766094Y-89625323D01*
X78791299Y-89631705D01*
X78816509Y-89638089D01*
X78826322Y-89641010D01*
X78880386Y-89659571D01*
X78936752Y-89668976D01*
X78946778Y-89671078D01*
X79002179Y-89685108D01*
X79059136Y-89689826D01*
X79069296Y-89691093D01*
X79125665Y-89700500D01*
X79187933Y-89700500D01*
X79374335Y-89700500D01*
X80559497Y-89700500D01*
X80562067Y-89700500D01*
X80747821Y-89685108D01*
X80988881Y-89624063D01*
X81216607Y-89524173D01*
X81424785Y-89388164D01*
X81428562Y-89384686D01*
X81428567Y-89384683D01*
X81519511Y-89300963D01*
X81580484Y-89270346D01*
X81648424Y-89276618D01*
X81702760Y-89317880D01*
X81732454Y-89357546D01*
X81847669Y-89443796D01*
X81982517Y-89494091D01*
X82042127Y-89500500D01*
X83737872Y-89500499D01*
X83797483Y-89494091D01*
X83932331Y-89443796D01*
X83939435Y-89438478D01*
X83941190Y-89437165D01*
X83943372Y-89436328D01*
X83947216Y-89434230D01*
X83947498Y-89434747D01*
X84004448Y-89412926D01*
X84071005Y-89425548D01*
X84120995Y-89471265D01*
X84139500Y-89536432D01*
X84139500Y-93652340D01*
X84127109Y-93706373D01*
X84092411Y-93749606D01*
X84087488Y-93753497D01*
X84081344Y-93757288D01*
X84076240Y-93762391D01*
X84076236Y-93762395D01*
X83962393Y-93876238D01*
X83962389Y-93876242D01*
X83957288Y-93881344D01*
X83953503Y-93887480D01*
X83953497Y-93887488D01*
X83868977Y-94024519D01*
X83865186Y-94030666D01*
X83862915Y-94037517D01*
X83862914Y-94037521D01*
X83812131Y-94190774D01*
X83810001Y-94197203D01*
X83809313Y-94203933D01*
X83809312Y-94203940D01*
X83799819Y-94296859D01*
X83799818Y-94296877D01*
X83799500Y-94299991D01*
X83799500Y-94303138D01*
X83799500Y-94303139D01*
X83799500Y-95296859D01*
X83799500Y-95296878D01*
X83799501Y-95300008D01*
X83799820Y-95303140D01*
X83799821Y-95303141D01*
X83809312Y-95396061D01*
X83809313Y-95396069D01*
X83810001Y-95402797D01*
X83865186Y-95569334D01*
X83868977Y-95575480D01*
X83953497Y-95712511D01*
X83953500Y-95712515D01*
X83957288Y-95718656D01*
X84081344Y-95842712D01*
X84087485Y-95846500D01*
X84087488Y-95846502D01*
X84144558Y-95881702D01*
X84230666Y-95934814D01*
X84397203Y-95989999D01*
X84499991Y-96000500D01*
X85300008Y-96000499D01*
X85402797Y-95989999D01*
X85569334Y-95934814D01*
X85718656Y-95842712D01*
X85812319Y-95749049D01*
X85867906Y-95716955D01*
X85932094Y-95716955D01*
X85987681Y-95749049D01*
X86081344Y-95842712D01*
X86087485Y-95846500D01*
X86087488Y-95846502D01*
X86144558Y-95881702D01*
X86230666Y-95934814D01*
X86397203Y-95989999D01*
X86499991Y-96000500D01*
X87300008Y-96000499D01*
X87402797Y-95989999D01*
X87569334Y-95934814D01*
X87718656Y-95842712D01*
X87842712Y-95718656D01*
X87934814Y-95569334D01*
X87989999Y-95402797D01*
X88000500Y-95300009D01*
X88000499Y-94299992D01*
X87989999Y-94197203D01*
X87934814Y-94030666D01*
X87842712Y-93881344D01*
X87718656Y-93757288D01*
X87712509Y-93753496D01*
X87712506Y-93753494D01*
X87699405Y-93745414D01*
X87656223Y-93700306D01*
X87640500Y-93639874D01*
X87640500Y-93300000D01*
X124594532Y-93300000D01*
X124614365Y-93526692D01*
X124615762Y-93531907D01*
X124615764Y-93531916D01*
X124671858Y-93741263D01*
X124671861Y-93741271D01*
X124673261Y-93746496D01*
X124769432Y-93952734D01*
X124772539Y-93957171D01*
X124772540Y-93957173D01*
X124827930Y-94036279D01*
X124899953Y-94139139D01*
X125060861Y-94300047D01*
X125247266Y-94430568D01*
X125453504Y-94526739D01*
X125673308Y-94585635D01*
X125900000Y-94605468D01*
X126126692Y-94585635D01*
X126346496Y-94526739D01*
X126552734Y-94430568D01*
X126739139Y-94300047D01*
X126900047Y-94139139D01*
X127030568Y-93952734D01*
X127126739Y-93746496D01*
X127185635Y-93526692D01*
X127205468Y-93300000D01*
X143374532Y-93300000D01*
X143394365Y-93526692D01*
X143395762Y-93531907D01*
X143395764Y-93531916D01*
X143451858Y-93741263D01*
X143451861Y-93741271D01*
X143453261Y-93746496D01*
X143549432Y-93952734D01*
X143552539Y-93957171D01*
X143552540Y-93957173D01*
X143607930Y-94036279D01*
X143679953Y-94139139D01*
X143840861Y-94300047D01*
X144027266Y-94430568D01*
X144233504Y-94526739D01*
X144453308Y-94585635D01*
X144535153Y-94592795D01*
X144570989Y-94601429D01*
X144602703Y-94620219D01*
X144626593Y-94639698D01*
X144653556Y-94653782D01*
X144666980Y-94661915D01*
X144691951Y-94679295D01*
X144746163Y-94702559D01*
X144754673Y-94706601D01*
X144806951Y-94733909D01*
X144836199Y-94742277D01*
X144850975Y-94747538D01*
X144878942Y-94759540D01*
X144936718Y-94771413D01*
X144945866Y-94773658D01*
X145002582Y-94789887D01*
X145032916Y-94792196D01*
X145048463Y-94794377D01*
X145072095Y-94799234D01*
X145072102Y-94799234D01*
X145078259Y-94800500D01*
X145137242Y-94800500D01*
X145146657Y-94800858D01*
X145205477Y-94805337D01*
X145235652Y-94801493D01*
X145251318Y-94800500D01*
X148564160Y-94800500D01*
X148609235Y-94808983D01*
X148646925Y-94832510D01*
X148648216Y-94833913D01*
X148652252Y-94837054D01*
X148652256Y-94837058D01*
X148799117Y-94951364D01*
X148831374Y-94976470D01*
X149035497Y-95086936D01*
X149255019Y-95162298D01*
X149483951Y-95200500D01*
X149710916Y-95200500D01*
X149716049Y-95200500D01*
X149944981Y-95162298D01*
X150164503Y-95086936D01*
X150368626Y-94976470D01*
X150551784Y-94833913D01*
X150708979Y-94663153D01*
X150835924Y-94468849D01*
X150929157Y-94256300D01*
X150986134Y-94031305D01*
X151005300Y-93800000D01*
X150986134Y-93568695D01*
X150929157Y-93343700D01*
X150835924Y-93131151D01*
X150708979Y-92936847D01*
X150551784Y-92766087D01*
X150547735Y-92762935D01*
X150547729Y-92762930D01*
X150399877Y-92647852D01*
X150364638Y-92604459D01*
X150352039Y-92549998D01*
X150364639Y-92495538D01*
X150399873Y-92452148D01*
X150551784Y-92333913D01*
X150708979Y-92163153D01*
X150835924Y-91968849D01*
X150929157Y-91756300D01*
X150986134Y-91531305D01*
X151005300Y-91300000D01*
X150986134Y-91068695D01*
X150929157Y-90843700D01*
X150835924Y-90631151D01*
X150708979Y-90436847D01*
X150705508Y-90433076D01*
X150705503Y-90433070D01*
X150641609Y-90363662D01*
X150612836Y-90310909D01*
X150612244Y-90250822D01*
X150639971Y-90197512D01*
X150689507Y-90163498D01*
X150742331Y-90143796D01*
X150857546Y-90057546D01*
X150943796Y-89942331D01*
X150994091Y-89807483D01*
X151000500Y-89747873D01*
X151000499Y-87852128D01*
X150994091Y-87792517D01*
X150943796Y-87657669D01*
X150857546Y-87542454D01*
X150841668Y-87530568D01*
X150749431Y-87461519D01*
X150749430Y-87461518D01*
X150742331Y-87456204D01*
X150681165Y-87433390D01*
X150638930Y-87406952D01*
X150610512Y-87366022D01*
X150600500Y-87317209D01*
X150600500Y-81865783D01*
X150609939Y-81818330D01*
X150636816Y-81778104D01*
X150778103Y-81636816D01*
X150818329Y-81609939D01*
X150865782Y-81600500D01*
X151302412Y-81600500D01*
X151339699Y-81606239D01*
X151373533Y-81622924D01*
X151527266Y-81730568D01*
X151733504Y-81826739D01*
X151953308Y-81885635D01*
X152180000Y-81905468D01*
X152406692Y-81885635D01*
X152626496Y-81826739D01*
X152832734Y-81730568D01*
X153019139Y-81600047D01*
X153180047Y-81439139D01*
X153310568Y-81252734D01*
X153406739Y-81046496D01*
X153465635Y-80826692D01*
X153485468Y-80600000D01*
X153465635Y-80373308D01*
X153406739Y-80153504D01*
X153310568Y-79947266D01*
X153180047Y-79760861D01*
X153019139Y-79599953D01*
X152923289Y-79532839D01*
X152837173Y-79472540D01*
X152837171Y-79472539D01*
X152832734Y-79469432D01*
X152740032Y-79426204D01*
X152631405Y-79375550D01*
X152631403Y-79375549D01*
X152626496Y-79373261D01*
X152621271Y-79371861D01*
X152621263Y-79371858D01*
X152411916Y-79315764D01*
X152411907Y-79315762D01*
X152406692Y-79314365D01*
X152401304Y-79313893D01*
X152401301Y-79313893D01*
X152185395Y-79295004D01*
X152180000Y-79294532D01*
X152174605Y-79295004D01*
X151958698Y-79313893D01*
X151958693Y-79313893D01*
X151953308Y-79314365D01*
X151948094Y-79315762D01*
X151948083Y-79315764D01*
X151738736Y-79371858D01*
X151738724Y-79371862D01*
X151733504Y-79373261D01*
X151728599Y-79375547D01*
X151728594Y-79375550D01*
X151532176Y-79467142D01*
X151532172Y-79467144D01*
X151527266Y-79469432D01*
X151522833Y-79472535D01*
X151522826Y-79472540D01*
X151415387Y-79547769D01*
X151408972Y-79552262D01*
X151373535Y-79577075D01*
X151339699Y-79593761D01*
X151302412Y-79599500D01*
X150414278Y-79599500D01*
X150411137Y-79599460D01*
X150329924Y-79597402D01*
X150329921Y-79597402D01*
X150323637Y-79597243D01*
X150311267Y-79599460D01*
X150265578Y-79607648D01*
X150256254Y-79608955D01*
X150203821Y-79614288D01*
X150203807Y-79614290D01*
X150197562Y-79614926D01*
X150191568Y-79616806D01*
X150191565Y-79616807D01*
X150168526Y-79624035D01*
X150153292Y-79627774D01*
X150129533Y-79632033D01*
X150129532Y-79632033D01*
X150123347Y-79633142D01*
X150117511Y-79635472D01*
X150117504Y-79635475D01*
X150068568Y-79655021D01*
X150059698Y-79658179D01*
X150009411Y-79673957D01*
X150009396Y-79673963D01*
X150003412Y-79675841D01*
X149997923Y-79678887D01*
X149997915Y-79678891D01*
X149976818Y-79690601D01*
X149962642Y-79697333D01*
X149940227Y-79706286D01*
X149940213Y-79706292D01*
X149934383Y-79708622D01*
X149929139Y-79712077D01*
X149929135Y-79712080D01*
X149885122Y-79741087D01*
X149877065Y-79745967D01*
X149825498Y-79774591D01*
X149820734Y-79778680D01*
X149820719Y-79778691D01*
X149802405Y-79794413D01*
X149789883Y-79803855D01*
X149769732Y-79817136D01*
X149769721Y-79817144D01*
X149764482Y-79820598D01*
X149760038Y-79825041D01*
X149760034Y-79825045D01*
X149722781Y-79862297D01*
X149715875Y-79868698D01*
X149675875Y-79903038D01*
X149675869Y-79903043D01*
X149671105Y-79907134D01*
X149654243Y-79928918D01*
X149652480Y-79931195D01*
X149642108Y-79942970D01*
X148902646Y-80682432D01*
X148900398Y-80684624D01*
X148836947Y-80744941D01*
X148833359Y-80750095D01*
X148833352Y-80750104D01*
X148803244Y-80793361D01*
X148797574Y-80800881D01*
X148764274Y-80841721D01*
X148764271Y-80841724D01*
X148760302Y-80846593D01*
X148757396Y-80852155D01*
X148757388Y-80852168D01*
X148746210Y-80873566D01*
X148738082Y-80886982D01*
X148724300Y-80906784D01*
X148724295Y-80906792D01*
X148720705Y-80911951D01*
X148718228Y-80917721D01*
X148718225Y-80917728D01*
X148697439Y-80966165D01*
X148693399Y-80974671D01*
X148666091Y-81026951D01*
X148664363Y-81032989D01*
X148664360Y-81032997D01*
X148657720Y-81056201D01*
X148652459Y-81070978D01*
X148642942Y-81093157D01*
X148640460Y-81098942D01*
X148639194Y-81105097D01*
X148639192Y-81105107D01*
X148628587Y-81156712D01*
X148626342Y-81165859D01*
X148611842Y-81216534D01*
X148611839Y-81216547D01*
X148610113Y-81222582D01*
X148609636Y-81228842D01*
X148609635Y-81228849D01*
X148607801Y-81252929D01*
X148605622Y-81268463D01*
X148600766Y-81292097D01*
X148599500Y-81298259D01*
X148599500Y-81304550D01*
X148599500Y-81357241D01*
X148599142Y-81366656D01*
X148595140Y-81419205D01*
X148595140Y-81419210D01*
X148594663Y-81425476D01*
X148595456Y-81431709D01*
X148595457Y-81431715D01*
X148598506Y-81455651D01*
X148599500Y-81471317D01*
X148599500Y-87317209D01*
X148589488Y-87366022D01*
X148561070Y-87406952D01*
X148518834Y-87433390D01*
X148457669Y-87456204D01*
X148450572Y-87461516D01*
X148450568Y-87461519D01*
X148349550Y-87537141D01*
X148349546Y-87537144D01*
X148342454Y-87542454D01*
X148337144Y-87549546D01*
X148337141Y-87549550D01*
X148261519Y-87650568D01*
X148261516Y-87650572D01*
X148256204Y-87657669D01*
X148253104Y-87665978D01*
X148253104Y-87665980D01*
X148208620Y-87785247D01*
X148208619Y-87785250D01*
X148205909Y-87792517D01*
X148205079Y-87800227D01*
X148205079Y-87800232D01*
X148199855Y-87848819D01*
X148199854Y-87848831D01*
X148199500Y-87852127D01*
X148199500Y-87855448D01*
X148199500Y-87855449D01*
X148199500Y-89744560D01*
X148199500Y-89744578D01*
X148199501Y-89747872D01*
X148199853Y-89751150D01*
X148199854Y-89751161D01*
X148205079Y-89799768D01*
X148205080Y-89799773D01*
X148205909Y-89807483D01*
X148208619Y-89814749D01*
X148208620Y-89814753D01*
X148234416Y-89883915D01*
X148256204Y-89942331D01*
X148342454Y-90057546D01*
X148457669Y-90143796D01*
X148510493Y-90163498D01*
X148560028Y-90197513D01*
X148587755Y-90250822D01*
X148587163Y-90310909D01*
X148558391Y-90363662D01*
X148494490Y-90433077D01*
X148494481Y-90433087D01*
X148491021Y-90436847D01*
X148488226Y-90441124D01*
X148488219Y-90441134D01*
X148432194Y-90526888D01*
X148364076Y-90631151D01*
X148362021Y-90635835D01*
X148362016Y-90635845D01*
X148274171Y-90836112D01*
X148270843Y-90843700D01*
X148269585Y-90848665D01*
X148269584Y-90848670D01*
X148215125Y-91063720D01*
X148215123Y-91063729D01*
X148213866Y-91068695D01*
X148213442Y-91073802D01*
X148213441Y-91073813D01*
X148198482Y-91254357D01*
X148194700Y-91300000D01*
X148195124Y-91305117D01*
X148213441Y-91526186D01*
X148213442Y-91526195D01*
X148213866Y-91531305D01*
X148215123Y-91536272D01*
X148215125Y-91536279D01*
X148269584Y-91751329D01*
X148270843Y-91756300D01*
X148272903Y-91760996D01*
X148362016Y-91964154D01*
X148362019Y-91964159D01*
X148364076Y-91968849D01*
X148380856Y-91994532D01*
X148488219Y-92158865D01*
X148488222Y-92158869D01*
X148491021Y-92163153D01*
X148648216Y-92333913D01*
X148800123Y-92452146D01*
X148835360Y-92495538D01*
X148847960Y-92549998D01*
X148835361Y-92604459D01*
X148800123Y-92647852D01*
X148652258Y-92762940D01*
X148652250Y-92762946D01*
X148648216Y-92766087D01*
X148646925Y-92767489D01*
X148609235Y-92791017D01*
X148564160Y-92799500D01*
X145960553Y-92799500D01*
X145893928Y-92780081D01*
X145848171Y-92727905D01*
X145812858Y-92652176D01*
X145812855Y-92652172D01*
X145810568Y-92647266D01*
X145680047Y-92460861D01*
X145519139Y-92299953D01*
X145332734Y-92169432D01*
X145126496Y-92073261D01*
X145121271Y-92071861D01*
X145121263Y-92071858D01*
X144911916Y-92015764D01*
X144911907Y-92015762D01*
X144906692Y-92014365D01*
X144901304Y-92013893D01*
X144901301Y-92013893D01*
X144685395Y-91995004D01*
X144680000Y-91994532D01*
X144674605Y-91995004D01*
X144458698Y-92013893D01*
X144458693Y-92013893D01*
X144453308Y-92014365D01*
X144448094Y-92015762D01*
X144448083Y-92015764D01*
X144238736Y-92071858D01*
X144238724Y-92071862D01*
X144233504Y-92073261D01*
X144228599Y-92075547D01*
X144228594Y-92075550D01*
X144032176Y-92167142D01*
X144032172Y-92167144D01*
X144027266Y-92169432D01*
X144022833Y-92172535D01*
X144022826Y-92172540D01*
X143845296Y-92296847D01*
X143845291Y-92296850D01*
X143840861Y-92299953D01*
X143837037Y-92303776D01*
X143837031Y-92303782D01*
X143683782Y-92457031D01*
X143683776Y-92457037D01*
X143679953Y-92460861D01*
X143676850Y-92465291D01*
X143676847Y-92465296D01*
X143552540Y-92642826D01*
X143552535Y-92642833D01*
X143549432Y-92647266D01*
X143547144Y-92652172D01*
X143547142Y-92652176D01*
X143455550Y-92848594D01*
X143455547Y-92848599D01*
X143453261Y-92853504D01*
X143451862Y-92858724D01*
X143451858Y-92858736D01*
X143395764Y-93068083D01*
X143395762Y-93068094D01*
X143394365Y-93073308D01*
X143393893Y-93078693D01*
X143393893Y-93078698D01*
X143375004Y-93294605D01*
X143374532Y-93300000D01*
X127205468Y-93300000D01*
X127185635Y-93073308D01*
X127126739Y-92853504D01*
X127030568Y-92647266D01*
X126900047Y-92460861D01*
X126739139Y-92299953D01*
X126552734Y-92169432D01*
X126346496Y-92073261D01*
X126341271Y-92071861D01*
X126341263Y-92071858D01*
X126131916Y-92015764D01*
X126131907Y-92015762D01*
X126126692Y-92014365D01*
X126121304Y-92013893D01*
X126121301Y-92013893D01*
X125905395Y-91995004D01*
X125900000Y-91994532D01*
X125894605Y-91995004D01*
X125678698Y-92013893D01*
X125678693Y-92013893D01*
X125673308Y-92014365D01*
X125668094Y-92015762D01*
X125668083Y-92015764D01*
X125458736Y-92071858D01*
X125458724Y-92071862D01*
X125453504Y-92073261D01*
X125448599Y-92075547D01*
X125448594Y-92075550D01*
X125252176Y-92167142D01*
X125252172Y-92167144D01*
X125247266Y-92169432D01*
X125242833Y-92172535D01*
X125242826Y-92172540D01*
X125065296Y-92296847D01*
X125065291Y-92296850D01*
X125060861Y-92299953D01*
X125057037Y-92303776D01*
X125057031Y-92303782D01*
X124903782Y-92457031D01*
X124903776Y-92457037D01*
X124899953Y-92460861D01*
X124896850Y-92465291D01*
X124896847Y-92465296D01*
X124772540Y-92642826D01*
X124772535Y-92642833D01*
X124769432Y-92647266D01*
X124767144Y-92652172D01*
X124767142Y-92652176D01*
X124675550Y-92848594D01*
X124675547Y-92848599D01*
X124673261Y-92853504D01*
X124671862Y-92858724D01*
X124671858Y-92858736D01*
X124615764Y-93068083D01*
X124615762Y-93068094D01*
X124614365Y-93073308D01*
X124613893Y-93078693D01*
X124613893Y-93078698D01*
X124595004Y-93294605D01*
X124594532Y-93300000D01*
X87640500Y-93300000D01*
X87640500Y-89326663D01*
X87654511Y-89269406D01*
X87693376Y-89225088D01*
X87729139Y-89200047D01*
X87890047Y-89039139D01*
X88020568Y-88852734D01*
X88116739Y-88646496D01*
X88175635Y-88426692D01*
X88195468Y-88200000D01*
X88175635Y-87973308D01*
X88142284Y-87848838D01*
X88118141Y-87758736D01*
X88118140Y-87758734D01*
X88116739Y-87753504D01*
X88020568Y-87547266D01*
X87890047Y-87360861D01*
X87729139Y-87199953D01*
X87585015Y-87099037D01*
X87547173Y-87072540D01*
X87547171Y-87072539D01*
X87542734Y-87069432D01*
X87336496Y-86973261D01*
X87331271Y-86971861D01*
X87331263Y-86971858D01*
X87121916Y-86915764D01*
X87121907Y-86915762D01*
X87116692Y-86914365D01*
X87111304Y-86913893D01*
X87111301Y-86913893D01*
X86895395Y-86895004D01*
X86890000Y-86894532D01*
X86884605Y-86895004D01*
X86668698Y-86913893D01*
X86668693Y-86913893D01*
X86663308Y-86914365D01*
X86658094Y-86915762D01*
X86658083Y-86915764D01*
X86448736Y-86971858D01*
X86448724Y-86971862D01*
X86443504Y-86973261D01*
X86438599Y-86975547D01*
X86438594Y-86975550D01*
X86242176Y-87067142D01*
X86242172Y-87067144D01*
X86237266Y-87069432D01*
X86232833Y-87072535D01*
X86232826Y-87072540D01*
X86055296Y-87196847D01*
X86055291Y-87196850D01*
X86050861Y-87199953D01*
X86047037Y-87203776D01*
X86047031Y-87203782D01*
X85977681Y-87273133D01*
X85922094Y-87305227D01*
X85857906Y-87305227D01*
X85802319Y-87273133D01*
X85732968Y-87203782D01*
X85729139Y-87199953D01*
X85585015Y-87099037D01*
X85547173Y-87072540D01*
X85547171Y-87072539D01*
X85542734Y-87069432D01*
X85336496Y-86973261D01*
X85331271Y-86971861D01*
X85331263Y-86971858D01*
X85121916Y-86915764D01*
X85121907Y-86915762D01*
X85116692Y-86914365D01*
X85111304Y-86913893D01*
X85111301Y-86913893D01*
X84895395Y-86895004D01*
X84890000Y-86894532D01*
X84884605Y-86895004D01*
X84668698Y-86913893D01*
X84668693Y-86913893D01*
X84663308Y-86914365D01*
X84658094Y-86915762D01*
X84658083Y-86915764D01*
X84448736Y-86971858D01*
X84448724Y-86971862D01*
X84443504Y-86973261D01*
X84438599Y-86975547D01*
X84438594Y-86975550D01*
X84242176Y-87067142D01*
X84242172Y-87067144D01*
X84237266Y-87069432D01*
X84232833Y-87072535D01*
X84232826Y-87072540D01*
X84224439Y-87078413D01*
X84165431Y-87100242D01*
X84103304Y-87090301D01*
X84059488Y-87055467D01*
X84059132Y-87055824D01*
X84056010Y-87052702D01*
X84054054Y-87051147D01*
X84052859Y-87049551D01*
X84052858Y-87049550D01*
X84047546Y-87042454D01*
X83932331Y-86956204D01*
X83820155Y-86914365D01*
X83804752Y-86908620D01*
X83804750Y-86908619D01*
X83797483Y-86905909D01*
X83789770Y-86905079D01*
X83789767Y-86905079D01*
X83741180Y-86899855D01*
X83741169Y-86899854D01*
X83737873Y-86899500D01*
X83734550Y-86899500D01*
X82045439Y-86899500D01*
X82045420Y-86899500D01*
X82042128Y-86899501D01*
X82038850Y-86899853D01*
X82038838Y-86899854D01*
X81990231Y-86905079D01*
X81990225Y-86905080D01*
X81982517Y-86905909D01*
X81975252Y-86908618D01*
X81975246Y-86908620D01*
X81855980Y-86953104D01*
X81855978Y-86953104D01*
X81847669Y-86956204D01*
X81840572Y-86961516D01*
X81840568Y-86961519D01*
X81739550Y-87037141D01*
X81739546Y-87037144D01*
X81732454Y-87042454D01*
X81727144Y-87049546D01*
X81727140Y-87049551D01*
X81702760Y-87082119D01*
X81648423Y-87123381D01*
X81580484Y-87129653D01*
X81519511Y-87099037D01*
X81428560Y-87015311D01*
X81428559Y-87015310D01*
X81424785Y-87011836D01*
X81369245Y-86975550D01*
X81220900Y-86878631D01*
X81220893Y-86878627D01*
X81216607Y-86875827D01*
X81211916Y-86873769D01*
X81211910Y-86873766D01*
X80993573Y-86777995D01*
X80993571Y-86777994D01*
X80988881Y-86775937D01*
X80983926Y-86774682D01*
X80983914Y-86774678D01*
X80844060Y-86739263D01*
X80795670Y-86714775D01*
X80762360Y-86671977D01*
X80750500Y-86619057D01*
X80750500Y-83024500D01*
X80767113Y-82962500D01*
X80812500Y-82917113D01*
X80874500Y-82900500D01*
X85475665Y-82900500D01*
X85537933Y-82900500D01*
X85662067Y-82900500D01*
X85724335Y-82900500D01*
X89873561Y-82900500D01*
X89919052Y-82909146D01*
X89958199Y-82933878D01*
X89960055Y-82935612D01*
X89962947Y-82938708D01*
X90185853Y-83120055D01*
X90431375Y-83269361D01*
X90435260Y-83271048D01*
X90435261Y-83271049D01*
X90668141Y-83372203D01*
X90694942Y-83383844D01*
X90915384Y-83445608D01*
X90967562Y-83460228D01*
X90967564Y-83460228D01*
X90971642Y-83461371D01*
X91256322Y-83500500D01*
X91539441Y-83500500D01*
X91543678Y-83500500D01*
X91828358Y-83461371D01*
X92105058Y-83383844D01*
X92368625Y-83269361D01*
X92614147Y-83120055D01*
X92837053Y-82938708D01*
X92884876Y-82887501D01*
X92933975Y-82855299D01*
X92992385Y-82849294D01*
X93047008Y-82870835D01*
X93085598Y-82915091D01*
X93099500Y-82972139D01*
X93099500Y-89299135D01*
X93098548Y-89314472D01*
X93096276Y-89332692D01*
X93096275Y-89332705D01*
X93095643Y-89337779D01*
X93095854Y-89342890D01*
X93095854Y-89342901D01*
X93099394Y-89428472D01*
X93099500Y-89433596D01*
X93099500Y-89462067D01*
X93099709Y-89464594D01*
X93099710Y-89464609D01*
X93101851Y-89490447D01*
X93102168Y-89495559D01*
X93105706Y-89581107D01*
X93105707Y-89581116D01*
X93105919Y-89586237D01*
X93109038Y-89601111D01*
X93110738Y-89609221D01*
X93112952Y-89624418D01*
X93114468Y-89642713D01*
X93114469Y-89642720D01*
X93114892Y-89647821D01*
X93116149Y-89652786D01*
X93116150Y-89652790D01*
X93137171Y-89735803D01*
X93138326Y-89740793D01*
X93153834Y-89814753D01*
X93156951Y-89829614D01*
X93158810Y-89834380D01*
X93158811Y-89834381D01*
X93165485Y-89851485D01*
X93170170Y-89866112D01*
X93175937Y-89888881D01*
X93177996Y-89893575D01*
X93212393Y-89971993D01*
X93214354Y-89976728D01*
X93245479Y-90056496D01*
X93245481Y-90056502D01*
X93247344Y-90061274D01*
X93249964Y-90065672D01*
X93249971Y-90065685D01*
X93259363Y-90081446D01*
X93266397Y-90095109D01*
X93275827Y-90116607D01*
X93278632Y-90120901D01*
X93278634Y-90120904D01*
X93325464Y-90192583D01*
X93328174Y-90196926D01*
X93374634Y-90274894D01*
X93377945Y-90278803D01*
X93377947Y-90278806D01*
X93389803Y-90292804D01*
X93398989Y-90305123D01*
X93409028Y-90320489D01*
X93409035Y-90320499D01*
X93411836Y-90324785D01*
X93415301Y-90328549D01*
X93415305Y-90328554D01*
X93473294Y-90391546D01*
X93476687Y-90395388D01*
X93495098Y-90417126D01*
X93496911Y-90418939D01*
X93515227Y-90437255D01*
X93518776Y-90440953D01*
X93580256Y-90507738D01*
X93584302Y-90510887D01*
X93584303Y-90510888D01*
X93598787Y-90522161D01*
X93610306Y-90532334D01*
X93817665Y-90739693D01*
X93827837Y-90751211D01*
X93839115Y-90765702D01*
X93839121Y-90765708D01*
X93842262Y-90769744D01*
X93846027Y-90773210D01*
X93846029Y-90773212D01*
X93909045Y-90831222D01*
X93912742Y-90834770D01*
X93932874Y-90854902D01*
X93934828Y-90856557D01*
X93934839Y-90856567D01*
X93954598Y-90873301D01*
X93958441Y-90876694D01*
X94025215Y-90938164D01*
X94029512Y-90940971D01*
X94029513Y-90940972D01*
X94044864Y-90951001D01*
X94057187Y-90960190D01*
X94071188Y-90972049D01*
X94071198Y-90972056D01*
X94075106Y-90975366D01*
X94153078Y-91021827D01*
X94157408Y-91024530D01*
X94229095Y-91071366D01*
X94229104Y-91071370D01*
X94233393Y-91074173D01*
X94238082Y-91076230D01*
X94238088Y-91076233D01*
X94254895Y-91083605D01*
X94268555Y-91090636D01*
X94288727Y-91102656D01*
X94365403Y-91132575D01*
X94373263Y-91135642D01*
X94377998Y-91137603D01*
X94456422Y-91172003D01*
X94456425Y-91172004D01*
X94461119Y-91174063D01*
X94483882Y-91179826D01*
X94498501Y-91184509D01*
X94520386Y-91193050D01*
X94609226Y-91211678D01*
X94614193Y-91212827D01*
X94702179Y-91235108D01*
X94725572Y-91237046D01*
X94740783Y-91239263D01*
X94758738Y-91243028D01*
X94758745Y-91243028D01*
X94763763Y-91244081D01*
X94854458Y-91247831D01*
X94859557Y-91248148D01*
X94887933Y-91250500D01*
X94916404Y-91250500D01*
X94921527Y-91250605D01*
X95012221Y-91254357D01*
X95020395Y-91253338D01*
X95035528Y-91251452D01*
X95050865Y-91250500D01*
X104359497Y-91250500D01*
X104362067Y-91250500D01*
X104547821Y-91235108D01*
X104788881Y-91174063D01*
X105016607Y-91074173D01*
X105098468Y-91020690D01*
X105130907Y-91005655D01*
X105166289Y-91000500D01*
X134072815Y-91000500D01*
X134086697Y-91001279D01*
X134121827Y-91005238D01*
X134187933Y-91000780D01*
X134196274Y-91000500D01*
X134203380Y-91000500D01*
X134206155Y-91000500D01*
X134208931Y-91000250D01*
X134208933Y-91000250D01*
X134246762Y-90996845D01*
X134249505Y-90996628D01*
X134346412Y-90990096D01*
X134351807Y-90988736D01*
X134357321Y-90987863D01*
X134357326Y-90987895D01*
X134363165Y-90986903D01*
X134363160Y-90986870D01*
X134368637Y-90985876D01*
X134374188Y-90985377D01*
X134467856Y-90959525D01*
X134470466Y-90958836D01*
X134564683Y-90935096D01*
X134569753Y-90932792D01*
X134575010Y-90930953D01*
X134575021Y-90930984D01*
X134580596Y-90928963D01*
X134580585Y-90928932D01*
X134585798Y-90926975D01*
X134591170Y-90925493D01*
X134678706Y-90883337D01*
X134681166Y-90882186D01*
X134769626Y-90842007D01*
X134774206Y-90838833D01*
X134779052Y-90836084D01*
X134779068Y-90836112D01*
X134784190Y-90833129D01*
X134784174Y-90833101D01*
X134788948Y-90830248D01*
X134793973Y-90827829D01*
X134824183Y-90805879D01*
X134872560Y-90770732D01*
X134874782Y-90769154D01*
X134954654Y-90713820D01*
X134958596Y-90709877D01*
X134962871Y-90706309D01*
X134962892Y-90706334D01*
X134967394Y-90702489D01*
X134967373Y-90702464D01*
X134971568Y-90698797D01*
X134976078Y-90695522D01*
X135043239Y-90625275D01*
X135045096Y-90623376D01*
X135929667Y-89738805D01*
X135940016Y-89729557D01*
X135967666Y-89707508D01*
X136011270Y-89657597D01*
X136016943Y-89651529D01*
X136023945Y-89644529D01*
X136050124Y-89613169D01*
X136051818Y-89611187D01*
X136115765Y-89537996D01*
X136118627Y-89533204D01*
X136121895Y-89528707D01*
X136121922Y-89528726D01*
X136125351Y-89523893D01*
X136125324Y-89523875D01*
X136128494Y-89519299D01*
X136132068Y-89515019D01*
X136180024Y-89430500D01*
X136181375Y-89428181D01*
X136231215Y-89344764D01*
X136233172Y-89339546D01*
X136235587Y-89334533D01*
X136235616Y-89334547D01*
X136238130Y-89329174D01*
X136238100Y-89329161D01*
X136240403Y-89324089D01*
X136243153Y-89319245D01*
X136275250Y-89227514D01*
X136276182Y-89224947D01*
X136284364Y-89203148D01*
X136310307Y-89134024D01*
X136311303Y-89128533D01*
X136312782Y-89123175D01*
X136312814Y-89123183D01*
X136314328Y-89117446D01*
X136314297Y-89117438D01*
X136315656Y-89112044D01*
X136317498Y-89106782D01*
X136332700Y-89010795D01*
X136333154Y-89008125D01*
X136350500Y-88912547D01*
X136350500Y-88906974D01*
X136350999Y-88901431D01*
X136351030Y-88901433D01*
X136351496Y-88895514D01*
X136351464Y-88895512D01*
X136351838Y-88889965D01*
X136352710Y-88884460D01*
X136350531Y-88787359D01*
X136350500Y-88784577D01*
X136350500Y-82694500D01*
X136367113Y-82632500D01*
X136412500Y-82587113D01*
X136474500Y-82570500D01*
X137680966Y-82570500D01*
X137741082Y-82586047D01*
X137786124Y-82628790D01*
X137804796Y-82688011D01*
X137792416Y-82748858D01*
X137752089Y-82796075D01*
X137665296Y-82856847D01*
X137665291Y-82856850D01*
X137660861Y-82859953D01*
X137657037Y-82863776D01*
X137657031Y-82863782D01*
X137503782Y-83017031D01*
X137503776Y-83017037D01*
X137499953Y-83020861D01*
X137496850Y-83025291D01*
X137496847Y-83025296D01*
X137372540Y-83202826D01*
X137372535Y-83202833D01*
X137369432Y-83207266D01*
X137367144Y-83212172D01*
X137367142Y-83212176D01*
X137275550Y-83408594D01*
X137275547Y-83408599D01*
X137273261Y-83413504D01*
X137271862Y-83418724D01*
X137271858Y-83418736D01*
X137215764Y-83628083D01*
X137215762Y-83628094D01*
X137214365Y-83633308D01*
X137213893Y-83638693D01*
X137213893Y-83638698D01*
X137204366Y-83747592D01*
X137194532Y-83860000D01*
X137195004Y-83865395D01*
X137213547Y-84077349D01*
X137214365Y-84086692D01*
X137215762Y-84091907D01*
X137215764Y-84091916D01*
X137271858Y-84301263D01*
X137271861Y-84301271D01*
X137273261Y-84306496D01*
X137369432Y-84512734D01*
X137499953Y-84699139D01*
X137660861Y-84860047D01*
X137847266Y-84990568D01*
X137852172Y-84992855D01*
X137852176Y-84992858D01*
X137905274Y-85017618D01*
X137957450Y-85063375D01*
X137976869Y-85130000D01*
X137957450Y-85196625D01*
X137905274Y-85242382D01*
X137852176Y-85267141D01*
X137852163Y-85267148D01*
X137847266Y-85269432D01*
X137842833Y-85272535D01*
X137842826Y-85272540D01*
X137665296Y-85396847D01*
X137665291Y-85396850D01*
X137660861Y-85399953D01*
X137657037Y-85403776D01*
X137657031Y-85403782D01*
X137503782Y-85557031D01*
X137503776Y-85557037D01*
X137499953Y-85560861D01*
X137496850Y-85565291D01*
X137496847Y-85565296D01*
X137372540Y-85742826D01*
X137372535Y-85742833D01*
X137369432Y-85747266D01*
X137367144Y-85752172D01*
X137367142Y-85752176D01*
X137275550Y-85948594D01*
X137275547Y-85948599D01*
X137273261Y-85953504D01*
X137271862Y-85958724D01*
X137271858Y-85958736D01*
X137215764Y-86168083D01*
X137215762Y-86168094D01*
X137214365Y-86173308D01*
X137213893Y-86178693D01*
X137213893Y-86178698D01*
X137198048Y-86359814D01*
X137194532Y-86400000D01*
X137214365Y-86626692D01*
X137215762Y-86631907D01*
X137215764Y-86631916D01*
X137271858Y-86841263D01*
X137271861Y-86841271D01*
X137273261Y-86846496D01*
X137369432Y-87052734D01*
X137499953Y-87239139D01*
X137660861Y-87400047D01*
X137847266Y-87530568D01*
X138053504Y-87626739D01*
X138273308Y-87685635D01*
X138443216Y-87700500D01*
X139354075Y-87700500D01*
X139356784Y-87700500D01*
X139526692Y-87685635D01*
X139746496Y-87626739D01*
X139952734Y-87530568D01*
X140139139Y-87400047D01*
X140300047Y-87239139D01*
X140430568Y-87052734D01*
X140526739Y-86846496D01*
X140585635Y-86626692D01*
X140605468Y-86400000D01*
X140585635Y-86173308D01*
X140526739Y-85953504D01*
X140430568Y-85747266D01*
X140300047Y-85560861D01*
X140139139Y-85399953D01*
X139952734Y-85269432D01*
X139894724Y-85242381D01*
X139842549Y-85196625D01*
X139823130Y-85130000D01*
X139842549Y-85063375D01*
X139894725Y-85017618D01*
X139952734Y-84990568D01*
X140139139Y-84860047D01*
X140300047Y-84699139D01*
X140430568Y-84512734D01*
X140526739Y-84306496D01*
X140585635Y-84086692D01*
X140605468Y-83860000D01*
X140585635Y-83633308D01*
X140543214Y-83474991D01*
X140528141Y-83418736D01*
X140528140Y-83418734D01*
X140526739Y-83413504D01*
X140430568Y-83207266D01*
X140300047Y-83020861D01*
X140139139Y-82859953D01*
X140047911Y-82796075D01*
X140007584Y-82748858D01*
X139995204Y-82688011D01*
X140013876Y-82628790D01*
X140058918Y-82586047D01*
X140119034Y-82570500D01*
X141222815Y-82570500D01*
X141236697Y-82571279D01*
X141271827Y-82575238D01*
X141337933Y-82570780D01*
X141346274Y-82570500D01*
X141353380Y-82570500D01*
X141356155Y-82570500D01*
X141358931Y-82570250D01*
X141358933Y-82570250D01*
X141396762Y-82566845D01*
X141399505Y-82566628D01*
X141496412Y-82560096D01*
X141501807Y-82558736D01*
X141507321Y-82557863D01*
X141507326Y-82557895D01*
X141513165Y-82556903D01*
X141513160Y-82556870D01*
X141518637Y-82555876D01*
X141524188Y-82555377D01*
X141617856Y-82529525D01*
X141620466Y-82528836D01*
X141714683Y-82505096D01*
X141719753Y-82502792D01*
X141725010Y-82500953D01*
X141725021Y-82500984D01*
X141730596Y-82498963D01*
X141730585Y-82498932D01*
X141735798Y-82496975D01*
X141741170Y-82495493D01*
X141828706Y-82453337D01*
X141831166Y-82452186D01*
X141919626Y-82412007D01*
X141924206Y-82408833D01*
X141929052Y-82406084D01*
X141929068Y-82406112D01*
X141934190Y-82403129D01*
X141934174Y-82403101D01*
X141938948Y-82400248D01*
X141943973Y-82397829D01*
X142022560Y-82340732D01*
X142024782Y-82339154D01*
X142104654Y-82283820D01*
X142108596Y-82279877D01*
X142112871Y-82276309D01*
X142112892Y-82276334D01*
X142117394Y-82272489D01*
X142117373Y-82272464D01*
X142121568Y-82268797D01*
X142126078Y-82265522D01*
X142193239Y-82195275D01*
X142195096Y-82193376D01*
X142629489Y-81758983D01*
X142664771Y-81734280D01*
X142672734Y-81730568D01*
X142859139Y-81600047D01*
X143020047Y-81439139D01*
X143150568Y-81252734D01*
X143246739Y-81046496D01*
X143305635Y-80826692D01*
X143325468Y-80600000D01*
X143305635Y-80373308D01*
X143297125Y-80341550D01*
X143274725Y-80257950D01*
X143270500Y-80225857D01*
X143270500Y-76174143D01*
X143274725Y-76142050D01*
X143276314Y-76136119D01*
X143305635Y-76026692D01*
X143325468Y-75800000D01*
X143305635Y-75573308D01*
X143270948Y-75443852D01*
X143248141Y-75358736D01*
X143248140Y-75358734D01*
X143246739Y-75353504D01*
X143150568Y-75147266D01*
X143020047Y-74960861D01*
X142971367Y-74912181D01*
X142941117Y-74862818D01*
X142936575Y-74805102D01*
X142958730Y-74751615D01*
X143002753Y-74714015D01*
X143059048Y-74700500D01*
X149614217Y-74700500D01*
X149661670Y-74709939D01*
X149701898Y-74736819D01*
X150853112Y-75888033D01*
X150877813Y-75923309D01*
X150888959Y-75964906D01*
X150893665Y-76018698D01*
X150894365Y-76026692D01*
X150895762Y-76031907D01*
X150895764Y-76031916D01*
X150951858Y-76241263D01*
X150951861Y-76241271D01*
X150953261Y-76246496D01*
X151049432Y-76452734D01*
X151052539Y-76457171D01*
X151052540Y-76457173D01*
X151059205Y-76466692D01*
X151179953Y-76639139D01*
X151340861Y-76800047D01*
X151527266Y-76930568D01*
X151733504Y-77026739D01*
X151738734Y-77028140D01*
X151738736Y-77028141D01*
X151948083Y-77084235D01*
X151953308Y-77085635D01*
X152180000Y-77105468D01*
X152406692Y-77085635D01*
X152626496Y-77026739D01*
X152832734Y-76930568D01*
X153019139Y-76800047D01*
X153180047Y-76639139D01*
X153310568Y-76452734D01*
X153406739Y-76246496D01*
X153465635Y-76026692D01*
X153485468Y-75800000D01*
X153465635Y-75573308D01*
X153430948Y-75443852D01*
X153408141Y-75358736D01*
X153408140Y-75358734D01*
X153406739Y-75353504D01*
X153310568Y-75147266D01*
X153180047Y-74960861D01*
X153019139Y-74799953D01*
X152940363Y-74744794D01*
X152837173Y-74672540D01*
X152837171Y-74672539D01*
X152832734Y-74669432D01*
X152684001Y-74600076D01*
X152631405Y-74575550D01*
X152631403Y-74575549D01*
X152626496Y-74573261D01*
X152621271Y-74571861D01*
X152621263Y-74571858D01*
X152411918Y-74515765D01*
X152411914Y-74515764D01*
X152406692Y-74514365D01*
X152401304Y-74513893D01*
X152401301Y-74513893D01*
X152344903Y-74508958D01*
X152303307Y-74497812D01*
X152268032Y-74473111D01*
X151742601Y-73947680D01*
X151710507Y-73892093D01*
X151710507Y-73827905D01*
X151742599Y-73772320D01*
X152688035Y-72826884D01*
X152723309Y-72802186D01*
X152764904Y-72791040D01*
X152826692Y-72785635D01*
X153046496Y-72726739D01*
X153252734Y-72630568D01*
X153439139Y-72500047D01*
X153600047Y-72339139D01*
X153730568Y-72152734D01*
X153826739Y-71946496D01*
X153885635Y-71726692D01*
X153905468Y-71500000D01*
X153885635Y-71273308D01*
X153875856Y-71236812D01*
X153828141Y-71058736D01*
X153828140Y-71058734D01*
X153826739Y-71053504D01*
X153730568Y-70847266D01*
X153600047Y-70660861D01*
X153439139Y-70499953D01*
X153252734Y-70369432D01*
X153136968Y-70315449D01*
X153051405Y-70275550D01*
X153051403Y-70275549D01*
X153046496Y-70273261D01*
X153041271Y-70271861D01*
X153041263Y-70271858D01*
X152831916Y-70215764D01*
X152831907Y-70215762D01*
X152826692Y-70214365D01*
X152821304Y-70213893D01*
X152821301Y-70213893D01*
X152605395Y-70195004D01*
X152600000Y-70194532D01*
X152594605Y-70195004D01*
X152378698Y-70213893D01*
X152378693Y-70213893D01*
X152373308Y-70214365D01*
X152368094Y-70215762D01*
X152368083Y-70215764D01*
X152158736Y-70271858D01*
X152158724Y-70271862D01*
X152153504Y-70273261D01*
X152148599Y-70275547D01*
X152148594Y-70275550D01*
X151952176Y-70367142D01*
X151952172Y-70367144D01*
X151947266Y-70369432D01*
X151942833Y-70372535D01*
X151942826Y-70372540D01*
X151765296Y-70496847D01*
X151765291Y-70496850D01*
X151760861Y-70499953D01*
X151757037Y-70503776D01*
X151757031Y-70503782D01*
X151603782Y-70657031D01*
X151603776Y-70657037D01*
X151599953Y-70660861D01*
X151596850Y-70665291D01*
X151596847Y-70665296D01*
X151472540Y-70842826D01*
X151472535Y-70842833D01*
X151469432Y-70847266D01*
X151467144Y-70852172D01*
X151467142Y-70852176D01*
X151375550Y-71048594D01*
X151375547Y-71048599D01*
X151373261Y-71053504D01*
X151371862Y-71058724D01*
X151371858Y-71058736D01*
X151315765Y-71268081D01*
X151315765Y-71268083D01*
X151314365Y-71273308D01*
X151313893Y-71278693D01*
X151313893Y-71278698D01*
X151308958Y-71335096D01*
X151297812Y-71376692D01*
X151273111Y-71411967D01*
X150021899Y-72663181D01*
X149981671Y-72690061D01*
X149934218Y-72699500D01*
X140177588Y-72699500D01*
X140140300Y-72693761D01*
X140106469Y-72677077D01*
X140047908Y-72636073D01*
X140007584Y-72588858D01*
X139995204Y-72528010D01*
X140013876Y-72468790D01*
X140058918Y-72426047D01*
X140119034Y-72410500D01*
X142147815Y-72410500D01*
X142161697Y-72411279D01*
X142196827Y-72415238D01*
X142262933Y-72410780D01*
X142271274Y-72410500D01*
X142278380Y-72410500D01*
X142281155Y-72410500D01*
X142283931Y-72410250D01*
X142283933Y-72410250D01*
X142321762Y-72406845D01*
X142324505Y-72406628D01*
X142421412Y-72400096D01*
X142426807Y-72398736D01*
X142432321Y-72397863D01*
X142432326Y-72397895D01*
X142438165Y-72396903D01*
X142438160Y-72396870D01*
X142443637Y-72395876D01*
X142449188Y-72395377D01*
X142542856Y-72369525D01*
X142545466Y-72368836D01*
X142639683Y-72345096D01*
X142644753Y-72342792D01*
X142650010Y-72340953D01*
X142650021Y-72340984D01*
X142655596Y-72338963D01*
X142655585Y-72338932D01*
X142660798Y-72336975D01*
X142666170Y-72335493D01*
X142753706Y-72293337D01*
X142756166Y-72292186D01*
X142844626Y-72252007D01*
X142849206Y-72248833D01*
X142854052Y-72246084D01*
X142854068Y-72246112D01*
X142859190Y-72243129D01*
X142859174Y-72243101D01*
X142863950Y-72240247D01*
X142868973Y-72237829D01*
X142947628Y-72180681D01*
X142949705Y-72179207D01*
X143009918Y-72137492D01*
X143028114Y-72127047D01*
X143052734Y-72115568D01*
X143239139Y-71985047D01*
X143400047Y-71824139D01*
X143530568Y-71637734D01*
X143534280Y-71629771D01*
X143558983Y-71594489D01*
X144429667Y-70723805D01*
X144440016Y-70714557D01*
X144467666Y-70692508D01*
X144511270Y-70642597D01*
X144516943Y-70636529D01*
X144523944Y-70629530D01*
X144550106Y-70598191D01*
X144551818Y-70596187D01*
X144615765Y-70522996D01*
X144618627Y-70518204D01*
X144621895Y-70513707D01*
X144621922Y-70513726D01*
X144625351Y-70508893D01*
X144625324Y-70508875D01*
X144628494Y-70504299D01*
X144632068Y-70500019D01*
X144680024Y-70415500D01*
X144681375Y-70413181D01*
X144707514Y-70369432D01*
X144731215Y-70329764D01*
X144733172Y-70324546D01*
X144735587Y-70319533D01*
X144735616Y-70319547D01*
X144738130Y-70314174D01*
X144738100Y-70314161D01*
X144740403Y-70309089D01*
X144743153Y-70304245D01*
X144775253Y-70212507D01*
X144776161Y-70210002D01*
X144810307Y-70119024D01*
X144811301Y-70113540D01*
X144812783Y-70108175D01*
X144812814Y-70108183D01*
X144814327Y-70102451D01*
X144814296Y-70102444D01*
X144815656Y-70097045D01*
X144817498Y-70091783D01*
X144832710Y-69995732D01*
X144833144Y-69993181D01*
X144850500Y-69897547D01*
X144850500Y-69891974D01*
X144850999Y-69886431D01*
X144851030Y-69886433D01*
X144851496Y-69880514D01*
X144851464Y-69880512D01*
X144851838Y-69874965D01*
X144852710Y-69869460D01*
X144850531Y-69772379D01*
X144850500Y-69769596D01*
X144850500Y-65946729D01*
X144858318Y-65903396D01*
X144861337Y-65895300D01*
X144894091Y-65807483D01*
X144900500Y-65747873D01*
X144900499Y-64052128D01*
X144894091Y-63992517D01*
X144843796Y-63857669D01*
X144757546Y-63742454D01*
X144736123Y-63726417D01*
X144649431Y-63661519D01*
X144649430Y-63661518D01*
X144642331Y-63656204D01*
X144530155Y-63614365D01*
X144514752Y-63608620D01*
X144514750Y-63608619D01*
X144507483Y-63605909D01*
X144499770Y-63605079D01*
X144499767Y-63605079D01*
X144451180Y-63599855D01*
X144451169Y-63599854D01*
X144447873Y-63599500D01*
X144444550Y-63599500D01*
X142755439Y-63599500D01*
X142755420Y-63599500D01*
X142752128Y-63599501D01*
X142748850Y-63599853D01*
X142748838Y-63599854D01*
X142700231Y-63605079D01*
X142700225Y-63605080D01*
X142692517Y-63605909D01*
X142685252Y-63608618D01*
X142685246Y-63608620D01*
X142596604Y-63641682D01*
X142553271Y-63649500D01*
X140034143Y-63649500D01*
X140002050Y-63645275D01*
X139891916Y-63615764D01*
X139891907Y-63615762D01*
X139886692Y-63614365D01*
X139881304Y-63613893D01*
X139881301Y-63613893D01*
X139665395Y-63595004D01*
X139660000Y-63594532D01*
X139654605Y-63595004D01*
X139438698Y-63613893D01*
X139438693Y-63613893D01*
X139433308Y-63614365D01*
X139428094Y-63615762D01*
X139428083Y-63615764D01*
X139218736Y-63671858D01*
X139218724Y-63671862D01*
X139213504Y-63673261D01*
X139208599Y-63675547D01*
X139208594Y-63675550D01*
X139012176Y-63767142D01*
X139012172Y-63767144D01*
X139007266Y-63769432D01*
X139002833Y-63772535D01*
X139002826Y-63772540D01*
X138825296Y-63896847D01*
X138825291Y-63896850D01*
X138820861Y-63899953D01*
X138817037Y-63903776D01*
X138817031Y-63903782D01*
X138663782Y-64057031D01*
X138663776Y-64057037D01*
X138659953Y-64060861D01*
X138656850Y-64065291D01*
X138656847Y-64065296D01*
X138532540Y-64242826D01*
X138532535Y-64242833D01*
X138529432Y-64247266D01*
X138527144Y-64252172D01*
X138527142Y-64252176D01*
X138435550Y-64448594D01*
X138435547Y-64448599D01*
X138433261Y-64453504D01*
X138431862Y-64458724D01*
X138431858Y-64458736D01*
X138375764Y-64668083D01*
X138375762Y-64668094D01*
X138374365Y-64673308D01*
X138373893Y-64678693D01*
X138373893Y-64678698D01*
X138360942Y-64826731D01*
X138354532Y-64900000D01*
X138355004Y-64905395D01*
X138372479Y-65105141D01*
X138374365Y-65126692D01*
X138375762Y-65131907D01*
X138375764Y-65131916D01*
X138431858Y-65341263D01*
X138431861Y-65341271D01*
X138433261Y-65346496D01*
X138435549Y-65351403D01*
X138435550Y-65351405D01*
X138489667Y-65467459D01*
X138529432Y-65552734D01*
X138659953Y-65739139D01*
X138820861Y-65900047D01*
X139007266Y-66030568D01*
X139213504Y-66126739D01*
X139218734Y-66128140D01*
X139218736Y-66128141D01*
X139428083Y-66184235D01*
X139433308Y-66185635D01*
X139660000Y-66205468D01*
X139886692Y-66185635D01*
X140002050Y-66154724D01*
X140034143Y-66150500D01*
X142225500Y-66150500D01*
X142287500Y-66167113D01*
X142332887Y-66212500D01*
X142349500Y-66274500D01*
X142349500Y-69215664D01*
X142340061Y-69263117D01*
X142313181Y-69303345D01*
X141790509Y-69826015D01*
X141755244Y-69850711D01*
X141752170Y-69852144D01*
X141752159Y-69852149D01*
X141747266Y-69854432D01*
X141700643Y-69887077D01*
X141666812Y-69903761D01*
X141629524Y-69909500D01*
X139674143Y-69909500D01*
X139642050Y-69905275D01*
X139531916Y-69875764D01*
X139531907Y-69875762D01*
X139526692Y-69874365D01*
X139521304Y-69873893D01*
X139521301Y-69873893D01*
X139359484Y-69859736D01*
X139359479Y-69859735D01*
X139356784Y-69859500D01*
X138443216Y-69859500D01*
X138440521Y-69859735D01*
X138440515Y-69859736D01*
X138278698Y-69873893D01*
X138278693Y-69873893D01*
X138273308Y-69874365D01*
X138268094Y-69875762D01*
X138268083Y-69875764D01*
X138157950Y-69905275D01*
X138125857Y-69909500D01*
X135577175Y-69909500D01*
X135563292Y-69908720D01*
X135533711Y-69905387D01*
X135533710Y-69905386D01*
X135528172Y-69904763D01*
X135522621Y-69905137D01*
X135522611Y-69905137D01*
X135462077Y-69909219D01*
X135453736Y-69909500D01*
X135443845Y-69909500D01*
X135441083Y-69909748D01*
X135441072Y-69909749D01*
X135403238Y-69913153D01*
X135400470Y-69913371D01*
X135309139Y-69919529D01*
X135309131Y-69919530D01*
X135303587Y-69919904D01*
X135298191Y-69921263D01*
X135292690Y-69922135D01*
X135292685Y-69922104D01*
X135286830Y-69923099D01*
X135286836Y-69923129D01*
X135281350Y-69924124D01*
X135275812Y-69924623D01*
X135270455Y-69926101D01*
X135270446Y-69926103D01*
X135182152Y-69950470D01*
X135179465Y-69951179D01*
X135090713Y-69973544D01*
X135085316Y-69974904D01*
X135080250Y-69977204D01*
X135074988Y-69979046D01*
X135074978Y-69979017D01*
X135069401Y-69981039D01*
X135069412Y-69981068D01*
X135064191Y-69983027D01*
X135058830Y-69984507D01*
X135053822Y-69986918D01*
X135053813Y-69986922D01*
X134971324Y-70026646D01*
X134968807Y-70027824D01*
X134880374Y-70067993D01*
X134875797Y-70071163D01*
X134870954Y-70073912D01*
X134870939Y-70073885D01*
X134865806Y-70076874D01*
X134865822Y-70076900D01*
X134861039Y-70079757D01*
X134856027Y-70082171D01*
X134851531Y-70085437D01*
X134851520Y-70085444D01*
X134777435Y-70139269D01*
X134775168Y-70140877D01*
X134699924Y-70193007D01*
X134699912Y-70193016D01*
X134695345Y-70196181D01*
X134691413Y-70200112D01*
X134687134Y-70203685D01*
X134687114Y-70203662D01*
X134682596Y-70207520D01*
X134682617Y-70207544D01*
X134678426Y-70211204D01*
X134673922Y-70214478D01*
X134670076Y-70218499D01*
X134670073Y-70218503D01*
X134606803Y-70284677D01*
X134604859Y-70286665D01*
X134270344Y-70621180D01*
X134259979Y-70630443D01*
X134236694Y-70649012D01*
X134236675Y-70649029D01*
X134232334Y-70652492D01*
X134228673Y-70656681D01*
X134228670Y-70656685D01*
X134188738Y-70702390D01*
X134183046Y-70708479D01*
X134178021Y-70713504D01*
X134178012Y-70713513D01*
X134176055Y-70715471D01*
X134174280Y-70717596D01*
X134174269Y-70717609D01*
X134149929Y-70746763D01*
X134148139Y-70748858D01*
X134084235Y-70822004D01*
X134081381Y-70826778D01*
X134078106Y-70831288D01*
X134078081Y-70831270D01*
X134074644Y-70836115D01*
X134074669Y-70836133D01*
X134071499Y-70840707D01*
X134067932Y-70844981D01*
X134065187Y-70849817D01*
X134065179Y-70849830D01*
X134019978Y-70929490D01*
X134018604Y-70931849D01*
X133968785Y-71015236D01*
X133966829Y-71020447D01*
X133964412Y-71025467D01*
X133964384Y-71025453D01*
X133961869Y-71030828D01*
X133961898Y-71030841D01*
X133959593Y-71035913D01*
X133956847Y-71040755D01*
X133955008Y-71046007D01*
X133955007Y-71046012D01*
X133924762Y-71132444D01*
X133923815Y-71135057D01*
X133893230Y-71216552D01*
X133889693Y-71225976D01*
X133888699Y-71231447D01*
X133887217Y-71236821D01*
X133887187Y-71236812D01*
X133885672Y-71242555D01*
X133885701Y-71242563D01*
X133884339Y-71247963D01*
X133882502Y-71253217D01*
X133881632Y-71258707D01*
X133881630Y-71258717D01*
X133867304Y-71349166D01*
X133866845Y-71351870D01*
X133849500Y-71447453D01*
X133849500Y-71453024D01*
X133849001Y-71458570D01*
X133848969Y-71458567D01*
X133848503Y-71464485D01*
X133848536Y-71464488D01*
X133848161Y-71470038D01*
X133847290Y-71475540D01*
X133847414Y-71481097D01*
X133847414Y-71481108D01*
X133849469Y-71572641D01*
X133849500Y-71575423D01*
X133849500Y-77405500D01*
X133832887Y-77467500D01*
X133787500Y-77512887D01*
X133725500Y-77529500D01*
X132499034Y-77529500D01*
X132438918Y-77513953D01*
X132393876Y-77471210D01*
X132375204Y-77411989D01*
X132387584Y-77351142D01*
X132427911Y-77303925D01*
X132457442Y-77283247D01*
X132519139Y-77240047D01*
X132680047Y-77079139D01*
X132810568Y-76892734D01*
X132906739Y-76686496D01*
X132965635Y-76466692D01*
X132985468Y-76240000D01*
X132965635Y-76013308D01*
X132906739Y-75793504D01*
X132810568Y-75587266D01*
X132680047Y-75400861D01*
X132519139Y-75239953D01*
X132449018Y-75190854D01*
X132337173Y-75112540D01*
X132337171Y-75112539D01*
X132332734Y-75109432D01*
X132274724Y-75082381D01*
X132222549Y-75036625D01*
X132203130Y-74970000D01*
X132222549Y-74903375D01*
X132274725Y-74857618D01*
X132332734Y-74830568D01*
X132519139Y-74700047D01*
X132680047Y-74539139D01*
X132810568Y-74352734D01*
X132906739Y-74146496D01*
X132965635Y-73926692D01*
X132985468Y-73700000D01*
X132965635Y-73473308D01*
X132911170Y-73270039D01*
X132908141Y-73258736D01*
X132908140Y-73258734D01*
X132906739Y-73253504D01*
X132810568Y-73047266D01*
X132680047Y-72860861D01*
X132519139Y-72699953D01*
X132494535Y-72682725D01*
X132455398Y-72637883D01*
X132441665Y-72579969D01*
X132456499Y-72522328D01*
X132496485Y-72478239D01*
X132552406Y-72457861D01*
X132587483Y-72454091D01*
X132722331Y-72403796D01*
X132837546Y-72317546D01*
X132923796Y-72202331D01*
X132974091Y-72067483D01*
X132980500Y-72007873D01*
X132980499Y-70312128D01*
X132974091Y-70252517D01*
X132923796Y-70117669D01*
X132837546Y-70002454D01*
X132826883Y-69994472D01*
X132729431Y-69921519D01*
X132729430Y-69921518D01*
X132722331Y-69916204D01*
X132642505Y-69886431D01*
X132594752Y-69868620D01*
X132594750Y-69868619D01*
X132587483Y-69865909D01*
X132579770Y-69865079D01*
X132579767Y-69865079D01*
X132531180Y-69859855D01*
X132531169Y-69859854D01*
X132527873Y-69859500D01*
X132524551Y-69859500D01*
X132404500Y-69859500D01*
X132342500Y-69842887D01*
X132297113Y-69797500D01*
X132280500Y-69735500D01*
X132280500Y-67244262D01*
X132280540Y-67241121D01*
X132281310Y-67210722D01*
X132282757Y-67153637D01*
X132277444Y-67123998D01*
X132275500Y-67102124D01*
X132275500Y-66689262D01*
X132275540Y-66686121D01*
X132275571Y-66684879D01*
X132277757Y-66598637D01*
X132267349Y-66540573D01*
X132266041Y-66531242D01*
X132260074Y-66472562D01*
X132250964Y-66443528D01*
X132247227Y-66428305D01*
X132241858Y-66398347D01*
X132239524Y-66392503D01*
X132219976Y-66343565D01*
X132216816Y-66334689D01*
X132214532Y-66327412D01*
X132199159Y-66278412D01*
X132184396Y-66251814D01*
X132177660Y-66237631D01*
X132166377Y-66209383D01*
X132133917Y-66160131D01*
X132129036Y-66152073D01*
X132103463Y-66106000D01*
X132103462Y-66105999D01*
X132100409Y-66100498D01*
X132080591Y-66077413D01*
X132071140Y-66064879D01*
X132054402Y-66039481D01*
X132012692Y-65997771D01*
X132006287Y-65990860D01*
X131971960Y-65950874D01*
X131967866Y-65946105D01*
X131962896Y-65942258D01*
X131962891Y-65942253D01*
X131943805Y-65927479D01*
X131932026Y-65917105D01*
X130826887Y-64811966D01*
X130802186Y-64776689D01*
X130791040Y-64735092D01*
X130790447Y-64728312D01*
X130785635Y-64673308D01*
X130758467Y-64571916D01*
X130728141Y-64458736D01*
X130728140Y-64458734D01*
X130726739Y-64453504D01*
X130630568Y-64247266D01*
X130500047Y-64060861D01*
X130339139Y-63899953D01*
X130202014Y-63803938D01*
X130157173Y-63772540D01*
X130157171Y-63772539D01*
X130152734Y-63769432D01*
X130060489Y-63726417D01*
X129951405Y-63675550D01*
X129951403Y-63675549D01*
X129946496Y-63673261D01*
X129941271Y-63671861D01*
X129941263Y-63671858D01*
X129731916Y-63615764D01*
X129731907Y-63615762D01*
X129726692Y-63614365D01*
X129721306Y-63613893D01*
X129721302Y-63613893D01*
X129667280Y-63609167D01*
X129629989Y-63599930D01*
X129598242Y-63580295D01*
X129595059Y-63576947D01*
X129589897Y-63573354D01*
X129546642Y-63543247D01*
X129539119Y-63537575D01*
X129498280Y-63504275D01*
X129498277Y-63504273D01*
X129493407Y-63500302D01*
X129466437Y-63486213D01*
X129453024Y-63478087D01*
X129428049Y-63460705D01*
X129373817Y-63437432D01*
X129365351Y-63433411D01*
X129313049Y-63406091D01*
X129283802Y-63397722D01*
X129269021Y-63392459D01*
X129246841Y-63382941D01*
X129246835Y-63382939D01*
X129241058Y-63380460D01*
X129234905Y-63379195D01*
X129234891Y-63379191D01*
X129183273Y-63368583D01*
X129174126Y-63366338D01*
X129123465Y-63351842D01*
X129123453Y-63351839D01*
X129117418Y-63350113D01*
X129111154Y-63349635D01*
X129111149Y-63349635D01*
X129087075Y-63347802D01*
X129071533Y-63345622D01*
X129047902Y-63340766D01*
X129047901Y-63340765D01*
X129041741Y-63339500D01*
X129035452Y-63339500D01*
X128982759Y-63339500D01*
X128973344Y-63339142D01*
X128920794Y-63335140D01*
X128920789Y-63335140D01*
X128914524Y-63334663D01*
X128908290Y-63335456D01*
X128908284Y-63335457D01*
X128884349Y-63338506D01*
X128868683Y-63339500D01*
X126877588Y-63339500D01*
X126840301Y-63333761D01*
X126806465Y-63317075D01*
X126657173Y-63212540D01*
X126657171Y-63212539D01*
X126652734Y-63209432D01*
X126446496Y-63113261D01*
X126441271Y-63111861D01*
X126441263Y-63111858D01*
X126231916Y-63055764D01*
X126231907Y-63055762D01*
X126226692Y-63054365D01*
X126221304Y-63053893D01*
X126221301Y-63053893D01*
X126005395Y-63035004D01*
X126000000Y-63034532D01*
X125994605Y-63035004D01*
X125778698Y-63053893D01*
X125778693Y-63053893D01*
X125773308Y-63054365D01*
X125768094Y-63055762D01*
X125768083Y-63055764D01*
X125558736Y-63111858D01*
X125558724Y-63111862D01*
X125553504Y-63113261D01*
X125548599Y-63115547D01*
X125548594Y-63115550D01*
X125352176Y-63207142D01*
X125352172Y-63207144D01*
X125347266Y-63209432D01*
X125342833Y-63212535D01*
X125342826Y-63212540D01*
X125165296Y-63336847D01*
X125165291Y-63336850D01*
X125160861Y-63339953D01*
X125157037Y-63343776D01*
X125157031Y-63343782D01*
X125003782Y-63497031D01*
X125003776Y-63497037D01*
X124999953Y-63500861D01*
X124996850Y-63505291D01*
X124996847Y-63505296D01*
X124872540Y-63682826D01*
X124872535Y-63682833D01*
X124869432Y-63687266D01*
X124867144Y-63692172D01*
X124867142Y-63692176D01*
X124775550Y-63888594D01*
X124775547Y-63888599D01*
X124773261Y-63893504D01*
X124771862Y-63898724D01*
X124771858Y-63898736D01*
X124715764Y-64108083D01*
X124715762Y-64108094D01*
X124714365Y-64113308D01*
X124713893Y-64118693D01*
X124713893Y-64118698D01*
X124695571Y-64328123D01*
X124694532Y-64340000D01*
X124714365Y-64566692D01*
X124715762Y-64571907D01*
X124715764Y-64571916D01*
X124771858Y-64781263D01*
X124771861Y-64781271D01*
X124773261Y-64786496D01*
X124775549Y-64791403D01*
X124775550Y-64791405D01*
X124785138Y-64811966D01*
X124869432Y-64992734D01*
X124872539Y-64997171D01*
X124872540Y-64997173D01*
X124953300Y-65112511D01*
X124999953Y-65179139D01*
X125160861Y-65340047D01*
X125347266Y-65470568D01*
X125553504Y-65566739D01*
X125773308Y-65625635D01*
X126000000Y-65645468D01*
X126226692Y-65625635D01*
X126446496Y-65566739D01*
X126652734Y-65470568D01*
X126806466Y-65362924D01*
X126840301Y-65346239D01*
X126877588Y-65340500D01*
X128191469Y-65340500D01*
X128258094Y-65359919D01*
X128303849Y-65412093D01*
X128369432Y-65552734D01*
X128499953Y-65739139D01*
X128660861Y-65900047D01*
X128847266Y-66030568D01*
X129053504Y-66126739D01*
X129058734Y-66128140D01*
X129058736Y-66128141D01*
X129268083Y-66184235D01*
X129273308Y-66185635D01*
X129335094Y-66191040D01*
X129376689Y-66202186D01*
X129411966Y-66226887D01*
X130238181Y-67053101D01*
X130265061Y-67093329D01*
X130274500Y-67140782D01*
X130274500Y-67210722D01*
X130274460Y-67213862D01*
X130272243Y-67301363D01*
X130273351Y-67307550D01*
X130273352Y-67307551D01*
X130277555Y-67330999D01*
X130279500Y-67352876D01*
X130279500Y-69735501D01*
X130262887Y-69797501D01*
X130217500Y-69842888D01*
X130155500Y-69859501D01*
X130032128Y-69859501D01*
X130028850Y-69859853D01*
X130028838Y-69859854D01*
X129980231Y-69865079D01*
X129980225Y-69865080D01*
X129972517Y-69865909D01*
X129965252Y-69868618D01*
X129965246Y-69868620D01*
X129845980Y-69913104D01*
X129845978Y-69913104D01*
X129837669Y-69916204D01*
X129830572Y-69921516D01*
X129830568Y-69921519D01*
X129729550Y-69997141D01*
X129729546Y-69997144D01*
X129722454Y-70002454D01*
X129717144Y-70009546D01*
X129717141Y-70009550D01*
X129641519Y-70110568D01*
X129641516Y-70110572D01*
X129636204Y-70117669D01*
X129633104Y-70125978D01*
X129633104Y-70125980D01*
X129588620Y-70245247D01*
X129588619Y-70245250D01*
X129585909Y-70252517D01*
X129585079Y-70260227D01*
X129585079Y-70260232D01*
X129579855Y-70308819D01*
X129579854Y-70308831D01*
X129579500Y-70312127D01*
X129579500Y-70315448D01*
X129579500Y-70315449D01*
X129579500Y-72004560D01*
X129579500Y-72004578D01*
X129579501Y-72007872D01*
X129579853Y-72011150D01*
X129579854Y-72011161D01*
X129585079Y-72059768D01*
X129585080Y-72059773D01*
X129585909Y-72067483D01*
X129588619Y-72074749D01*
X129588620Y-72074753D01*
X129619361Y-72157173D01*
X129636204Y-72202331D01*
X129641518Y-72209430D01*
X129641519Y-72209431D01*
X129704335Y-72293343D01*
X129722454Y-72317546D01*
X129837669Y-72403796D01*
X129972517Y-72454091D01*
X129979950Y-72454890D01*
X130032785Y-72482028D01*
X130066962Y-72530786D01*
X130074471Y-72589854D01*
X130053580Y-72645612D01*
X130009107Y-72685204D01*
X129951305Y-72699500D01*
X126814278Y-72699500D01*
X126811137Y-72699460D01*
X126729924Y-72697402D01*
X126729921Y-72697402D01*
X126723637Y-72697243D01*
X126711267Y-72699460D01*
X126665578Y-72707648D01*
X126656254Y-72708955D01*
X126603821Y-72714288D01*
X126603807Y-72714290D01*
X126597562Y-72714926D01*
X126591568Y-72716806D01*
X126591565Y-72716807D01*
X126568526Y-72724035D01*
X126553292Y-72727774D01*
X126529533Y-72732033D01*
X126529532Y-72732033D01*
X126523347Y-72733142D01*
X126517511Y-72735472D01*
X126517504Y-72735475D01*
X126468568Y-72755021D01*
X126459698Y-72758179D01*
X126409411Y-72773957D01*
X126409396Y-72773963D01*
X126403412Y-72775841D01*
X126397923Y-72778887D01*
X126397915Y-72778891D01*
X126376818Y-72790601D01*
X126362642Y-72797333D01*
X126340227Y-72806286D01*
X126340213Y-72806292D01*
X126334383Y-72808622D01*
X126329139Y-72812077D01*
X126329135Y-72812080D01*
X126285122Y-72841087D01*
X126277065Y-72845967D01*
X126225498Y-72874591D01*
X126220734Y-72878680D01*
X126220719Y-72878691D01*
X126202405Y-72894413D01*
X126189883Y-72903855D01*
X126169732Y-72917136D01*
X126169721Y-72917144D01*
X126164482Y-72920598D01*
X126160038Y-72925041D01*
X126160034Y-72925045D01*
X126122781Y-72962297D01*
X126115875Y-72968698D01*
X126075875Y-73003038D01*
X126075869Y-73003043D01*
X126071105Y-73007134D01*
X126067260Y-73012100D01*
X126067260Y-73012101D01*
X126052480Y-73031195D01*
X126042108Y-73042970D01*
X125911967Y-73173111D01*
X125876692Y-73197812D01*
X125835096Y-73208958D01*
X125778698Y-73213893D01*
X125778693Y-73213893D01*
X125773308Y-73214365D01*
X125768087Y-73215763D01*
X125768081Y-73215765D01*
X125558736Y-73271858D01*
X125558724Y-73271862D01*
X125553504Y-73273261D01*
X125548599Y-73275547D01*
X125548594Y-73275550D01*
X125352176Y-73367142D01*
X125352172Y-73367144D01*
X125347266Y-73369432D01*
X125342833Y-73372535D01*
X125342826Y-73372540D01*
X125165296Y-73496847D01*
X125165291Y-73496850D01*
X125160861Y-73499953D01*
X125157037Y-73503776D01*
X125157031Y-73503782D01*
X125003782Y-73657031D01*
X125003776Y-73657037D01*
X124999953Y-73660861D01*
X124996850Y-73665291D01*
X124996847Y-73665296D01*
X124872540Y-73842826D01*
X124872535Y-73842833D01*
X124869432Y-73847266D01*
X124867144Y-73852172D01*
X124867142Y-73852176D01*
X124775550Y-74048594D01*
X124775547Y-74048599D01*
X124773261Y-74053504D01*
X124771862Y-74058724D01*
X124771858Y-74058736D01*
X124715764Y-74268083D01*
X124715762Y-74268094D01*
X124714365Y-74273308D01*
X124713893Y-74278693D01*
X124713893Y-74278698D01*
X124702839Y-74405046D01*
X124694532Y-74500000D01*
X124695004Y-74505395D01*
X124713590Y-74717841D01*
X124714365Y-74726692D01*
X124715762Y-74731907D01*
X124715764Y-74731916D01*
X124771858Y-74941263D01*
X124771861Y-74941271D01*
X124773261Y-74946496D01*
X124775549Y-74951403D01*
X124775550Y-74951405D01*
X124782028Y-74965296D01*
X124869432Y-75152734D01*
X124872539Y-75157171D01*
X124872540Y-75157173D01*
X124910046Y-75210738D01*
X124999953Y-75339139D01*
X125160861Y-75500047D01*
X125347266Y-75630568D01*
X125553504Y-75726739D01*
X125558734Y-75728140D01*
X125558736Y-75728141D01*
X125768083Y-75784235D01*
X125773308Y-75785635D01*
X126000000Y-75805468D01*
X126226692Y-75785635D01*
X126446496Y-75726739D01*
X126652734Y-75630568D01*
X126839139Y-75500047D01*
X127000047Y-75339139D01*
X127130568Y-75152734D01*
X127226739Y-74946496D01*
X127268027Y-74792405D01*
X127292812Y-74744794D01*
X127335397Y-74712118D01*
X127387802Y-74700500D01*
X130002412Y-74700500D01*
X130039699Y-74706239D01*
X130073533Y-74722924D01*
X130227266Y-74830568D01*
X130232172Y-74832855D01*
X130232176Y-74832858D01*
X130285274Y-74857618D01*
X130337450Y-74903375D01*
X130356869Y-74970000D01*
X130337450Y-75036625D01*
X130285274Y-75082382D01*
X130232176Y-75107141D01*
X130232163Y-75107148D01*
X130227266Y-75109432D01*
X130222833Y-75112535D01*
X130222826Y-75112540D01*
X130115387Y-75187769D01*
X130076653Y-75214892D01*
X130073535Y-75217075D01*
X130039699Y-75233761D01*
X130002412Y-75239500D01*
X129149278Y-75239500D01*
X129146137Y-75239460D01*
X129064924Y-75237402D01*
X129064921Y-75237402D01*
X129058637Y-75237243D01*
X129046267Y-75239460D01*
X129000578Y-75247648D01*
X128991254Y-75248955D01*
X128938821Y-75254288D01*
X128938807Y-75254290D01*
X128932562Y-75254926D01*
X128926568Y-75256806D01*
X128926565Y-75256807D01*
X128903526Y-75264035D01*
X128888292Y-75267774D01*
X128864539Y-75272032D01*
X128858347Y-75273142D01*
X128852514Y-75275471D01*
X128852496Y-75275477D01*
X128803567Y-75295021D01*
X128794697Y-75298179D01*
X128744411Y-75313957D01*
X128744396Y-75313963D01*
X128738412Y-75315841D01*
X128732922Y-75318887D01*
X128732915Y-75318891D01*
X128711809Y-75330605D01*
X128697640Y-75337334D01*
X128675223Y-75346289D01*
X128675213Y-75346293D01*
X128669383Y-75348623D01*
X128664140Y-75352078D01*
X128664131Y-75352083D01*
X128620123Y-75381086D01*
X128612073Y-75385963D01*
X128560498Y-75414591D01*
X128555729Y-75418684D01*
X128555726Y-75418687D01*
X128537414Y-75434407D01*
X128524887Y-75443852D01*
X128504731Y-75457136D01*
X128504719Y-75457145D01*
X128499481Y-75460598D01*
X128495039Y-75465039D01*
X128495035Y-75465043D01*
X128457775Y-75502302D01*
X128450869Y-75508703D01*
X128410873Y-75543040D01*
X128410869Y-75543043D01*
X128406105Y-75547134D01*
X128402260Y-75552100D01*
X128402258Y-75552103D01*
X128387481Y-75571193D01*
X128377108Y-75582970D01*
X127927644Y-76032434D01*
X127925396Y-76034626D01*
X127861947Y-76094941D01*
X127858359Y-76100095D01*
X127858352Y-76100104D01*
X127828244Y-76143361D01*
X127822574Y-76150881D01*
X127789274Y-76191721D01*
X127789271Y-76191724D01*
X127785302Y-76196593D01*
X127782396Y-76202155D01*
X127782388Y-76202168D01*
X127771210Y-76223566D01*
X127763082Y-76236982D01*
X127749300Y-76256784D01*
X127749295Y-76256792D01*
X127745705Y-76261951D01*
X127743228Y-76267721D01*
X127743225Y-76267728D01*
X127722439Y-76316165D01*
X127718399Y-76324671D01*
X127691091Y-76376951D01*
X127689363Y-76382989D01*
X127689360Y-76382997D01*
X127682720Y-76406201D01*
X127677459Y-76420978D01*
X127667942Y-76443157D01*
X127665460Y-76448942D01*
X127664194Y-76455097D01*
X127664192Y-76455107D01*
X127653587Y-76506712D01*
X127651342Y-76515859D01*
X127636842Y-76566534D01*
X127636839Y-76566547D01*
X127635113Y-76572582D01*
X127634636Y-76578842D01*
X127634635Y-76578849D01*
X127632801Y-76602929D01*
X127630622Y-76618463D01*
X127626374Y-76639139D01*
X127624500Y-76648259D01*
X127624500Y-76654550D01*
X127624500Y-76707241D01*
X127624142Y-76716656D01*
X127620140Y-76769205D01*
X127620140Y-76769210D01*
X127619663Y-76775476D01*
X127620456Y-76781709D01*
X127620457Y-76781715D01*
X127623506Y-76805651D01*
X127624500Y-76821317D01*
X127624500Y-81559217D01*
X127615061Y-81606670D01*
X127588181Y-81646898D01*
X127186899Y-82048181D01*
X127146671Y-82075061D01*
X127099218Y-82084500D01*
X126852588Y-82084500D01*
X126815301Y-82078761D01*
X126781465Y-82062075D01*
X126761622Y-82048181D01*
X126653872Y-81972734D01*
X126632173Y-81957540D01*
X126632171Y-81957539D01*
X126627734Y-81954432D01*
X126521719Y-81904996D01*
X126426405Y-81860550D01*
X126426403Y-81860549D01*
X126421496Y-81858261D01*
X126416271Y-81856861D01*
X126416263Y-81856858D01*
X126206916Y-81800764D01*
X126206907Y-81800762D01*
X126201692Y-81799365D01*
X126196304Y-81798893D01*
X126196301Y-81798893D01*
X125980395Y-81780004D01*
X125975000Y-81779532D01*
X125969605Y-81780004D01*
X125753698Y-81798893D01*
X125753693Y-81798893D01*
X125748308Y-81799365D01*
X125743094Y-81800762D01*
X125743083Y-81800764D01*
X125533736Y-81856858D01*
X125533724Y-81856862D01*
X125528504Y-81858261D01*
X125523599Y-81860547D01*
X125523594Y-81860550D01*
X125327176Y-81952142D01*
X125327172Y-81952144D01*
X125322266Y-81954432D01*
X125317833Y-81957535D01*
X125317826Y-81957540D01*
X125140296Y-82081847D01*
X125140291Y-82081850D01*
X125135861Y-82084953D01*
X125132037Y-82088776D01*
X125132031Y-82088782D01*
X124978782Y-82242031D01*
X124978776Y-82242037D01*
X124974953Y-82245861D01*
X124971850Y-82250291D01*
X124971847Y-82250296D01*
X124847540Y-82427826D01*
X124847535Y-82427833D01*
X124844432Y-82432266D01*
X124842144Y-82437172D01*
X124842142Y-82437176D01*
X124750550Y-82633594D01*
X124750547Y-82633599D01*
X124748261Y-82638504D01*
X124746862Y-82643724D01*
X124746858Y-82643736D01*
X124690764Y-82853083D01*
X124690762Y-82853094D01*
X124689365Y-82858308D01*
X124688893Y-82863693D01*
X124688893Y-82863698D01*
X124675143Y-83020861D01*
X124669532Y-83085000D01*
X124670004Y-83090395D01*
X124685661Y-83269361D01*
X124689365Y-83311692D01*
X124690762Y-83316907D01*
X124690764Y-83316916D01*
X124746858Y-83526263D01*
X124746861Y-83526271D01*
X124748261Y-83531496D01*
X124844432Y-83737734D01*
X124847539Y-83742171D01*
X124847540Y-83742173D01*
X124903922Y-83822695D01*
X124974953Y-83924139D01*
X125135861Y-84085047D01*
X125322266Y-84215568D01*
X125528504Y-84311739D01*
X125748308Y-84370635D01*
X125975000Y-84390468D01*
X126201692Y-84370635D01*
X126421496Y-84311739D01*
X126627734Y-84215568D01*
X126781466Y-84107924D01*
X126815301Y-84091239D01*
X126852588Y-84085500D01*
X127550722Y-84085500D01*
X127553862Y-84085539D01*
X127641363Y-84087757D01*
X127699458Y-84077344D01*
X127708739Y-84076042D01*
X127767438Y-84070074D01*
X127796464Y-84060966D01*
X127811713Y-84057224D01*
X127841653Y-84051858D01*
X127884566Y-84034715D01*
X127896423Y-84029980D01*
X127905303Y-84026818D01*
X127961588Y-84009159D01*
X127988194Y-83994390D01*
X128002362Y-83987662D01*
X128030617Y-83976377D01*
X128079891Y-83943902D01*
X128087910Y-83939043D01*
X128139502Y-83910409D01*
X128151626Y-83900000D01*
X128162583Y-83890594D01*
X128175125Y-83881137D01*
X128200519Y-83864402D01*
X128242238Y-83822681D01*
X128249122Y-83816301D01*
X128293895Y-83777866D01*
X128312520Y-83753802D01*
X128322879Y-83742040D01*
X129322409Y-82742510D01*
X129324579Y-82740394D01*
X129388053Y-82680059D01*
X129420393Y-82633594D01*
X129421750Y-82631644D01*
X129427426Y-82624116D01*
X129439548Y-82609250D01*
X129464698Y-82578407D01*
X129470737Y-82566845D01*
X129478782Y-82551444D01*
X129486919Y-82538013D01*
X129500704Y-82518208D01*
X129500703Y-82518208D01*
X129504295Y-82513049D01*
X129527568Y-82458815D01*
X129531598Y-82450331D01*
X129533099Y-82447459D01*
X129558909Y-82398049D01*
X129567275Y-82368808D01*
X129572539Y-82354019D01*
X129584540Y-82326058D01*
X129596421Y-82268238D01*
X129598650Y-82259155D01*
X129614886Y-82202418D01*
X129617195Y-82172082D01*
X129619370Y-82156567D01*
X129620145Y-82152797D01*
X129644275Y-82100922D01*
X129689132Y-82065400D01*
X129745162Y-82053800D01*
X129800435Y-82068592D01*
X129843183Y-82106626D01*
X129879953Y-82159139D01*
X130040861Y-82320047D01*
X130227266Y-82450568D01*
X130232172Y-82452855D01*
X130232176Y-82452858D01*
X130285274Y-82477618D01*
X130337450Y-82523375D01*
X130356869Y-82590000D01*
X130337450Y-82656625D01*
X130285274Y-82702382D01*
X130232176Y-82727141D01*
X130232163Y-82727148D01*
X130227266Y-82729432D01*
X130222833Y-82732535D01*
X130222826Y-82732540D01*
X130045296Y-82856847D01*
X130045291Y-82856850D01*
X130040861Y-82859953D01*
X130037037Y-82863776D01*
X130037031Y-82863782D01*
X129883782Y-83017031D01*
X129883776Y-83017037D01*
X129879953Y-83020861D01*
X129876850Y-83025291D01*
X129876847Y-83025296D01*
X129752540Y-83202826D01*
X129752535Y-83202833D01*
X129749432Y-83207266D01*
X129747144Y-83212172D01*
X129747142Y-83212176D01*
X129655550Y-83408594D01*
X129655547Y-83408599D01*
X129653261Y-83413504D01*
X129651862Y-83418724D01*
X129651858Y-83418736D01*
X129595764Y-83628083D01*
X129595762Y-83628094D01*
X129594365Y-83633308D01*
X129593893Y-83638693D01*
X129593893Y-83638698D01*
X129584366Y-83747592D01*
X129574532Y-83860000D01*
X129575004Y-83865395D01*
X129593547Y-84077349D01*
X129594365Y-84086692D01*
X129595762Y-84091907D01*
X129595764Y-84091916D01*
X129651858Y-84301263D01*
X129651861Y-84301271D01*
X129653261Y-84306496D01*
X129749432Y-84512734D01*
X129879953Y-84699139D01*
X130040861Y-84860047D01*
X130227266Y-84990568D01*
X130433504Y-85086739D01*
X130653308Y-85145635D01*
X130823216Y-85160500D01*
X131734075Y-85160500D01*
X131736784Y-85160500D01*
X131906692Y-85145635D01*
X132126496Y-85086739D01*
X132332734Y-84990568D01*
X132519139Y-84860047D01*
X132680047Y-84699139D01*
X132810568Y-84512734D01*
X132906739Y-84306496D01*
X132965635Y-84086692D01*
X132985468Y-83860000D01*
X132965635Y-83633308D01*
X132923214Y-83474991D01*
X132908141Y-83418736D01*
X132908140Y-83418734D01*
X132906739Y-83413504D01*
X132810568Y-83207266D01*
X132680047Y-83020861D01*
X132519139Y-82859953D01*
X132423756Y-82793166D01*
X132337173Y-82732540D01*
X132337171Y-82732539D01*
X132332734Y-82729432D01*
X132274724Y-82702381D01*
X132222549Y-82656625D01*
X132203130Y-82590000D01*
X132222549Y-82523375D01*
X132274725Y-82477618D01*
X132332734Y-82450568D01*
X132519139Y-82320047D01*
X132680047Y-82159139D01*
X132810568Y-81972734D01*
X132906739Y-81766496D01*
X132965635Y-81546692D01*
X132985468Y-81320000D01*
X132965635Y-81093308D01*
X132934288Y-80976319D01*
X132908141Y-80878736D01*
X132908140Y-80878734D01*
X132906739Y-80873504D01*
X132810568Y-80667266D01*
X132680047Y-80480861D01*
X132519139Y-80319953D01*
X132427911Y-80256075D01*
X132387584Y-80208858D01*
X132375204Y-80148011D01*
X132393876Y-80088790D01*
X132438918Y-80046047D01*
X132499034Y-80030500D01*
X133725500Y-80030500D01*
X133787500Y-80047113D01*
X133832887Y-80092500D01*
X133849500Y-80154500D01*
X133849500Y-81391831D01*
X133848503Y-81404485D01*
X133848536Y-81404488D01*
X133848161Y-81410038D01*
X133847290Y-81415540D01*
X133847414Y-81421097D01*
X133847414Y-81421108D01*
X133849469Y-81512641D01*
X133849500Y-81515423D01*
X133849500Y-88230664D01*
X133840061Y-88278117D01*
X133813181Y-88318345D01*
X133668345Y-88463181D01*
X133628117Y-88490061D01*
X133580664Y-88499500D01*
X117624000Y-88499500D01*
X117562000Y-88482887D01*
X117516613Y-88437500D01*
X117500000Y-88375500D01*
X117500000Y-76816326D01*
X117500000Y-71500000D01*
X112200000Y-71500000D01*
X112183674Y-71500000D01*
X103255596Y-71500000D01*
X103196580Y-71485055D01*
X103151789Y-71443824D01*
X103134529Y-71417407D01*
X103131825Y-71413075D01*
X103085366Y-71335106D01*
X103082056Y-71331198D01*
X103082049Y-71331188D01*
X103070190Y-71317187D01*
X103061001Y-71304864D01*
X103050972Y-71289513D01*
X103050971Y-71289512D01*
X103048164Y-71285215D01*
X102986692Y-71218439D01*
X102983300Y-71214597D01*
X102966563Y-71194835D01*
X102966548Y-71194819D01*
X102964901Y-71192874D01*
X102944781Y-71172754D01*
X102941233Y-71169057D01*
X102883215Y-71106032D01*
X102883211Y-71106029D01*
X102879744Y-71102262D01*
X102861204Y-71087831D01*
X102849692Y-71077665D01*
X99968939Y-68196911D01*
X99968938Y-68196910D01*
X99967126Y-68195098D01*
X99824894Y-68074634D01*
X99611274Y-67947344D01*
X99606502Y-67945482D01*
X99606496Y-67945479D01*
X99384390Y-67858814D01*
X99384383Y-67858812D01*
X99379614Y-67856951D01*
X99374600Y-67855899D01*
X99374598Y-67855899D01*
X99141255Y-67806971D01*
X99141252Y-67806970D01*
X99136237Y-67805919D01*
X99131112Y-67805707D01*
X98892901Y-67795854D01*
X98892890Y-67795854D01*
X98887779Y-67795643D01*
X98882704Y-67796275D01*
X98882693Y-67796276D01*
X98646110Y-67825766D01*
X98646105Y-67825767D01*
X98641019Y-67826401D01*
X98636105Y-67827863D01*
X98636100Y-67827865D01*
X98407606Y-67895891D01*
X98407600Y-67895893D01*
X98402687Y-67897356D01*
X98398073Y-67899611D01*
X98398072Y-67899612D01*
X98183897Y-68004315D01*
X98183889Y-68004319D01*
X98179284Y-68006571D01*
X98175113Y-68009548D01*
X98175108Y-68009552D01*
X97981079Y-68148086D01*
X97981070Y-68148092D01*
X97976904Y-68151068D01*
X97973280Y-68154691D01*
X97973274Y-68154697D01*
X97804697Y-68323274D01*
X97804691Y-68323280D01*
X97801068Y-68326904D01*
X97798092Y-68331070D01*
X97798086Y-68331079D01*
X97659552Y-68525108D01*
X97659548Y-68525113D01*
X97656571Y-68529284D01*
X97654319Y-68533889D01*
X97654315Y-68533897D01*
X97583575Y-68678599D01*
X97547356Y-68752687D01*
X97545893Y-68757600D01*
X97545891Y-68757606D01*
X97486246Y-68957950D01*
X97476401Y-68991019D01*
X97475767Y-68996105D01*
X97475766Y-68996110D01*
X97446276Y-69232693D01*
X97446275Y-69232704D01*
X97445643Y-69237779D01*
X97445854Y-69242890D01*
X97445854Y-69242901D01*
X97455707Y-69481112D01*
X97455919Y-69486237D01*
X97506951Y-69729614D01*
X97508812Y-69734383D01*
X97508814Y-69734390D01*
X97595479Y-69956496D01*
X97595482Y-69956502D01*
X97597344Y-69961274D01*
X97724634Y-70174894D01*
X97727939Y-70178796D01*
X97727941Y-70178799D01*
X97775383Y-70234814D01*
X97845098Y-70317126D01*
X97846910Y-70318938D01*
X97846911Y-70318939D01*
X98816291Y-71288319D01*
X98846541Y-71337682D01*
X98851083Y-71395398D01*
X98828928Y-71448885D01*
X98784905Y-71486485D01*
X98728610Y-71500000D01*
X95616326Y-71500000D01*
X95600000Y-71500000D01*
X95600000Y-71516326D01*
X95600000Y-76078610D01*
X95586485Y-76134905D01*
X95548885Y-76178928D01*
X95495398Y-76201083D01*
X95437682Y-76196541D01*
X95388319Y-76166291D01*
X94932334Y-75710306D01*
X94922161Y-75698787D01*
X94910888Y-75684303D01*
X94910887Y-75684302D01*
X94907738Y-75680256D01*
X94840953Y-75618776D01*
X94837255Y-75615227D01*
X94818939Y-75596911D01*
X94817126Y-75595098D01*
X94795388Y-75576687D01*
X94791546Y-75573294D01*
X94728554Y-75515305D01*
X94728549Y-75515301D01*
X94724785Y-75511836D01*
X94720499Y-75509035D01*
X94720489Y-75509028D01*
X94705123Y-75498989D01*
X94692804Y-75489803D01*
X94678806Y-75477947D01*
X94678803Y-75477945D01*
X94674894Y-75474634D01*
X94596926Y-75428174D01*
X94592583Y-75425464D01*
X94520904Y-75378634D01*
X94520901Y-75378632D01*
X94516607Y-75375827D01*
X94511910Y-75373766D01*
X94511907Y-75373765D01*
X94495109Y-75366397D01*
X94481446Y-75359363D01*
X94465685Y-75349971D01*
X94465672Y-75349964D01*
X94461274Y-75347344D01*
X94456502Y-75345481D01*
X94456496Y-75345479D01*
X94380539Y-75315841D01*
X94376717Y-75314349D01*
X94372004Y-75312397D01*
X94288881Y-75275937D01*
X94283918Y-75274680D01*
X94283915Y-75274679D01*
X94266113Y-75270171D01*
X94251488Y-75265486D01*
X94229614Y-75256951D01*
X94224609Y-75255901D01*
X94224604Y-75255900D01*
X94140793Y-75238326D01*
X94135803Y-75237171D01*
X94052790Y-75216150D01*
X94052786Y-75216149D01*
X94047821Y-75214892D01*
X94042720Y-75214469D01*
X94042713Y-75214468D01*
X94024418Y-75212952D01*
X94009221Y-75210738D01*
X93986237Y-75205919D01*
X93981116Y-75205707D01*
X93981107Y-75205706D01*
X93895559Y-75202168D01*
X93890447Y-75201851D01*
X93864609Y-75199710D01*
X93864594Y-75199709D01*
X93862067Y-75199500D01*
X93859514Y-75199500D01*
X93833596Y-75199500D01*
X93828472Y-75199394D01*
X93742901Y-75195854D01*
X93742890Y-75195854D01*
X93737779Y-75195643D01*
X93732705Y-75196275D01*
X93732692Y-75196276D01*
X93714472Y-75198548D01*
X93699135Y-75199500D01*
X92926439Y-75199500D01*
X92880948Y-75190854D01*
X92841801Y-75166122D01*
X92839944Y-75164387D01*
X92837053Y-75161292D01*
X92833771Y-75158622D01*
X92833768Y-75158619D01*
X92617429Y-74982615D01*
X92617428Y-74982614D01*
X92614147Y-74979945D01*
X92372274Y-74832858D01*
X92372243Y-74832839D01*
X92372241Y-74832838D01*
X92368625Y-74830639D01*
X92364745Y-74828953D01*
X92364738Y-74828950D01*
X92108939Y-74717841D01*
X92108929Y-74717837D01*
X92105058Y-74716156D01*
X92090646Y-74712118D01*
X91832437Y-74639771D01*
X91832424Y-74639768D01*
X91828358Y-74638629D01*
X91824168Y-74638053D01*
X91824158Y-74638051D01*
X91547875Y-74600076D01*
X91547862Y-74600075D01*
X91543678Y-74599500D01*
X91256322Y-74599500D01*
X91252138Y-74600075D01*
X91252124Y-74600076D01*
X90975841Y-74638051D01*
X90975828Y-74638053D01*
X90971642Y-74638629D01*
X90967577Y-74639767D01*
X90967562Y-74639771D01*
X90699013Y-74715015D01*
X90699008Y-74715016D01*
X90694942Y-74716156D01*
X90691075Y-74717835D01*
X90691060Y-74717841D01*
X90435261Y-74828950D01*
X90435248Y-74828956D01*
X90431375Y-74830639D01*
X90427764Y-74832834D01*
X90427756Y-74832839D01*
X90189465Y-74977748D01*
X90189460Y-74977751D01*
X90185853Y-74979945D01*
X90182578Y-74982609D01*
X90182570Y-74982615D01*
X89966231Y-75158619D01*
X89966220Y-75158628D01*
X89962947Y-75161292D01*
X89960068Y-75164374D01*
X89960059Y-75164383D01*
X89769699Y-75368209D01*
X89769694Y-75368214D01*
X89766811Y-75371302D01*
X89764375Y-75374752D01*
X89764366Y-75374764D01*
X89603545Y-75602598D01*
X89603541Y-75602603D01*
X89601099Y-75606064D01*
X89599153Y-75609818D01*
X89599149Y-75609826D01*
X89470845Y-75857440D01*
X89470840Y-75857450D01*
X89468896Y-75861203D01*
X89467479Y-75865188D01*
X89467475Y-75865199D01*
X89385825Y-76094941D01*
X89372666Y-76131968D01*
X89371804Y-76136113D01*
X89371803Y-76136119D01*
X89315063Y-76409167D01*
X89315061Y-76409177D01*
X89314202Y-76413314D01*
X89313913Y-76417529D01*
X89313913Y-76417534D01*
X89302879Y-76578849D01*
X89294592Y-76700000D01*
X89294881Y-76704225D01*
X89310027Y-76925659D01*
X89314202Y-76986686D01*
X89315061Y-76990824D01*
X89315063Y-76990832D01*
X89367496Y-77243152D01*
X89372666Y-77268032D01*
X89374084Y-77272023D01*
X89374085Y-77272025D01*
X89465591Y-77529500D01*
X89468896Y-77538797D01*
X89470843Y-77542555D01*
X89470845Y-77542559D01*
X89577161Y-77747738D01*
X89601099Y-77793936D01*
X89603545Y-77797401D01*
X89764366Y-78025235D01*
X89764370Y-78025240D01*
X89766811Y-78028698D01*
X89769699Y-78031790D01*
X89942778Y-78217113D01*
X89962947Y-78238708D01*
X90185853Y-78420055D01*
X90431375Y-78569361D01*
X90694942Y-78683844D01*
X90915384Y-78745608D01*
X90967562Y-78760228D01*
X90967564Y-78760228D01*
X90971642Y-78761371D01*
X91256322Y-78800500D01*
X91539441Y-78800500D01*
X91543678Y-78800500D01*
X91828358Y-78761371D01*
X92105058Y-78683844D01*
X92368625Y-78569361D01*
X92614147Y-78420055D01*
X92837053Y-78238708D01*
X92839945Y-78235610D01*
X92841801Y-78233878D01*
X92880948Y-78209146D01*
X92926439Y-78200500D01*
X92975500Y-78200500D01*
X93037500Y-78217113D01*
X93082887Y-78262500D01*
X93099500Y-78324500D01*
X93099500Y-79827861D01*
X93085598Y-79884909D01*
X93047008Y-79929165D01*
X92992385Y-79950706D01*
X92933975Y-79944701D01*
X92884876Y-79912498D01*
X92879866Y-79907134D01*
X92837053Y-79861292D01*
X92833771Y-79858622D01*
X92833768Y-79858619D01*
X92617429Y-79682615D01*
X92617428Y-79682614D01*
X92614147Y-79679945D01*
X92412447Y-79557288D01*
X92372243Y-79532839D01*
X92372241Y-79532838D01*
X92368625Y-79530639D01*
X92364745Y-79528953D01*
X92364738Y-79528950D01*
X92108939Y-79417841D01*
X92108929Y-79417837D01*
X92105058Y-79416156D01*
X92100986Y-79415015D01*
X91832437Y-79339771D01*
X91832424Y-79339768D01*
X91828358Y-79338629D01*
X91824168Y-79338053D01*
X91824158Y-79338051D01*
X91547875Y-79300076D01*
X91547862Y-79300075D01*
X91543678Y-79299500D01*
X91256322Y-79299500D01*
X91252138Y-79300075D01*
X91252124Y-79300076D01*
X90975841Y-79338051D01*
X90975828Y-79338053D01*
X90971642Y-79338629D01*
X90967577Y-79339767D01*
X90967562Y-79339771D01*
X90699013Y-79415015D01*
X90699008Y-79415016D01*
X90694942Y-79416156D01*
X90691075Y-79417835D01*
X90691060Y-79417841D01*
X90435261Y-79528950D01*
X90435248Y-79528956D01*
X90431375Y-79530639D01*
X90427764Y-79532834D01*
X90427756Y-79532839D01*
X90189465Y-79677748D01*
X90189460Y-79677751D01*
X90185853Y-79679945D01*
X90182578Y-79682609D01*
X90182570Y-79682615D01*
X89966231Y-79858619D01*
X89966220Y-79858628D01*
X89962947Y-79861292D01*
X89960057Y-79864386D01*
X89958199Y-79866122D01*
X89919052Y-79890854D01*
X89873561Y-79899500D01*
X87224500Y-79899500D01*
X87162500Y-79882887D01*
X87117113Y-79837500D01*
X87100500Y-79775500D01*
X87100500Y-74340503D01*
X87100500Y-74337933D01*
X87085108Y-74152179D01*
X87024063Y-73911119D01*
X86924173Y-73683393D01*
X86788164Y-73475215D01*
X86761230Y-73445957D01*
X86730614Y-73384983D01*
X86736888Y-73317043D01*
X86772583Y-73270039D01*
X86771676Y-73269132D01*
X86777948Y-73262859D01*
X86785046Y-73257546D01*
X86871296Y-73142331D01*
X86921591Y-73007483D01*
X86928000Y-72947873D01*
X86927999Y-72000000D01*
X89294592Y-72000000D01*
X89294881Y-72004225D01*
X89312216Y-72257662D01*
X89314202Y-72286686D01*
X89315061Y-72290824D01*
X89315063Y-72290832D01*
X89364349Y-72528010D01*
X89372666Y-72568032D01*
X89374084Y-72572023D01*
X89374085Y-72572025D01*
X89459400Y-72812080D01*
X89468896Y-72838797D01*
X89470843Y-72842555D01*
X89470845Y-72842559D01*
X89599149Y-73090173D01*
X89601099Y-73093936D01*
X89635260Y-73142331D01*
X89764366Y-73325235D01*
X89764370Y-73325240D01*
X89766811Y-73328698D01*
X89769699Y-73331790D01*
X89903648Y-73475215D01*
X89962947Y-73538708D01*
X90185853Y-73720055D01*
X90431375Y-73869361D01*
X90435260Y-73871048D01*
X90435261Y-73871049D01*
X90563364Y-73926692D01*
X90694942Y-73983844D01*
X90915384Y-74045608D01*
X90967562Y-74060228D01*
X90967564Y-74060228D01*
X90971642Y-74061371D01*
X91256322Y-74100500D01*
X91539441Y-74100500D01*
X91543678Y-74100500D01*
X91828358Y-74061371D01*
X92105058Y-73983844D01*
X92368625Y-73869361D01*
X92614147Y-73720055D01*
X92837053Y-73538708D01*
X93033189Y-73328698D01*
X93198901Y-73093936D01*
X93331104Y-72838797D01*
X93427334Y-72568032D01*
X93485798Y-72286686D01*
X93505408Y-72000000D01*
X93485798Y-71713314D01*
X93427334Y-71431968D01*
X93331104Y-71161203D01*
X93198901Y-70906064D01*
X93033189Y-70671302D01*
X92881509Y-70508893D01*
X92839940Y-70464383D01*
X92839938Y-70464381D01*
X92837053Y-70461292D01*
X92833771Y-70458622D01*
X92833768Y-70458619D01*
X92617429Y-70282615D01*
X92617428Y-70282614D01*
X92614147Y-70279945D01*
X92456409Y-70184022D01*
X92372243Y-70132839D01*
X92372241Y-70132838D01*
X92368625Y-70130639D01*
X92364745Y-70128953D01*
X92364738Y-70128950D01*
X92108939Y-70017841D01*
X92108929Y-70017837D01*
X92105058Y-70016156D01*
X92100986Y-70015015D01*
X91832437Y-69939771D01*
X91832424Y-69939768D01*
X91828358Y-69938629D01*
X91824168Y-69938053D01*
X91824158Y-69938051D01*
X91547875Y-69900076D01*
X91547862Y-69900075D01*
X91543678Y-69899500D01*
X91256322Y-69899500D01*
X91252138Y-69900075D01*
X91252124Y-69900076D01*
X90975841Y-69938051D01*
X90975828Y-69938053D01*
X90971642Y-69938629D01*
X90967577Y-69939767D01*
X90967562Y-69939771D01*
X90699013Y-70015015D01*
X90699008Y-70015016D01*
X90694942Y-70016156D01*
X90691075Y-70017835D01*
X90691060Y-70017841D01*
X90435261Y-70128950D01*
X90435248Y-70128956D01*
X90431375Y-70130639D01*
X90427764Y-70132834D01*
X90427756Y-70132839D01*
X90189465Y-70277748D01*
X90189460Y-70277751D01*
X90185853Y-70279945D01*
X90182578Y-70282609D01*
X90182570Y-70282615D01*
X89966231Y-70458619D01*
X89966220Y-70458628D01*
X89962947Y-70461292D01*
X89960068Y-70464374D01*
X89960059Y-70464383D01*
X89769699Y-70668209D01*
X89769694Y-70668214D01*
X89766811Y-70671302D01*
X89764375Y-70674752D01*
X89764366Y-70674764D01*
X89603545Y-70902598D01*
X89603541Y-70902603D01*
X89601099Y-70906064D01*
X89599153Y-70909818D01*
X89599149Y-70909826D01*
X89470845Y-71157440D01*
X89470840Y-71157450D01*
X89468896Y-71161203D01*
X89467479Y-71165188D01*
X89467475Y-71165199D01*
X89377841Y-71417407D01*
X89372666Y-71431968D01*
X89371804Y-71436113D01*
X89371803Y-71436119D01*
X89315063Y-71709167D01*
X89315061Y-71709177D01*
X89314202Y-71713314D01*
X89313913Y-71717529D01*
X89313913Y-71717534D01*
X89309614Y-71780386D01*
X89294592Y-72000000D01*
X86927999Y-72000000D01*
X86927999Y-71152128D01*
X86921591Y-71092517D01*
X86871296Y-70957669D01*
X86785046Y-70842454D01*
X86757728Y-70822004D01*
X86676931Y-70761519D01*
X86676930Y-70761518D01*
X86669831Y-70756204D01*
X86567549Y-70718055D01*
X86517170Y-70683077D01*
X86489717Y-70628232D01*
X86491906Y-70566939D01*
X86523199Y-70514196D01*
X86615995Y-70421401D01*
X86663626Y-70353376D01*
X86707945Y-70314511D01*
X86765202Y-70300500D01*
X87686293Y-70300500D01*
X87704264Y-70301809D01*
X87708160Y-70302379D01*
X87728023Y-70305289D01*
X87777368Y-70300972D01*
X87788176Y-70300500D01*
X87790100Y-70300500D01*
X87793709Y-70300500D01*
X87824550Y-70296894D01*
X87828031Y-70296539D01*
X87902797Y-70289999D01*
X87909653Y-70287726D01*
X87913043Y-70287027D01*
X87913375Y-70286973D01*
X87913728Y-70286873D01*
X87917071Y-70286080D01*
X87924255Y-70285241D01*
X87994760Y-70259579D01*
X87998118Y-70258412D01*
X88069334Y-70234814D01*
X88075486Y-70231018D01*
X88078607Y-70229564D01*
X88078929Y-70229430D01*
X88079238Y-70229258D01*
X88082315Y-70227712D01*
X88089117Y-70225237D01*
X88151837Y-70183984D01*
X88154732Y-70182140D01*
X88218656Y-70142712D01*
X88223763Y-70137603D01*
X88226476Y-70135459D01*
X88226758Y-70135254D01*
X88227029Y-70135007D01*
X88229659Y-70132799D01*
X88235696Y-70128830D01*
X88287185Y-70074253D01*
X88289630Y-70071736D01*
X90924549Y-67436817D01*
X90964777Y-67409938D01*
X91012230Y-67400499D01*
X91496859Y-67400499D01*
X91500008Y-67400499D01*
X91602797Y-67389999D01*
X91769334Y-67334814D01*
X91918656Y-67242712D01*
X92042712Y-67118656D01*
X92134814Y-66969334D01*
X92189999Y-66802797D01*
X92200500Y-66700009D01*
X92200499Y-65899992D01*
X92189999Y-65797203D01*
X92134814Y-65630666D01*
X92042712Y-65481344D01*
X91949049Y-65387680D01*
X91916955Y-65332094D01*
X91916955Y-65267906D01*
X91949049Y-65212319D01*
X91986665Y-65174703D01*
X92042712Y-65118656D01*
X92134814Y-64969334D01*
X92189999Y-64802797D01*
X92200500Y-64700009D01*
X92200499Y-63933216D01*
X110269500Y-63933216D01*
X110269722Y-63935832D01*
X110269723Y-63935840D01*
X110283882Y-64102199D01*
X110283883Y-64102208D01*
X110284330Y-64107453D01*
X110285658Y-64112553D01*
X110320734Y-64247266D01*
X110343115Y-64333219D01*
X110345282Y-64338015D01*
X110345284Y-64338018D01*
X110388492Y-64433604D01*
X110399500Y-64484680D01*
X110399500Y-68925857D01*
X110395275Y-68957950D01*
X110365764Y-69068083D01*
X110365762Y-69068094D01*
X110364365Y-69073308D01*
X110363893Y-69078693D01*
X110363893Y-69078698D01*
X110347759Y-69263117D01*
X110344532Y-69300000D01*
X110345004Y-69305395D01*
X110361264Y-69491255D01*
X110364365Y-69526692D01*
X110365762Y-69531907D01*
X110365764Y-69531916D01*
X110421858Y-69741263D01*
X110421861Y-69741271D01*
X110423261Y-69746496D01*
X110425549Y-69751403D01*
X110425550Y-69751405D01*
X110478004Y-69863891D01*
X110519432Y-69952734D01*
X110522539Y-69957171D01*
X110522540Y-69957173D01*
X110563041Y-70015015D01*
X110649953Y-70139139D01*
X110810861Y-70300047D01*
X110997266Y-70430568D01*
X111203504Y-70526739D01*
X111423308Y-70585635D01*
X111650000Y-70605468D01*
X111876692Y-70585635D01*
X112096496Y-70526739D01*
X112302734Y-70430568D01*
X112489139Y-70300047D01*
X112650047Y-70139139D01*
X112780568Y-69952734D01*
X112876739Y-69746496D01*
X112935635Y-69526692D01*
X112955468Y-69300000D01*
X112935635Y-69073308D01*
X112904724Y-68957949D01*
X112900500Y-68925857D01*
X112900500Y-64829245D01*
X112914255Y-64772482D01*
X112952469Y-64728312D01*
X113006664Y-64706535D01*
X113064815Y-64711982D01*
X113114022Y-64743444D01*
X113271272Y-64907516D01*
X113458839Y-65046240D01*
X113667153Y-65151270D01*
X113890220Y-65219583D01*
X114121624Y-65249216D01*
X114354707Y-65239314D01*
X114582765Y-65190164D01*
X114799235Y-65103179D01*
X114997891Y-64980862D01*
X115173018Y-64826731D01*
X115205922Y-64785979D01*
X115255822Y-64748960D01*
X115317419Y-64740794D01*
X115375244Y-64763536D01*
X115413876Y-64810381D01*
X115415186Y-64814334D01*
X115418975Y-64820477D01*
X115418976Y-64820479D01*
X115503497Y-64957511D01*
X115503500Y-64957515D01*
X115507288Y-64963656D01*
X115631344Y-65087712D01*
X115637485Y-65091500D01*
X115637488Y-65091502D01*
X115685801Y-65121301D01*
X115780666Y-65179814D01*
X115947203Y-65234999D01*
X116049991Y-65245500D01*
X117390008Y-65245499D01*
X117492797Y-65234999D01*
X117659334Y-65179814D01*
X117808656Y-65087712D01*
X117932712Y-64963656D01*
X118024814Y-64814334D01*
X118079999Y-64647797D01*
X118090500Y-64545009D01*
X118090499Y-62754992D01*
X118079999Y-62652203D01*
X118024814Y-62485666D01*
X117932712Y-62336344D01*
X117808656Y-62212288D01*
X117802515Y-62208500D01*
X117802511Y-62208497D01*
X117665480Y-62123977D01*
X117659334Y-62120186D01*
X117539319Y-62080417D01*
X117499225Y-62067131D01*
X117499224Y-62067130D01*
X117492797Y-62065001D01*
X117486064Y-62064313D01*
X117486059Y-62064312D01*
X117393140Y-62054819D01*
X117393123Y-62054818D01*
X117390009Y-62054500D01*
X117386860Y-62054500D01*
X116053140Y-62054500D01*
X116053120Y-62054500D01*
X116049992Y-62054501D01*
X116046860Y-62054820D01*
X116046858Y-62054821D01*
X115953938Y-62064312D01*
X115953928Y-62064313D01*
X115947203Y-62065001D01*
X115940781Y-62067128D01*
X115940776Y-62067130D01*
X115787521Y-62117914D01*
X115787517Y-62117915D01*
X115780666Y-62120186D01*
X115774522Y-62123975D01*
X115774519Y-62123977D01*
X115637488Y-62208497D01*
X115637480Y-62208503D01*
X115631344Y-62212288D01*
X115626242Y-62217389D01*
X115626238Y-62217393D01*
X115512393Y-62331238D01*
X115512389Y-62331242D01*
X115507288Y-62336344D01*
X115503503Y-62342480D01*
X115503497Y-62342488D01*
X115418978Y-62479517D01*
X115418977Y-62479519D01*
X115415186Y-62485666D01*
X115413847Y-62489705D01*
X115377327Y-62534960D01*
X115322599Y-62558521D01*
X115263200Y-62553835D01*
X115212844Y-62521984D01*
X115092370Y-62396284D01*
X115092369Y-62396283D01*
X115088728Y-62392484D01*
X114901161Y-62253760D01*
X114896465Y-62251392D01*
X114896463Y-62251391D01*
X114784336Y-62194858D01*
X114692847Y-62148730D01*
X114687812Y-62147188D01*
X114474816Y-62081959D01*
X114474813Y-62081958D01*
X114469780Y-62080417D01*
X114349397Y-62065001D01*
X114243593Y-62051452D01*
X114243592Y-62051451D01*
X114238376Y-62050784D01*
X114233121Y-62051007D01*
X114233117Y-62051007D01*
X114010558Y-62060462D01*
X114010554Y-62060462D01*
X114005293Y-62060686D01*
X114000153Y-62061793D01*
X114000143Y-62061795D01*
X113782383Y-62108726D01*
X113782377Y-62108727D01*
X113777235Y-62109836D01*
X113772351Y-62111798D01*
X113772346Y-62111800D01*
X113565649Y-62194858D01*
X113565644Y-62194860D01*
X113560765Y-62196821D01*
X113556288Y-62199577D01*
X113556285Y-62199579D01*
X113366588Y-62316379D01*
X113366578Y-62316386D01*
X113362109Y-62319138D01*
X113358167Y-62322607D01*
X113358158Y-62322614D01*
X113190938Y-62469787D01*
X113186982Y-62473269D01*
X113183674Y-62477365D01*
X113183669Y-62477371D01*
X113047692Y-62645776D01*
X113040422Y-62654780D01*
X113037856Y-62659372D01*
X113037850Y-62659382D01*
X113017894Y-62695104D01*
X112974654Y-62740218D01*
X112914903Y-62758515D01*
X112853816Y-62745349D01*
X112806907Y-62704064D01*
X112776707Y-62659382D01*
X112710153Y-62560912D01*
X112548728Y-62392484D01*
X112361161Y-62253760D01*
X112356465Y-62251392D01*
X112356463Y-62251391D01*
X112244336Y-62194858D01*
X112152847Y-62148730D01*
X112147812Y-62147188D01*
X111934816Y-62081959D01*
X111934813Y-62081958D01*
X111929780Y-62080417D01*
X111809397Y-62065001D01*
X111703593Y-62051452D01*
X111703592Y-62051451D01*
X111698376Y-62050784D01*
X111693121Y-62051007D01*
X111693117Y-62051007D01*
X111470558Y-62060462D01*
X111470554Y-62060462D01*
X111465293Y-62060686D01*
X111460153Y-62061793D01*
X111460143Y-62061795D01*
X111242383Y-62108726D01*
X111242377Y-62108727D01*
X111237235Y-62109836D01*
X111232351Y-62111798D01*
X111232346Y-62111800D01*
X111025649Y-62194858D01*
X111025644Y-62194860D01*
X111020765Y-62196821D01*
X111016288Y-62199577D01*
X111016285Y-62199579D01*
X110826588Y-62316379D01*
X110826578Y-62316386D01*
X110822109Y-62319138D01*
X110818167Y-62322607D01*
X110818158Y-62322614D01*
X110650938Y-62469787D01*
X110646982Y-62473269D01*
X110643674Y-62477365D01*
X110643669Y-62477371D01*
X110507692Y-62645776D01*
X110500422Y-62654780D01*
X110497855Y-62659374D01*
X110497853Y-62659378D01*
X110389215Y-62853847D01*
X110389209Y-62853858D01*
X110386646Y-62858448D01*
X110384893Y-62863408D01*
X110384890Y-62863416D01*
X110310682Y-63073446D01*
X110310679Y-63073456D01*
X110308927Y-63078416D01*
X110308037Y-63083603D01*
X110308035Y-63083613D01*
X110270390Y-63303159D01*
X110270389Y-63303166D01*
X110269500Y-63308353D01*
X110269500Y-63933216D01*
X92200499Y-63933216D01*
X92200499Y-63899992D01*
X92189999Y-63797203D01*
X92134814Y-63630666D01*
X92054750Y-63500861D01*
X92046502Y-63487488D01*
X92046500Y-63487485D01*
X92042712Y-63481344D01*
X91918656Y-63357288D01*
X91912515Y-63353500D01*
X91912511Y-63353497D01*
X91775480Y-63268977D01*
X91769334Y-63265186D01*
X91602797Y-63210001D01*
X91596064Y-63209313D01*
X91596059Y-63209312D01*
X91503140Y-63199819D01*
X91503123Y-63199818D01*
X91500009Y-63199500D01*
X91496860Y-63199500D01*
X90503140Y-63199500D01*
X90503120Y-63199500D01*
X90499992Y-63199501D01*
X90496860Y-63199820D01*
X90496858Y-63199821D01*
X90403938Y-63209312D01*
X90403928Y-63209313D01*
X90397203Y-63210001D01*
X90390781Y-63212128D01*
X90390776Y-63212130D01*
X90237521Y-63262914D01*
X90237517Y-63262915D01*
X90230666Y-63265186D01*
X90224522Y-63268975D01*
X90224519Y-63268977D01*
X90087488Y-63353497D01*
X90087480Y-63353503D01*
X90081344Y-63357288D01*
X90076242Y-63362389D01*
X90076238Y-63362393D01*
X89962399Y-63476232D01*
X89962395Y-63476236D01*
X89957288Y-63481344D01*
X89953495Y-63487492D01*
X89953492Y-63487497D01*
X89951582Y-63490594D01*
X89949364Y-63492716D01*
X89949015Y-63493159D01*
X89948953Y-63493110D01*
X89906475Y-63533777D01*
X89846042Y-63549500D01*
X87563707Y-63549500D01*
X87545736Y-63548191D01*
X87529126Y-63545758D01*
X87529124Y-63545757D01*
X87521977Y-63544711D01*
X87514784Y-63545340D01*
X87514778Y-63545340D01*
X87472631Y-63549028D01*
X87461824Y-63549500D01*
X87456291Y-63549500D01*
X87452730Y-63549916D01*
X87452715Y-63549917D01*
X87425501Y-63553098D01*
X87421916Y-63553464D01*
X87354393Y-63559371D01*
X87354385Y-63559372D01*
X87347203Y-63560001D01*
X87340352Y-63562270D01*
X87336935Y-63562976D01*
X87336619Y-63563027D01*
X87336295Y-63563119D01*
X87332913Y-63563920D01*
X87325745Y-63564759D01*
X87318968Y-63567225D01*
X87318957Y-63567228D01*
X87255231Y-63590421D01*
X87251831Y-63591603D01*
X87221863Y-63601533D01*
X87180666Y-63615186D01*
X87174528Y-63618971D01*
X87171367Y-63620445D01*
X87171061Y-63620571D01*
X87170781Y-63620728D01*
X87167659Y-63622296D01*
X87160883Y-63624763D01*
X87154855Y-63628727D01*
X87154854Y-63628728D01*
X87098220Y-63665976D01*
X87095182Y-63667911D01*
X87037492Y-63703495D01*
X87037483Y-63703501D01*
X87031345Y-63707288D01*
X87026243Y-63712389D01*
X87023504Y-63714555D01*
X87023239Y-63714745D01*
X87022995Y-63714970D01*
X87020331Y-63717205D01*
X87014304Y-63721170D01*
X87009355Y-63726414D01*
X87009353Y-63726417D01*
X86962832Y-63775726D01*
X86960320Y-63778311D01*
X83091858Y-67646772D01*
X83078230Y-67658550D01*
X83064763Y-67668576D01*
X83064757Y-67668581D01*
X83058970Y-67672890D01*
X83054332Y-67678416D01*
X83054330Y-67678419D01*
X83027133Y-67710830D01*
X83019850Y-67718780D01*
X83018469Y-67720161D01*
X83018455Y-67720176D01*
X83015909Y-67722723D01*
X83013673Y-67725550D01*
X83013671Y-67725553D01*
X82996676Y-67747046D01*
X82994402Y-67749837D01*
X82950839Y-67801754D01*
X82950835Y-67801758D01*
X82946198Y-67807286D01*
X82942960Y-67813730D01*
X82941037Y-67816655D01*
X82940852Y-67816911D01*
X82940692Y-67817198D01*
X82938863Y-67820163D01*
X82934389Y-67825823D01*
X82931339Y-67832362D01*
X82931338Y-67832365D01*
X82902692Y-67893794D01*
X82901123Y-67897036D01*
X82870696Y-67957622D01*
X82870694Y-67957627D01*
X82867460Y-67964067D01*
X82865796Y-67971084D01*
X82864609Y-67974347D01*
X82864477Y-67974663D01*
X82864388Y-67974980D01*
X82863291Y-67978287D01*
X82860243Y-67984827D01*
X82858784Y-67991890D01*
X82858783Y-67991895D01*
X82845074Y-68058287D01*
X82844294Y-68061806D01*
X82828664Y-68127755D01*
X82828663Y-68127760D01*
X82827000Y-68134779D01*
X82827000Y-68141991D01*
X82826597Y-68145439D01*
X82826543Y-68145773D01*
X82826528Y-68146126D01*
X82826226Y-68149570D01*
X82824766Y-68156644D01*
X82824976Y-68163860D01*
X82824976Y-68163861D01*
X82826948Y-68231630D01*
X82827000Y-68235237D01*
X82827000Y-68362300D01*
X82812989Y-68419557D01*
X82774124Y-68463873D01*
X82757263Y-68475679D01*
X82710533Y-68508399D01*
X82710523Y-68508406D01*
X82706099Y-68511505D01*
X82702275Y-68515328D01*
X82702269Y-68515334D01*
X82542834Y-68674769D01*
X82542828Y-68674775D01*
X82539005Y-68678599D01*
X82535902Y-68683029D01*
X82535899Y-68683034D01*
X82406573Y-68867731D01*
X82406568Y-68867738D01*
X82403465Y-68872171D01*
X82401177Y-68877077D01*
X82401175Y-68877081D01*
X82305886Y-69081427D01*
X82305883Y-69081432D01*
X82303597Y-69086337D01*
X82302198Y-69091557D01*
X82302194Y-69091569D01*
X82243837Y-69309365D01*
X82243835Y-69309371D01*
X82242437Y-69314592D01*
X82221841Y-69550000D01*
X82222313Y-69555395D01*
X82241053Y-69769596D01*
X82242437Y-69785408D01*
X82243836Y-69790630D01*
X82243837Y-69790634D01*
X82302194Y-70008430D01*
X82302197Y-70008438D01*
X82303597Y-70013663D01*
X82305885Y-70018570D01*
X82305886Y-70018572D01*
X82401178Y-70222927D01*
X82401181Y-70222933D01*
X82403465Y-70227830D01*
X82406564Y-70232257D01*
X82406566Y-70232259D01*
X82535899Y-70416966D01*
X82535902Y-70416970D01*
X82539005Y-70421401D01*
X82706099Y-70588495D01*
X82710531Y-70591598D01*
X82710533Y-70591600D01*
X82829304Y-70674764D01*
X82899670Y-70724035D01*
X83113837Y-70823903D01*
X83119067Y-70825304D01*
X83119069Y-70825305D01*
X83152020Y-70834134D01*
X83342092Y-70885063D01*
X83577500Y-70905659D01*
X83812908Y-70885063D01*
X84041163Y-70823903D01*
X84124301Y-70785134D01*
X84184764Y-70773779D01*
X84243245Y-70792882D01*
X84285347Y-70837742D01*
X84300705Y-70897316D01*
X84286203Y-70954329D01*
X84283704Y-70957669D01*
X84280604Y-70965978D01*
X84280604Y-70965980D01*
X84236120Y-71085247D01*
X84236119Y-71085250D01*
X84233409Y-71092517D01*
X84232579Y-71100227D01*
X84232579Y-71100232D01*
X84227355Y-71148819D01*
X84227354Y-71148831D01*
X84227000Y-71152127D01*
X84227000Y-71155448D01*
X84227000Y-71155449D01*
X84227000Y-72944560D01*
X84227000Y-72944578D01*
X84227001Y-72947872D01*
X84227353Y-72951150D01*
X84227354Y-72951161D01*
X84232579Y-72999768D01*
X84232580Y-72999773D01*
X84233409Y-73007483D01*
X84236119Y-73014749D01*
X84236120Y-73014753D01*
X84248247Y-73047266D01*
X84283704Y-73142331D01*
X84289018Y-73149430D01*
X84289019Y-73149431D01*
X84363252Y-73248594D01*
X84369954Y-73257546D01*
X84403491Y-73282652D01*
X84444752Y-73336985D01*
X84451028Y-73404922D01*
X84420415Y-73465895D01*
X84415311Y-73471439D01*
X84415305Y-73471446D01*
X84411836Y-73475215D01*
X84409037Y-73479497D01*
X84409030Y-73479508D01*
X84278631Y-73679099D01*
X84278624Y-73679111D01*
X84275827Y-73683393D01*
X84273772Y-73688077D01*
X84273766Y-73688089D01*
X84179587Y-73902797D01*
X84175937Y-73911119D01*
X84174679Y-73916084D01*
X84174678Y-73916089D01*
X84116151Y-74147204D01*
X84116149Y-74147213D01*
X84114892Y-74152179D01*
X84114468Y-74157288D01*
X84114467Y-74157298D01*
X84099712Y-74335366D01*
X84099711Y-74335383D01*
X84099500Y-74337933D01*
X84099500Y-74340503D01*
X84099500Y-79775500D01*
X84082887Y-79837500D01*
X84037500Y-79882887D01*
X83975500Y-79899500D01*
X79374335Y-79899500D01*
X79125665Y-79899500D01*
X79120602Y-79900344D01*
X79120599Y-79900345D01*
X79069293Y-79908906D01*
X79059126Y-79910173D01*
X79007290Y-79914468D01*
X79007284Y-79914468D01*
X79002179Y-79914892D01*
X78997220Y-79916147D01*
X78997212Y-79916149D01*
X78946786Y-79928918D01*
X78936763Y-79931019D01*
X78885451Y-79939582D01*
X78885430Y-79939587D01*
X78880386Y-79940429D01*
X78875546Y-79942090D01*
X78875532Y-79942094D01*
X78826319Y-79958989D01*
X78816500Y-79961912D01*
X78766092Y-79974677D01*
X78766085Y-79974679D01*
X78761119Y-79975937D01*
X78756429Y-79977994D01*
X78756415Y-79977999D01*
X78708789Y-79998890D01*
X78699242Y-80002615D01*
X78645190Y-80021172D01*
X78640691Y-80023606D01*
X78640681Y-80023611D01*
X78594926Y-80048372D01*
X78585724Y-80052871D01*
X78538086Y-80073767D01*
X78538072Y-80073774D01*
X78533393Y-80075827D01*
X78496405Y-80099992D01*
X78485562Y-80107076D01*
X78476763Y-80112318D01*
X78431005Y-80137082D01*
X78430995Y-80137088D01*
X78426491Y-80139526D01*
X78381385Y-80174632D01*
X78373059Y-80180577D01*
X78329510Y-80209029D01*
X78329503Y-80209034D01*
X78325215Y-80211836D01*
X78283164Y-80250545D01*
X78275358Y-80257157D01*
X78234304Y-80289110D01*
X78234295Y-80289118D01*
X78230256Y-80292262D01*
X78204764Y-80319953D01*
X78191550Y-80334307D01*
X78184312Y-80341544D01*
X78142262Y-80380256D01*
X78139118Y-80384295D01*
X78139110Y-80384304D01*
X78107157Y-80425358D01*
X78100545Y-80433164D01*
X78061836Y-80475215D01*
X78059034Y-80479503D01*
X78059029Y-80479510D01*
X78030577Y-80523059D01*
X78024632Y-80531385D01*
X77989526Y-80576491D01*
X77987088Y-80580995D01*
X77987082Y-80581005D01*
X77962318Y-80626763D01*
X77957079Y-80635556D01*
X77925827Y-80683393D01*
X77923774Y-80688072D01*
X77923767Y-80688086D01*
X77902871Y-80735724D01*
X77898372Y-80744926D01*
X77873611Y-80790681D01*
X77873606Y-80790691D01*
X77871172Y-80795190D01*
X77869509Y-80800033D01*
X77869509Y-80800034D01*
X77852615Y-80849244D01*
X77848890Y-80858789D01*
X77827999Y-80906415D01*
X77827994Y-80906429D01*
X77825937Y-80911119D01*
X77824679Y-80916085D01*
X77824677Y-80916092D01*
X77811912Y-80966500D01*
X77808989Y-80976319D01*
X77792094Y-81025532D01*
X77792090Y-81025546D01*
X77790429Y-81030386D01*
X77789587Y-81035430D01*
X77789582Y-81035451D01*
X77781019Y-81086763D01*
X77778918Y-81096786D01*
X77766149Y-81147212D01*
X77766147Y-81147220D01*
X77764892Y-81152179D01*
X77764468Y-81157284D01*
X77764468Y-81157290D01*
X77760173Y-81209126D01*
X77758906Y-81219293D01*
X77750345Y-81270599D01*
X77749500Y-81275665D01*
X77749500Y-81337933D01*
X77749500Y-88075665D01*
X77749500Y-88324335D01*
X70200500Y-88324335D01*
X70200500Y-60324500D01*
X70217113Y-60262500D01*
X70262500Y-60217113D01*
X70324500Y-60200500D01*
X164675500Y-60200500D01*
X164737500Y-60217113D01*
G37*
G04 #@! TD.AperFunction*
G04 #@! TA.AperFunction,Conductor*
G36*
X103163000Y-79891613D02*
G01*
X103208387Y-79937000D01*
X103225000Y-79999000D01*
X103225000Y-81301000D01*
X103208387Y-81363000D01*
X103163000Y-81408387D01*
X103101000Y-81425000D01*
X100075000Y-81425000D01*
X100075000Y-81441326D01*
X100075000Y-87926000D01*
X100058387Y-87988000D01*
X100013000Y-88033387D01*
X99951000Y-88050000D01*
X98474000Y-88050000D01*
X98412000Y-88033387D01*
X98366613Y-87988000D01*
X98350000Y-87926000D01*
X98350000Y-86274000D01*
X98366613Y-86212000D01*
X98412000Y-86166613D01*
X98474000Y-86150000D01*
X98833674Y-86150000D01*
X98850000Y-86150000D01*
X98850000Y-79999000D01*
X98866613Y-79937000D01*
X98912000Y-79891613D01*
X98974000Y-79875000D01*
X103101000Y-79875000D01*
X103163000Y-79891613D01*
G37*
G04 #@! TD.AperFunction*
G04 #@! TA.AperFunction,Conductor*
G36*
X117500000Y-76800000D02*
G01*
X112324000Y-76800000D01*
X112262000Y-76783387D01*
X112216613Y-76738000D01*
X112200000Y-76676000D01*
X112200000Y-71516326D01*
X112200000Y-71500000D01*
X117500000Y-71500000D01*
X117500000Y-76800000D01*
G37*
G04 #@! TD.AperFunction*
M02*
