G04 #@! TF.GenerationSoftware,KiCad,Pcbnew,7.0.1*
G04 #@! TF.CreationDate,2023-04-11T23:39:33+02:00*
G04 #@! TF.ProjectId,Usb Fume Extractor,55736220-4675-46d6-9520-457874726163,1.1*
G04 #@! TF.SameCoordinates,Original*
G04 #@! TF.FileFunction,Copper,L1,Top*
G04 #@! TF.FilePolarity,Positive*
%FSLAX46Y46*%
G04 Gerber Fmt 4.6, Leading zero omitted, Abs format (unit mm)*
G04 Created by KiCad (PCBNEW 7.0.1) date 2023-04-11 23:39:33*
%MOMM*%
%LPD*%
G01*
G04 APERTURE LIST*
G04 Aperture macros list*
%AMRoundRect*
0 Rectangle with rounded corners*
0 $1 Rounding radius*
0 $2 $3 $4 $5 $6 $7 $8 $9 X,Y pos of 4 corners*
0 Add a 4 corners polygon primitive as box body*
4,1,4,$2,$3,$4,$5,$6,$7,$8,$9,$2,$3,0*
0 Add four circle primitives for the rounded corners*
1,1,$1+$1,$2,$3*
1,1,$1+$1,$4,$5*
1,1,$1+$1,$6,$7*
1,1,$1+$1,$8,$9*
0 Add four rect primitives between the rounded corners*
20,1,$1+$1,$2,$3,$4,$5,0*
20,1,$1+$1,$4,$5,$6,$7,0*
20,1,$1+$1,$6,$7,$8,$9,0*
20,1,$1+$1,$8,$9,$2,$3,0*%
G04 Aperture macros list end*
G04 #@! TA.AperFunction,ComponentPad*
%ADD10C,1.600000*%
G04 #@! TD*
G04 #@! TA.AperFunction,ComponentPad*
%ADD11O,1.600000X1.600000*%
G04 #@! TD*
G04 #@! TA.AperFunction,ComponentPad*
%ADD12R,1.700000X1.700000*%
G04 #@! TD*
G04 #@! TA.AperFunction,ComponentPad*
%ADD13C,1.700000*%
G04 #@! TD*
G04 #@! TA.AperFunction,ComponentPad*
%ADD14C,3.500000*%
G04 #@! TD*
G04 #@! TA.AperFunction,ComponentPad*
%ADD15R,2.400000X1.600000*%
G04 #@! TD*
G04 #@! TA.AperFunction,ComponentPad*
%ADD16O,2.400000X1.600000*%
G04 #@! TD*
G04 #@! TA.AperFunction,ComponentPad*
%ADD17RoundRect,0.250000X0.620000X0.845000X-0.620000X0.845000X-0.620000X-0.845000X0.620000X-0.845000X0*%
G04 #@! TD*
G04 #@! TA.AperFunction,ComponentPad*
%ADD18O,1.740000X2.190000*%
G04 #@! TD*
G04 #@! TA.AperFunction,ComponentPad*
%ADD19R,1.600000X1.600000*%
G04 #@! TD*
G04 #@! TA.AperFunction,ComponentPad*
%ADD20C,2.150000*%
G04 #@! TD*
G04 #@! TA.AperFunction,ComponentPad*
%ADD21R,1.800000X1.800000*%
G04 #@! TD*
G04 #@! TA.AperFunction,ComponentPad*
%ADD22C,1.800000*%
G04 #@! TD*
G04 #@! TA.AperFunction,ComponentPad*
%ADD23RoundRect,0.750000X-1.250000X-0.750000X1.250000X-0.750000X1.250000X0.750000X-1.250000X0.750000X0*%
G04 #@! TD*
G04 #@! TA.AperFunction,ComponentPad*
%ADD24C,3.200000*%
G04 #@! TD*
G04 #@! TA.AperFunction,SMDPad,CuDef*
%ADD25RoundRect,0.300000X-0.300000X0.400000X-0.300000X-0.400000X0.300000X-0.400000X0.300000X0.400000X0*%
G04 #@! TD*
G04 #@! TA.AperFunction,SMDPad,CuDef*
%ADD26R,0.650000X1.560000*%
G04 #@! TD*
G04 #@! TA.AperFunction,SMDPad,CuDef*
%ADD27R,5.700000X2.600000*%
G04 #@! TD*
G04 #@! TA.AperFunction,SMDPad,CuDef*
%ADD28RoundRect,0.250000X0.350000X0.450000X-0.350000X0.450000X-0.350000X-0.450000X0.350000X-0.450000X0*%
G04 #@! TD*
G04 #@! TA.AperFunction,SMDPad,CuDef*
%ADD29RoundRect,0.250000X0.337500X0.475000X-0.337500X0.475000X-0.337500X-0.475000X0.337500X-0.475000X0*%
G04 #@! TD*
G04 #@! TA.AperFunction,SMDPad,CuDef*
%ADD30RoundRect,0.250000X1.100000X-0.412500X1.100000X0.412500X-1.100000X0.412500X-1.100000X-0.412500X0*%
G04 #@! TD*
G04 #@! TA.AperFunction,SMDPad,CuDef*
%ADD31RoundRect,0.250000X-1.450000X0.537500X-1.450000X-0.537500X1.450000X-0.537500X1.450000X0.537500X0*%
G04 #@! TD*
G04 #@! TA.AperFunction,ViaPad*
%ADD32C,0.500000*%
G04 #@! TD*
G04 #@! TA.AperFunction,Conductor*
%ADD33C,1.500000*%
G04 #@! TD*
G04 #@! TA.AperFunction,Conductor*
%ADD34C,2.000000*%
G04 #@! TD*
G04 #@! TA.AperFunction,Conductor*
%ADD35C,1.000000*%
G04 #@! TD*
G04 APERTURE END LIST*
D10*
X134925000Y-80600000D03*
D11*
X145085000Y-80600000D03*
D10*
X134925000Y-75800000D03*
D11*
X145085000Y-75800000D03*
D12*
X85577500Y-72050000D03*
D13*
X85577500Y-69550000D03*
X83577500Y-69550000D03*
X83577500Y-72050000D03*
D14*
X80867500Y-76820000D03*
X80867500Y-64780000D03*
D15*
X124185000Y-71160000D03*
D16*
X124185000Y-73700000D03*
X124185000Y-76240000D03*
X124185000Y-78780000D03*
X124185000Y-81320000D03*
X124185000Y-83860000D03*
X124185000Y-86400000D03*
X131805000Y-86400000D03*
X131805000Y-83860000D03*
X131805000Y-81320000D03*
X131805000Y-78780000D03*
X131805000Y-76240000D03*
X131805000Y-73700000D03*
X131805000Y-71160000D03*
D17*
X108080000Y-63650000D03*
D18*
X105540000Y-63650000D03*
X103000000Y-63650000D03*
X100460000Y-63650000D03*
D19*
X82890000Y-88200000D03*
D10*
X84890000Y-88200000D03*
X86890000Y-88200000D03*
X88890000Y-88200000D03*
D20*
X82160000Y-85480000D03*
X82160000Y-90920000D03*
X89160000Y-85480000D03*
X89160000Y-90920000D03*
D10*
X145505000Y-71500000D03*
X145505000Y-66500000D03*
X97300000Y-69300000D03*
D11*
X110000000Y-69300000D03*
D21*
X138950000Y-88800000D03*
D22*
X138950000Y-91300000D03*
X138950000Y-93800000D03*
D23*
X145950000Y-86900000D03*
X145950000Y-95700000D03*
D10*
X118880000Y-83085000D03*
X118880000Y-78085000D03*
D19*
X136505000Y-64900000D03*
D10*
X138505000Y-64900000D03*
D24*
X91400000Y-81400000D03*
X91400000Y-76700000D03*
X91400000Y-72000000D03*
D10*
X118905000Y-64340000D03*
D11*
X118905000Y-74500000D03*
D25*
X107200000Y-74850000D03*
X107200000Y-78650000D03*
D10*
X117000000Y-93300000D03*
X122000000Y-93300000D03*
D26*
X104800000Y-80650000D03*
X103850000Y-80650000D03*
X102900000Y-80650000D03*
X102900000Y-83350000D03*
X104800000Y-83350000D03*
D10*
X135080000Y-93300000D03*
D11*
X124920000Y-93300000D03*
D27*
X113400000Y-85400000D03*
X113400000Y-79700000D03*
D10*
X132565000Y-64900000D03*
D11*
X122405000Y-64900000D03*
D28*
X101300000Y-87300000D03*
X99300000Y-87300000D03*
X99450000Y-80600000D03*
X97450000Y-80600000D03*
D29*
X99487500Y-84000000D03*
X97412500Y-84000000D03*
D30*
X107800000Y-85262500D03*
X107800000Y-82137500D03*
D31*
X101860000Y-73212500D03*
X101860000Y-77487500D03*
D10*
X135305000Y-70985000D03*
X140305000Y-70985000D03*
D32*
X101550000Y-84650000D03*
X100310000Y-78800000D03*
X101100000Y-78800000D03*
X106750000Y-83300000D03*
X108250000Y-83300000D03*
X101550000Y-83950000D03*
X101900000Y-78800000D03*
X107500000Y-83300000D03*
X101550000Y-85350000D03*
X100900000Y-82050000D03*
X100900000Y-82750000D03*
X106000000Y-83300000D03*
X102700000Y-78800000D03*
X101550000Y-86050000D03*
D33*
X128405000Y-71160000D02*
X131805000Y-71160000D01*
X124185000Y-78780000D02*
X128000000Y-78780000D01*
X131805000Y-71160000D02*
X135130000Y-71160000D01*
D34*
X94600000Y-72600000D02*
X94000000Y-72000000D01*
D33*
X128005000Y-81500000D02*
X128005000Y-78775000D01*
X135305000Y-70985000D02*
X136505000Y-69785000D01*
D34*
X94600000Y-89400000D02*
X94600000Y-72600000D01*
X104300000Y-89750000D02*
X94950000Y-89750000D01*
D33*
X128005000Y-78775000D02*
X128005000Y-71560000D01*
X136505000Y-64900000D02*
X132565000Y-64900000D01*
X131805000Y-81320000D02*
X128185000Y-81320000D01*
X128005000Y-88800000D02*
X128005000Y-81500000D01*
D34*
X94000000Y-72000000D02*
X91400000Y-72000000D01*
D33*
X128005000Y-71560000D02*
X128405000Y-71160000D01*
X136505000Y-69785000D02*
X136505000Y-64900000D01*
D34*
X94950000Y-89750000D02*
X94600000Y-89400000D01*
D33*
X134205000Y-81320000D02*
X134925000Y-80600000D01*
X131805000Y-81320000D02*
X134205000Y-81320000D01*
X104300000Y-89750000D02*
X127055000Y-89750000D01*
X128185000Y-81320000D02*
X128005000Y-81500000D01*
X128000000Y-78780000D02*
X128005000Y-78775000D01*
X135130000Y-71160000D02*
X135305000Y-70985000D01*
X134925000Y-75800000D02*
X134925000Y-80600000D01*
X127055000Y-89750000D02*
X128005000Y-88800000D01*
X101212500Y-73212500D02*
X97300000Y-69300000D01*
X101860000Y-73212500D02*
X101212500Y-73212500D01*
D35*
X120470000Y-83085000D02*
X118880000Y-83085000D01*
X122040000Y-76240000D02*
X121530000Y-76750000D01*
X124185000Y-76240000D02*
X122040000Y-76240000D01*
X121530000Y-82025000D02*
X120470000Y-83085000D01*
X121530000Y-76750000D02*
X121530000Y-82025000D01*
X131805000Y-73700000D02*
X142985000Y-73700000D01*
X131805000Y-76240000D02*
X131805000Y-73700000D01*
X142985000Y-73700000D02*
X145085000Y-75800000D01*
X143305000Y-73700000D02*
X145505000Y-71500000D01*
X142985000Y-73700000D02*
X143305000Y-73700000D01*
X119705000Y-73700000D02*
X124185000Y-73700000D01*
X118905000Y-74500000D02*
X119705000Y-73700000D01*
D33*
X106505000Y-69300000D02*
X103000000Y-65795000D01*
X110000000Y-69300000D02*
X106505000Y-69300000D01*
X103000000Y-65795000D02*
X103000000Y-63650000D01*
D35*
X124180000Y-66675000D02*
X124180000Y-67225000D01*
X124180000Y-67225000D02*
X124185000Y-67230000D01*
X118905000Y-64340000D02*
X121845000Y-64340000D01*
X124185000Y-67230000D02*
X124185000Y-71160000D01*
X122405000Y-64900000D02*
X124180000Y-66675000D01*
X121845000Y-64340000D02*
X122405000Y-64900000D01*
X82890000Y-88200000D02*
X80500000Y-88200000D01*
D34*
X85600000Y-77000000D02*
X85600000Y-81400000D01*
X79250000Y-88200000D02*
X79250000Y-81400000D01*
X80500000Y-88200000D02*
X79250000Y-88200000D01*
X85600000Y-74400000D02*
X85600000Y-77000000D01*
X79250000Y-81400000D02*
X85600000Y-81400000D01*
X85900000Y-76700000D02*
X85600000Y-77000000D01*
X91400000Y-76700000D02*
X85900000Y-76700000D01*
D35*
X85577500Y-74377500D02*
X85600000Y-74400000D01*
X85577500Y-72050000D02*
X85577500Y-74377500D01*
X140500000Y-93800000D02*
X138950000Y-93800000D01*
X141800000Y-92500000D02*
X140500000Y-93800000D01*
X145085000Y-80600000D02*
X141800000Y-83885000D01*
X141800000Y-83885000D02*
X141800000Y-92500000D01*
X135080000Y-89920000D02*
X136200000Y-88800000D01*
X136200000Y-88800000D02*
X138950000Y-88800000D01*
X135080000Y-93300000D02*
X135080000Y-89920000D01*
G04 #@! TA.AperFunction,Conductor*
G36*
X105063000Y-82591613D02*
G01*
X105108387Y-82637000D01*
X105125000Y-82699000D01*
X105125000Y-83900000D01*
X116600000Y-83900000D01*
X116600000Y-89001000D01*
X116583387Y-89063000D01*
X116538000Y-89108387D01*
X116476000Y-89125000D01*
X105800000Y-89125000D01*
X105800000Y-90676000D01*
X105783387Y-90738000D01*
X105738000Y-90783387D01*
X105676000Y-90800000D01*
X102699000Y-90800000D01*
X102637000Y-90783387D01*
X102591613Y-90738000D01*
X102575000Y-90676000D01*
X102575000Y-82699000D01*
X102591613Y-82637000D01*
X102637000Y-82591613D01*
X102699000Y-82575000D01*
X105001000Y-82575000D01*
X105063000Y-82591613D01*
G37*
G04 #@! TD.AperFunction*
G04 #@! TA.AperFunction,Conductor*
G36*
X111138000Y-72116613D02*
G01*
X111183387Y-72162000D01*
X111200000Y-72224000D01*
X111200000Y-77226000D01*
X111183387Y-77288000D01*
X111138000Y-77333387D01*
X111076000Y-77350000D01*
X104874000Y-77350000D01*
X104812000Y-77333387D01*
X104766613Y-77288000D01*
X104750000Y-77226000D01*
X104750000Y-75800000D01*
X98250000Y-75800000D01*
X98250000Y-84876000D01*
X98233387Y-84938000D01*
X98188000Y-84983387D01*
X98126000Y-85000000D01*
X96874000Y-85000000D01*
X96812000Y-84983387D01*
X96766613Y-84938000D01*
X96750000Y-84876000D01*
X96750000Y-72224000D01*
X96766613Y-72162000D01*
X96812000Y-72116613D01*
X96874000Y-72100000D01*
X111076000Y-72100000D01*
X111138000Y-72116613D01*
G37*
G04 #@! TD.AperFunction*
G04 #@! TA.AperFunction,Conductor*
G36*
X104138000Y-76516613D02*
G01*
X104183387Y-76562000D01*
X104200000Y-76624000D01*
X104200000Y-81650000D01*
X105650000Y-81650000D01*
X105650000Y-81324000D01*
X105666613Y-81262000D01*
X105712000Y-81216613D01*
X105774000Y-81200000D01*
X109576000Y-81200000D01*
X109638000Y-81216613D01*
X109683387Y-81262000D01*
X109700000Y-81324000D01*
X109700000Y-83426000D01*
X109683387Y-83488000D01*
X109638000Y-83533387D01*
X109576000Y-83550000D01*
X105724000Y-83550000D01*
X105662000Y-83533387D01*
X105616613Y-83488000D01*
X105600000Y-83426000D01*
X105600000Y-82350000D01*
X101900000Y-82350000D01*
X101900000Y-87926000D01*
X101883387Y-87988000D01*
X101838000Y-88033387D01*
X101776000Y-88050000D01*
X100624000Y-88050000D01*
X100562000Y-88033387D01*
X100516613Y-87988000D01*
X100500000Y-87926000D01*
X100500000Y-81774000D01*
X100516613Y-81712000D01*
X100562000Y-81666613D01*
X100624000Y-81650000D01*
X103500000Y-81650000D01*
X103500000Y-79100000D01*
X99974000Y-79100000D01*
X99912000Y-79083387D01*
X99866613Y-79038000D01*
X99850000Y-78976000D01*
X99850000Y-76624000D01*
X99866613Y-76562000D01*
X99912000Y-76516613D01*
X99974000Y-76500000D01*
X104076000Y-76500000D01*
X104138000Y-76516613D01*
G37*
G04 #@! TD.AperFunction*
G04 #@! TA.AperFunction,Conductor*
G36*
X116538000Y-82816613D02*
G01*
X116583387Y-82862000D01*
X116600000Y-82924000D01*
X116600000Y-83900000D01*
X110050000Y-83900000D01*
X110050000Y-82924000D01*
X110066613Y-82862000D01*
X110112000Y-82816613D01*
X110174000Y-82800000D01*
X116476000Y-82800000D01*
X116538000Y-82816613D01*
G37*
G04 #@! TD.AperFunction*
G04 #@! TA.AperFunction,Conductor*
G36*
X116538000Y-77766613D02*
G01*
X116583387Y-77812000D01*
X116600000Y-77874000D01*
X116600000Y-81726000D01*
X116583387Y-81788000D01*
X116538000Y-81833387D01*
X116476000Y-81850000D01*
X110174000Y-81850000D01*
X110112000Y-81833387D01*
X110066613Y-81788000D01*
X110050000Y-81726000D01*
X110050000Y-80750000D01*
X105150000Y-80750000D01*
X105150000Y-81276000D01*
X105133387Y-81338000D01*
X105088000Y-81383387D01*
X105026000Y-81400000D01*
X104599000Y-81400000D01*
X104537000Y-81383387D01*
X104491613Y-81338000D01*
X104475000Y-81276000D01*
X104475000Y-77874000D01*
X104491613Y-77812000D01*
X104537000Y-77766613D01*
X104599000Y-77750000D01*
X116476000Y-77750000D01*
X116538000Y-77766613D01*
G37*
G04 #@! TD.AperFunction*
G04 #@! TA.AperFunction,Conductor*
G36*
X103163000Y-79891613D02*
G01*
X103208387Y-79937000D01*
X103225000Y-79999000D01*
X103225000Y-81301000D01*
X103208387Y-81363000D01*
X103163000Y-81408387D01*
X103101000Y-81425000D01*
X100075000Y-81425000D01*
X100075000Y-87926000D01*
X100058387Y-87988000D01*
X100013000Y-88033387D01*
X99951000Y-88050000D01*
X98474000Y-88050000D01*
X98412000Y-88033387D01*
X98366613Y-87988000D01*
X98350000Y-87926000D01*
X98350000Y-86274000D01*
X98366613Y-86212000D01*
X98412000Y-86166613D01*
X98474000Y-86150000D01*
X98850000Y-86150000D01*
X98850000Y-79999000D01*
X98866613Y-79937000D01*
X98912000Y-79891613D01*
X98974000Y-79875000D01*
X103101000Y-79875000D01*
X103163000Y-79891613D01*
G37*
G04 #@! TD.AperFunction*
M02*
