M48
; DRILL file {KiCad 7.0.1} date Tue Apr 11 23:40:26 2023
; FORMAT={-:-/ absolute / metric / decimal}
; #@! TF.CreationDate,2023-04-11T23:40:26+02:00
; #@! TF.GenerationSoftware,Kicad,Pcbnew,7.0.1
; #@! TF.FileFunction,Plated,1,2,PTH
FMAT,2
METRIC
; #@! TA.AperFunction,Plated,PTH,ViaDrill
T1C0.300
; #@! TA.AperFunction,Plated,PTH,ComponentDrill
T2C0.800
; #@! TA.AperFunction,Plated,PTH,ComponentDrill
T3C0.920
; #@! TA.AperFunction,Plated,PTH,ComponentDrill
T4C1.000
; #@! TA.AperFunction,Plated,PTH,ComponentDrill
T5C1.190
; #@! TA.AperFunction,Plated,PTH,ComponentDrill
T6C1.500
; #@! TA.AperFunction,Plated,PTH,ComponentDrill
T7C1.800
; #@! TA.AperFunction,Plated,PTH,ComponentDrill
T8C1.850
; #@! TA.AperFunction,Plated,PTH,ComponentDrill
T9C2.330
%
G90
G05
T1
X100.31Y-78.8
X100.9Y-82.05
X100.9Y-82.75
X101.1Y-78.8
X101.55Y-83.95
X101.55Y-84.65
X101.55Y-85.35
X101.55Y-86.05
X101.9Y-78.8
X102.7Y-78.8
X106.0Y-83.3
X106.75Y-83.3
X107.5Y-83.3
X108.25Y-83.3
T2
X97.3Y-69.3
X110.0Y-69.3
X117.0Y-93.3
X118.88Y-78.085
X118.88Y-83.085
X118.905Y-64.34
X118.905Y-74.5
X122.0Y-93.3
X122.405Y-64.9
X124.185Y-71.16
X124.185Y-73.7
X124.185Y-76.24
X124.185Y-78.78
X124.185Y-81.32
X124.185Y-83.86
X124.185Y-86.4
X124.92Y-93.3
X131.805Y-71.16
X131.805Y-73.7
X131.805Y-76.24
X131.805Y-78.78
X131.805Y-81.32
X131.805Y-83.86
X131.805Y-86.4
X132.565Y-64.9
X134.925Y-75.8
X134.925Y-80.6
X135.08Y-93.3
X135.305Y-70.985
X136.505Y-64.9
X138.505Y-64.9
X140.305Y-70.985
X145.085Y-75.8
X145.085Y-80.6
X145.505Y-66.5
X145.505Y-71.5
T3
X82.89Y-88.2
X83.578Y-69.55
X83.578Y-72.05
X84.89Y-88.2
X85.578Y-69.55
X85.578Y-72.05
X86.89Y-88.2
X88.89Y-88.2
T4
X138.95Y-88.8
X138.95Y-91.3
X138.95Y-93.8
T5
X100.46Y-63.65
X103.0Y-63.65
X105.54Y-63.65
X108.08Y-63.65
T6
X82.16Y-85.48
X82.16Y-90.92
X89.16Y-85.48
X89.16Y-90.92
T8
X91.4Y-72.0
X91.4Y-76.7
X91.4Y-81.4
T9
X80.867Y-64.78
X80.867Y-76.82
T7
X145.8Y-86.9G85X146.1Y-86.9
G05
X145.8Y-95.7G85X146.1Y-95.7
G05
T0
M30
