G04 #@! TF.GenerationSoftware,KiCad,Pcbnew,(7.0.0)*
G04 #@! TF.CreationDate,2023-03-01T02:56:27+01:00*
G04 #@! TF.ProjectId,Extracteur_Air_PcFan_5v,45787472-6163-4746-9575-725f4169725f,1.0*
G04 #@! TF.SameCoordinates,Original*
G04 #@! TF.FileFunction,Soldermask,Top*
G04 #@! TF.FilePolarity,Negative*
%FSLAX46Y46*%
G04 Gerber Fmt 4.6, Leading zero omitted, Abs format (unit mm)*
G04 Created by KiCad (PCBNEW (7.0.0)) date 2023-03-01 02:56:27*
%MOMM*%
%LPD*%
G01*
G04 APERTURE LIST*
G04 Aperture macros list*
%AMRoundRect*
0 Rectangle with rounded corners*
0 $1 Rounding radius*
0 $2 $3 $4 $5 $6 $7 $8 $9 X,Y pos of 4 corners*
0 Add a 4 corners polygon primitive as box body*
4,1,4,$2,$3,$4,$5,$6,$7,$8,$9,$2,$3,0*
0 Add four circle primitives for the rounded corners*
1,1,$1+$1,$2,$3*
1,1,$1+$1,$4,$5*
1,1,$1+$1,$6,$7*
1,1,$1+$1,$8,$9*
0 Add four rect primitives between the rounded corners*
20,1,$1+$1,$2,$3,$4,$5,0*
20,1,$1+$1,$4,$5,$6,$7,0*
20,1,$1+$1,$6,$7,$8,$9,0*
20,1,$1+$1,$8,$9,$2,$3,0*%
G04 Aperture macros list end*
%ADD10C,3.200000*%
%ADD11C,5.600000*%
%ADD12C,1.600000*%
%ADD13O,1.600000X1.600000*%
%ADD14RoundRect,0.250000X-0.450000X0.350000X-0.450000X-0.350000X0.450000X-0.350000X0.450000X0.350000X0*%
%ADD15RoundRect,0.250000X0.350000X0.450000X-0.350000X0.450000X-0.350000X-0.450000X0.350000X-0.450000X0*%
%ADD16R,1.700000X1.700000*%
%ADD17C,1.700000*%
%ADD18C,3.500000*%
%ADD19R,2.400000X1.600000*%
%ADD20O,2.400000X1.600000*%
%ADD21RoundRect,0.250000X0.620000X0.845000X-0.620000X0.845000X-0.620000X-0.845000X0.620000X-0.845000X0*%
%ADD22O,1.740000X2.190000*%
%ADD23R,1.600000X1.600000*%
%ADD24C,2.150000*%
%ADD25R,1.800000X1.800000*%
%ADD26C,1.800000*%
%ADD27RoundRect,0.750000X-1.250000X-0.750000X1.250000X-0.750000X1.250000X0.750000X-1.250000X0.750000X0*%
%ADD28RoundRect,0.300000X-0.300000X0.400000X-0.300000X-0.400000X0.300000X-0.400000X0.300000X0.400000X0*%
%ADD29R,0.650000X1.560000*%
%ADD30R,5.700000X2.600000*%
%ADD31RoundRect,0.250000X0.337500X0.475000X-0.337500X0.475000X-0.337500X-0.475000X0.337500X-0.475000X0*%
%ADD32RoundRect,0.250000X1.100000X-0.412500X1.100000X0.412500X-1.100000X0.412500X-1.100000X-0.412500X0*%
%ADD33RoundRect,0.250000X-1.450000X0.537500X-1.450000X-0.537500X1.450000X-0.537500X1.450000X0.537500X0*%
%ADD34C,1.000000*%
%ADD35C,0.500000*%
G04 APERTURE END LIST*
D10*
X91400000Y-81400000D03*
X91400000Y-76700000D03*
X91400000Y-72000000D03*
D11*
X98000000Y-64000000D03*
X161000000Y-76000000D03*
X74000000Y-96000000D03*
D12*
X142020000Y-80600000D03*
D13*
X152179999Y-80599999D03*
D14*
X91000000Y-64300000D03*
X91000000Y-66300000D03*
D15*
X86900000Y-94800000D03*
X84900000Y-94800000D03*
D12*
X142020000Y-75800000D03*
D13*
X152179999Y-75799999D03*
D16*
X85577499Y-72049999D03*
D17*
X85577500Y-69550000D03*
X83577500Y-69550000D03*
X83577500Y-72050000D03*
D18*
X80867500Y-76820000D03*
X80867500Y-64780000D03*
D19*
X131279999Y-71159999D03*
D20*
X131279999Y-73699999D03*
X131279999Y-76239999D03*
X131279999Y-78779999D03*
X131279999Y-81319999D03*
X131279999Y-83859999D03*
X131279999Y-86399999D03*
X138899999Y-86399999D03*
X138899999Y-83859999D03*
X138899999Y-81319999D03*
X138899999Y-78779999D03*
X138899999Y-76239999D03*
X138899999Y-73699999D03*
X138899999Y-71159999D03*
D21*
X116720000Y-63650000D03*
D22*
X114179999Y-63649999D03*
X111639999Y-63649999D03*
X109099999Y-63649999D03*
D23*
X82889999Y-88199999D03*
D12*
X84890000Y-88200000D03*
X86890000Y-88200000D03*
X88890000Y-88200000D03*
D24*
X82160000Y-85480000D03*
X82160000Y-90920000D03*
X89160000Y-85480000D03*
X89160000Y-90920000D03*
D12*
X152600000Y-71500000D03*
X152600000Y-66500000D03*
X98950000Y-69300000D03*
D13*
X111649999Y-69299999D03*
D25*
X149599999Y-88799999D03*
D26*
X149600000Y-91300000D03*
X149600000Y-93800000D03*
D27*
X156600000Y-86900000D03*
X156600000Y-95700000D03*
D12*
X125975000Y-83085000D03*
X125975000Y-78085000D03*
D23*
X143599999Y-64899999D03*
D12*
X145600000Y-64900000D03*
X126000000Y-64340000D03*
D13*
X125999999Y-74499999D03*
D28*
X107200000Y-74850000D03*
X107200000Y-78650000D03*
D12*
X125900000Y-93300000D03*
X130900000Y-93300000D03*
D29*
X104799999Y-80649999D03*
X103849999Y-80649999D03*
X102899999Y-80649999D03*
X102899999Y-83349999D03*
X104799999Y-83349999D03*
D12*
X144680000Y-93300000D03*
D13*
X134519999Y-93299999D03*
D30*
X113399999Y-85399999D03*
X113399999Y-79699999D03*
D12*
X139660000Y-64900000D03*
D13*
X129499999Y-64899999D03*
D15*
X101300000Y-87300000D03*
X99300000Y-87300000D03*
X99450000Y-80600000D03*
X97450000Y-80600000D03*
D31*
X99487500Y-84000000D03*
X97412500Y-84000000D03*
D32*
X107800000Y-85262500D03*
X107800000Y-82137500D03*
D33*
X101860000Y-73212500D03*
X101860000Y-77487500D03*
D12*
X142400000Y-70985000D03*
X147400000Y-70985000D03*
D34*
X157000000Y-63000000D03*
X153000000Y-63000000D03*
X121000000Y-73000000D03*
X121000000Y-77000000D03*
X118000000Y-98000000D03*
X114000000Y-98000000D03*
X110000000Y-98000000D03*
X159000000Y-63000000D03*
X155000000Y-63000000D03*
X151000000Y-63000000D03*
X121000000Y-79000000D03*
X121000000Y-71000000D03*
X121000000Y-75000000D03*
X120000000Y-98000000D03*
X116000000Y-98000000D03*
X112000000Y-98000000D03*
X108000000Y-98000000D03*
D35*
X101550000Y-84650000D03*
X100310000Y-78800000D03*
X101100000Y-78800000D03*
X106750000Y-83300000D03*
X108250000Y-83300000D03*
X101550000Y-83950000D03*
X101900000Y-78800000D03*
X107500000Y-83300000D03*
X101550000Y-85350000D03*
X100900000Y-82050000D03*
X100900000Y-82750000D03*
X106000000Y-83300000D03*
X102700000Y-78800000D03*
X101550000Y-86050000D03*
M02*
