%TF.GenerationSoftware,KiCad,Pcbnew,7.0.1*%
%TF.CreationDate,2023-04-11T23:40:37+02:00*%
%TF.ProjectId,Usb Fume Extractor,55736220-4675-46d6-9520-457874726163,1.1*%
%TF.SameCoordinates,Original*%
%TF.FileFunction,Drillmap*%
%TF.FilePolarity,Positive*%
%FSLAX45Y45*%
G04 Gerber Fmt 4.5, Leading zero omitted, Abs format (unit mm)*
G04 Created by KiCad (PCBNEW 7.0.1) date 2023-04-11 23:40:37*
%MOMM*%
%LPD*%
G01*
G04 APERTURE LIST*
%ADD10C,0.100000*%
%ADD11C,0.200000*%
%ADD12C,0.320000*%
G04 APERTURE END LIST*
D10*
X7000000Y-6000000D02*
X15500000Y-6000000D01*
X15500000Y-10000000D01*
X7000000Y-10000000D01*
X7000000Y-6000000D01*
D11*
D12*
X7220000Y-9460000D02*
X7540000Y-9780000D01*
X7540000Y-9460000D02*
X7220000Y-9780000D01*
X9140000Y-6220000D02*
X9460000Y-6540000D01*
X9460000Y-6220000D02*
X9140000Y-6540000D01*
X14960000Y-7440000D02*
X15280000Y-7760000D01*
X15280000Y-7440000D02*
X14960000Y-7760000D01*
D11*
X7242619Y-10317524D02*
X7242619Y-10117524D01*
X7242619Y-10117524D02*
X7290238Y-10117524D01*
X7290238Y-10117524D02*
X7318809Y-10127048D01*
X7318809Y-10127048D02*
X7337857Y-10146095D01*
X7337857Y-10146095D02*
X7347381Y-10165143D01*
X7347381Y-10165143D02*
X7356905Y-10203238D01*
X7356905Y-10203238D02*
X7356905Y-10231810D01*
X7356905Y-10231810D02*
X7347381Y-10269905D01*
X7347381Y-10269905D02*
X7337857Y-10288952D01*
X7337857Y-10288952D02*
X7318809Y-10308000D01*
X7318809Y-10308000D02*
X7290238Y-10317524D01*
X7290238Y-10317524D02*
X7242619Y-10317524D01*
X7442619Y-10317524D02*
X7442619Y-10184190D01*
X7442619Y-10222286D02*
X7452143Y-10203238D01*
X7452143Y-10203238D02*
X7461667Y-10193714D01*
X7461667Y-10193714D02*
X7480714Y-10184190D01*
X7480714Y-10184190D02*
X7499762Y-10184190D01*
X7566428Y-10317524D02*
X7566428Y-10184190D01*
X7566428Y-10117524D02*
X7556905Y-10127048D01*
X7556905Y-10127048D02*
X7566428Y-10136571D01*
X7566428Y-10136571D02*
X7575952Y-10127048D01*
X7575952Y-10127048D02*
X7566428Y-10117524D01*
X7566428Y-10117524D02*
X7566428Y-10136571D01*
X7690238Y-10317524D02*
X7671190Y-10308000D01*
X7671190Y-10308000D02*
X7661667Y-10288952D01*
X7661667Y-10288952D02*
X7661667Y-10117524D01*
X7795000Y-10317524D02*
X7775952Y-10308000D01*
X7775952Y-10308000D02*
X7766428Y-10288952D01*
X7766428Y-10288952D02*
X7766428Y-10117524D01*
X8023571Y-10317524D02*
X8023571Y-10117524D01*
X8023571Y-10117524D02*
X8090238Y-10260381D01*
X8090238Y-10260381D02*
X8156905Y-10117524D01*
X8156905Y-10117524D02*
X8156905Y-10317524D01*
X8337857Y-10317524D02*
X8337857Y-10212762D01*
X8337857Y-10212762D02*
X8328333Y-10193714D01*
X8328333Y-10193714D02*
X8309286Y-10184190D01*
X8309286Y-10184190D02*
X8271190Y-10184190D01*
X8271190Y-10184190D02*
X8252143Y-10193714D01*
X8337857Y-10308000D02*
X8318809Y-10317524D01*
X8318809Y-10317524D02*
X8271190Y-10317524D01*
X8271190Y-10317524D02*
X8252143Y-10308000D01*
X8252143Y-10308000D02*
X8242619Y-10288952D01*
X8242619Y-10288952D02*
X8242619Y-10269905D01*
X8242619Y-10269905D02*
X8252143Y-10250857D01*
X8252143Y-10250857D02*
X8271190Y-10241333D01*
X8271190Y-10241333D02*
X8318809Y-10241333D01*
X8318809Y-10241333D02*
X8337857Y-10231810D01*
X8433095Y-10184190D02*
X8433095Y-10384190D01*
X8433095Y-10193714D02*
X8452143Y-10184190D01*
X8452143Y-10184190D02*
X8490238Y-10184190D01*
X8490238Y-10184190D02*
X8509286Y-10193714D01*
X8509286Y-10193714D02*
X8518810Y-10203238D01*
X8518810Y-10203238D02*
X8528333Y-10222286D01*
X8528333Y-10222286D02*
X8528333Y-10279429D01*
X8528333Y-10279429D02*
X8518810Y-10298476D01*
X8518810Y-10298476D02*
X8509286Y-10308000D01*
X8509286Y-10308000D02*
X8490238Y-10317524D01*
X8490238Y-10317524D02*
X8452143Y-10317524D01*
X8452143Y-10317524D02*
X8433095Y-10308000D01*
X8614048Y-10298476D02*
X8623571Y-10308000D01*
X8623571Y-10308000D02*
X8614048Y-10317524D01*
X8614048Y-10317524D02*
X8604524Y-10308000D01*
X8604524Y-10308000D02*
X8614048Y-10298476D01*
X8614048Y-10298476D02*
X8614048Y-10317524D01*
X8614048Y-10193714D02*
X8623571Y-10203238D01*
X8623571Y-10203238D02*
X8614048Y-10212762D01*
X8614048Y-10212762D02*
X8604524Y-10203238D01*
X8604524Y-10203238D02*
X8614048Y-10193714D01*
X8614048Y-10193714D02*
X8614048Y-10212762D01*
X6795000Y-10545000D02*
X6995000Y-10745000D01*
X6995000Y-10545000D02*
X6795000Y-10745000D01*
X7223571Y-10537524D02*
X7347381Y-10537524D01*
X7347381Y-10537524D02*
X7280714Y-10613714D01*
X7280714Y-10613714D02*
X7309286Y-10613714D01*
X7309286Y-10613714D02*
X7328333Y-10623238D01*
X7328333Y-10623238D02*
X7337857Y-10632762D01*
X7337857Y-10632762D02*
X7347381Y-10651810D01*
X7347381Y-10651810D02*
X7347381Y-10699429D01*
X7347381Y-10699429D02*
X7337857Y-10718476D01*
X7337857Y-10718476D02*
X7328333Y-10728000D01*
X7328333Y-10728000D02*
X7309286Y-10737524D01*
X7309286Y-10737524D02*
X7252143Y-10737524D01*
X7252143Y-10737524D02*
X7233095Y-10728000D01*
X7233095Y-10728000D02*
X7223571Y-10718476D01*
X7433095Y-10718476D02*
X7442619Y-10728000D01*
X7442619Y-10728000D02*
X7433095Y-10737524D01*
X7433095Y-10737524D02*
X7423571Y-10728000D01*
X7423571Y-10728000D02*
X7433095Y-10718476D01*
X7433095Y-10718476D02*
X7433095Y-10737524D01*
X7518809Y-10556571D02*
X7528333Y-10547048D01*
X7528333Y-10547048D02*
X7547381Y-10537524D01*
X7547381Y-10537524D02*
X7595000Y-10537524D01*
X7595000Y-10537524D02*
X7614048Y-10547048D01*
X7614048Y-10547048D02*
X7623571Y-10556571D01*
X7623571Y-10556571D02*
X7633095Y-10575619D01*
X7633095Y-10575619D02*
X7633095Y-10594667D01*
X7633095Y-10594667D02*
X7623571Y-10623238D01*
X7623571Y-10623238D02*
X7509286Y-10737524D01*
X7509286Y-10737524D02*
X7633095Y-10737524D01*
X7756905Y-10537524D02*
X7775952Y-10537524D01*
X7775952Y-10537524D02*
X7795000Y-10547048D01*
X7795000Y-10547048D02*
X7804524Y-10556571D01*
X7804524Y-10556571D02*
X7814048Y-10575619D01*
X7814048Y-10575619D02*
X7823571Y-10613714D01*
X7823571Y-10613714D02*
X7823571Y-10661333D01*
X7823571Y-10661333D02*
X7814048Y-10699429D01*
X7814048Y-10699429D02*
X7804524Y-10718476D01*
X7804524Y-10718476D02*
X7795000Y-10728000D01*
X7795000Y-10728000D02*
X7775952Y-10737524D01*
X7775952Y-10737524D02*
X7756905Y-10737524D01*
X7756905Y-10737524D02*
X7737857Y-10728000D01*
X7737857Y-10728000D02*
X7728333Y-10718476D01*
X7728333Y-10718476D02*
X7718809Y-10699429D01*
X7718809Y-10699429D02*
X7709286Y-10661333D01*
X7709286Y-10661333D02*
X7709286Y-10613714D01*
X7709286Y-10613714D02*
X7718809Y-10575619D01*
X7718809Y-10575619D02*
X7728333Y-10556571D01*
X7728333Y-10556571D02*
X7737857Y-10547048D01*
X7737857Y-10547048D02*
X7756905Y-10537524D01*
X7947381Y-10537524D02*
X7966429Y-10537524D01*
X7966429Y-10537524D02*
X7985476Y-10547048D01*
X7985476Y-10547048D02*
X7995000Y-10556571D01*
X7995000Y-10556571D02*
X8004524Y-10575619D01*
X8004524Y-10575619D02*
X8014048Y-10613714D01*
X8014048Y-10613714D02*
X8014048Y-10661333D01*
X8014048Y-10661333D02*
X8004524Y-10699429D01*
X8004524Y-10699429D02*
X7995000Y-10718476D01*
X7995000Y-10718476D02*
X7985476Y-10728000D01*
X7985476Y-10728000D02*
X7966429Y-10737524D01*
X7966429Y-10737524D02*
X7947381Y-10737524D01*
X7947381Y-10737524D02*
X7928333Y-10728000D01*
X7928333Y-10728000D02*
X7918809Y-10718476D01*
X7918809Y-10718476D02*
X7909286Y-10699429D01*
X7909286Y-10699429D02*
X7899762Y-10661333D01*
X7899762Y-10661333D02*
X7899762Y-10613714D01*
X7899762Y-10613714D02*
X7909286Y-10575619D01*
X7909286Y-10575619D02*
X7918809Y-10556571D01*
X7918809Y-10556571D02*
X7928333Y-10547048D01*
X7928333Y-10547048D02*
X7947381Y-10537524D01*
X8099762Y-10737524D02*
X8099762Y-10604190D01*
X8099762Y-10623238D02*
X8109286Y-10613714D01*
X8109286Y-10613714D02*
X8128333Y-10604190D01*
X8128333Y-10604190D02*
X8156905Y-10604190D01*
X8156905Y-10604190D02*
X8175952Y-10613714D01*
X8175952Y-10613714D02*
X8185476Y-10632762D01*
X8185476Y-10632762D02*
X8185476Y-10737524D01*
X8185476Y-10632762D02*
X8195000Y-10613714D01*
X8195000Y-10613714D02*
X8214048Y-10604190D01*
X8214048Y-10604190D02*
X8242619Y-10604190D01*
X8242619Y-10604190D02*
X8261667Y-10613714D01*
X8261667Y-10613714D02*
X8271190Y-10632762D01*
X8271190Y-10632762D02*
X8271190Y-10737524D01*
X8366429Y-10737524D02*
X8366429Y-10604190D01*
X8366429Y-10623238D02*
X8375952Y-10613714D01*
X8375952Y-10613714D02*
X8395000Y-10604190D01*
X8395000Y-10604190D02*
X8423572Y-10604190D01*
X8423572Y-10604190D02*
X8442619Y-10613714D01*
X8442619Y-10613714D02*
X8452143Y-10632762D01*
X8452143Y-10632762D02*
X8452143Y-10737524D01*
X8452143Y-10632762D02*
X8461667Y-10613714D01*
X8461667Y-10613714D02*
X8480714Y-10604190D01*
X8480714Y-10604190D02*
X8509286Y-10604190D01*
X8509286Y-10604190D02*
X8528333Y-10613714D01*
X8528333Y-10613714D02*
X8537857Y-10632762D01*
X8537857Y-10632762D02*
X8537857Y-10737524D01*
X8928333Y-10528000D02*
X8756905Y-10785143D01*
X9185476Y-10537524D02*
X9204524Y-10537524D01*
X9204524Y-10537524D02*
X9223572Y-10547048D01*
X9223572Y-10547048D02*
X9233095Y-10556571D01*
X9233095Y-10556571D02*
X9242619Y-10575619D01*
X9242619Y-10575619D02*
X9252143Y-10613714D01*
X9252143Y-10613714D02*
X9252143Y-10661333D01*
X9252143Y-10661333D02*
X9242619Y-10699429D01*
X9242619Y-10699429D02*
X9233095Y-10718476D01*
X9233095Y-10718476D02*
X9223572Y-10728000D01*
X9223572Y-10728000D02*
X9204524Y-10737524D01*
X9204524Y-10737524D02*
X9185476Y-10737524D01*
X9185476Y-10737524D02*
X9166429Y-10728000D01*
X9166429Y-10728000D02*
X9156905Y-10718476D01*
X9156905Y-10718476D02*
X9147381Y-10699429D01*
X9147381Y-10699429D02*
X9137857Y-10661333D01*
X9137857Y-10661333D02*
X9137857Y-10613714D01*
X9137857Y-10613714D02*
X9147381Y-10575619D01*
X9147381Y-10575619D02*
X9156905Y-10556571D01*
X9156905Y-10556571D02*
X9166429Y-10547048D01*
X9166429Y-10547048D02*
X9185476Y-10537524D01*
X9337857Y-10718476D02*
X9347381Y-10728000D01*
X9347381Y-10728000D02*
X9337857Y-10737524D01*
X9337857Y-10737524D02*
X9328334Y-10728000D01*
X9328334Y-10728000D02*
X9337857Y-10718476D01*
X9337857Y-10718476D02*
X9337857Y-10737524D01*
X9537857Y-10737524D02*
X9423572Y-10737524D01*
X9480714Y-10737524D02*
X9480714Y-10537524D01*
X9480714Y-10537524D02*
X9461667Y-10566095D01*
X9461667Y-10566095D02*
X9442619Y-10585143D01*
X9442619Y-10585143D02*
X9423572Y-10594667D01*
X9614048Y-10556571D02*
X9623572Y-10547048D01*
X9623572Y-10547048D02*
X9642619Y-10537524D01*
X9642619Y-10537524D02*
X9690238Y-10537524D01*
X9690238Y-10537524D02*
X9709286Y-10547048D01*
X9709286Y-10547048D02*
X9718810Y-10556571D01*
X9718810Y-10556571D02*
X9728334Y-10575619D01*
X9728334Y-10575619D02*
X9728334Y-10594667D01*
X9728334Y-10594667D02*
X9718810Y-10623238D01*
X9718810Y-10623238D02*
X9604524Y-10737524D01*
X9604524Y-10737524D02*
X9728334Y-10737524D01*
X9899762Y-10537524D02*
X9861667Y-10537524D01*
X9861667Y-10537524D02*
X9842619Y-10547048D01*
X9842619Y-10547048D02*
X9833095Y-10556571D01*
X9833095Y-10556571D02*
X9814048Y-10585143D01*
X9814048Y-10585143D02*
X9804524Y-10623238D01*
X9804524Y-10623238D02*
X9804524Y-10699429D01*
X9804524Y-10699429D02*
X9814048Y-10718476D01*
X9814048Y-10718476D02*
X9823572Y-10728000D01*
X9823572Y-10728000D02*
X9842619Y-10737524D01*
X9842619Y-10737524D02*
X9880715Y-10737524D01*
X9880715Y-10737524D02*
X9899762Y-10728000D01*
X9899762Y-10728000D02*
X9909286Y-10718476D01*
X9909286Y-10718476D02*
X9918810Y-10699429D01*
X9918810Y-10699429D02*
X9918810Y-10651810D01*
X9918810Y-10651810D02*
X9909286Y-10632762D01*
X9909286Y-10632762D02*
X9899762Y-10623238D01*
X9899762Y-10623238D02*
X9880715Y-10613714D01*
X9880715Y-10613714D02*
X9842619Y-10613714D01*
X9842619Y-10613714D02*
X9823572Y-10623238D01*
X9823572Y-10623238D02*
X9814048Y-10632762D01*
X9814048Y-10632762D02*
X9804524Y-10651810D01*
X10042619Y-10537524D02*
X10061667Y-10537524D01*
X10061667Y-10537524D02*
X10080715Y-10547048D01*
X10080715Y-10547048D02*
X10090238Y-10556571D01*
X10090238Y-10556571D02*
X10099762Y-10575619D01*
X10099762Y-10575619D02*
X10109286Y-10613714D01*
X10109286Y-10613714D02*
X10109286Y-10661333D01*
X10109286Y-10661333D02*
X10099762Y-10699429D01*
X10099762Y-10699429D02*
X10090238Y-10718476D01*
X10090238Y-10718476D02*
X10080715Y-10728000D01*
X10080715Y-10728000D02*
X10061667Y-10737524D01*
X10061667Y-10737524D02*
X10042619Y-10737524D01*
X10042619Y-10737524D02*
X10023572Y-10728000D01*
X10023572Y-10728000D02*
X10014048Y-10718476D01*
X10014048Y-10718476D02*
X10004524Y-10699429D01*
X10004524Y-10699429D02*
X9995000Y-10661333D01*
X9995000Y-10661333D02*
X9995000Y-10613714D01*
X9995000Y-10613714D02*
X10004524Y-10575619D01*
X10004524Y-10575619D02*
X10014048Y-10556571D01*
X10014048Y-10556571D02*
X10023572Y-10547048D01*
X10023572Y-10547048D02*
X10042619Y-10537524D01*
X10185476Y-10537524D02*
X10185476Y-10575619D01*
X10261667Y-10537524D02*
X10261667Y-10575619D01*
X10556905Y-10813714D02*
X10547381Y-10804190D01*
X10547381Y-10804190D02*
X10528334Y-10775619D01*
X10528334Y-10775619D02*
X10518810Y-10756571D01*
X10518810Y-10756571D02*
X10509286Y-10728000D01*
X10509286Y-10728000D02*
X10499762Y-10680381D01*
X10499762Y-10680381D02*
X10499762Y-10642286D01*
X10499762Y-10642286D02*
X10509286Y-10594667D01*
X10509286Y-10594667D02*
X10518810Y-10566095D01*
X10518810Y-10566095D02*
X10528334Y-10547048D01*
X10528334Y-10547048D02*
X10547381Y-10518476D01*
X10547381Y-10518476D02*
X10556905Y-10508952D01*
X10614048Y-10537524D02*
X10737857Y-10537524D01*
X10737857Y-10537524D02*
X10671191Y-10613714D01*
X10671191Y-10613714D02*
X10699762Y-10613714D01*
X10699762Y-10613714D02*
X10718810Y-10623238D01*
X10718810Y-10623238D02*
X10728334Y-10632762D01*
X10728334Y-10632762D02*
X10737857Y-10651810D01*
X10737857Y-10651810D02*
X10737857Y-10699429D01*
X10737857Y-10699429D02*
X10728334Y-10718476D01*
X10728334Y-10718476D02*
X10718810Y-10728000D01*
X10718810Y-10728000D02*
X10699762Y-10737524D01*
X10699762Y-10737524D02*
X10642619Y-10737524D01*
X10642619Y-10737524D02*
X10623572Y-10728000D01*
X10623572Y-10728000D02*
X10614048Y-10718476D01*
X10975953Y-10737524D02*
X10975953Y-10537524D01*
X11061667Y-10737524D02*
X11061667Y-10632762D01*
X11061667Y-10632762D02*
X11052143Y-10613714D01*
X11052143Y-10613714D02*
X11033096Y-10604190D01*
X11033096Y-10604190D02*
X11004524Y-10604190D01*
X11004524Y-10604190D02*
X10985477Y-10613714D01*
X10985477Y-10613714D02*
X10975953Y-10623238D01*
X11185476Y-10737524D02*
X11166429Y-10728000D01*
X11166429Y-10728000D02*
X11156905Y-10718476D01*
X11156905Y-10718476D02*
X11147381Y-10699429D01*
X11147381Y-10699429D02*
X11147381Y-10642286D01*
X11147381Y-10642286D02*
X11156905Y-10623238D01*
X11156905Y-10623238D02*
X11166429Y-10613714D01*
X11166429Y-10613714D02*
X11185476Y-10604190D01*
X11185476Y-10604190D02*
X11214048Y-10604190D01*
X11214048Y-10604190D02*
X11233096Y-10613714D01*
X11233096Y-10613714D02*
X11242619Y-10623238D01*
X11242619Y-10623238D02*
X11252143Y-10642286D01*
X11252143Y-10642286D02*
X11252143Y-10699429D01*
X11252143Y-10699429D02*
X11242619Y-10718476D01*
X11242619Y-10718476D02*
X11233096Y-10728000D01*
X11233096Y-10728000D02*
X11214048Y-10737524D01*
X11214048Y-10737524D02*
X11185476Y-10737524D01*
X11366429Y-10737524D02*
X11347381Y-10728000D01*
X11347381Y-10728000D02*
X11337857Y-10708952D01*
X11337857Y-10708952D02*
X11337857Y-10537524D01*
X11518810Y-10728000D02*
X11499762Y-10737524D01*
X11499762Y-10737524D02*
X11461667Y-10737524D01*
X11461667Y-10737524D02*
X11442619Y-10728000D01*
X11442619Y-10728000D02*
X11433096Y-10708952D01*
X11433096Y-10708952D02*
X11433096Y-10632762D01*
X11433096Y-10632762D02*
X11442619Y-10613714D01*
X11442619Y-10613714D02*
X11461667Y-10604190D01*
X11461667Y-10604190D02*
X11499762Y-10604190D01*
X11499762Y-10604190D02*
X11518810Y-10613714D01*
X11518810Y-10613714D02*
X11528334Y-10632762D01*
X11528334Y-10632762D02*
X11528334Y-10651810D01*
X11528334Y-10651810D02*
X11433096Y-10670857D01*
X11604524Y-10728000D02*
X11623572Y-10737524D01*
X11623572Y-10737524D02*
X11661667Y-10737524D01*
X11661667Y-10737524D02*
X11680715Y-10728000D01*
X11680715Y-10728000D02*
X11690238Y-10708952D01*
X11690238Y-10708952D02*
X11690238Y-10699429D01*
X11690238Y-10699429D02*
X11680715Y-10680381D01*
X11680715Y-10680381D02*
X11661667Y-10670857D01*
X11661667Y-10670857D02*
X11633096Y-10670857D01*
X11633096Y-10670857D02*
X11614048Y-10661333D01*
X11614048Y-10661333D02*
X11604524Y-10642286D01*
X11604524Y-10642286D02*
X11604524Y-10632762D01*
X11604524Y-10632762D02*
X11614048Y-10613714D01*
X11614048Y-10613714D02*
X11633096Y-10604190D01*
X11633096Y-10604190D02*
X11661667Y-10604190D01*
X11661667Y-10604190D02*
X11680715Y-10613714D01*
X11756905Y-10813714D02*
X11766429Y-10804190D01*
X11766429Y-10804190D02*
X11785477Y-10775619D01*
X11785477Y-10775619D02*
X11795000Y-10756571D01*
X11795000Y-10756571D02*
X11804524Y-10728000D01*
X11804524Y-10728000D02*
X11814048Y-10680381D01*
X11814048Y-10680381D02*
X11814048Y-10642286D01*
X11814048Y-10642286D02*
X11804524Y-10594667D01*
X11804524Y-10594667D02*
X11795000Y-10566095D01*
X11795000Y-10566095D02*
X11785477Y-10547048D01*
X11785477Y-10547048D02*
X11766429Y-10518476D01*
X11766429Y-10518476D02*
X11756905Y-10508952D01*
X12118810Y-10813714D02*
X12109286Y-10804190D01*
X12109286Y-10804190D02*
X12090238Y-10775619D01*
X12090238Y-10775619D02*
X12080715Y-10756571D01*
X12080715Y-10756571D02*
X12071191Y-10728000D01*
X12071191Y-10728000D02*
X12061667Y-10680381D01*
X12061667Y-10680381D02*
X12061667Y-10642286D01*
X12061667Y-10642286D02*
X12071191Y-10594667D01*
X12071191Y-10594667D02*
X12080715Y-10566095D01*
X12080715Y-10566095D02*
X12090238Y-10547048D01*
X12090238Y-10547048D02*
X12109286Y-10518476D01*
X12109286Y-10518476D02*
X12118810Y-10508952D01*
X12195000Y-10604190D02*
X12195000Y-10737524D01*
X12195000Y-10623238D02*
X12204524Y-10613714D01*
X12204524Y-10613714D02*
X12223572Y-10604190D01*
X12223572Y-10604190D02*
X12252143Y-10604190D01*
X12252143Y-10604190D02*
X12271191Y-10613714D01*
X12271191Y-10613714D02*
X12280715Y-10632762D01*
X12280715Y-10632762D02*
X12280715Y-10737524D01*
X12404524Y-10737524D02*
X12385477Y-10728000D01*
X12385477Y-10728000D02*
X12375953Y-10718476D01*
X12375953Y-10718476D02*
X12366429Y-10699429D01*
X12366429Y-10699429D02*
X12366429Y-10642286D01*
X12366429Y-10642286D02*
X12375953Y-10623238D01*
X12375953Y-10623238D02*
X12385477Y-10613714D01*
X12385477Y-10613714D02*
X12404524Y-10604190D01*
X12404524Y-10604190D02*
X12433096Y-10604190D01*
X12433096Y-10604190D02*
X12452143Y-10613714D01*
X12452143Y-10613714D02*
X12461667Y-10623238D01*
X12461667Y-10623238D02*
X12471191Y-10642286D01*
X12471191Y-10642286D02*
X12471191Y-10699429D01*
X12471191Y-10699429D02*
X12461667Y-10718476D01*
X12461667Y-10718476D02*
X12452143Y-10728000D01*
X12452143Y-10728000D02*
X12433096Y-10737524D01*
X12433096Y-10737524D02*
X12404524Y-10737524D01*
X12528334Y-10604190D02*
X12604524Y-10604190D01*
X12556905Y-10537524D02*
X12556905Y-10708952D01*
X12556905Y-10708952D02*
X12566429Y-10728000D01*
X12566429Y-10728000D02*
X12585477Y-10737524D01*
X12585477Y-10737524D02*
X12604524Y-10737524D01*
X12823572Y-10604190D02*
X12823572Y-10804190D01*
X12823572Y-10613714D02*
X12842619Y-10604190D01*
X12842619Y-10604190D02*
X12880715Y-10604190D01*
X12880715Y-10604190D02*
X12899762Y-10613714D01*
X12899762Y-10613714D02*
X12909286Y-10623238D01*
X12909286Y-10623238D02*
X12918810Y-10642286D01*
X12918810Y-10642286D02*
X12918810Y-10699429D01*
X12918810Y-10699429D02*
X12909286Y-10718476D01*
X12909286Y-10718476D02*
X12899762Y-10728000D01*
X12899762Y-10728000D02*
X12880715Y-10737524D01*
X12880715Y-10737524D02*
X12842619Y-10737524D01*
X12842619Y-10737524D02*
X12823572Y-10728000D01*
X13033096Y-10737524D02*
X13014048Y-10728000D01*
X13014048Y-10728000D02*
X13004524Y-10708952D01*
X13004524Y-10708952D02*
X13004524Y-10537524D01*
X13195000Y-10737524D02*
X13195000Y-10632762D01*
X13195000Y-10632762D02*
X13185477Y-10613714D01*
X13185477Y-10613714D02*
X13166429Y-10604190D01*
X13166429Y-10604190D02*
X13128334Y-10604190D01*
X13128334Y-10604190D02*
X13109286Y-10613714D01*
X13195000Y-10728000D02*
X13175953Y-10737524D01*
X13175953Y-10737524D02*
X13128334Y-10737524D01*
X13128334Y-10737524D02*
X13109286Y-10728000D01*
X13109286Y-10728000D02*
X13099762Y-10708952D01*
X13099762Y-10708952D02*
X13099762Y-10689905D01*
X13099762Y-10689905D02*
X13109286Y-10670857D01*
X13109286Y-10670857D02*
X13128334Y-10661333D01*
X13128334Y-10661333D02*
X13175953Y-10661333D01*
X13175953Y-10661333D02*
X13195000Y-10651810D01*
X13261667Y-10604190D02*
X13337858Y-10604190D01*
X13290239Y-10537524D02*
X13290239Y-10708952D01*
X13290239Y-10708952D02*
X13299762Y-10728000D01*
X13299762Y-10728000D02*
X13318810Y-10737524D01*
X13318810Y-10737524D02*
X13337858Y-10737524D01*
X13480715Y-10728000D02*
X13461667Y-10737524D01*
X13461667Y-10737524D02*
X13423572Y-10737524D01*
X13423572Y-10737524D02*
X13404524Y-10728000D01*
X13404524Y-10728000D02*
X13395000Y-10708952D01*
X13395000Y-10708952D02*
X13395000Y-10632762D01*
X13395000Y-10632762D02*
X13404524Y-10613714D01*
X13404524Y-10613714D02*
X13423572Y-10604190D01*
X13423572Y-10604190D02*
X13461667Y-10604190D01*
X13461667Y-10604190D02*
X13480715Y-10613714D01*
X13480715Y-10613714D02*
X13490239Y-10632762D01*
X13490239Y-10632762D02*
X13490239Y-10651810D01*
X13490239Y-10651810D02*
X13395000Y-10670857D01*
X13661667Y-10737524D02*
X13661667Y-10537524D01*
X13661667Y-10728000D02*
X13642620Y-10737524D01*
X13642620Y-10737524D02*
X13604524Y-10737524D01*
X13604524Y-10737524D02*
X13585477Y-10728000D01*
X13585477Y-10728000D02*
X13575953Y-10718476D01*
X13575953Y-10718476D02*
X13566429Y-10699429D01*
X13566429Y-10699429D02*
X13566429Y-10642286D01*
X13566429Y-10642286D02*
X13575953Y-10623238D01*
X13575953Y-10623238D02*
X13585477Y-10613714D01*
X13585477Y-10613714D02*
X13604524Y-10604190D01*
X13604524Y-10604190D02*
X13642620Y-10604190D01*
X13642620Y-10604190D02*
X13661667Y-10613714D01*
X13737858Y-10813714D02*
X13747381Y-10804190D01*
X13747381Y-10804190D02*
X13766429Y-10775619D01*
X13766429Y-10775619D02*
X13775953Y-10756571D01*
X13775953Y-10756571D02*
X13785477Y-10728000D01*
X13785477Y-10728000D02*
X13795000Y-10680381D01*
X13795000Y-10680381D02*
X13795000Y-10642286D01*
X13795000Y-10642286D02*
X13785477Y-10594667D01*
X13785477Y-10594667D02*
X13775953Y-10566095D01*
X13775953Y-10566095D02*
X13766429Y-10547048D01*
X13766429Y-10547048D02*
X13747381Y-10518476D01*
X13747381Y-10518476D02*
X13737858Y-10508952D01*
M02*
