%TF.GenerationSoftware,KiCad,Pcbnew,(7.0.0)*%
%TF.CreationDate,2023-03-01T02:56:50+01:00*%
%TF.ProjectId,Extracteur_Air_PcFan_5v,45787472-6163-4746-9575-725f4169725f,1.0*%
%TF.SameCoordinates,Original*%
%TF.FileFunction,Drillmap*%
%TF.FilePolarity,Positive*%
%FSLAX45Y45*%
G04 Gerber Fmt 4.5, Leading zero omitted, Abs format (unit mm)*
G04 Created by KiCad (PCBNEW (7.0.0)) date 2023-03-01 02:56:50*
%MOMM*%
%LPD*%
G01*
G04 APERTURE LIST*
%ADD10C,0.100000*%
%ADD11C,0.200000*%
G04 APERTURE END LIST*
D10*
X7000000Y-6000000D02*
X16500000Y-6000000D01*
X16500000Y-6000000D02*
X16500000Y-10000000D01*
X16500000Y-10000000D02*
X7000000Y-10000000D01*
X7000000Y-10000000D02*
X7000000Y-6000000D01*
D11*
X7242619Y-10298476D02*
X7242619Y-10098476D01*
X7242619Y-10098476D02*
X7290238Y-10098476D01*
X7290238Y-10098476D02*
X7318809Y-10108000D01*
X7318809Y-10108000D02*
X7337857Y-10127048D01*
X7337857Y-10127048D02*
X7347381Y-10146095D01*
X7347381Y-10146095D02*
X7356905Y-10184190D01*
X7356905Y-10184190D02*
X7356905Y-10212762D01*
X7356905Y-10212762D02*
X7347381Y-10250857D01*
X7347381Y-10250857D02*
X7337857Y-10269905D01*
X7337857Y-10269905D02*
X7318809Y-10288952D01*
X7318809Y-10288952D02*
X7290238Y-10298476D01*
X7290238Y-10298476D02*
X7242619Y-10298476D01*
X7442619Y-10298476D02*
X7442619Y-10165143D01*
X7442619Y-10203238D02*
X7452143Y-10184190D01*
X7452143Y-10184190D02*
X7461667Y-10174667D01*
X7461667Y-10174667D02*
X7480714Y-10165143D01*
X7480714Y-10165143D02*
X7499762Y-10165143D01*
X7566428Y-10298476D02*
X7566428Y-10165143D01*
X7566428Y-10098476D02*
X7556905Y-10108000D01*
X7556905Y-10108000D02*
X7566428Y-10117524D01*
X7566428Y-10117524D02*
X7575952Y-10108000D01*
X7575952Y-10108000D02*
X7566428Y-10098476D01*
X7566428Y-10098476D02*
X7566428Y-10117524D01*
X7690238Y-10298476D02*
X7671190Y-10288952D01*
X7671190Y-10288952D02*
X7661667Y-10269905D01*
X7661667Y-10269905D02*
X7661667Y-10098476D01*
X7795000Y-10298476D02*
X7775952Y-10288952D01*
X7775952Y-10288952D02*
X7766428Y-10269905D01*
X7766428Y-10269905D02*
X7766428Y-10098476D01*
X7991190Y-10298476D02*
X7991190Y-10098476D01*
X7991190Y-10098476D02*
X8057857Y-10241333D01*
X8057857Y-10241333D02*
X8124524Y-10098476D01*
X8124524Y-10098476D02*
X8124524Y-10298476D01*
X8305476Y-10298476D02*
X8305476Y-10193714D01*
X8305476Y-10193714D02*
X8295952Y-10174667D01*
X8295952Y-10174667D02*
X8276905Y-10165143D01*
X8276905Y-10165143D02*
X8238809Y-10165143D01*
X8238809Y-10165143D02*
X8219762Y-10174667D01*
X8305476Y-10288952D02*
X8286428Y-10298476D01*
X8286428Y-10298476D02*
X8238809Y-10298476D01*
X8238809Y-10298476D02*
X8219762Y-10288952D01*
X8219762Y-10288952D02*
X8210238Y-10269905D01*
X8210238Y-10269905D02*
X8210238Y-10250857D01*
X8210238Y-10250857D02*
X8219762Y-10231810D01*
X8219762Y-10231810D02*
X8238809Y-10222286D01*
X8238809Y-10222286D02*
X8286428Y-10222286D01*
X8286428Y-10222286D02*
X8305476Y-10212762D01*
X8400714Y-10165143D02*
X8400714Y-10365143D01*
X8400714Y-10174667D02*
X8419762Y-10165143D01*
X8419762Y-10165143D02*
X8457857Y-10165143D01*
X8457857Y-10165143D02*
X8476905Y-10174667D01*
X8476905Y-10174667D02*
X8486429Y-10184190D01*
X8486429Y-10184190D02*
X8495952Y-10203238D01*
X8495952Y-10203238D02*
X8495952Y-10260381D01*
X8495952Y-10260381D02*
X8486429Y-10279429D01*
X8486429Y-10279429D02*
X8476905Y-10288952D01*
X8476905Y-10288952D02*
X8457857Y-10298476D01*
X8457857Y-10298476D02*
X8419762Y-10298476D01*
X8419762Y-10298476D02*
X8400714Y-10288952D01*
X8581667Y-10279429D02*
X8591190Y-10288952D01*
X8591190Y-10288952D02*
X8581667Y-10298476D01*
X8581667Y-10298476D02*
X8572143Y-10288952D01*
X8572143Y-10288952D02*
X8581667Y-10279429D01*
X8581667Y-10279429D02*
X8581667Y-10298476D01*
X8581667Y-10174667D02*
X8591190Y-10184190D01*
X8591190Y-10184190D02*
X8581667Y-10193714D01*
X8581667Y-10193714D02*
X8572143Y-10184190D01*
X8572143Y-10184190D02*
X8581667Y-10174667D01*
X8581667Y-10174667D02*
X8581667Y-10193714D01*
M02*
