M48
; DRILL file {KiCad (7.0.0)} date Wed Mar  1 02:56:47 2023
; FORMAT={-:-/ absolute / metric / decimal}
; #@! TF.CreationDate,2023-03-01T02:56:47+01:00
; #@! TF.GenerationSoftware,Kicad,Pcbnew,(7.0.0)
; #@! TF.FileFunction,Plated,1,2,PTH
FMAT,2
METRIC
; #@! TA.AperFunction,Plated,PTH,ViaDrill
T1C0.300
; #@! TA.AperFunction,Plated,PTH,ViaDrill
T2C0.500
; #@! TA.AperFunction,Plated,PTH,ComponentDrill
T3C0.800
; #@! TA.AperFunction,Plated,PTH,ComponentDrill
T4C0.920
; #@! TA.AperFunction,Plated,PTH,ComponentDrill
T5C1.000
; #@! TA.AperFunction,Plated,PTH,ComponentDrill
T6C1.190
; #@! TA.AperFunction,Plated,PTH,ComponentDrill
T7C1.500
; #@! TA.AperFunction,Plated,PTH,ComponentDrill
T8C1.800
; #@! TA.AperFunction,Plated,PTH,ComponentDrill
T9C1.850
; #@! TA.AperFunction,Plated,PTH,ComponentDrill
T10C2.330
; #@! TA.AperFunction,Plated,PTH,ComponentDrill
T11C3.200
%
G90
G05
T1
X100.31Y-78.8
X100.9Y-82.05
X100.9Y-82.75
X101.1Y-78.8
X101.55Y-83.95
X101.55Y-84.65
X101.55Y-85.35
X101.55Y-86.05
X101.9Y-78.8
X102.7Y-78.8
X106.0Y-83.3
X106.75Y-83.3
X107.5Y-83.3
X108.25Y-83.3
T2
X108.0Y-98.0
X110.0Y-98.0
X112.0Y-98.0
X114.0Y-98.0
X116.0Y-98.0
X118.0Y-98.0
X120.0Y-98.0
X121.0Y-71.0
X121.0Y-73.0
X121.0Y-75.0
X121.0Y-77.0
X121.0Y-79.0
X151.0Y-63.0
X153.0Y-63.0
X155.0Y-63.0
X157.0Y-63.0
X159.0Y-63.0
T3
X98.95Y-69.3
X111.65Y-69.3
X125.9Y-93.3
X125.975Y-78.085
X125.975Y-83.085
X126.0Y-64.34
X126.0Y-74.5
X129.5Y-64.9
X130.9Y-93.3
X131.28Y-71.16
X131.28Y-73.7
X131.28Y-76.24
X131.28Y-78.78
X131.28Y-81.32
X131.28Y-83.86
X131.28Y-86.4
X134.52Y-93.3
X138.9Y-71.16
X138.9Y-73.7
X138.9Y-76.24
X138.9Y-78.78
X138.9Y-81.32
X138.9Y-83.86
X138.9Y-86.4
X139.66Y-64.9
X142.02Y-75.8
X142.02Y-80.6
X142.4Y-70.985
X143.6Y-64.9
X144.68Y-93.3
X145.6Y-64.9
X147.4Y-70.985
X152.18Y-75.8
X152.18Y-80.6
X152.6Y-66.5
X152.6Y-71.5
T4
X82.89Y-88.2
X83.578Y-69.55
X83.578Y-72.05
X84.89Y-88.2
X85.578Y-69.55
X85.578Y-72.05
X86.89Y-88.2
X88.89Y-88.2
T5
X149.6Y-88.8
X149.6Y-91.3
X149.6Y-93.8
T6
X109.1Y-63.65
X111.64Y-63.65
X114.18Y-63.65
X116.72Y-63.65
T7
X82.16Y-85.48
X82.16Y-90.92
X89.16Y-85.48
X89.16Y-90.92
T9
X91.4Y-72.0
X91.4Y-76.7
X91.4Y-81.4
T10
X80.867Y-64.78
X80.867Y-76.82
T11
X74.0Y-96.0
X98.0Y-64.0
X161.0Y-76.0
T8
X156.45Y-86.9G85X156.75Y-86.9
G05
X156.45Y-95.7G85X156.75Y-95.7
G05
T0
M30
